<svg width="124" height="48" viewBox="0 0 124 48" fill="none" xmlns="http://www.w3.org/2000/svg">
<path d="M117.767 48H6.21178C2.78388 48 0 45.1678 0 41.6803V6.31968C0 2.83223 2.78388 0 6.21178 0H117.788C121.216 0 124 2.83223 124 6.31968V41.6803C123.979 45.1678 121.195 48 117.767 48Z" fill="#006FCF"/>
<mask id="mask0" mask-type="alpha" maskUnits="userSpaceOnUse" x="29" y="11" width="67" height="29">
<path d="M29 11.387V39.2654H95.9584V11.387H29Z" fill="white"/>
</mask>
<g mask="url(#mask0)">
<path d="M87.7522 23.2866H92.7798V11.387H87.4198V13.2892L86.2356 11.387H81.5612V13.7965L80.5225 11.387H72.7941C72.4201 11.387 72.067 11.4081 71.7138 11.4715C71.4229 11.5138 71.1321 11.5772 70.8412 11.6829C70.6127 11.7463 70.4049 11.8308 70.1972 11.9365C69.9479 12.0422 69.7194 12.1901 69.5116 12.3381V11.9365V11.4081H44.249L43.5634 13.4583L42.857 11.387H36.9984V13.8176L35.9389 11.387H31.1398L29 16.4596L26.2814 23.2654H29H32.3863L33.0096 21.5534H34.1938L34.8378 23.2654H60.9315V21.5323L62.2403 23.2654H69.4493V22.885V22.3989C69.6363 22.5257 69.8232 22.6313 70.031 22.7159C70.218 22.8004 70.4257 22.885 70.6335 22.9484C70.8828 23.0329 71.1321 23.0963 71.4021 23.1386C71.8177 23.2232 72.2332 23.2443 72.6279 23.2443H76.9491L77.5724 21.5323H78.7566L79.4006 23.2443H86.6304V21.4689L87.7522 23.2866ZM95.9584 38.5468V27.387H95.3767H54.4288L53.3693 28.9088L52.3305 27.387H40.364V39.2866H52.2682L53.307 37.7436L54.3873 39.2866H61.8248V36.708H61.7417C62.6766 36.708 63.5076 36.5389 64.2555 36.2641V39.2866H69.4493V37.5534L70.7581 39.2866H93.2992C93.9432 39.2866 94.5457 39.1809 95.1066 38.9695C95.3975 38.8427 95.6883 38.7159 95.9584 38.5468Z" fill="#F7F7F7"/>
<mask id="mask1" mask-type="alpha" maskUnits="userSpaceOnUse" x="42" y="29" width="54" height="9">
<path d="M96.0001 37.347V29.3152H42.2131V37.347H96.0001Z" fill="white"/>
</mask>
<g mask="url(#mask1)">
<path d="M93.3408 35.7406H89.2897V37.347H93.2785C94.9821 37.347 96.0001 36.2901 96.0001 34.7895C96.0001 33.3522 95.0859 32.5279 93.5486 32.5279H91.7204C91.2633 32.5279 90.9517 32.232 90.9517 31.767C90.9517 31.2809 91.2633 30.9639 91.7204 30.9639H95.1483L95.8546 29.3364H91.7827C90.0791 29.3364 89.0611 30.3932 89.0611 31.8304C89.0611 33.31 90.0168 34.1554 91.5126 34.1554H93.32C93.7771 34.1554 94.0887 34.4513 94.0887 34.9374C94.1303 35.4024 93.7979 35.7406 93.3408 35.7406ZM85.841 35.7406H81.7898V37.347H85.7787C87.4822 37.347 88.5002 36.2901 88.5002 34.7895C88.5002 33.3522 87.5861 32.5279 86.0487 32.5279H84.2205C83.7635 32.5279 83.4518 32.232 83.4518 31.767C83.4518 31.2809 83.7635 30.9639 84.2205 30.9639H87.6484L88.3548 29.3364H84.2828C82.5793 29.3364 81.5613 30.3932 81.5613 31.8304C81.5613 33.31 82.5169 34.1554 84.0128 34.1554H85.8202C86.2773 34.1554 86.5889 34.4513 86.5889 34.9374C86.6097 35.4024 86.298 35.7406 85.841 35.7406ZM80.6472 30.9427V29.3152H74.3315V37.347H80.6472V35.7195H76.2221V34.1131H80.5433V32.5068H76.2221V30.9427H80.6472ZM70.0726 30.9427C70.7582 30.9427 71.1114 31.3866 71.1114 31.9361C71.1114 32.4857 70.7582 32.9295 70.0726 32.9295H67.8497V30.9427H70.0726ZM67.8497 34.4513H68.743L71.0906 37.347H73.4382L70.8205 34.3879C72.1709 34.1343 72.9604 33.1409 72.9604 31.8727C72.9604 30.372 71.9216 29.3364 70.2388 29.3364H65.9591V37.3681H67.8497V34.4513ZM63.0298 31.9995C63.0298 32.5491 62.6974 32.9929 62.0326 32.9929H59.7681V31.0273H62.0326C62.6974 31.0273 63.0298 31.45 63.0298 31.9995ZM57.8776 29.3152V37.347H59.7681V34.7049H62.1365C63.8608 34.7049 64.9411 33.5636 64.9411 32.0207C64.9411 30.4355 63.9024 29.3364 62.2196 29.3364H57.8776V29.3152ZM55.0937 37.347H57.4621L54.3042 33.31L57.4413 29.3364H55.1352L53.2032 31.8727L51.2711 29.3364H48.9027L52.0605 33.3522L48.9235 37.3681H51.2295L53.1616 34.7895L55.0937 37.347ZM48.508 30.9427V29.3152H42.2131V37.347H48.5287V35.7195H44.1036V34.1131H48.4249V32.5068H44.1036V30.9427H48.508Z" fill="#006FCF"/>
</g>
<path d="M85.1348 16.5445L85.114 15.8893L85.5087 16.5445L88.5211 21.3424H90.7233V13.3107H88.8743V17.9607L88.8951 18.5525L88.5419 17.9607L85.5918 13.3107H83.265V21.3424H85.114V16.5445H85.1348ZM77.5726 16.3121L78.1543 14.8114L78.736 16.3121L79.4424 18.0875H76.9078L77.5726 16.3121ZM80.7097 21.3424H82.8287L79.4631 13.3107H76.9701L73.5838 21.3424H75.599L76.2638 19.6304H80.0241L80.7097 21.3424ZM72.4619 21.3424H72.5658L73.3345 19.6304H72.7528C71.4647 19.6304 70.696 18.8061 70.696 17.39V17.2632C70.696 15.995 71.3816 15.0439 72.732 15.0439H74.7887V13.3107H72.5866C70.1559 13.3107 68.8262 14.9805 68.8262 17.2632V17.4111C68.8055 19.7784 70.1766 21.3213 72.4619 21.3424ZM65.7307 21.3424H67.6213V17.8127V13.3107H65.7307V17.7493V21.3424ZM61.7419 14.9593C62.4275 14.9593 62.7807 15.4032 62.7807 15.9527C62.7807 16.5023 62.4275 16.9461 61.7419 16.9461H59.519V14.9593H61.7419ZM59.519 18.4468H60.4123L62.7599 21.3424H65.1075L62.4898 18.3834C63.8402 18.1298 64.6297 17.1364 64.6297 15.8682C64.6297 14.3675 63.5909 13.3319 61.9081 13.3319H57.6284V21.3636H59.519V18.4468ZM56.2573 14.9382V13.3107H49.9416V21.3424H56.2573V19.6938H51.8321V18.1086H56.1534V16.5023H51.8321V14.9382H56.2573ZM40.5512 15.8682L40.5097 13.6912L42.6911 21.3424H44.3946L46.576 13.7335L46.5345 15.8471V21.3424H48.3627V13.3107H45.0386L43.5428 18.9963L42.0262 13.3107H38.7022V21.3424H40.5304V15.8682H40.5512ZM33.0098 16.3121L33.5915 14.8114L34.1732 16.3121L34.8796 18.0875H32.3242L33.0098 16.3121ZM36.1469 21.3424H38.2867L34.9211 13.3107H32.4281L29.0417 21.3424H31.0569L31.7217 19.6304H35.4821L36.1469 21.3424Z" fill="#006FCF"/>
</g>
</svg>
