<svg width="124" height="48" viewBox="0 0 124 48" fill="none" xmlns="http://www.w3.org/2000/svg">
<rect x="6.10352e-05" width="124" height="47.9622" rx="4" fill="#FFB3C7"/>
<path d="M111.312 30.4641C110.918 30.4656 110.528 30.546 110.164 30.7006C109.8 30.8553 109.47 31.0812 109.193 31.3655C108.915 31.6497 108.696 31.9867 108.547 32.3571C108.398 32.7276 108.322 33.1242 108.325 33.5243C108.322 33.9244 108.398 34.3211 108.547 34.6915C108.696 35.062 108.915 35.399 109.193 35.6832C109.47 35.9674 109.8 36.1934 110.164 36.348C110.528 36.5027 110.918 36.5831 111.312 36.5846C112.96 36.5846 114.299 35.2137 114.299 33.5243C114.301 33.1242 114.226 32.7276 114.077 32.3571C113.928 31.9867 113.708 31.6497 113.431 31.3655C113.153 31.0812 112.824 30.8553 112.46 30.7006C112.096 30.546 111.706 30.4656 111.312 30.4641ZM101.481 28.1007C101.481 25.7856 99.5504 23.9113 97.1683 23.9113C94.7863 23.9113 92.8555 25.7884 92.8555 28.1007C92.8555 30.4129 94.7891 32.2872 97.1711 32.2872C99.5532 32.2872 101.481 30.4129 101.481 28.1007ZM101.498 19.9581H106.256V36.2404H101.498V35.1995C100.111 36.1714 98.4645 36.6912 96.7788 36.6898C92.1465 36.6898 88.3913 32.8446 88.3913 28.1007C88.3913 23.3567 92.1465 19.5115 96.7788 19.5115C98.5303 19.5115 100.153 20.0604 101.498 21.0018V19.9581ZM63.408 22.0797V19.9609H58.5347V36.2404H63.4193V28.6382C63.4193 26.0728 66.132 24.6963 68.0152 24.6963H68.0712V19.9609C66.1376 19.9609 64.3637 20.8084 63.408 22.0797ZM51.2681 28.1007C51.2681 25.7856 49.3373 23.9113 46.9553 23.9113C44.5732 23.9113 42.6424 25.7884 42.6424 28.1007C42.6424 30.4129 44.576 32.2872 46.9581 32.2872C49.3401 32.2872 51.2681 30.4129 51.2681 28.1007ZM51.2849 19.9581H56.0462V36.2404H51.2849V35.1995C49.9398 36.1381 48.3172 36.6898 46.5657 36.6898C41.9334 36.6898 38.1782 32.8446 38.1782 28.1007C38.1782 23.3567 41.9334 19.5115 46.5657 19.5115C48.3172 19.5115 49.9398 20.0604 51.2849 21.0018V19.9581ZM79.9337 19.5229C78.0337 19.5229 76.2345 20.1259 75.0295 21.7925V19.9609H70.2907V36.2404H75.0884V27.6854C75.0884 25.2111 76.7081 23.9967 78.6614 23.9967C80.752 23.9967 81.957 25.2765 81.957 27.6513V36.2404H86.7098V25.888C86.7098 22.0996 83.7673 19.5229 79.9337 19.5229ZM31.2451 36.2404H36.2278V12.7056H31.2451V36.2404ZM9.35852 36.2461H14.6354V12.7H9.36132L9.35852 36.2461ZM27.815 12.7C27.815 17.7965 25.8758 22.5405 22.4176 26.0643L29.7094 36.2461H23.1939L15.2715 25.1826L17.3173 23.6127C18.9827 22.3415 20.332 20.6926 21.2575 18.7978C22.183 16.903 22.659 14.8148 22.6474 12.7H27.8094H27.815Z" fill="#0A0B09"/>
</svg>
