<svg width="124" height="48" viewBox="0 0 124 48" fill="none" xmlns="http://www.w3.org/2000/svg">
<path d="M117.674 48H6.3045C2.82543 48 0 45.1678 0 41.6803V6.31968C0 2.83223 2.82543 0 6.3045 0L117.696 0C121.175 0 124 2.83223 124 6.31968V41.6803C123.979 45.1678 121.153 48 117.674 48Z" fill="#36495D"/>
<path d="M67.8414 13.7169H56.4131V34.3034H67.8414V13.7169Z" fill="#F16522"/>
<path d="M57.1302 24.0105C57.1302 19.8255 59.0912 16.1267 62.1274 13.7172C59.9135 11.9629 57.1091 10.9272 54.0518 10.9272C46.8406 10.9272 41 16.7819 41 24.0105C41 31.239 46.8406 37.0937 54.0518 37.0937C57.0881 37.0937 59.8924 36.058 62.1274 34.3037C59.0912 31.8942 57.1302 28.1743 57.1302 24.0105Z" fill="#E41B24"/>
<path d="M83.2338 24.0103C83.2338 31.2388 77.3931 37.0935 70.182 37.0935C67.1457 37.0935 64.3414 36.0578 62.1063 34.3035C65.1426 31.9152 67.0824 28.1952 67.0824 24.0103C67.0824 19.8253 65.1426 16.1265 62.1063 13.717C64.3203 11.9627 67.1246 10.9271 70.182 10.9271C77.3931 10.9059 83.2338 16.7817 83.2338 24.0103ZM81.9897 32.1054V31.6827H82.1584V31.5981H81.7367V31.6827H81.9054V32.1054H81.9897ZM82.8331 32.1054V31.5981H82.7066L82.559 31.9574L82.4114 31.5981H82.2849V32.1054H82.3693V31.7249L82.5169 32.0631H82.6223L82.7699 31.7249V32.1054H82.8331Z" fill="#F89E1C"/>
</svg>
