<svg width="126" height="49" viewBox="0 0 126 49" fill="none" xmlns="http://www.w3.org/2000/svg">
<rect width="125.382" height="49" rx="4" fill="white"/>
<g clip-path="url(#clip0)">
<path d="M29.8274 19.5713C31.5166 19.5713 32.8854 20.3559 33.4814 21.4809V20.4883C33.4814 20.1732 33.706 19.94 33.9786 19.94H36.165C36.4376 19.94 36.6622 20.1763 36.6622 20.4883V32.0214C36.6622 32.3081 36.4376 32.5445 36.165 32.5445H33.9786C33.703 32.5445 33.4814 32.3081 33.4814 32.0214V31.0004C32.8584 32.1222 31.4927 32.9069 29.8034 32.9069C26.6975 32.9069 23.8132 30.2914 23.8132 26.2139C23.8132 22.1584 26.6706 19.5713 29.8274 19.5713ZM30.2737 29.7935C32.1366 29.7935 33.4784 28.2243 33.4784 26.2359C33.4784 24.2759 32.1366 22.7067 30.2737 22.7067C28.4347 22.7067 27.0419 24.2759 27.0419 26.2359C27.0449 28.2243 28.4347 29.7935 30.2737 29.7935Z" fill="#4341AA"/>
<path d="M17.4606 19.5713C15.7444 19.5713 14.3787 20.3559 13.6838 21.4809V20.4883C13.6838 20.1732 13.4592 19.94 13.1866 19.94H11.0211C10.7486 19.94 10.524 20.1763 10.524 20.4883L10.5 37.1798V36.6157V36.7386V37.0758V37.3342C10.5 37.6209 10.7246 37.8573 10.9972 37.8573H13.2106C13.4861 37.8573 13.7077 37.6209 13.7077 37.3342V37.0758V36.7386V36.6157V37.1798L13.7317 31.1265C14.4535 32.2766 15.9451 32.9068 17.4097 32.9068C20.5905 32.9068 23.3759 30.2914 23.3759 26.2139C23.3759 22.1584 20.6144 19.5713 17.4606 19.5713ZM16.9365 29.7935C15.0975 29.7935 13.7048 28.2243 13.7048 26.2359C13.7048 24.2759 15.0975 22.7067 16.9365 22.7067C18.7994 22.7067 20.1442 24.2759 20.1442 26.2359C20.1442 28.2243 18.8024 29.7935 16.9365 29.7935Z" fill="#4341AA"/>
<path d="M48.993 19.9683H46.6449C46.2735 19.9683 46.0758 20.2298 46.0009 20.5134L44.9706 24.279L43.4701 29.1727L40.9572 20.5134C40.8823 20.2267 40.7116 19.9683 40.4151 19.9683H37.8692C37.3002 19.9683 37.2522 20.359 37.3511 20.7749L40.9602 31.9867C41.083 32.3238 41.2836 32.5066 41.5772 32.5066H42.4487L40.7775 37.0505C40.6037 37.5452 40.7535 37.8572 41.2237 37.8572H43.5719C43.9433 37.8572 44.141 37.5957 44.2158 37.3121L44.3746 36.7259L45.8332 32.5223L49.4393 20.7749C49.61 20.2802 49.4632 19.9683 48.993 19.9683Z" fill="#4341AA"/>
<path d="M70.7583 19.7288C71.0339 19.7288 71.3304 19.858 71.3304 20.381V22.6309C71.3304 23.154 70.9321 23.2832 70.7344 23.2832H70.1384C68.548 23.2832 67.6285 24.1214 67.6285 26.3178V31.9929C67.6285 32.2828 67.3799 32.4908 67.1073 32.4908H64.9209C64.6483 32.4908 64.4237 32.2545 64.4237 31.9677V20.4346C64.4237 20.1195 64.6483 19.8863 64.9209 19.8863H66.9845C67.2571 19.8863 67.4817 20.0943 67.4817 20.3842V21.5848C68.1017 20.4598 69.147 19.7288 70.4139 19.7288H70.7583Z" fill="#08AF97"/>
<path d="M71.6689 16.1176C71.6689 14.9674 72.5645 14 73.6816 14C74.7748 14 75.6704 14.9674 75.6704 16.1176C75.6704 17.2677 74.7748 18.2351 73.6816 18.2351C72.5645 18.2351 71.6689 17.2709 71.6689 16.1176ZM72.5884 32.4877C72.2889 32.4877 72.0673 32.2261 72.0673 31.9394V20.4346C72.0673 20.1195 72.2919 19.8863 72.5884 19.8863H74.7509C75.0474 19.8863 75.272 20.1226 75.272 20.4346V31.9394C75.272 32.2261 75.0474 32.4877 74.7509 32.4877H72.5884Z" fill="#08AF97"/>
<path d="M113.615 30.6316L112.869 29.3491C112.645 29.0088 112.273 29.0088 111.899 29.2451C111.477 29.5319 111.054 29.639 110.755 29.639C110.183 29.639 109.389 29.2735 109.389 28.0162V22.7097H112.869C113.142 22.7097 113.391 22.4481 113.391 22.1614V20.4346C113.391 20.1194 113.142 19.8863 112.869 19.8863H109.389V17.9231V17.7403V17.2362C109.389 16.921 109.165 16.6879 108.892 16.6879H106.706C106.406 16.6879 106.184 16.9242 106.184 17.2362V17.7403V17.9231V19.8863H104.546C104.271 19.8863 104.049 20.1226 104.049 20.4346V22.1614C104.049 22.4481 104.274 22.7097 104.546 22.7097H106.187V28.7756C106.187 31.599 108.2 32.7492 110.165 32.7492C111.558 32.7492 112.774 32.3048 113.543 31.495C113.792 31.2335 113.816 30.9436 113.615 30.6316Z" fill="#08AF97"/>
<path d="M86.2819 32.4624V30.7892C85.6859 31.8101 84.3441 32.5948 82.6519 32.5948C79.3693 32.5948 76.6108 30.1369 76.6108 26.0845C76.6108 22.0322 79.4202 19.5208 82.5261 19.5208C84.2423 19.5208 85.659 20.3306 86.2789 21.4555V20.4346C86.2789 20.1447 86.5036 19.9115 86.7761 19.9115H88.9386C89.2381 19.9115 89.4597 20.1478 89.4597 20.4346V32.5664C89.4597 36.0705 86.9978 38.5 83.0233 38.5C79.8185 38.5 77.4734 36.3604 76.9043 33.9561C76.8294 33.7449 76.8803 33.5118 77.1529 33.433L79.519 33.4298C79.8155 33.4267 79.9922 33.455 80.0911 33.6662C80.3636 34.6083 81.2831 35.6009 83.0982 35.6009C85.2157 35.5978 86.2819 34.3436 86.2819 32.4624ZM83.0532 29.5854C84.9162 29.5854 86.258 28.095 86.258 26.1066C86.258 24.1182 84.9162 22.6278 83.0532 22.6278C81.2142 22.6278 79.8455 24.1182 79.8455 26.1066C79.8455 28.095 81.2112 29.5854 83.0532 29.5854Z" fill="#08AF97"/>
<path d="M57.553 19.4862C55.8398 19.4862 54.4471 20.296 53.851 21.3422V18.711L53.8271 15.1439C53.8271 14.854 53.5785 14.6208 53.3059 14.6208H51.1435C50.8439 14.6208 50.6223 14.8572 50.6223 15.1439L50.6463 18.711V31.9331C50.6463 32.2199 50.8709 32.4562 51.1674 32.4562H53.3299C53.6024 32.4562 53.8271 32.2199 53.8271 31.9331V30.9122C54.5249 32.0371 55.8158 32.8217 57.505 32.8217C60.6619 32.8217 63.4952 30.2063 63.4952 26.1288C63.4922 22.0733 60.6349 19.4862 57.553 19.4862ZM57.0318 29.7084C55.1928 29.7084 53.8241 28.1392 53.8241 26.1508C53.8241 24.1908 55.1898 22.6216 57.0318 22.6216C58.8708 22.6216 60.2635 24.1908 60.2635 26.1508C60.2605 28.1392 58.8708 29.7084 57.0318 29.7084Z" fill="#08AF97"/>
<path d="M98.496 19.486C96.5821 19.486 95.2133 20.3242 94.5185 21.342V18.5785V15.1123C94.5185 14.8255 94.2699 14.6144 93.9973 14.6144H91.8109C91.5384 14.6144 91.3137 14.8507 91.3137 15.1375V18.5753V31.9267C91.3137 32.2134 91.5384 32.4497 91.8109 32.4497H93.9973C94.2699 32.4497 94.5185 32.2418 94.5185 31.9519V25.8639C94.5185 23.9039 95.7105 22.5962 97.5255 22.5962C99.3885 22.5962 100.434 23.8787 100.434 25.8639V31.955C100.434 32.2449 100.682 32.4529 100.955 32.4529H103.117C103.39 32.4529 103.639 32.2449 103.639 31.955V24.9501C103.642 21.8399 101.68 19.486 98.496 19.486Z" fill="#08AF97"/>
</g>
<defs>
<clipPath id="clip0">
<rect width="103.25" height="24.5" fill="white" transform="translate(10.5 14)"/>
</clipPath>
</defs>
</svg>
