<svg width="124" height="49" viewBox="0 0 124 49" fill="none" xmlns="http://www.w3.org/2000/svg">
<path d="M117.121 48.0149H6.35748C2.84917 48.0149 0 45.1818 0 41.6933V6.32165C0 2.83311 2.84917 0 6.35748 0H117.143C120.651 0 123.5 2.83311 123.5 6.32165V41.6933C123.479 45.1818 120.63 48.0149 117.121 48.0149Z" fill="white"/>
<path fill-rule="evenodd" clip-rule="evenodd" d="M41.2063 16.7027C43.046 16.7027 44.7435 17.7096 44.5113 20.2191C44.2298 23.2016 42.6463 24.8518 40.1479 24.8589H37.9647C37.6509 24.8589 37.4988 25.1174 37.4172 25.6471L36.9949 28.3554C36.9316 28.7645 36.7233 28.9661 36.4164 28.9661H34.3853C34.0616 28.9661 33.949 28.7574 34.0208 28.2901L35.6972 17.4356C35.7802 16.9016 35.9787 16.7027 36.3404 16.7027H41.2021H41.2063ZM37.8986 22.5142H39.5525C40.587 22.4744 41.2739 21.7515 41.3429 20.4478C41.3851 19.6425 40.846 19.0659 39.9888 19.0702L38.432 19.0773L37.8986 22.5142ZM50.0331 28.1353C50.2189 27.9649 50.4075 27.8768 50.3808 28.087L50.3146 28.5898C50.2809 28.8525 50.3836 28.9917 50.6257 28.9917H52.4302C52.7342 28.9917 52.882 28.8681 52.9566 28.3938L54.0686 21.3525C54.1249 20.9988 54.039 20.8256 53.773 20.8256H51.7884C51.6096 20.8256 51.5223 20.9264 51.4759 21.2019L51.4027 21.6351C51.3647 21.8609 51.2619 21.9007 51.1662 21.6734C50.8298 20.8696 49.9712 20.5089 48.7734 20.5373C45.9906 20.5955 44.1144 22.7272 43.9131 25.4597C43.7582 27.5729 45.2587 29.2331 47.2377 29.2331C48.6734 29.2331 49.3153 28.8071 50.0388 28.1396L50.0331 28.1353ZM48.5214 27.0517C47.3236 27.0517 46.4889 26.0874 46.662 24.9058C46.8352 23.7242 47.9556 22.7599 49.1534 22.7599C50.3512 22.7599 51.1859 23.7242 51.0128 24.9058C50.8397 26.0874 49.7207 27.0517 48.5214 27.0517ZM57.6002 20.8028H55.7703C55.3931 20.8028 55.2397 21.0869 55.3593 21.4362L57.6311 28.1481L55.403 31.3421C55.2158 31.6091 55.3607 31.852 55.6239 31.852H57.6804C57.8002 31.866 57.9215 31.8449 58.0299 31.7912C58.1382 31.7376 58.2289 31.6537 58.2913 31.5495L65.2784 21.4377C65.4937 21.1266 65.3924 20.8 65.0391 20.8H63.0924C62.7589 20.8 62.6251 20.9335 62.4337 21.2133L59.5201 25.4739L58.2181 21.2033C58.1421 20.9449 57.952 20.8028 57.6016 20.8028H57.6002Z" fill="#113984"/>
<path fill-rule="evenodd" clip-rule="evenodd" d="M72.5473 16.7036C74.387 16.7036 76.0845 17.7105 75.8523 20.22C75.5708 23.2025 73.9873 24.8527 71.4888 24.8598H69.3071C68.9932 24.8598 68.8412 25.1183 68.7596 25.648L68.3373 28.3563C68.274 28.7654 68.0656 28.967 67.7588 28.967H65.7277C65.4039 28.967 65.2913 28.7583 65.3631 28.291L67.0423 17.4336C67.1254 16.8996 67.3239 16.7008 67.6856 16.7008H72.5473V16.7036ZM69.2395 22.5151H70.8934C71.928 22.4753 72.6149 21.7524 72.6839 20.4487C72.7261 19.6434 72.187 19.0668 71.3298 19.0711L69.773 19.0782L69.2395 22.5151ZM81.3742 28.1362C81.56 27.9658 81.7486 27.8777 81.7218 28.0879L81.6557 28.5907C81.6219 28.8534 81.7246 28.9926 81.9668 28.9926H83.7712C84.0753 28.9926 84.2231 28.869 84.2977 28.3947L85.4097 21.3533C85.466 20.9997 85.3801 20.8265 85.1141 20.8265H83.1322C82.9535 20.8265 82.8662 20.9273 82.8197 21.2028L82.7465 21.636C82.7085 21.8618 82.6058 21.9015 82.5101 21.6743C82.1737 20.8705 81.3151 20.5098 80.1172 20.5382C77.3345 20.5964 75.4582 22.7281 75.2569 25.4606C75.1021 27.5738 76.6025 29.234 78.5816 29.234C80.0173 29.234 80.6591 28.808 81.3826 28.1405L81.3742 28.1362ZM79.8639 27.0526C78.666 27.0526 77.8313 26.0883 78.0045 24.9067C78.1776 23.7251 79.298 22.7608 80.4959 22.7608C81.6937 22.7608 82.5284 23.7251 82.3552 24.9067C82.1821 26.0883 81.0617 27.0526 79.8639 27.0526ZM88.1868 29.004H86.1036C86.0674 29.0056 86.0312 28.9991 85.9977 28.985C85.9643 28.971 85.9343 28.9496 85.9099 28.9224C85.8856 28.8953 85.8675 28.8631 85.8569 28.8281C85.8464 28.7931 85.8436 28.7561 85.8488 28.7199L87.6787 17.0232C87.6961 16.9433 87.7398 16.8718 87.8027 16.8202C87.8656 16.7687 87.9439 16.7401 88.0249 16.7391H90.1081C90.1443 16.7375 90.1805 16.7439 90.214 16.758C90.2474 16.7721 90.2774 16.7935 90.3018 16.8206C90.3261 16.8478 90.3442 16.88 90.3548 16.915C90.3653 16.95 90.3681 16.9869 90.3629 17.0232L88.533 28.7199C88.5161 28.8003 88.4726 28.8724 88.4097 28.9246C88.3468 28.9767 88.2682 29.0057 88.1868 29.0068V29.004Z" fill="#009EE3"/>
</svg>
