<svg width="124" height="48" viewBox="0 0 124 48" fill="none" xmlns="http://www.w3.org/2000/svg">
<path d="M117.581 48H6.39721C2.86698 48 0 45.1678 0 41.6803V6.31968C0 2.83223 2.86698 0 6.39721 0H117.603C121.133 0 124 2.83223 124 6.31968V41.6803C123.979 45.1678 121.112 48 117.581 48Z" fill="#0066B2"/>
<path d="M57.2752 35.0045H51.5795L55.1393 13.4021H60.835L57.2752 35.0045Z" fill="white"/>
<path d="M46.7654 13.4021L41.3409 28.2726L40.6968 25.0573L38.7643 15.3446C38.7643 15.3446 38.527 13.4021 36.0521 13.4021H27.1017L27 13.7705C27 13.7705 29.7461 14.3399 32.9669 16.2489L37.9167 35.038H43.8498L52.9018 13.4356H46.7654V13.4021Z" fill="white"/>
<path d="M91.5848 35.0045H96.8059L92.2629 13.4021H87.686C85.584 13.4021 85.0415 15.0097 85.0415 15.0097L76.5319 35.0045H82.4649L83.6515 31.7892H90.9067L91.5848 35.0045ZM85.3128 27.3683L88.2962 19.2967L89.9914 27.3683H85.3128Z" fill="white"/>
<path d="M76.9728 18.5932L77.7864 13.9378C77.7864 13.9378 75.2776 13 72.6671 13C69.8532 13 63.1404 14.2057 63.1404 20.1673C63.1404 25.7605 71.0059 25.8274 71.0059 28.7413C71.0059 31.6551 63.9541 31.1527 61.6148 29.3106L60.7672 34.167C60.7672 34.167 63.3099 35.3727 67.2087 35.3727C71.1076 35.3727 76.9728 33.3967 76.9728 27.9709C76.9728 22.3443 69.0395 21.8419 69.0395 19.397C69.0056 16.9521 74.5657 17.287 76.9728 18.5932Z" fill="white"/>
<path d="M40.6968 25.0573L38.7643 15.3446C38.7643 15.3446 38.527 13.4021 36.0521 13.4021H27.1017L27 13.7705C27 13.7705 31.3057 14.6413 35.4418 17.957C39.4085 21.1388 40.6968 25.0573 40.6968 25.0573Z" fill="#F9A533"/>
</svg>
