<svg width="63" height="40" viewBox="0 0 63 40" fill="none" xmlns="http://www.w3.org/2000/svg">
<g clip-path="url(#clip0)">
<path fill-rule="evenodd" clip-rule="evenodd" d="M62.3038 0V40H0V0H62.3038Z" fill="#FECC00"/>
<path fill-rule="evenodd" clip-rule="evenodd" d="M20.0821 18.8843C19.802 19.2417 19.3673 19.8503 19.1162 20.2656C18.9809 20.4588 18.7008 20.7873 19.5605 20.7873H24.0039C24.0039 20.7873 24.7187 19.8213 25.2982 19.0292C26.129 17.928 25.3852 15.6194 22.4583 15.6194H10.9635L8.9447 18.3531H19.802C20.3526 18.3531 20.3526 18.5752 20.0821 18.9326V18.8843ZM16.8172 21.4441C15.9865 21.4441 16.2376 21.1157 16.3729 20.9225C16.653 20.5361 17.1166 19.9082 17.3968 19.5412C17.6769 19.1741 17.6769 18.9616 17.1166 18.9616H12.1517L8.14296 24.3902H17.8991C18.9931 24.3861 20.0703 24.121 21.0414 23.617C22.0124 23.113 22.8492 22.3847 23.4823 21.4924L16.8172 21.4441ZM23.1731 24.3419H28.8916L31.0456 21.4441H25.3272L23.1731 24.3419ZM37.9232 15.5615L35.7402 18.5849H33.1707L35.3828 15.6098H29.6643L25.8005 20.7873H39.8068L43.6223 15.6098L37.9232 15.5615ZM31.432 24.3419H37.1504L39.3335 21.4441H33.6054L31.4224 24.3419H31.432ZM0 22.6322V23.2408H7.94977L8.42309 22.6322H0ZM9.28278 21.4441H0V22.0816H8.80947L9.28278 21.4441ZM0 24.3902H7.09973L7.57305 23.7817H0V24.3902ZM53.9097 23.2311H62.3038V22.6226H54.383L53.9097 23.2311ZM53.05 24.3902H62.3038V23.7817H53.5233L53.05 24.3902ZM55.233 21.4924L54.7597 22.1299H62.3038V21.4441L55.233 21.4924ZM47.7179 20.8355L51.5817 15.6581H45.5156L41.6518 20.8355H47.7179ZM41.1688 21.4924L40.5603 22.3424C39.8455 23.3084 40.4733 24.4385 42.8206 24.4385H51.9874L54.1705 21.5407L41.1688 21.4924Z" fill="#D50029"/>
</g>
<defs>
<clipPath id="clip0">
<rect width="62.3038" height="40" fill="white"/>
</clipPath>
</defs>
</svg>
