<svg width="145" height="40" viewBox="0 0 145 40" fill="none" xmlns="http://www.w3.org/2000/svg">
<g clip-path="url(#clip0)">
<path d="M143.167 34.7511C143.167 32.5792 141.539 30.9502 139.367 30.9502C137.195 30.9502 135.566 32.5792 135.566 34.7511C135.566 36.9231 137.195 38.552 139.367 38.552C141.72 38.552 143.167 36.9231 143.167 34.7511ZM138.462 34.9321V37.4661H137.738V31.8552H139.729C140.996 31.8552 141.539 32.3982 141.539 33.3032C141.539 33.8462 141.177 34.3892 140.634 34.5701C141.177 34.5701 141.358 35.1131 141.358 35.8371C141.358 36.3801 141.539 37.1041 141.72 37.4661H140.815C140.634 36.9231 140.634 36.1991 140.453 35.6561C140.272 35.1131 140.091 34.9321 139.548 34.9321H138.462ZM139.548 34.2082C140.272 34.2082 140.634 33.8462 140.634 33.4842C140.634 33.1222 140.453 32.7602 139.548 32.7602H138.462V34.3892H139.548V34.2082ZM134.842 34.7511C134.842 32.0362 137.014 30.2263 139.548 30.2263C142.081 30.2263 144.253 32.0362 144.253 34.7511C144.253 37.4661 142.081 39.276 139.548 39.276C137.014 39.276 134.842 37.4661 134.842 34.7511Z" fill="#EE7203"/>
<path d="M118.733 38.552L113.484 32.5792L108.235 38.552H97.0137L107.873 26.2443L97.0137 14.1176H108.597L113.846 20.0905L119.095 14.1176H130.136L119.276 26.2443L130.317 38.552H118.733Z" fill="#EE7203"/>
<path d="M75.6561 38.552V0H97.0136V8.50679H84.7059V14.1176H97.0136V22.2624H84.7059V29.8643H97.0136V38.552H75.6561Z" fill="#EE7203"/>
<path d="M66.6063 0V15.7466H66.4253C64.6154 13.3937 62.0814 12.6697 59.1855 12.6697C53.2127 12.6697 48.8688 16.6516 47.2398 22.0814C45.4299 16.2896 40.905 12.6697 34.0271 12.6697C28.4163 12.6697 24.0724 15.2036 21.7195 19.1855V14.1176H10.3167V8.68778H22.8054V0H0V38.552H10.3167V22.4434H20.4525C20.0905 23.5294 19.9095 24.7964 19.9095 26.0633C19.9095 34.0271 26.0633 39.819 33.8462 39.819C40.362 39.819 44.7059 36.7421 47.0588 31.1312H38.371C37.1041 32.7602 36.1991 33.3032 33.8462 33.3032C31.1312 33.3032 28.7783 30.9502 28.7783 28.0543H46.6968C47.4208 34.3891 52.4887 40 59.1855 40C62.0814 40 64.7964 38.552 66.4253 36.0181H66.6063V38.552H75.6561V0H66.6063ZM29.1403 22.4434C29.6833 19.9095 31.6742 18.4615 34.0271 18.4615C36.5611 18.4615 38.371 20.0905 38.914 22.4434C39.095 22.4434 29.1403 22.4434 29.1403 22.4434ZM61.1765 32.5792C57.9185 32.5792 55.7466 29.5023 55.7466 26.2443C55.7466 22.8054 57.5566 19.5475 61.1765 19.5475C64.9774 19.5475 66.4253 22.8054 66.4253 26.2443C66.4253 29.6833 64.7964 32.5792 61.1765 32.5792Z" fill="#482683"/>
</g>
<defs>
<clipPath id="clip0">
<rect width="144.072" height="40" fill="white"/>
</clipPath>
</defs>
</svg>
