<svg width="35" height="40" viewBox="0 0 35 40" fill="none" xmlns="http://www.w3.org/2000/svg">
<path d="M34.0815 23.9513V3.68331C27.6119 0.244901 19.6936 0 17.5999 0H16.5183C14.4147 0 6.47658 0.244901 0.00699516 3.68331V23.5399C-0.0571706 25.4434 0.320804 27.3361 1.11197 29.0731C1.90313 30.8101 3.0865 32.3454 4.57143 33.5612C7.54823 35.9318 17.0542 39.9874 17.0542 39.9874C17.0542 39.9874 26.5899 35.9416 29.5369 33.5612C30.9675 32.3912 32.1173 30.9223 32.9032 29.2605C33.6891 27.5986 34.0915 25.7853 34.0815 23.9513Z" fill="#FFB507"/>
<path d="M27.0463 37.747C27.3341 37.747 27.3539 37.8842 27.3539 38.0311C27.3539 38.1781 27.2944 38.3152 26.8975 38.3152V37.7568L27.0463 37.747ZM26.5105 37.4629V39.4222H26.8776V38.5601H26.9372L27.4432 39.3732H27.8699L27.2944 38.5601C27.4153 38.5433 27.5257 38.483 27.6045 38.3908C27.6832 38.2986 27.7247 38.181 27.7211 38.0605C27.7211 37.7764 27.5524 37.5021 27.0662 37.5021L26.5105 37.4629ZM27.0761 36.8458C26.7614 36.8497 26.4549 36.9452 26.195 37.1204C25.9352 37.2956 25.7335 37.5427 25.6153 37.8306C25.4972 38.1185 25.4678 38.4345 25.5308 38.7389C25.5939 39.0433 25.7466 39.3225 25.9698 39.5415C26.193 39.7605 26.4768 39.9095 26.7855 39.9699C27.0941 40.0303 27.414 39.9993 27.705 39.8809C27.9959 39.7625 28.2449 39.5619 28.4208 39.3042C28.5966 39.0466 28.6915 38.7434 28.6935 38.4328C28.6962 38.2228 28.6561 38.0144 28.5757 37.82C28.4952 37.6257 28.376 37.4492 28.2251 37.3012C28.0743 37.1532 27.8948 37.0366 27.6974 36.9583C27.5 36.8801 27.2888 36.8418 27.0761 36.8458ZM28.4057 38.4328C28.4038 38.6896 28.3249 38.9401 28.1792 39.1529C28.0334 39.3656 27.8272 39.5311 27.5865 39.6285C27.3457 39.7259 27.0812 39.7509 26.8261 39.7003C26.5711 39.6497 26.3368 39.5258 26.1529 39.3442C25.9689 39.1626 25.8434 38.9313 25.7922 38.6795C25.7409 38.4277 25.7662 38.1665 25.8649 37.9289C25.9635 37.6912 26.1312 37.4876 26.3467 37.3437C26.5622 37.1998 26.8159 37.122 27.0761 37.1201C27.2511 37.1188 27.4246 37.1518 27.5865 37.2174C27.7484 37.2829 27.8955 37.3795 28.0192 37.5017C28.143 37.6238 28.2409 37.769 28.3072 37.9289C28.3736 38.0887 28.407 38.26 28.4057 38.4328Z" fill="#FFB507"/>
<path d="M1.36637 23.5398C1.3063 25.2447 1.64057 26.9406 2.34378 28.4988C3.047 30.057 4.10066 31.4366 5.42475 32.5326C7.80619 34.4918 15.0398 37.6461 17.0541 38.5375C19.0387 37.6461 26.2723 34.4624 28.6538 32.5326C29.9885 31.4433 31.0521 30.0661 31.7626 28.5069C32.4732 26.9478 32.8116 25.2485 32.7518 23.5398V3.96737C22.6803 3.04654 10.7929 3.60492 1.37629 12.0883L1.36637 23.5398Z" fill="#341B13" stroke="#141515" stroke-width="0.23" stroke-miterlimit="10"/>
<path d="M26.5006 20.797C27.8302 21.5513 28.3462 22.0509 28.376 23.0011C28.386 23.2301 28.3457 23.4585 28.2578 23.6706C28.1699 23.8828 28.0365 24.0736 27.8668 24.23C27.6971 24.3864 27.4951 24.5046 27.2746 24.5766C27.0542 24.6485 26.8206 24.6725 26.5899 24.6468C25.516 24.5562 24.5001 24.1269 23.6925 23.4223V26.1554C24.699 26.746 25.8457 27.0636 27.0166 27.0762C27.565 27.1135 28.1153 27.0404 28.6343 26.8613C29.1532 26.6822 29.6299 26.401 30.0354 26.0345C30.4408 25.6681 30.7667 25.2242 30.9932 24.7297C31.2196 24.2352 31.342 23.7004 31.3528 23.1578C31.4123 21.4239 30.9261 20.1406 28.4355 18.6908C27.3043 18.0247 26.451 17.6035 26.451 16.5455C26.451 15.4875 27.3539 15.1251 28.2073 15.1251C29.2336 15.173 30.201 15.6119 30.9063 16.3496V13.734C29.9617 13.03 28.7932 12.6826 27.6119 12.7544C26.5609 12.7387 25.5465 13.1352 24.7913 13.857C24.036 14.5787 23.6016 15.5667 23.5833 16.6043C23.5833 18.1716 24.0398 19.3668 26.5006 20.797ZM16.2901 15.3504C16.6324 15.2079 17.0002 15.1346 17.3717 15.1349C19.0983 15.1349 19.8127 16.5063 19.8127 19.8272C19.8127 23.148 18.9891 24.6272 17.2626 24.6272C16.9224 24.6233 16.5859 24.5569 16.2703 24.4313L16.2901 15.3504ZM16.2901 26.8509C16.7333 26.9682 17.1908 27.0243 17.6495 27.0175C20.9736 27.0175 22.8986 24.0786 22.8986 19.7292C22.8986 15.3798 20.9141 12.7446 17.3419 12.7446C15.9132 12.6959 14.5016 13.0639 13.2836 13.8026V33.0812H16.2604L16.2901 26.8509ZM7.21088 27.0762C8.81016 27.149 10.3943 26.7426 11.7555 25.9105V13.0679H8.77867V24.206C8.35322 24.4646 7.85882 24.5909 7.35972 24.5684C5.97055 24.5684 5.77209 23.3146 5.77209 22.4721V13.0679H2.79529V22.3643C2.79529 25.4893 4.30354 27.086 7.28034 27.086L7.21088 27.0762Z" fill="#FFB507"/>
</svg>
