<svg width="153" height="25" viewBox="0 0 153 25" fill="none" xmlns="http://www.w3.org/2000/svg">
<path fill-rule="evenodd" clip-rule="evenodd" d="M153 21.4286C153 23.0952 151.692 24.3651 149.974 24.3651C148.257 24.3651 146.949 23.0952 146.949 21.4286C146.949 19.7619 148.257 18.4921 149.974 18.4921C151.692 18.4921 153 19.8413 153 21.4286ZM147.439 21.4286C147.439 22.8571 148.502 23.9683 149.974 23.9683C151.446 23.9683 152.509 22.8571 152.509 21.4286C152.509 20 151.446 18.8889 149.974 18.8889C148.502 18.9683 147.439 20.0794 147.439 21.4286ZM149.32 23.1746H148.911V19.7619H150.22C151.037 19.7619 151.365 20.0794 151.365 20.7143C151.365 21.3492 150.956 21.5873 150.465 21.6667L151.528 23.1746H151.037L150.056 21.6667H149.32V23.1746ZM149.893 21.2698C150.383 21.2698 150.956 21.2698 150.956 20.7143C150.956 20.2381 150.547 20.1587 150.138 20.1587H149.32V21.3492H149.893V21.2698Z" fill="#203F92"/>
<path fill-rule="evenodd" clip-rule="evenodd" d="M35.8172 25L41.2961 0H5.47889L0 25H35.8172Z" fill="white"/>
<path fill-rule="evenodd" clip-rule="evenodd" d="M6.21488 1.03175C6.21488 1.03175 26.1678 5 26.5767 5.07937C31.1561 5.87302 30.9925 6.74603 30.9925 6.74603C34.1817 6.74603 34.5906 6.8254 35.163 7.30159C36.8803 8.65079 34.1 12.6984 34.1 12.6984C33.6911 12.9365 4.08875 24.0476 4.08875 24.0476H35.0813L40.1513 0.873016H6.21488V1.03175Z" fill="#203F92"/>
<path fill-rule="evenodd" clip-rule="evenodd" d="M29.4388 8.57144C28.9481 8.80953 27.8033 8.8889 27.2309 8.96826C26.6584 9.04763 26.5767 9.04763 26.5767 9.28572C26.5767 9.44445 26.6584 9.60318 27.3944 9.60318C29.1117 9.60318 32.3009 8.96826 33.2004 9.28572C33.691 9.44445 33.2822 10.3175 32.8733 11.4286C32.7097 11.9048 33.0368 11.8254 33.2004 11.6667C33.3639 11.5079 34.1817 10 34.2635 9.28572C34.427 8.25398 33.4457 8.09525 32.2191 8.09525H30.2565C30.1747 8.09525 30.093 8.17461 29.9294 8.33334C29.8476 8.33334 29.6841 8.41271 29.4388 8.57144Z" fill="#203F92"/>
<path fill-rule="evenodd" clip-rule="evenodd" d="M5.06995 6.26984L1.14478 24.0476C1.14478 24.0476 13.0838 18.3333 14.5558 17.6191C17.5814 16.1111 21.6702 14.127 25.5136 12.8571C26.2495 12.6191 29.357 11.6667 31.156 11.3492C31.892 11.1905 32.1373 11.1111 32.1373 10.9524C32.1373 10.5556 31.4013 10.5556 30.1747 10.6349C26.4949 10.7937 19.544 13.4921 17.4997 14.5238L15.21 7.69842H29.7658C30.42 5.95238 21.1795 6.19048 20.8524 6.11111H5.06995V6.26984Z" fill="#203F92"/>
<path fill-rule="evenodd" clip-rule="evenodd" d="M48.6558 9.76192C46.2844 9.76192 44.8942 8.80954 45.3848 6.82541C46.1208 3.25398 46.6115 0.952393 46.6115 0.952393H48.574C48.574 0.952393 47.3474 6.34922 47.4292 6.26985C47.1021 7.61906 47.4292 8.41271 48.9011 8.41271C50.3731 8.41271 51.109 7.61906 51.3544 6.26985C51.5179 5.4762 52.4992 0.952393 52.4992 0.952393H54.4618C53.1534 6.82541 54.4618 0.952393 53.1534 6.82541C52.8263 8.80954 51.0273 9.76192 48.6558 9.76192Z" fill="#203F92"/>
<path fill-rule="evenodd" clip-rule="evenodd" d="M62.3939 9.60319H59.9407L57.7328 3.17461L56.3426 9.60319H54.5436L56.5062 0.952393H59.0412L61.1673 7.46033L62.5575 0.952393H64.3565L62.3939 9.60319Z" fill="#203F92"/>
<path fill-rule="evenodd" clip-rule="evenodd" d="M66.319 9.60319H64.3564L66.2373 0.952393H68.1999L66.319 9.60319Z" fill="#203F92"/>
<path fill-rule="evenodd" clip-rule="evenodd" d="M76.7044 2.3016H73.9241L72.3704 9.60319H70.4078L71.9615 2.3016H69.1812L69.5083 0.952393H77.0315L76.7044 2.3016Z" fill="#203F92"/>
<path fill-rule="evenodd" clip-rule="evenodd" d="M84.5548 2.3016H80.0572L79.5665 4.60319H83.4917L83.1646 5.87303H79.2394L78.7488 8.25398H83.2464L82.9193 9.60319H76.4591L78.3399 0.952393H84.8001L84.5548 2.3016Z" fill="#203F92"/>
<path fill-rule="evenodd" clip-rule="evenodd" d="M88.3982 9.60319H84.3912L86.272 0.952393H90.6061C93.3047 0.952393 94.2042 2.69842 93.7953 4.92065C93.3046 8.01588 90.9332 9.60319 88.3982 9.60319ZM89.9519 2.3016H87.9075L86.5991 8.25398H87.9893C90.1972 8.25398 91.5056 6.82541 91.8327 4.92065C92.1598 3.49207 91.5874 2.3016 89.9519 2.3016Z" fill="#203F92"/>
<path fill-rule="evenodd" clip-rule="evenodd" d="M103.445 2.3016C103.445 2.3016 102.055 2.3016 101.319 2.3016C100.255 2.3016 99.7648 2.53969 99.683 2.93652C99.3559 4.28573 103.199 5.39684 102.872 7.53969C102.709 8.73017 101.564 9.60319 99.1106 9.60319H96.085L96.4121 8.25398H98.8653C99.6013 8.25398 100.501 8.25398 100.746 7.53969C101.073 6.26985 97.2298 5.07938 97.5569 3.01588C97.7205 1.74604 98.8653 0.952393 101.237 0.952393C101.237 0.952393 103.935 0.952393 103.854 0.952393L103.445 2.3016Z" fill="#203F92"/>
<path fill-rule="evenodd" clip-rule="evenodd" d="M111.949 2.3016H109.169L107.615 9.60319H105.653L107.206 2.3016H104.426L104.753 0.952393H112.276L111.949 2.3016Z" fill="#203F92"/>
<path fill-rule="evenodd" clip-rule="evenodd" d="M112.358 9.60319L113.094 8.25398H115.956L115.138 2.61906L111.213 9.60319H109.251L114.321 0.952393H116.692L118.082 9.60319H112.358Z" fill="#203F92"/>
<path fill-rule="evenodd" clip-rule="evenodd" d="M126.096 2.3016H123.316L121.762 9.60319H119.8L121.353 2.3016H118.573L118.9 0.952393H126.423L126.096 2.3016Z" fill="#203F92"/>
<path fill-rule="evenodd" clip-rule="evenodd" d="M133.865 2.3016H129.367L128.876 4.60319H132.802L132.556 5.87303H128.631L128.059 8.25398H132.638L132.311 9.60319H125.851L127.732 0.952393H134.192L133.865 2.3016Z" fill="#203F92"/>
<path fill-rule="evenodd" clip-rule="evenodd" d="M140.897 2.3016C140.897 2.3016 139.507 2.3016 138.771 2.3016C137.708 2.3016 137.218 2.53969 137.136 2.93652C136.809 4.28573 140.652 5.39684 140.325 7.53969C140.161 8.73017 139.017 9.60319 136.563 9.60319H133.538L133.865 8.25398H136.318C137.054 8.25398 137.954 8.25398 138.199 7.53969C138.444 6.26985 134.683 5.07938 135.01 3.01588C135.173 1.74604 136.318 0.952393 138.69 0.952393H141.306L140.897 2.3016Z" fill="#203F92"/>
<path fill-rule="evenodd" clip-rule="evenodd" d="M45.9572 20.7937C45.6301 20.7937 45.303 20.7143 45.0577 20.7143L44.9759 19.4445C45.2212 19.4445 45.5483 19.5238 45.8754 19.5238C47.1838 19.5238 47.6745 18.6508 47.838 18.0952C48.0834 17.1429 47.5927 16.8254 46.8567 16.8254H45.2212L43.5858 24.127H41.6232L43.504 15.4762H47.7563C49.7188 15.4762 49.8824 17.1429 49.6371 18.1746C49.31 19.7619 47.7563 20.7937 45.9572 20.7937Z" fill="#203F92"/>
<path fill-rule="evenodd" clip-rule="evenodd" d="M54.053 24.2063C51.2726 24.2063 49.7189 22.1428 50.2913 19.6825C50.9455 16.5873 53.2352 15.1587 56.0155 15.1587C58.7959 15.1587 60.3496 17.0635 59.7772 19.6825C59.0412 22.8571 56.8333 24.2063 54.053 24.2063ZM55.6884 16.5873C53.8894 16.5873 52.7446 17.6984 52.2539 19.6825C51.8451 21.3492 52.4992 22.7778 54.2983 22.7778C56.0973 22.7778 57.2422 21.5873 57.7328 19.6825C58.1417 17.9365 57.4875 16.5873 55.6884 16.5873Z" fill="#203F92"/>
<path fill-rule="evenodd" clip-rule="evenodd" d="M66.8914 16.746C66.8914 16.746 65.5013 16.746 64.7653 16.746C63.7022 16.746 63.2116 16.9841 63.1298 17.3809C62.8027 18.7302 66.7279 19.8413 66.319 21.9841C66.1555 23.1746 65.0106 24.0476 62.5574 24.0476H59.5317L59.8588 22.6984H62.3121C63.048 22.6984 63.9476 22.6984 64.1929 21.9841C64.4382 20.7143 60.6766 19.5238 61.0037 17.4603C61.1672 16.1905 62.3121 15.3968 64.6835 15.3968H67.3003L66.8914 16.746Z" fill="#203F92"/>
<path fill-rule="evenodd" clip-rule="evenodd" d="M75.4778 16.746H72.6975L71.062 24.0476H69.0994L70.7349 16.746H67.9546L68.2817 15.3968H75.8049L75.4778 16.746Z" fill="#203F92"/>
<path fill-rule="evenodd" clip-rule="evenodd" d="M75.805 24.0476L76.6227 22.6984H79.403L78.6671 17.1429L74.7419 24.0476H72.7793L77.8493 15.3968H80.2208L81.6109 24.0476H75.805Z" fill="#203F92"/>
<path fill-rule="evenodd" clip-rule="evenodd" d="M88.7253 24.0476H82.674L84.5548 15.3968H86.5173L84.9636 22.6984H88.9706L88.7253 24.0476Z" fill="#203F92"/>
<path fill-rule="evenodd" clip-rule="evenodd" d="M99.3559 16.746C99.3559 16.746 97.9658 16.746 97.2298 16.746C96.1667 16.746 95.6761 16.9841 95.5943 17.3809C95.2672 18.7302 99.1924 19.8413 98.7835 21.9841C98.62 23.1746 97.4751 24.0476 95.0219 24.0476H91.9962L92.3233 22.6984H94.7766C95.5125 22.6984 96.412 22.6984 96.6574 21.9841C96.9027 20.7143 93.1411 19.5238 93.4682 17.4603C93.6317 16.1905 94.7766 15.3968 97.148 15.3968C97.148 15.3968 99.8466 15.3968 99.7648 15.3968L99.3559 16.746Z" fill="#203F92"/>
<path fill-rule="evenodd" clip-rule="evenodd" d="M107.533 16.746H103.036L102.545 19.0476H106.47L106.225 20.3175H102.3L101.727 22.6984H106.225L105.98 24.0476H99.4377L101.4 15.3968H107.861L107.533 16.746Z" fill="#203F92"/>
<path fill-rule="evenodd" clip-rule="evenodd" d="M113.258 20.3175L114.73 24.0476H112.603L110.968 19.2857C111.213 19.2857 111.54 19.2857 111.704 19.2857C112.685 19.2857 113.667 18.8889 113.83 17.8571C113.912 17.3016 113.83 16.746 112.767 16.746H110.968L109.332 24.0476H107.37L109.251 15.3968H113.421C115.138 15.3968 115.874 16.1905 115.793 17.619C115.629 19.2063 114.566 20.1587 113.258 20.3175Z" fill="#203F92"/>
<path fill-rule="evenodd" clip-rule="evenodd" d="M120.536 24.0476H118.164L116.856 15.3968H118.818L119.718 22.3809L123.643 15.3968H125.606L120.536 24.0476Z" fill="#203F92"/>
<path fill-rule="evenodd" clip-rule="evenodd" d="M126.832 24.0476H124.87L126.75 15.3968H128.713L126.832 24.0476Z" fill="#203F92"/>
<path fill-rule="evenodd" clip-rule="evenodd" d="M136.727 16.9048C136.154 16.746 135.582 16.5873 134.601 16.5873C132.802 16.5873 131.33 17.6984 130.839 19.6826C130.43 21.6667 131.412 22.7778 133.211 22.7778C134.11 22.7778 134.928 22.6191 135.582 22.4603L135.091 23.9683C134.355 24.0476 133.619 24.127 132.883 24.127C130.103 24.127 128.141 22.6984 128.795 19.6032C129.449 16.5079 132.148 15.0794 134.846 15.0794C135.5 15.0794 136.154 15.1587 136.809 15.2381L136.727 16.9048Z" fill="#203F92"/>
<path fill-rule="evenodd" clip-rule="evenodd" d="M144.659 16.746H140.161L139.671 19.0476H143.596L143.351 20.3175H139.425L138.853 22.6984H143.351L143.105 24.0476H136.563L138.526 15.3968H144.986L144.659 16.746Z" fill="#203F92"/>
<path fill-rule="evenodd" clip-rule="evenodd" d="M145.559 12.8571L145.722 12.1429H44.1582L44.0764 12.8571H145.559Z" fill="#E40F1B"/>
</svg>
