<svg width="69" height="108" viewBox="0 0 69 108" fill="none" xmlns="http://www.w3.org/2000/svg">
<path d="M7.7 9.29993H60.5C64.2 9.29993 67.2 12.2999 67.2 15.8999V100.4C67.2 104.1 64.2 107 60.5 107H7.7C4 107 1 104 1 100.4V15.8999C1 12.2999 4 9.29993 7.7 9.29993Z" stroke="#212121" stroke-width="2" stroke-miterlimit="10"/>
<path d="M10 40.7V18.2H29.5" stroke="#212121" stroke-width="2" stroke-miterlimit="10"/>
<path d="M58.3 75.7V98.2H38.7" stroke="#212121" stroke-width="2" stroke-miterlimit="10"/>
<path d="M32 98.2H25" stroke="#212121" stroke-width="2" stroke-miterlimit="10"/>
<path d="M43.5 18.2H36.5" stroke="#212121" stroke-width="2" stroke-miterlimit="10"/>
<path fill-rule="evenodd" clip-rule="evenodd" d="M20 61.6L44.6 26.2L36.5 53.4L48.2 53.5L23.6 88.9L31.7 61.8L20 61.6Z" fill="#FF5722" stroke="#212121" stroke-width="2" stroke-miterlimit="10" stroke-linejoin="round"/>
<path d="M24.3 9.29999H44V4.29999C44 2.49999 42.5 1 40.7 1H27.7C25.9 1 24.4 2.49999 24.4 4.29999V9.29999H24.3Z" stroke="#212121" stroke-width="2" stroke-miterlimit="10"/>
</svg>
