<svg width="108" height="109" viewBox="0 0 108 109" fill="none" xmlns="http://www.w3.org/2000/svg">
<path d="M26.075 82.225C20.375 76.525 11.075 76.525 5.275 82.225C-0.425 87.925 -0.425 97.225 5.275 102.925C10.975 108.625 20.275 108.625 26.075 102.925C31.775 97.225 31.775 88.025 26.075 82.225Z" stroke="#212121" stroke-width="2" stroke-miterlimit="10"/>
<path d="M20.275 88.025C17.775 85.425 13.575 85.425 10.975 88.025C8.37502 90.525 8.37502 94.725 10.975 97.225C13.575 99.825 17.675 99.825 20.275 97.225C22.875 94.625 22.875 90.525 20.275 88.025Z" stroke="#212121" stroke-width="2" stroke-miterlimit="10"/>
<path d="M19.875 78.525L33.975 64.525M43.875 74.425L29.775 88.525L43.875 74.425Z" stroke="#212121" stroke-width="2" stroke-miterlimit="10"/>
<path d="M28.475 59.025L49.375 79.825" stroke="#212121" stroke-width="2" stroke-miterlimit="10"/>
<path fill-rule="evenodd" clip-rule="evenodd" d="M99.775 7.925C98.075 6.225 95.275 6.225 93.575 7.925C91.875 9.625 91.875 12.425 93.575 14.125C95.275 15.825 98.075 15.825 99.775 14.125C101.475 12.425 101.475 9.625 99.775 7.925ZM82.075 43.025L64.475 25.525C63.475 24.525 63.475 23.025 64.475 22.025L80.975 5.625C81.275 5.325 87.475 4.625 89.675 3.925C93.575 0.0250001 99.875 0.0250001 103.775 3.925C107.675 7.825 107.675 14.125 103.775 17.925C103.075 20.025 102.475 26.225 102.075 26.525L85.575 42.925C84.675 44.025 83.075 44.025 82.075 43.025Z" fill="#FF5722" stroke="#212121" stroke-width="2" stroke-miterlimit="10"/>
<path d="M41.575 46.325L54.175 71.125" stroke="#212121" stroke-width="2" stroke-miterlimit="10"/>
<path d="M48.375 39.525L61.075 64.325" stroke="#212121" stroke-width="2" stroke-miterlimit="10"/>
<path d="M55.275 32.625L67.875 57.425" stroke="#212121" stroke-width="2" stroke-miterlimit="10"/>
<path d="M62.175 25.825L74.775 50.625" stroke="#212121" stroke-width="2" stroke-miterlimit="10"/>
</svg>
