<svg width="109" height="88" viewBox="0 0 109 88" fill="none" xmlns="http://www.w3.org/2000/svg">
<path fill-rule="evenodd" clip-rule="evenodd" d="M33.2459 29.0104L19.2459 37.2104C19.7459 39.9104 19.6459 43.3104 19.3459 46.2104L29.9459 52.2104C35.4459 51.1104 41.2459 50.9104 46.2459 51.8104L59.7459 44.0104L33.2459 29.0104ZM89.7459 18.4104L77.6459 11.6104C72.6459 13.1104 67.3459 13.3104 62.6459 11.8104L47.4459 20.7104L73.9459 35.6104L89.6459 26.4104C89.0459 24.1104 89.0459 21.1104 89.7459 18.4104ZM80.3459 39.3104C91.3459 32.8104 94.8459 30.8104 105.946 24.3104C108.346 23.0104 108.046 21.5104 105.646 20.1104C94.9459 14.1104 84.4459 8.21045 73.8459 2.31045C71.4459 0.810446 69.4459 0.410446 66.7459 2.11045C45.8459 14.3104 24.9459 26.6104 4.04589 38.8104C1.04589 40.4104 -0.354109 42.5104 2.74589 44.2104C13.4459 50.2104 24.0459 56.2104 34.7459 62.2104C36.8459 63.4104 39.0459 63.6104 41.1459 62.2104C51.6459 56.1104 69.8459 45.4104 80.3459 39.3104Z" fill="#FF5722" stroke="#212121" stroke-width="2" stroke-miterlimit="10"/>
<path d="M5.34587 45.7104L4.04587 46.5104C1.04587 48.0104 -0.254133 50.1104 2.74587 51.8104C13.4459 57.8104 24.0459 63.8105 34.7459 69.8105C36.8459 71.0105 39.0459 71.2105 41.1459 69.8105C52.8459 63.0105 54.4459 62.0104 66.1459 55.2104" stroke="#212121" stroke-width="2" stroke-miterlimit="10"/>
<path d="M80.3459 46.9104C90.2459 41.1104 96.0459 37.7104 105.946 31.9104C108.346 30.6104 108.046 29.1104 105.646 27.7104L102.846 26.1104" stroke="#212121" stroke-width="2" stroke-miterlimit="10"/>
<path d="M66.1459 47.6104V70.4104" stroke="#212121" stroke-width="2" stroke-miterlimit="10"/>
<path d="M80.3459 39.3104V62.2104" stroke="#212121" stroke-width="2" stroke-miterlimit="10"/>
<path d="M5.34589 53.3104L4.04589 54.0104C1.04589 55.6104 -0.354109 57.7104 2.74589 59.4104C13.4459 65.4104 24.0459 71.4104 34.7459 77.4104C36.8459 78.6104 39.0459 78.8104 41.1459 77.4104C52.3459 70.9104 55.0459 69.3104 66.1459 62.8104" stroke="#212121" stroke-width="2" stroke-miterlimit="10"/>
<path d="M80.3459 54.6104C90.7459 48.5104 95.4459 45.7104 105.946 39.6104C108.346 38.3104 108.046 36.8104 105.646 35.4104L102.846 33.8104" stroke="#212121" stroke-width="2" stroke-miterlimit="10"/>
<path d="M5.34589 60.9104L4.04589 61.7104C1.04589 63.3104 -0.354109 65.4104 2.74589 67.1104C13.4459 73.1104 24.0459 79.1104 34.7459 85.1104C36.8459 86.3104 39.0459 86.5104 41.1459 85.1104C52.2459 78.6104 63.2459 72.2104 74.3459 65.7104C84.8459 59.6104 95.3459 53.4104 105.846 47.3104C108.246 46.0104 107.946 44.5104 105.546 43.1104L102.746 41.5104" stroke="#212121" stroke-width="2" stroke-miterlimit="10"/>
<path fill-rule="evenodd" clip-rule="evenodd" d="M26.8459 25.5104L40.9459 17.2104L80.3459 39.3104L66.1459 47.6104L26.8459 25.5104Z" fill="#FEFEFE" stroke="#212121" stroke-width="2" stroke-miterlimit="10"/>
</svg>
