<svg width="109" height="111" viewBox="0 0 109 111" fill="none" xmlns="http://www.w3.org/2000/svg">
<path d="M9.9 109.47C14.8 109.47 18.8 105.47 18.8 100.57C18.8 95.6705 14.8 91.6705 9.9 91.6705C5 91.6705 1 95.6705 1 100.57C1 105.47 5 109.47 9.9 109.47Z" stroke="#212121" stroke-width="2" stroke-miterlimit="10"/>
<path d="M71.6 97.8705C72.8 94.2705 76.1 91.6705 80.1 91.6705C85 91.6705 89 95.6705 89 100.57C89 105.47 85 109.47 80.1 109.47C76.1 109.47 72.8 106.87 71.6 103.37" stroke="#212121" stroke-width="2" stroke-miterlimit="10"/>
<path d="M64.7 97.8705C66 90.5705 72.3 85.0705 80 85.0705C84.1 85.0705 87.7 86.5705 90.5 89.1705" stroke="#212121" stroke-width="2" stroke-miterlimit="10"/>
<path d="M9.90002 100.67L26.6 47.4705" stroke="#212121" stroke-width="2" stroke-miterlimit="10"/>
<path d="M29.5 97.8704L18.2 74.8704" stroke="#212121" stroke-width="2" stroke-miterlimit="10"/>
<path d="M101.4 67.8705C104.8 67.8705 107.6 70.6704 107.6 73.9704C107.6 77.3704 104.8 80.0704 101.4 80.0704H87.6C84 80.1704 80.8 79.3705 78.2 77.8705C75.4 76.2705 73.2 74.0704 71.7 71.1704L68.3 65.2704C72.4 61.3704 77 57.0704 75.8 53.7704L82.5 65.3705C83 66.2705 83.6 66.8704 84.2 67.2704C85 67.7704 86.1 67.9704 87.6 67.9704H87.7H101.4V67.8705Z" stroke="#212121" stroke-width="2" stroke-miterlimit="10"/>
<path d="M47.4001 39.6705L46.1001 37.3705C43.7001 33.1705 45.1001 27.8705 49.3001 25.4705C52.9001 23.3705 58.5001 22.6705 60.8001 26.9705L66.8001 38.6705L75.4001 53.2705C78.1001 57.9705 67.8001 64.7705 63.9001 69.6705C62.0001 72.0705 60.4001 74.6705 59.1001 77.5705C57.8001 80.4705 56.9001 83.5705 56.5001 87.2705L55.8001 92.6705C55.4001 96.0705 52.3001 98.3705 49.0001 97.9705C45.6001 97.5705 43.2001 94.4705 43.6001 91.1705L44.3001 85.7705C44.9001 80.9705 46.2001 76.5705 47.9001 72.6705C49.6001 68.7705 51.8001 65.3705 54.2001 62.1705L54.3001 62.0705L57.8001 57.6705L51.9001 47.4705" stroke="#212121" stroke-width="2" stroke-miterlimit="10"/>
<path d="M30.8 51.0705C28.4 51.0705 26.4 49.0705 26.4 46.6705C26.4 44.2705 28.4 42.2705 30.8 42.2705H41.5H41.6C43.3 42.3705 44.6 41.9705 45.6 41.3705C46.6 40.7705 47.3 39.8705 47.9 38.7705L52.4 31.9705C53.7 29.9705 56.4 29.3705 58.4 30.6705C60.4 31.9705 61 34.6705 59.7 36.6705L55.4 43.1705C54.1 45.4705 52.4 47.3705 50.1 48.7705C47.8 50.1705 45 50.9705 41.5 50.8705H30.8V51.0705Z" stroke="#212121" stroke-width="2" stroke-miterlimit="10"/>
<path d="M51.9 9.47048C54.3 13.6705 52.9 18.9705 48.7 21.3705C44.5 23.7705 39.1 22.3705 36.7 18.1705L34.3 14.0705C31.9 9.87047 33.3 4.57048 37.5 2.17048C41.7 -0.229522 47 1.17048 49.5 5.37047L51.9 9.47048Z" stroke="#212121" stroke-width="2" stroke-miterlimit="10"/>
<path fill-rule="evenodd" clip-rule="evenodd" d="M78.9 97.8704H28.9C27.4 97.8704 26.2 99.0704 26.2 100.57C26.2 102.07 27.4 103.27 28.9 103.27H78.9C80.4 103.27 81.6 102.07 81.6 100.57C81.7 99.1704 80.5 97.8704 78.9 97.8704Z" fill="#FF5722" stroke="#212121" stroke-width="2" stroke-miterlimit="10"/>
</svg>
