<svg width="109" height="109" viewBox="0 0 109 109" fill="none" xmlns="http://www.w3.org/2000/svg">
<path fill-rule="evenodd" clip-rule="evenodd" d="M22 50.2C33.5 50.2 42.9 59.6 42.9 71.1C42.9 75.2 41.7 79 39.7 82.2C39.3 82.7999 38.9 83.3999 38.4 83.9999L22 107.2L5.5 83.9999C5 83.3999 4.6 82.7999 4.2 82.2C2.2 79 1 75.2 1 71.1C1.1 59.6 10.4 50.2 22 50.2ZM22 62.6C26.7 62.6 30.5 66.4 30.5 71.1C30.5 75.8 26.7 79.6 22 79.6C17.3 79.6 13.5 75.8 13.5 71.1C13.5 66.4 17.3 62.6 22 62.6Z" fill="#FF5722" stroke="#212121" stroke-width="2" stroke-miterlimit="10"/>
<path d="M86.8 1C98.3 1 107.7 10.3 107.7 21.8C107.7 25.9 106.5 29.7 104.5 32.9V33C104.1 33.6 103.7 34.2 103.2 34.8L86.8 58L70.3 34.8C69.8 34.2 69.4 33.6 69 33C67 29.8 65.8 26 65.8 21.9C65.9 10.4 75.2 1 86.8 1Z" stroke="#212121" stroke-width="2" stroke-miterlimit="10"/>
<path d="M86.8 30.3999C91.5 30.3999 95.3 26.5999 95.3 21.8999C95.3 17.1999 91.5 13.3999 86.8 13.3999C82.1 13.3999 78.3 17.1999 78.3 21.8999C78.3 26.5999 82.1 30.3999 86.8 30.3999Z" stroke="#212121" stroke-width="2" stroke-miterlimit="10"/>
<path d="M47.6 83.2H74.2L42.9 51.9999C42.3 51.3999 41.7 50.7 41 50.1L29.7 38.7999C27.1 36.1999 27.1 32.0999 29.7 29.4999C31 28.1999 32.7 27.6 34.4 27.6H59.1L65.5 40.7H50.2L94.7 85.1C95.9 86.3 96.7 87.8999 96.7 89.7999C96.7 93.3999 93.8 96.2999 90.1 96.2999H38.8L47.6 83.2Z" stroke="#212121" stroke-width="2" stroke-miterlimit="10"/>
</svg>
