<svg width="101" height="109" viewBox="0 0 101 109" fill="none" xmlns="http://www.w3.org/2000/svg">
<path d="M12.3875 66.1641C17.1875 55.0641 28.6875 50.664 44.6875 50.964C63.6875 51.264 85.2875 58.564 98.0875 36.364C85.9875 6.46404 49.4875 -7.33597 21.2875 8.86404C-1.31251 21.864 -6.11251 46.7641 12.3875 66.1641Z" stroke="#212121" stroke-width="2" stroke-miterlimit="10"/>
<path d="M76.1876 20.3641C62.0876 9.26406 41.9876 6.36407 25.2876 15.9641C22.8876 17.3641 20.6876 18.9641 18.7876 20.5641" stroke="#212121" stroke-width="2" stroke-miterlimit="10"/>
<path d="M66.0876 101.264C66.3876 102.964 65.1876 104.664 63.4876 104.964C61.7876 105.264 60.0876 104.064 59.7876 102.364C58.8876 97.464 58.2876 92.464 58.1876 87.364L18.2876 58.164C19.9876 56.664 21.8876 55.464 24.0876 54.464L58.2876 79.564C58.3876 78.864 58.3876 78.264 58.4876 77.664C59.2876 69.464 61.4876 61.164 65.7876 52.364C68.0876 52.464 70.3876 52.464 72.5876 52.264C72.5876 52.764 72.4876 53.364 72.1876 53.864C67.6876 62.464 65.4876 70.464 64.7876 78.264C64.0876 86.064 64.7876 93.664 66.0876 101.264Z" stroke="#212121" stroke-width="2" stroke-miterlimit="10"/>
<path d="M88.1876 47.3641C88.7876 54.7641 91.6876 61.8641 97.0876 68.3641C101.688 73.1641 98.1876 76.7642 93.5876 76.7642C91.8876 76.7642 90.1876 76.7642 88.3876 76.7642C87.4876 81.8642 86.6876 86.9641 85.7876 92.0641C84.8876 96.3641 80.2876 99.2641 75.8876 99.0641C72.4876 98.9641 68.9876 98.8642 65.5876 98.7642" stroke="#212121" stroke-width="2" stroke-miterlimit="10"/>
<path d="M46.7876 89.764L55.9876 98.664L52.1876 108.164" stroke="#212121" stroke-width="2" stroke-miterlimit="10"/>
<path d="M12.3876 66.1641C24.0876 89.5641 24.1876 83.4641 15.1876 108.164" stroke="#212121" stroke-width="2" stroke-miterlimit="10"/>
<path fill-rule="evenodd" clip-rule="evenodd" d="M12.3876 66.1641C13.7876 62.8641 15.7876 60.2641 18.2876 58.0641C19.9876 56.5641 21.8876 55.364 24.0876 54.364C29.5876 51.864 36.5876 50.764 44.6876 50.864C51.5876 50.964 58.7876 51.9641 65.8876 52.1641C68.1876 52.2641 70.4876 52.2641 72.6876 52.0641C78.1876 51.6641 83.4876 50.3641 88.2876 47.1641C91.9876 44.7641 95.2876 41.2641 98.1876 36.2641L28.2876 46.5641C16.7876 48.9641 7.78756 44.9641 1.68756 34.1641C-0.512435 44.7641 2.88756 56.1641 12.3876 66.1641Z" fill="#FF5722" stroke="#212121" stroke-width="2" stroke-miterlimit="10" stroke-linejoin="round"/>
<path d="M55.9876 98.6641H59.1876" stroke="#212121" stroke-width="2" stroke-miterlimit="10"/>
</svg>
