<svg width="24" height="15" viewBox="0 0 24 15" fill="none" xmlns="http://www.w3.org/2000/svg">
<path d="M21 0H3C1.34315 0 0 1.34315 0 3V12C0 13.6569 1.34315 15 3 15H21C22.6569 15 24 13.6569 24 12V3C24 1.34315 22.6569 0 21 0Z" fill="#D60000"/>
<mask id="mask0" mask-type="alpha" maskUnits="userSpaceOnUse" x="0" y="0" width="24" height="15">
<path d="M21 0H3C1.34315 0 0 1.34315 0 3V12C0 13.6569 1.34315 15 3 15H21C22.6569 15 24 13.6569 24 12V3C24 1.34315 22.6569 0 21 0Z" fill="white"/>
</mask>
<g mask="url(#mask0)">
<path d="M24 0H0V3H24V0Z" fill="#D60000"/>
<path d="M0 12L0 15L24 15V12L0 12Z" fill="#D60000"/>
<path d="M0 9L0 12L24 12V9L0 9Z" fill="white"/>
<path d="M0 6L0 9L24 9V6L0 6Z" fill="#D60000"/>
<path d="M0 3L0 6L24 6V3L0 3Z" fill="white"/>
<rect width="13" height="9" fill="#302E96"/>
</g>
<path fill-rule="evenodd" clip-rule="evenodd" d="M2.49416 1L2.93774 2.02049L4 2.14344L3.2179 2.90574L3.42802 4L2.49416 3.45902L1.57198 4L1.7821 2.90574L1 2.14344L2.05058 2.02049L2.49416 1Z" fill="white"/>
<path fill-rule="evenodd" clip-rule="evenodd" d="M2.49416 5L2.93774 6.02049L4 6.14344L3.2179 6.90574L3.42802 8L2.49416 7.45902L1.57198 8L1.7821 6.90574L1 6.14344L2.05058 6.02049L2.49416 5Z" fill="white"/>
<path fill-rule="evenodd" clip-rule="evenodd" d="M6.49416 1L6.93774 2.02049L8 2.14344L7.2179 2.90574L7.42802 4L6.49416 3.45902L5.57198 4L5.7821 2.90574L5 2.14344L6.05058 2.02049L6.49416 1Z" fill="white"/>
<path fill-rule="evenodd" clip-rule="evenodd" d="M6.49416 5L6.93774 6.02049L8 6.14344L7.2179 6.90574L7.42802 8L6.49416 7.45902L5.57198 8L5.7821 6.90574L5 6.14344L6.05058 6.02049L6.49416 5Z" fill="white"/>
<path fill-rule="evenodd" clip-rule="evenodd" d="M10.4942 1L10.9377 2.02049L12 2.14344L11.2179 2.90574L11.428 4L10.4942 3.45902L9.57198 4L9.7821 2.90574L9 2.14344L10.0506 2.02049L10.4942 1Z" fill="white"/>
<path fill-rule="evenodd" clip-rule="evenodd" d="M10.4942 5L10.9377 6.02049L12 6.14344L11.2179 6.90574L11.428 8L10.4942 7.45902L9.57198 8L9.7821 6.90574L9 6.14344L10.0506 6.02049L10.4942 5Z" fill="white"/>
</svg>
