<svg width="42" height="30" viewBox="0 0 42 30" fill="none" xmlns="http://www.w3.org/2000/svg">
<g clip-path="url(#clip0)">
<path d="M37.8975 29.7143H4.18411C2.0666 29.7143 0.346924 27.961 0.346924 25.8021V3.91218C0.346924 1.75329 2.0666 0 4.18411 0H37.9103C40.0278 0 41.7475 1.75329 41.7475 3.91218V25.8021C41.7347 27.961 40.015 29.7143 37.8975 29.7143Z" fill="#006FCF"/>
<mask id="mask0" mask-type="alpha" maskUnits="userSpaceOnUse" x="0" y="7" width="42" height="18">
<path d="M0.346924 7.04905V24.3071H41.709V7.04905H0.346924Z" fill="white"/>
</mask>
<g mask="url(#mask0)">
<path d="M36.6398 14.4155H39.7455V7.04905H36.4345V8.22663L35.703 7.04905H32.8154V8.54065L32.1738 7.04905H27.3997C27.1687 7.04905 26.9506 7.06213 26.7324 7.10138C26.5527 7.12755 26.3731 7.1668 26.1934 7.23222C26.0522 7.27148 25.9239 7.32381 25.7956 7.38924C25.6416 7.45466 25.5004 7.54625 25.3721 7.63784V7.38924V7.06213H9.76664L9.34314 8.3313L8.90681 7.04905H5.28779V8.55373L4.63328 7.04905H1.66876L0.346924 10.1893V13.7482V14.4024H2.43877L2.82377 13.3426H3.55528L3.95311 14.4024H20.0719V13.3295L20.8804 14.4024H25.3336V14.1669V13.8659C25.4491 13.9444 25.5646 14.0099 25.6929 14.0622C25.8084 14.1145 25.9367 14.1669 26.0651 14.2061C26.2191 14.2585 26.3731 14.2977 26.5399 14.3239C26.7966 14.3762 27.0532 14.3893 27.2971 14.3893H29.9664L30.3514 13.3295H31.0829L31.4808 14.3893H35.9468V13.2902L36.6398 14.4155ZM41.709 23.8623V16.9538H41.3497H16.055L15.4005 17.8959L14.7588 16.9538H7.3668V24.3202H14.7203L15.362 23.3651L16.0293 24.3202H20.6237V22.7239H20.5724C21.1499 22.7239 21.6632 22.6193 22.1252 22.4492V24.3202H25.3336V23.2473L26.1421 24.3202H40.0663C40.4641 24.3202 40.8363 24.2548 41.1828 24.124C41.3625 24.0455 41.5422 23.9669 41.709 23.8623Z" fill="#F7F7F7"/>
<mask id="mask1" mask-type="alpha" maskUnits="userSpaceOnUse" x="8" y="18" width="34" height="6">
<path d="M41.7347 23.1195V18.1475H8.50903V23.1195H41.7347Z" fill="white"/>
</mask>
<g mask="url(#mask1)">
<path d="M40.092 22.1251H37.5895V23.1195H40.0535C41.1059 23.1195 41.7347 22.4653 41.7347 21.5363C41.7347 20.6466 41.1701 20.1363 40.2204 20.1363H39.091C38.8087 20.1363 38.6162 19.9531 38.6162 19.6653C38.6162 19.3643 38.8087 19.1681 39.091 19.1681H41.2086L41.6449 18.1606H39.1295C38.0772 18.1606 37.4484 18.8148 37.4484 19.7045C37.4484 20.6204 38.0387 21.1438 38.9627 21.1438H40.0792C40.3615 21.1438 40.554 21.327 40.554 21.6279C40.5797 21.9158 40.3744 22.1251 40.092 22.1251ZM35.4592 22.1251H32.9567V23.1195H35.4207C36.473 23.1195 37.1019 22.4653 37.1019 21.5363C37.1019 20.6466 36.5372 20.1363 35.5875 20.1363H34.4582C34.1758 20.1363 33.9833 19.9531 33.9833 19.6653C33.9833 19.3643 34.1758 19.1681 34.4582 19.1681H36.5757L37.012 18.1606H34.4967C33.4443 18.1606 32.8155 18.8148 32.8155 19.7045C32.8155 20.6204 33.4058 21.1438 34.3298 21.1438H35.4464C35.7287 21.1438 35.9212 21.327 35.9212 21.6279C35.934 21.9158 35.7415 22.1251 35.4592 22.1251ZM32.2508 19.155V18.1475H28.3495V23.1195H32.2508V22.112H29.5173V21.1176H32.1867V20.1232H29.5173V19.155H32.2508ZM25.7186 19.155C26.1421 19.155 26.3603 19.4298 26.3603 19.7699C26.3603 20.1101 26.1421 20.3849 25.7186 20.3849H24.3455V19.155H25.7186ZM24.3455 21.327H24.8973L26.3475 23.1195H27.7976L26.1806 21.2877C27.0148 21.1307 27.5025 20.5157 27.5025 19.7307C27.5025 18.8017 26.8608 18.1606 25.8213 18.1606H23.1776V23.1326H24.3455V21.327ZM21.3681 19.8092C21.3681 20.1494 21.1628 20.4242 20.7521 20.4242H19.3533V19.2073H20.7521C21.1628 19.2073 21.3681 19.469 21.3681 19.8092ZM18.1854 18.1475V23.1195H19.3533V21.484H20.8163C21.8814 21.484 22.5488 20.7774 22.5488 19.8223C22.5488 18.841 21.9071 18.1606 20.8676 18.1606H18.1854V18.1475ZM16.4657 23.1195H17.9288L15.9781 20.6204L17.9159 18.1606H16.4914L15.2979 19.7307L14.1044 18.1606H12.6414L14.5921 20.6466L12.6542 23.1326H14.0787L15.2722 21.5363L16.4657 23.1195ZM12.3976 19.155V18.1475H8.50903V23.1195H12.4104V22.112H9.67687V21.1176H12.3462V20.1232H9.67687V19.155H12.3976Z" fill="#006FCF"/>
</g>
<path d="M35.023 10.2419L35.0102 9.83625L35.254 10.2419L37.1148 13.212H38.4752V8.23998H37.333V11.1185L37.3458 11.4849L37.1277 11.1185L35.3053 8.23998H33.868V13.212H35.0102V10.2419H35.023ZM30.3516 10.0979L30.711 9.16896L31.0703 10.0979L31.5066 11.197H29.941L30.3516 10.0979ZM32.2895 13.212H33.5985L31.5195 8.23998H29.9795L27.8876 13.212H29.1325L29.5431 12.1522H31.866L32.2895 13.212ZM27.1946 13.212H27.2588L27.7336 12.1522H27.3743C26.5786 12.1522 26.1038 11.6419 26.1038 10.7652V10.6867C26.1038 9.90168 26.5273 9.31289 27.3615 9.31289H28.632V8.23998H27.2716C25.7701 8.23998 24.9488 9.27363 24.9488 10.6867V10.7783C24.9359 12.2438 25.7829 13.1989 27.1946 13.212ZM23.0366 13.212H24.2044V11.0269V8.23998H23.0366V10.9877V13.212ZM20.5726 9.26055C20.9961 9.26055 21.2143 9.53532 21.2143 9.87551C21.2143 10.2157 20.9961 10.4905 20.5726 10.4905H19.1994V9.26055H20.5726ZM19.1994 11.4194H19.7512L21.2014 13.212H22.6516L21.0346 11.3802C21.8688 11.2232 22.3564 10.6082 22.3564 9.82317C22.3564 8.89419 21.7148 8.25306 20.6753 8.25306H18.0316V13.2251H19.1994V11.4194ZM17.1846 9.24746V8.23998H13.2832V13.212H17.1846V12.1914H14.451V11.2101H17.1204V10.2157H14.451V9.24746H17.1846ZM7.48251 9.82317L7.45684 8.47549L8.80435 13.212H9.85669L11.2042 8.50166L11.1785 9.81009V13.212H12.3079V8.23998H10.2545L9.33052 11.7596L8.39368 8.23998H6.34034V13.212H7.46968V9.82317H7.48251ZM2.82398 10.0979L3.18332 9.16896L3.54265 10.0979L3.97899 11.197H2.40048L2.82398 10.0979ZM4.76183 13.212H6.08367L4.00466 8.23998H2.46465L0.372803 13.212H1.61764L2.02831 12.1522H4.35116L4.76183 13.212Z" fill="#006FCF"/>
</g>
</g>
<defs>
<clipPath id="clip0">
<rect width="41.3877" height="29.7143" fill="white" transform="translate(0.346924)"/>
</clipPath>
</defs>
</svg>
