<svg width="44" height="31" viewBox="0 0 44 31" fill="none" xmlns="http://www.w3.org/2000/svg">
<rect y="0.0892944" width="43.6735" height="30.5714" rx="4" fill="#FFB3C7"/>
<path d="M39.3723 17.4756C39.237 17.4761 39.1031 17.5054 38.9782 17.5617C38.8534 17.618 38.7401 17.7003 38.6448 17.8038C38.5495 17.9073 38.4742 18.03 38.423 18.1648C38.3719 18.2997 38.3459 18.4441 38.3467 18.5898C38.3459 18.7355 38.3719 18.8799 38.423 19.0148C38.4742 19.1497 38.5495 19.2724 38.6448 19.3759C38.7401 19.4793 38.8534 19.5616 38.9782 19.6179C39.1031 19.6742 39.237 19.7035 39.3723 19.704C39.9381 19.704 40.398 19.2049 40.398 18.5898C40.3988 18.4441 40.3728 18.2997 40.3217 18.1648C40.2705 18.03 40.1952 17.9073 40.0999 17.8038C40.0046 17.7003 39.8913 17.618 39.7665 17.5617C39.6416 17.5054 39.5077 17.4761 39.3723 17.4756ZM35.997 16.6151C35.997 15.7721 35.3341 15.0897 34.5162 15.0897C33.6984 15.0897 33.0355 15.7732 33.0355 16.6151C33.0355 17.4569 33.6994 18.1394 34.5172 18.1394C35.3351 18.1394 35.997 17.4569 35.997 16.6151ZM36.0028 13.6503H37.6366V19.5787H36.0028V19.1997C35.5265 19.5536 34.9613 19.7429 34.3825 19.7424C32.792 19.7424 31.5027 18.3423 31.5027 16.6151C31.5027 14.8878 32.792 13.4878 34.3825 13.4878C34.9839 13.4878 35.541 13.6876 36.0028 14.0304V13.6503ZM22.9249 14.4228V13.6514H21.2517V19.5787H22.9288V16.8108C22.9288 15.8767 23.8602 15.3755 24.5067 15.3755H24.526V13.6514C23.8621 13.6514 23.253 13.96 22.9249 14.4228ZM18.7568 16.6151C18.7568 15.7721 18.0938 15.0897 17.276 15.0897C16.4581 15.0897 15.7952 15.7732 15.7952 16.6151C15.7952 17.4569 16.4591 18.1394 17.2769 18.1394C18.0948 18.1394 18.7568 17.4569 18.7568 16.6151ZM18.7625 13.6503H20.3973V19.5787H18.7625V19.1997C18.3007 19.5415 17.7436 19.7424 17.1422 19.7424C15.5518 19.7424 14.2624 18.3423 14.2624 16.6151C14.2624 14.8878 15.5518 13.4878 17.1422 13.4878C17.7436 13.4878 18.3007 13.6876 18.7625 14.0304V13.6503ZM28.5989 13.4919C27.9465 13.4919 27.3288 13.7114 26.9151 14.3183V13.6514H25.288V19.5787H26.9353V16.4639C26.9353 15.563 27.4914 15.1208 28.162 15.1208C28.8798 15.1208 29.2936 15.5868 29.2936 16.4514V19.5787H30.9254V15.8094C30.9254 14.4301 29.9151 13.4919 28.5989 13.4919ZM11.882 19.5787H13.5928V11.0097H11.882V19.5787ZM4.36743 19.5808H6.17921V11.0077H4.36839L4.36743 19.5808ZM10.7043 11.0077C10.7043 12.8633 10.0385 14.5906 8.85117 15.8736L11.3548 19.5808H9.11769L6.39762 15.5526L7.10001 14.981C7.67181 14.5182 8.13509 13.9178 8.45285 13.2279C8.77061 12.538 8.93404 11.7777 8.93007 11.0077H10.7024H10.7043Z" fill="#0A0B09"/>
</svg>
