<svg width="44" height="30" viewBox="0 0 44 30" fill="none" xmlns="http://www.w3.org/2000/svg">
<g clip-path="url(#clip0)">
<path d="M39.248 29.7143H4.6702C2.49839 29.7143 0.734619 27.961 0.734619 25.8021V3.91218C0.734619 1.75329 2.49839 0 4.6702 0H39.2612C41.433 0 43.1967 1.75329 43.1967 3.91218V25.8021C43.1836 27.961 41.4198 29.7143 39.248 29.7143Z" fill="#36495D"/>
<path d="M25.5325 8.49139H18.3984V21.2354H25.5325V8.49139Z" fill="#F16522"/>
<path d="M18.8461 14.8637C18.8461 12.2731 20.0703 9.98333 21.9656 8.49173C20.5836 7.40574 18.833 6.76461 16.9244 6.76461C12.4229 6.76461 8.77686 10.3889 8.77686 14.8637C8.77686 19.3386 12.4229 22.9629 16.9244 22.9629C18.8198 22.9629 20.5704 22.3218 21.9656 21.2358C20.0703 19.7442 18.8461 17.4413 18.8461 14.8637Z" fill="#E41B24"/>
<path d="M35.1412 14.8635C35.1412 19.3383 31.4952 22.9626 26.9936 22.9626C25.0982 22.9626 23.3476 22.3215 21.9524 21.2355C23.8478 19.757 25.0587 17.4542 25.0587 14.8635C25.0587 12.2728 23.8478 9.9831 21.9524 8.4915C23.3345 7.40551 25.0851 6.76438 26.9936 6.76438C31.4952 6.75129 35.1412 10.3887 35.1412 14.8635ZM34.3646 19.8748V19.6131H34.4699V19.5608H34.2066V19.6131H34.3119V19.8748H34.3646ZM34.8911 19.8748V19.5608H34.8121L34.72 19.7832L34.6278 19.5608H34.5489V19.8748H34.6015V19.6393L34.6937 19.8486H34.7595L34.8516 19.6393V19.8748H34.8911Z" fill="#F89E1C"/>
</g>
<defs>
<clipPath id="clip0">
<rect width="42.449" height="29.7143" fill="white" transform="translate(0.734619)"/>
</clipPath>
</defs>
</svg>
