<svg width="45" height="31" viewBox="0 0 45 31" fill="none" xmlns="http://www.w3.org/2000/svg">
<rect x="0.948975" y="0.589294" width="42.6735" height="29.5714" rx="3.5" fill="white" stroke="#E7EAED"/>
<g clip-path="url(#clip0)">
<path d="M11.5609 12.9939C12.1504 12.9939 12.628 13.2736 12.836 13.6747V13.3208C12.836 13.2084 12.9144 13.1253 13.0095 13.1253H13.7725C13.8676 13.1253 13.946 13.2096 13.946 13.3208V17.4325C13.946 17.5348 13.8676 17.619 13.7725 17.619H13.0095C12.9134 17.619 12.836 17.5348 12.836 17.4325V17.0686C12.6186 17.4685 12.142 17.7482 11.5525 17.7482C10.4687 17.7482 9.46216 16.8158 9.46216 15.3621C9.46216 13.9162 10.4593 12.9939 11.5609 12.9939ZM11.7166 16.6383C12.3667 16.6383 12.835 16.0788 12.835 15.3699C12.835 14.6711 12.3667 14.1117 11.7166 14.1117C11.0749 14.1117 10.5889 14.6711 10.5889 15.3699C10.5899 16.0788 11.0749 16.6383 11.7166 16.6383Z" fill="#4341AA"/>
<path d="M7.24541 12.9939C6.64652 12.9939 6.16992 13.2736 5.92744 13.6747V13.3208C5.92744 13.2084 5.84905 13.1253 5.75394 13.1253H4.99827C4.90316 13.1253 4.82477 13.2096 4.82477 13.3208L4.81641 19.2716V19.0705V19.1143V19.2345V19.3267C4.81641 19.4289 4.8948 19.5131 4.98991 19.5131H5.7623C5.85845 19.5131 5.9358 19.4289 5.9358 19.3267V19.2345V19.1143V19.0705V19.2716L5.94416 17.1135C6.19605 17.5235 6.71655 17.7482 7.22764 17.7482C8.33763 17.7482 9.30965 16.8158 9.30965 15.3621C9.30965 13.9162 8.34599 12.9939 7.24541 12.9939ZM7.06251 16.6383C6.42076 16.6383 5.93475 16.0788 5.93475 15.3699C5.93475 14.6711 6.42076 14.1117 7.06251 14.1117C7.71261 14.1117 8.1819 14.6711 8.1819 15.3699C8.1819 16.0788 7.71365 16.6383 7.06251 16.6383Z" fill="#4341AA"/>
<path d="M18.249 13.1354H17.4295C17.2999 13.1354 17.231 13.2287 17.2048 13.3298L16.8453 14.6723L16.3217 16.417L15.4447 13.3298C15.4186 13.2275 15.359 13.1354 15.2556 13.1354H14.3672C14.1686 13.1354 14.1519 13.2747 14.1863 13.423L15.4458 17.4202C15.4886 17.5404 15.5587 17.6056 15.6611 17.6056H15.9652L15.382 19.2255C15.3214 19.4019 15.3737 19.5131 15.5378 19.5131H16.3572C16.4868 19.5131 16.5558 19.4199 16.5819 19.3188L16.6373 19.1098L17.1463 17.6112L18.4047 13.423C18.4643 13.2466 18.4131 13.1354 18.249 13.1354Z" fill="#4341AA"/>
<path d="M25.8444 13.05C25.9405 13.05 26.044 13.0961 26.044 13.2826V14.0847C26.044 14.2712 25.905 14.3173 25.836 14.3173H25.628C25.073 14.3173 24.7521 14.6161 24.7521 15.3991V17.4224C24.7521 17.5258 24.6654 17.5999 24.5703 17.5999H23.8073C23.7122 17.5999 23.6338 17.5157 23.6338 17.4134V13.3017C23.6338 13.1893 23.7122 13.1062 23.8073 13.1062H24.5274C24.6225 13.1062 24.7009 13.1804 24.7009 13.2837V13.7117C24.9173 13.3107 25.282 13.05 25.7242 13.05H25.8444Z" fill="#08AF97"/>
<path d="M26.1621 11.7626C26.1621 11.3525 26.4746 11.0076 26.8645 11.0076C27.246 11.0076 27.5585 11.3525 27.5585 11.7626C27.5585 12.1726 27.246 12.5175 26.8645 12.5175C26.4746 12.5175 26.1621 12.1738 26.1621 11.7626ZM26.483 17.5988C26.3785 17.5988 26.3011 17.5056 26.3011 17.4033V13.3017C26.3011 13.1893 26.3795 13.1062 26.483 13.1062H27.2376C27.3411 13.1062 27.4195 13.1905 27.4195 13.3017V17.4033C27.4195 17.5056 27.3411 17.5988 27.2376 17.5988H26.483Z" fill="#08AF97"/>
<path d="M40.8 16.9371L40.5397 16.4799C40.4613 16.3585 40.3317 16.3585 40.2011 16.4428C40.0537 16.545 39.9064 16.5832 39.8018 16.5832C39.6022 16.5832 39.3252 16.4529 39.3252 16.0047V14.1128H40.5397C40.6348 14.1128 40.7216 14.0195 40.7216 13.9173V13.3017C40.7216 13.1893 40.6348 13.1062 40.5397 13.1062H39.3252V12.4063V12.3411V12.1614C39.3252 12.049 39.2468 11.9659 39.1517 11.9659H38.3887C38.2842 11.9659 38.2069 12.0502 38.2069 12.1614V12.3411V12.4063V13.1062H37.6352C37.539 13.1062 37.4617 13.1905 37.4617 13.3017V13.9173C37.4617 14.0195 37.5401 14.1128 37.6352 14.1128H38.2079V16.2754C38.2079 17.282 38.9103 17.6921 39.5959 17.6921C40.0819 17.6921 40.5063 17.5336 40.7749 17.2449C40.8617 17.1517 40.87 17.0483 40.8 16.9371Z" fill="#08AF97"/>
<path d="M31.2616 17.5898V16.9933C31.0536 17.3573 30.5854 17.637 29.9949 17.637C28.8493 17.637 27.8867 16.7607 27.8867 15.316C27.8867 13.8713 28.8671 12.9759 29.951 12.9759C30.5498 12.9759 31.0442 13.2646 31.2606 13.6657V13.3017C31.2606 13.1983 31.339 13.1152 31.4341 13.1152H32.1887C32.2932 13.1152 32.3706 13.1994 32.3706 13.3017V17.6269C32.3706 18.8762 31.5114 19.7423 30.1245 19.7423C29.0061 19.7423 28.1877 18.9795 27.9891 18.1223C27.963 18.0471 27.9808 17.9639 28.0759 17.9358L28.9016 17.9347C29.0051 17.9336 29.0667 17.9437 29.1012 18.019C29.1963 18.3549 29.5172 18.7088 30.1506 18.7088C30.8895 18.7076 31.2616 18.2605 31.2616 17.5898ZM30.1349 16.5641C30.785 16.5641 31.2533 16.0327 31.2533 15.3239C31.2533 14.615 30.785 14.0836 30.1349 14.0836C29.4932 14.0836 29.0155 14.615 29.0155 15.3239C29.0155 16.0327 29.4921 16.5641 30.1349 16.5641Z" fill="#08AF97"/>
<path d="M21.2362 12.9635C20.6383 12.9635 20.1523 13.2523 19.9443 13.6252V12.6872L19.936 11.4154C19.936 11.3121 19.8492 11.229 19.7541 11.229H18.9995C18.895 11.229 18.8176 11.3132 18.8176 11.4154L18.826 12.6872V17.4011C18.826 17.5033 18.9044 17.5876 19.0078 17.5876H19.7625C19.8576 17.5876 19.936 17.5033 19.936 17.4011V17.0371C20.1795 17.4382 20.63 17.7179 21.2195 17.7179C22.3211 17.7179 23.3098 16.7855 23.3098 15.3317C23.3088 13.8859 22.3117 12.9635 21.2362 12.9635ZM21.0543 16.608C20.4126 16.608 19.9349 16.0485 19.9349 15.3396C19.9349 14.6408 20.4115 14.0814 21.0543 14.0814C21.6961 14.0814 22.1821 14.6408 22.1821 15.3396C22.181 16.0485 21.6961 16.608 21.0543 16.608Z" fill="#08AF97"/>
<path d="M35.5239 12.9635C34.8561 12.9635 34.3784 13.2624 34.1359 13.6252V12.64V11.4042C34.1359 11.302 34.0492 11.2267 33.9541 11.2267H33.1911C33.096 11.2267 33.0176 11.311 33.0176 11.4132V12.6389V17.3988C33.0176 17.5011 33.096 17.5853 33.1911 17.5853H33.9541C34.0492 17.5853 34.1359 17.5112 34.1359 17.4078V15.2374C34.1359 14.5386 34.5519 14.0724 35.1853 14.0724C35.8354 14.0724 36.2002 14.5296 36.2002 15.2374V17.409C36.2002 17.5123 36.2869 17.5865 36.382 17.5865H37.1366C37.2318 17.5865 37.3185 17.5123 37.3185 17.409V14.9116C37.3196 13.8027 36.635 12.9635 35.5239 12.9635Z" fill="#08AF97"/>
</g>
<defs>
<clipPath id="clip0">
<rect width="36.0306" height="8.73469" fill="white" transform="translate(4.81641 11.0076)"/>
</clipPath>
</defs>
</svg>
