<svg width="44" height="31" viewBox="0 0 44 31" fill="none" xmlns="http://www.w3.org/2000/svg">
<path d="M39.7957 30.0714H4.23144C2.27115 30.0714 0.683594 28.4888 0.683594 26.5464V4.02504C0.683594 2.08267 2.27115 0.5 4.23144 0.5H39.8092C41.7695 0.5 43.3571 2.08267 43.3571 4.02504V26.5446C43.3446 28.4894 41.755 30.0714 39.7957 30.0714Z" fill="white" stroke="#E7EAED"/>
<path fill-rule="evenodd" clip-rule="evenodd" d="M8.94941 10.6351C10.1207 10.6351 11.2016 11.2762 11.0537 12.874C10.8745 14.7729 9.86623 15.8237 8.27547 15.8282H6.88546C6.68561 15.8282 6.58882 15.9927 6.53684 16.33L6.26798 18.0544C6.22765 18.3149 6.09501 18.4433 5.89964 18.4433H4.60642C4.4003 18.4433 4.3286 18.3103 4.37431 18.0128L5.44168 11.1017C5.49456 10.7617 5.62092 10.6351 5.85125 10.6351H8.94672H8.94941ZM6.84334 14.3353H7.89638C8.55509 14.3099 8.99243 13.8497 9.03634 13.0196C9.06323 12.5069 8.71998 12.1397 8.1742 12.1425L7.183 12.147L6.84334 14.3353ZM14.5695 17.9143C14.6878 17.8058 14.8079 17.7497 14.7909 17.8835L14.7487 18.2036C14.7272 18.3709 14.7926 18.4595 14.9468 18.4595H16.0957C16.2893 18.4595 16.3834 18.3809 16.4309 18.0789L17.1389 13.5956C17.1747 13.3704 17.1201 13.2601 16.9507 13.2601H15.6871C15.5732 13.2601 15.5177 13.3243 15.4881 13.4997L15.4415 13.7755C15.4173 13.9193 15.3519 13.9446 15.2909 13.7999C15.0767 13.2881 14.5301 13.0585 13.7674 13.0765C11.9956 13.1136 10.801 14.4709 10.6728 16.2107C10.5742 17.5562 11.5296 18.6133 12.7896 18.6133C13.7038 18.6133 14.1124 18.342 14.5731 17.917L14.5695 17.9143ZM13.607 17.2243C12.8443 17.2243 12.3129 16.6104 12.4231 15.858C12.5333 15.1057 13.2467 14.4917 14.0094 14.4917C14.772 14.4917 15.3035 15.1057 15.1932 15.858C15.083 16.6104 14.3705 17.2243 13.607 17.2243ZM19.3875 13.2456H18.2224C17.9822 13.2456 17.8845 13.4265 17.9607 13.6489L19.4072 17.9224L17.9885 19.9561C17.8693 20.1261 17.9616 20.2807 18.1292 20.2807H19.4385C19.5149 20.2896 19.5921 20.2762 19.6611 20.242C19.73 20.2079 19.7878 20.1544 19.8275 20.0881L24.2762 13.6498C24.4134 13.4518 24.3488 13.2438 24.1239 13.2438H22.8844C22.672 13.2438 22.5869 13.3288 22.465 13.507L20.6099 16.2197L19.7809 13.5006C19.7325 13.3361 19.6115 13.2456 19.3884 13.2456H19.3875Z" fill="#113984"/>
<path fill-rule="evenodd" clip-rule="evenodd" d="M28.9044 10.6352C30.0757 10.6352 31.1565 11.2763 31.0087 12.8742C30.8294 14.7731 29.8212 15.8238 28.2304 15.8283H26.8413C26.6414 15.8283 26.5446 15.9929 26.4927 16.3302L26.2238 18.0546C26.1835 18.315 26.0508 18.4434 25.8555 18.4434H24.5622C24.3561 18.4434 24.2844 18.3105 24.3301 18.013L25.3993 11.1C25.4522 10.76 25.5785 10.6334 25.8089 10.6334H28.9044V10.6352ZM26.7983 14.3354H27.8513C28.51 14.3101 28.9474 13.8498 28.9913 13.0197C29.0182 12.507 28.6749 12.1399 28.1291 12.1426L27.1379 12.1471L26.7983 14.3354ZM34.5245 17.9144C34.6428 17.8059 34.7629 17.7499 34.7458 17.8837L34.7037 18.2038C34.6822 18.3711 34.7476 18.4597 34.9018 18.4597H36.0507C36.2443 18.4597 36.3384 18.381 36.3859 18.079L37.0939 13.5957C37.1297 13.3706 37.0751 13.2603 36.9057 13.2603H35.6438C35.53 13.2603 35.4744 13.3245 35.4449 13.4999L35.3983 13.7757C35.3741 13.9195 35.3086 13.9448 35.2477 13.8001C35.0335 13.2883 34.4868 13.0586 33.7242 13.0767C31.9524 13.1138 30.7577 14.4711 30.6296 16.2108C30.531 17.5564 31.4863 18.6134 32.7464 18.6134C33.6605 18.6134 34.0692 18.3422 34.5298 17.9172L34.5245 17.9144ZM33.5628 17.2245C32.8002 17.2245 32.2687 16.6105 32.3789 15.8582C32.4892 15.1058 33.2026 14.4919 33.9652 14.4919C34.7279 14.4919 35.2594 15.1058 35.1491 15.8582C35.0389 16.6105 34.3255 17.2245 33.5628 17.2245ZM38.8621 18.4669H37.5357C37.5126 18.468 37.4896 18.4639 37.4683 18.4549C37.447 18.4459 37.4279 18.4323 37.4124 18.415C37.3969 18.3978 37.3854 18.3772 37.3787 18.355C37.372 18.3327 37.3702 18.3092 37.3735 18.2861L38.5386 10.8387C38.5497 10.7879 38.5775 10.7423 38.6176 10.7095C38.6576 10.6767 38.7075 10.6585 38.759 10.6578H40.0854C40.1085 10.6568 40.1315 10.6609 40.1528 10.6699C40.1741 10.6789 40.1932 10.6925 40.2087 10.7097C40.2242 10.727 40.2357 10.7475 40.2425 10.7698C40.2492 10.7921 40.251 10.8156 40.2476 10.8387L39.0826 18.2861C39.0718 18.3373 39.0441 18.3832 39.0041 18.4164C38.964 18.4496 38.9139 18.468 38.8621 18.4688V18.4669Z" fill="#009EE3"/>
</svg>
