<svg width="44" height="30" viewBox="0 0 44 30" fill="none" xmlns="http://www.w3.org/2000/svg">
<g clip-path="url(#clip0)">
<path d="M39.4113 29.7143H4.83353C2.66172 29.7143 0.897949 27.961 0.897949 25.8021V3.91218C0.897949 1.75329 2.66172 0 4.83353 0H39.4245C41.5963 0 43.3601 1.75329 43.3601 3.91218V25.8021C43.3469 27.961 41.5831 29.7143 39.4113 29.7143Z" fill="#0066B2"/>
<path d="M20.3256 19.5085H18.1143L19.4963 11.0692H21.7076L20.3256 19.5085Z" fill="white"/>
<path d="M16.2453 11.0692L14.1393 16.8786L13.8892 15.6225L13.1389 11.8281C13.1389 11.8281 13.0468 11.0692 12.0859 11.0692H8.61102L8.57153 11.2131C8.57153 11.2131 9.63769 11.4356 10.8881 12.1814L12.8098 19.5216H15.1133L18.6277 11.0823H16.2453V11.0692Z" fill="white"/>
<path d="M33.6459 19.5085H35.6729L33.9092 11.0692H32.1322C31.3161 11.0692 31.1055 11.6973 31.1055 11.6973L27.8018 19.5085H30.1052L30.5659 18.2525H33.3827L33.6459 19.5085ZM31.2108 16.5253L32.3691 13.372L33.0273 16.5253H31.2108Z" fill="white"/>
<path d="M27.9731 13.0972L28.289 11.2785C28.289 11.2785 27.3149 10.9121 26.3014 10.9121C25.2089 10.9121 22.6028 11.3832 22.6028 13.7122C22.6028 15.8972 25.6565 15.9234 25.6565 17.0617C25.6565 18.2 22.9187 18.0038 22.0105 17.2841L21.6814 19.1814C21.6814 19.1814 22.6686 19.6524 24.1823 19.6524C25.6959 19.6524 27.9731 18.8804 27.9731 16.7608C27.9731 14.5626 24.893 14.3664 24.893 13.4112C24.8799 12.4561 27.0385 12.5869 27.9731 13.0972Z" fill="white"/>
<path d="M13.8892 15.6225L13.1389 11.8281C13.1389 11.8281 13.0468 11.0692 12.0859 11.0692H8.61102L8.57153 11.2131C8.57153 11.2131 10.2432 11.5533 11.849 12.8487C13.389 14.0917 13.8892 15.6225 13.8892 15.6225Z" fill="#F9A533"/>
</g>
<defs>
<clipPath id="clip0">
<rect width="42.449" height="29.7143" fill="white" transform="translate(0.897949)"/>
</clipPath>
</defs>
</svg>
