<svg width="88" height="23" viewBox="0 0 88 23" fill="none" xmlns="http://www.w3.org/2000/svg">
<g clip-path="url(#clip0)">
<path fill-rule="evenodd" clip-rule="evenodd" d="M56.0916 0.649414H58.5547H63.7049V3.03059H58.5547V8.55059H63.1451V10.9318H58.5547V18.1294H56.0916V10.8776V8.49647V3.03059V0.649414ZM64.8804 5.95294H67.3436V7.84706C67.7354 6.38588 68.799 5.95294 70.4784 5.95294C70.4784 6.65647 70.4784 7.36 70.4784 8.06353C68.6311 7.90118 67.3436 9.68706 67.3436 11.3647V18.0753H64.8804V5.95294ZM74.0611 10.9318H76.6362V9.36235C76.6362 8.76706 76.1324 8.28 75.5166 8.28H75.1247C74.5089 8.28 74.0051 8.76706 74.0051 9.36235V10.9318H74.0611ZM76.1324 5.95294H74.6209C72.9975 5.95294 71.71 7.25177 71.71 8.76706V15.2612C71.71 16.8306 73.0535 18.0753 74.6209 18.0753H76.1324C77.7558 18.0753 79.0433 16.7765 79.0433 15.2612V14.5576H76.6362V15.2612C76.6362 15.5318 76.4123 15.7482 76.1324 15.7482H74.6209C74.341 15.7482 74.1171 15.5318 74.1171 15.2612V14.5576V13.4753V12.9882H74.6209H76.1324H79.0433V8.82118C79.0433 7.25177 77.7558 5.95294 76.1324 5.95294ZM83.0179 10.9318H85.5929V9.36235C85.5929 8.76706 85.0891 8.28 84.4733 8.28H84.0815C83.4657 8.28 82.9619 8.76706 82.9619 9.36235V10.9318H83.0179ZM85.0891 5.95294H83.5777C81.9542 5.95294 80.6667 7.25177 80.6667 8.76706V15.2612C80.6667 16.8306 82.0102 18.0753 83.5777 18.0753H85.0891C86.7125 18.0753 88 16.7765 88 15.2612V14.5576H85.5929V15.2612C85.5929 15.5318 85.369 15.7482 85.0891 15.7482H83.5777C83.2978 15.7482 83.0738 15.5318 83.0738 15.2612V14.5576V13.4753V12.9882H83.5777H85.0891H88V8.82118C88 7.25177 86.6565 5.95294 85.0891 5.95294ZM21.2163 2.97647V15.7482H23.0637C24.0713 15.7482 24.911 14.9365 24.911 13.9624V4.76236C24.911 3.78824 24.0713 2.97647 23.0637 2.97647H21.2163ZM18.8092 0.649414H23.0637C25.4148 0.649414 27.3181 2.48941 27.3181 4.76236V13.9624C27.3181 16.2353 25.4148 18.0753 23.0637 18.0753H18.8092V0.649414ZM41.257 2.11059H38.7939V5.95294H37.2265V7.52235H38.7939V15.7482C38.7939 17.0471 39.9135 18.1294 41.257 18.1294H42.4886V17.8047V15.7482H41.5929C41.425 15.7482 41.313 15.64 41.313 15.4776V13.4212V7.52235H42.8804V5.95294H41.313V2.11059H41.257ZM28.8855 5.95294H31.3486V15.1529C31.3486 16.56 33.8117 15.5859 33.8117 14.4494V5.95294H36.2749V18.1294H33.8117V16.7765C33.4199 17.8588 32.4123 18.1294 31.2367 18.1294C29.2214 18.1294 28.8855 17.0471 28.8855 15.64V5.95294ZM43.7201 5.95294H46.1832L48.0866 13.1506L49.71 5.95294H52.1731L48.9822 19.9694C48.3105 22.1341 47.1909 22.9459 46.2952 22.9459H44.7278V20.5647H46.2952C46.799 20.5647 46.799 19.2659 46.967 18.0753L43.7201 5.95294Z" fill="#AFAFAF"/>
<path fill-rule="evenodd" clip-rule="evenodd" d="M6.99746 11.094C6.43766 11.6893 5.7659 11.9599 5.09415 12.0682C5.09415 12.0682 5.09415 11.094 4.98219 11.094C4.87023 11.094 3.97455 11.7434 3.75064 11.8517C3.5827 11.9058 3.07888 11.3646 3.07888 11.3646C2.29517 11.4187 1.56743 11.4187 0.783715 11.4187C1.45547 10.4987 2.51908 10.0117 3.69466 9.57874C1.73537 9.74109 0.727735 9.25403 0.447837 8.2258C0.727735 8.17168 0.951654 8.17168 1.23155 8.17168C1.06361 7.68462 0.727735 7.3058 0.167939 7.08933C0.391857 6.92698 0.615776 6.76462 0.839695 6.60227C0.335878 5.89874 0.0559796 5.24933 0 4.65404C1.06361 4.92462 2.01527 5.35756 2.79898 6.27756C2.91094 5.89874 3.07888 5.57403 3.19084 5.24933C4.03053 5.57403 4.75827 6.16933 5.37405 7.08933C4.98219 6.22345 4.59033 5.35756 4.25445 4.49168C4.08651 4.00462 3.91857 3.46345 3.75064 2.97639C4.47837 3.03051 5.09415 3.35521 5.65394 3.84227C5.486 3.03051 5.486 2.32698 5.54198 1.67756C5.82188 1.89404 6.15776 2.11051 6.43766 2.27286C6.49364 1.29874 6.6056 0.378742 7.22137 -0.0541992C7.78117 0.378742 7.89313 1.29874 8.00509 2.27286C8.28499 2.05639 8.62086 1.83992 8.90076 1.67756C8.95674 2.32698 8.95674 3.03051 8.73282 3.84227C9.29262 3.35521 9.9084 3.03051 10.6361 2.97639C10.4682 3.46345 10.3003 4.00462 10.0763 4.49168C9.68448 5.35756 9.3486 6.22345 8.95674 7.08933C9.57252 6.16933 10.3003 5.57403 11.1399 5.24933C11.2519 5.57403 11.4198 5.89874 11.5318 6.27756C12.3155 5.35756 13.2672 4.87051 14.3308 4.65404C14.2748 5.19521 13.9949 5.84462 13.4911 6.60227C13.715 6.76462 13.9389 6.92698 14.1628 7.08933C13.6031 7.35992 13.2672 7.73874 13.0992 8.17168C13.3791 8.17168 13.6031 8.2258 13.8829 8.2258C13.6031 9.25403 12.5954 9.74109 10.6361 9.57874C11.7557 10.0117 12.8753 10.5529 13.5471 11.4187C12.7634 11.4187 12.0356 11.3646 11.2519 11.3646C11.2519 11.3646 10.6921 11.9058 10.5802 11.8517C10.4122 11.7434 9.46056 11.094 9.3486 11.094C9.23664 11.094 9.23664 12.0682 9.23664 12.0682C8.56489 11.9599 7.89313 11.6893 7.33333 11.094V14.287H6.94147V11.094H6.99746Z" fill="#AFAFAF"/>
<path d="M13.827 15.8022H0.447876V18.1293H13.827V15.8022Z" fill="#AFAFAF"/>
</g>
<defs>
<clipPath id="clip0">
<rect width="88" height="23" fill="white"/>
</clipPath>
</defs>
</svg>
