<svg width="60" height="24" viewBox="0 0 60 24" fill="none" xmlns="http://www.w3.org/2000/svg">
<rect width="59.1373" height="23.1111" rx="4" fill="#E8E8E8"/>
<path d="M53.6269 14.6744C53.4379 14.6751 53.2509 14.7138 53.0767 14.7883C52.9024 14.8628 52.7442 14.9717 52.6112 15.1086C52.4782 15.2455 52.373 15.4078 52.3016 15.5863C52.2302 15.7647 52.1939 15.9557 52.195 16.1485C52.1939 16.3412 52.2302 16.5323 52.3016 16.7107C52.373 16.8891 52.4782 17.0514 52.6112 17.1884C52.7442 17.3253 52.9024 17.4341 53.0767 17.5086C53.2509 17.5831 53.4379 17.6218 53.6269 17.6225C54.4167 17.6225 55.0588 16.9622 55.0588 16.1485C55.0599 15.9557 55.0237 15.7647 54.9522 15.5863C54.8808 15.4078 54.7756 15.2455 54.6426 15.1086C54.5096 14.9717 54.3514 14.8628 54.1771 14.7883C54.0029 14.7138 53.8159 14.6751 53.6269 14.6744ZM48.9148 13.536C48.9148 12.4208 47.9893 11.518 46.8475 11.518C45.7058 11.518 44.7803 12.4222 44.7803 13.536C44.7803 14.6497 45.7071 15.5525 46.8489 15.5525C47.9906 15.5525 48.9148 14.6497 48.9148 13.536ZM48.9228 9.6138H51.2037V17.4568H48.9228V16.9554C48.2579 17.4235 47.4688 17.6739 46.6608 17.6732C44.4404 17.6732 42.6405 15.8211 42.6405 13.536C42.6405 11.2509 44.4404 9.39871 46.6608 9.39871C47.5003 9.39871 48.2781 9.66312 48.9228 10.1166V9.6138ZM30.6654 10.6358V9.61517H28.3295V17.4568H30.6708V13.7949C30.6708 12.5592 31.9711 11.8961 32.8737 11.8961H32.9006V9.61517C31.9737 9.61517 31.1235 10.0234 30.6654 10.6358ZM24.8465 13.536C24.8465 12.4208 23.921 11.518 22.7792 11.518C21.6374 11.518 20.7119 12.4222 20.7119 13.536C20.7119 14.6497 21.6388 15.5525 22.7805 15.5525C23.9223 15.5525 24.8465 14.6497 24.8465 13.536ZM24.8545 9.6138H27.1367V17.4568H24.8545V16.9554C24.2098 17.4075 23.432 17.6732 22.5925 17.6732C20.3721 17.6732 18.5721 15.8211 18.5721 13.536C18.5721 11.2509 20.3721 9.39871 22.5925 9.39871C23.432 9.39871 24.2098 9.66312 24.8545 10.1166V9.6138ZM38.5865 9.40419C37.6758 9.40419 36.8135 9.69462 36.2359 10.4974V9.61517H33.9644V17.4568H36.2641V13.336C36.2641 12.1441 37.0405 11.5591 37.9767 11.5591C38.9788 11.5591 39.5564 12.1756 39.5564 13.3195V17.4568H41.8345V12.4701C41.8345 10.6454 40.4241 9.40419 38.5865 9.40419ZM15.2489 17.4568H17.6372V6.12042H15.2489V17.4568ZM4.75818 17.4595H7.28752V6.11768H4.75952L4.75818 17.4595ZM13.6048 6.11768C13.6048 8.57263 12.6753 10.8577 11.0177 12.5551L14.5128 17.4595H11.3898L7.59243 12.1304L8.573 11.3742C9.37126 10.7619 10.018 9.96764 10.4616 9.05493C10.9053 8.14223 11.1334 7.13635 11.1279 6.11768H13.6021H13.6048Z" fill="#AFAFAF"/>
</svg>
