<svg width="102" height="23" viewBox="0 0 102 23" fill="none" xmlns="http://www.w3.org/2000/svg">
<path d="M19.0933 5.22998C20.7621 5.22998 22.1143 5.96657 22.7031 7.02265V6.09082C22.7031 5.795 22.925 5.57609 23.1943 5.57609H25.3542C25.6235 5.57609 25.8454 5.79795 25.8454 6.09082V16.9178C25.8454 17.187 25.6235 17.4089 25.3542 17.4089H23.1943C22.9221 17.4089 22.7031 17.187 22.7031 16.9178V15.9594C22.0877 17.0125 20.7384 17.7491 19.0697 17.7491C16.0013 17.7491 13.152 15.2938 13.152 11.4659C13.152 7.65866 15.9747 5.22998 19.0933 5.22998ZM19.5342 14.8264C21.3746 14.8264 22.7001 13.3532 22.7001 11.4866C22.7001 9.64657 21.3746 8.17339 19.5342 8.17339C17.7175 8.17339 16.3416 9.64657 16.3416 11.4866C16.3446 13.3532 17.7175 14.8264 19.5342 14.8264Z" fill="#858585"/>
<path d="M6.87634 5.22998C5.18092 5.22998 3.83169 5.96657 3.14524 7.02265V6.09082C3.14524 5.795 2.92333 5.57609 2.65408 5.57609H0.514838C0.245583 5.57609 0.0236707 5.79795 0.0236707 6.09082L0 21.7604V21.2309V21.3463V21.6628V21.9054C0 22.1745 0.221913 22.3964 0.491167 22.3964H2.67775C2.94996 22.3964 3.16891 22.1745 3.16891 21.9054V21.6628V21.3463V21.2309V21.7604L3.19259 16.0777C3.90567 17.1574 5.37917 17.7491 6.82604 17.7491C9.96832 17.7491 12.72 15.2938 12.72 11.4659C12.72 7.65866 9.99199 5.22998 6.87634 5.22998ZM6.35854 14.8264C4.54181 14.8264 3.16596 13.3532 3.16596 11.4866C3.16596 9.64657 4.54181 8.17339 6.35854 8.17339C8.19894 8.17339 9.52746 9.64657 9.52746 11.4866C9.52746 13.3532 8.2019 14.8264 6.35854 14.8264Z" fill="#858585"/>
<path d="M38.027 5.60278H35.7073C35.3404 5.60278 35.1451 5.84831 35.0711 6.11455L34.0533 9.6496L32.5709 14.2437L30.0884 6.11455C30.0145 5.84536 29.8458 5.60278 29.5529 5.60278H27.0379C26.4757 5.60278 26.4284 5.9696 26.526 6.36008L30.0914 16.8854C30.2127 17.2019 30.4109 17.3735 30.7009 17.3735H31.5619L29.9109 21.6392C29.7393 22.1036 29.8872 22.3965 30.3518 22.3965H32.6715C33.0384 22.3965 33.2337 22.151 33.3076 21.8847L33.4645 21.3345L34.9054 17.3882L38.4679 6.36008C38.6365 5.89564 38.4915 5.60278 38.027 5.60278Z" fill="#858585"/>
<path d="M59.5288 5.37793C59.801 5.37793 60.094 5.49922 60.094 5.99028V8.10243C60.094 8.59349 59.7004 8.71478 59.5052 8.71478H58.9163C57.3452 8.71478 56.4368 9.50166 56.4368 11.5635V16.8912C56.4368 17.1634 56.1913 17.3586 55.922 17.3586H53.762C53.4928 17.3586 53.2709 17.1368 53.2709 16.8676V6.04057C53.2709 5.74475 53.4928 5.52584 53.762 5.52584H55.8007C56.0699 5.52584 56.2919 5.72108 56.2919 5.99324V7.12031C56.9043 6.06423 57.937 5.37793 59.1886 5.37793H59.5288Z" fill="#AFAFAF"/>
<path d="M60.4283 1.98791C60.4283 0.908167 61.313 0 62.4167 0C63.4967 0 64.3814 0.908167 64.3814 1.98791C64.3814 3.06765 63.4967 3.97582 62.4167 3.97582C61.313 3.97582 60.4283 3.07061 60.4283 1.98791ZM61.3367 17.3558C61.0408 17.3558 60.8219 17.1102 60.8219 16.841V6.04064C60.8219 5.74482 61.0438 5.52592 61.3367 5.52592H63.473C63.7659 5.52592 63.9878 5.74778 63.9878 6.04064V16.841C63.9878 17.1102 63.7659 17.3558 63.473 17.3558H61.3367Z" fill="#AFAFAF"/>
<path d="M101.867 15.6135L101.13 14.4095C100.908 14.09 100.541 14.09 100.171 14.3119C99.7543 14.5811 99.3371 14.6816 99.0412 14.6816C98.4761 14.6816 97.692 14.3385 97.692 13.1582V8.17656H101.13C101.399 8.17656 101.645 7.93103 101.645 7.66183V6.04074C101.645 5.74492 101.399 5.52601 101.13 5.52601H97.692V3.68305V3.51148V3.03816C97.692 2.74234 97.4701 2.52344 97.2008 2.52344H95.0409C94.745 2.52344 94.526 2.7453 94.526 3.03816V3.51148V3.68305V5.52601H92.9076C92.6353 5.52601 92.4164 5.74788 92.4164 6.04074V7.66183C92.4164 7.93103 92.6383 8.17656 92.9076 8.17656H94.529V13.8711C94.529 16.5216 96.5173 17.6014 98.4583 17.6014C99.8342 17.6014 101.035 17.1843 101.796 16.424C102.041 16.1785 102.065 15.9063 101.867 15.6135Z" fill="#AFAFAF"/>
<path d="M74.8645 17.3322V15.7614C74.2757 16.7198 72.9501 17.4564 71.2784 17.4564C68.0355 17.4564 65.3104 15.149 65.3104 11.3448C65.3104 7.54055 68.0858 5.18286 71.1541 5.18286C72.8495 5.18286 74.2491 5.94312 74.8615 6.9992V6.04074C74.8615 5.76858 75.0835 5.54968 75.3527 5.54968H77.489C77.7849 5.54968 78.0038 5.77154 78.0038 6.04074V17.4298C78.0038 20.7193 75.5717 23.0001 71.6453 23.0001C68.4793 23.0001 66.1626 20.9915 65.6004 18.7344C65.5264 18.5362 65.5767 18.3173 65.846 18.2433L68.1835 18.2404C68.4764 18.2374 68.651 18.264 68.7486 18.4622C69.0178 19.3467 69.9262 20.2786 71.7193 20.2786C73.8112 20.2756 74.8645 19.0982 74.8645 17.3322ZM71.6749 14.6314C73.5153 14.6314 74.8408 13.2321 74.8408 11.3655C74.8408 9.49887 73.5153 8.09965 71.6749 8.09965C69.8582 8.09965 68.506 9.49887 68.506 11.3655C68.506 13.2321 69.8552 14.6314 71.6749 14.6314Z" fill="#AFAFAF"/>
<path d="M46.4833 5.15022C44.7909 5.15022 43.415 5.91048 42.8262 6.8926V4.42251L42.8026 1.07382C42.8026 0.80167 42.557 0.582764 42.2877 0.582764H40.1514C39.8555 0.582764 39.6366 0.804629 39.6366 1.07382L39.6603 4.42251V16.8351C39.6603 17.1043 39.8822 17.3262 40.1751 17.3262H42.3114C42.5806 17.3262 42.8026 17.1043 42.8026 16.8351V15.8767C43.492 16.9327 44.7672 17.6693 46.436 17.6693C49.5546 17.6693 52.3537 15.214 52.3537 11.3861C52.3507 7.57891 49.528 5.15022 46.4833 5.15022ZM45.9685 14.7466C44.1518 14.7466 42.7996 13.2734 42.7996 11.4068C42.7996 9.56682 44.1488 8.09363 45.9685 8.09363C47.7852 8.09363 49.1611 9.56682 49.1611 11.4068C49.1581 13.2734 47.7852 14.7466 45.9685 14.7466Z" fill="#AFAFAF"/>
<path d="M86.9306 5.15028C85.0399 5.15028 83.6877 5.93716 83.0013 6.89266V4.29832V1.0443C83.0013 0.775104 82.7557 0.576904 82.4864 0.576904H80.3265C80.0572 0.576904 79.8353 0.798769 79.8353 1.06797V4.29536V16.8293C79.8353 17.0984 80.0572 17.3203 80.3265 17.3203H82.4864C82.7557 17.3203 83.0013 17.1251 83.0013 16.8529V11.1377C83.0013 9.29768 84.1789 8.07002 85.9719 8.07002C87.8123 8.07002 88.845 9.27401 88.845 11.1377V16.8559C88.845 17.128 89.0906 17.3233 89.3598 17.3233H91.4961C91.7653 17.3233 92.0109 17.128 92.0109 16.8559V10.2798C92.0139 7.36006 90.0758 5.15028 86.9306 5.15028Z" fill="#AFAFAF"/>
</svg>
