<svg width="21" height="22" viewBox="0 0 21 22" fill="none" xmlns="http://www.w3.org/2000/svg">
<path d="M6.22408 5.29624H19.6836L16.6494 13.7277H5.36827L2.48963 1H0" stroke="#FF5722" stroke-width="1.5" stroke-miterlimit="10"/>
<path d="M8.5 8.77778L10.6429 11L14.5 7" stroke="#FF5722" stroke-width="1.5"/>
<path d="M17.2718 16.7731H5.67943C4.82362 16.7731 4.12341 16.0703 4.12341 15.2114C4.12341 14.3525 4.82362 13.7278 5.67943 13.7278" stroke="#FF5722" stroke-width="1.5" stroke-miterlimit="10"/>
<path d="M6.37962 21.2237C7.07983 21.2237 7.70224 20.599 7.70224 19.8963C7.70224 19.1935 7.07983 18.5688 6.37962 18.5688C5.67941 18.5688 5.05701 19.1935 5.05701 19.8963C5.05701 20.6771 5.67941 21.2237 6.37962 21.2237Z" stroke="#FF5722" stroke-width="1.5" stroke-miterlimit="10"/>
<path d="M14.7045 21.2237C15.4047 21.2237 16.0271 20.599 16.0271 19.8963C16.0271 19.1935 15.4047 18.5688 14.7045 18.5688C14.0042 18.5688 13.3818 19.1935 13.3818 19.8963C13.3818 20.6771 14.0042 21.2237 14.7045 21.2237Z" stroke="#FF5722" stroke-width="1.5" stroke-miterlimit="10"/>
</svg>
