<svg width="206" height="37" viewBox="0 0 206 37" fill="none" xmlns="http://www.w3.org/2000/svg">
<g clip-path="url(#clip0)">
<path fill-rule="evenodd" clip-rule="evenodd" d="M79.8097 7.31103C87.3626 8.20513 91.7506 5.33875 91.7506 9.86185C91.7506 17.2776 92.974 16.4361 83.6127 16.3309L91.9368 36.6323L111.244 36.6586L119.648 16.3572C110.446 16.0417 111.43 17.8299 111.43 10.0722C111.43 6.6799 112.787 7.36363 115.898 7.36363C118.398 7.36363 120.925 7.33733 123.425 7.36363L126.297 0.237114C123.212 -0.209937 116.909 0.158223 113.478 0.158223C101.218 0.158223 102.149 4.52354 102.176 14.832C102.176 16.8569 102.335 18.5662 103.266 20.1177C103.984 21.3011 105.394 22.537 107.149 22.9052L101.67 36.2378L96.0589 23.1682C97.4684 21.8007 100.952 21.9848 101.005 15.2265C101.085 4.70762 101.963 0.158223 90.1284 0.158223C86.5381 0.158223 80.1555 -0.209937 76.911 0.237114L79.8097 7.31103Z" fill="#EE2A2B"/>
<path fill-rule="evenodd" clip-rule="evenodd" d="M206 30.1891V21.0903C205.282 19.3547 205.441 15.6994 199.883 14.7001C196.639 14.0953 191.001 14.4635 187.464 14.4635C184.459 14.4635 184.884 13.3064 184.884 10.6767C184.857 6.9951 185.522 7.75772 194.325 7.78401C197.357 7.78401 196.32 9.09887 196.825 11.3867H205.973V6.41656L205.761 5.94322C205.734 5.89062 205.681 5.70654 205.654 5.62765L204.989 3.89204C204.537 3.15573 204.138 2.57719 203.527 2.15644C199.591 -0.68365 191.666 0.341937 186.054 0.31564C181.56 0.31564 178.235 0.894176 176.613 3.91834C175.39 6.17989 175.337 12.5701 175.762 15.4628C176.799 22.4578 183.847 21.6426 189.086 21.6426C194.644 21.6426 196.665 20.8011 196.745 23.7463C196.931 30.0314 196.665 29.4265 192.916 29.4265C184.06 29.4002 184.937 30.268 184.884 24.693L175.656 24.7193C175.47 35.396 177.411 36.816 188.102 36.816C191.453 36.816 197.25 37.1316 200.256 36.5004C205.388 35.4223 205.282 31.9773 206 30.1891Z" fill="#404042"/>
<path fill-rule="evenodd" clip-rule="evenodd" d="M34.36 27.9274C34.36 34.8173 37.3385 36.8422 44.2531 36.8422C54.3323 36.8422 64.518 38.9196 64.7041 28.9267C64.8637 19.9594 64.7041 9.67727 64.7041 0.631076L55.4759 0.552185V26.9282C55.4759 30.0312 53.2154 29.1897 47.0721 29.1897C42.8702 29.216 43.6148 28.8741 43.6148 21.7739C43.6148 14.7263 43.6148 7.6524 43.6148 0.604779L34.36 0.552185V27.9274Z" fill="#404042"/>
<path fill-rule="evenodd" clip-rule="evenodd" d="M171.64 27.9274V0.552185L162.385 0.578482V26.9282C162.359 29.2686 161.268 29.1897 159.114 29.1897C157.306 29.1897 155.497 29.1897 153.689 29.1897C151.428 29.216 150.524 29.2686 150.524 26.9282V0.552185H141.269V28.506C141.296 31.7931 142.12 33.818 144.035 35.2117C147.359 37.6311 156.667 36.8159 161.508 36.8159C168.555 36.8422 171.64 34.9488 171.64 27.9274Z" fill="#404042"/>
<path fill-rule="evenodd" clip-rule="evenodd" d="M0 6.41649V30.1891C0.824426 32.2139 0.691454 35.6326 6.09011 36.6055C9.30803 37.1841 14.9992 36.8422 18.5097 36.8422C24.3073 36.8422 29.8123 36.6055 30.3176 29.8472C30.424 28.5849 30.4772 25.0085 30.291 23.8515H21.2223C20.85 25.9026 22.0201 29.295 19.6798 29.6105C17.9778 29.8472 14.4142 29.6368 12.4994 29.6368C8.90911 29.6631 9.25484 29.0846 9.28144 25.7186V11.4655C9.28144 8.1521 8.90911 7.52097 12.4994 7.52097C22.0999 7.54727 21.1425 6.23241 21.1425 13.3326L30.3708 13.28C30.3708 3.6027 30.5569 0.315567 18.7224 0.315567C15.2652 0.315567 9.54738 1.75834e-06 6.40924 0.525943C1.96798 1.28856 1.24994 3.12936 0.212755 5.94314C0.186161 5.99574 0.186161 6.54798 0.0797831 6.25871C0.0531887 6.23241 0.0265944 6.3639 0 6.41649Z" fill="#404042"/>
<path fill-rule="evenodd" clip-rule="evenodd" d="M68.7199 35.6589L68.7465 36.6319L77.9747 36.6056V23.9304H84.5701L81.6447 16.6987L77.9747 16.725C77.9747 14.9105 78.1875 8.5729 77.7885 7.33694C77.3896 6.20616 75.3684 1.13082 74.8366 0.525992L68.7199 0.499695V35.6589Z" fill="#404042"/>
<path fill-rule="evenodd" clip-rule="evenodd" d="M125.073 16.7249H121.456L118.558 23.9303L125.18 23.9566L125.206 36.5529L134.408 36.6055L134.435 0.52594H128.158C127.387 2.84008 126.217 5.02274 125.392 7.31059C124.701 9.23028 125.605 14.4371 125.073 16.7249Z" fill="#404042"/>
</g>
<defs>
<clipPath id="clip0">
<rect width="206" height="37" fill="white"/>
</clipPath>
</defs>
</svg>
