<svg width="106" height="36" viewBox="0 0 106 36" fill="none" xmlns="http://www.w3.org/2000/svg">
<g clip-path="url(#clip0)">
<path fill-rule="evenodd" clip-rule="evenodd" d="M93.949 0H104.136L101.107 5.96739H91.3189L93.949 0ZM99.4088 9.32609L85.959 35.8696H83.329H78.1355H74.6732L70.4119 9.71739L66.084 19.2717H58.0941L66.5834 0.0326087H68.8139H74.7731H77.3365L81.8974 27.3261L89.8541 9.32609H99.4088ZM64.4194 22.9239L58.5934 35.8696H56.0633H50.7699H47.4075L44.8773 22.9239H53.8993L54.5984 27.163L56.4628 22.9239H64.4194ZM44.1782 19.2391L41.6814 6.45652H19.5093C9.42194 8.44565 5.22721 26.9348 15.4477 30.2283H29.7297L30.8949 20.6087H18.2442L18.91 14.9674H40.5827L39.9169 20.6087L38.7517 30.2283L38.0859 35.8696H15.7473C6.55887 36.0652 0.965909 32.5761 0.100331 23.1196C-0.964996 11.8043 7.29129 0.717391 19.143 0H40.383H41.6148H50.0375L53.2668 19.2391H44.1782Z" fill="#F7F7F7"/>
<path fill-rule="evenodd" clip-rule="evenodd" d="M95.8128 0.163025H106L102.638 6.13042H92.8498L95.8128 0.163025ZM100.74 9.48911L85.8586 36.0326H83.2286H78.0351H74.5728L71.7097 9.88042L66.8825 19.4348H58.8925L68.4139 0.195634H70.6444H76.6036H79.167L82.2631 27.5217L91.1852 9.52172H100.74V9.48911ZM65.0514 23.0543L58.493 36H55.9629H50.6695H47.3071L45.4761 23.0543H54.4648L54.9308 27.2935L57.0282 23.0543H65.0514ZM44.9767 19.4022L43.179 6.61955H21.0068C10.7864 8.60868 5.62618 27.0978 15.6802 30.3913H29.9622L31.6268 20.7717H18.9761L19.9415 15.1304H41.6143L40.6488 20.7717L38.9842 30.3913L38.0188 36.0326H15.6469C6.45847 36.2282 1.03196 32.7391 0.665755 23.2826C0.232966 11.9674 9.12179 0.880416 21.0068 0.163025H42.2468H43.4786H51.9346L54.0986 19.4022H44.9767Z" fill="url(#paint0_linear)"/>
</g>
<defs>
<linearGradient id="paint0_linear" x1="18.2189" y1="-8.35467e-06" x2="52.4345" y2="50.0232" gradientUnits="userSpaceOnUse">
<stop stop-color="#DBEFFB"/>
<stop offset="0.0754864" stop-color="#0099E2"/>
<stop offset="1" stop-color="#1D2088"/>
</linearGradient>
<clipPath id="clip0">
<rect width="106" height="36" fill="white"/>
</clipPath>
</defs>
</svg>
