<svg width="211" height="37" viewBox="0 0 211 37" fill="none" xmlns="http://www.w3.org/2000/svg">
<g clip-path="url(#clip0)">
<path d="M92.7406 37C92.289 36.9253 91.9126 36.8505 91.4609 36.8505C90.4823 36.701 89.579 36.4768 88.6757 36.1031C86.4927 35.1313 85.3635 33.4121 85.1377 31.095C84.9872 29.6748 85.213 28.3293 85.5141 26.9091C86.1916 23.6202 86.9443 20.3313 87.6218 17.1172C87.9982 15.5475 88.5251 14.0526 89.4285 12.7071C90.934 10.3152 93.1923 8.89497 95.9022 8.1475C97.1067 7.84851 98.3111 7.62427 99.5155 7.62427C101.322 7.62427 103.054 7.62427 104.86 7.62427C106.14 7.62427 107.344 7.84851 108.549 8.297C108.925 8.44649 109.226 8.59598 109.527 8.74548C111.259 9.64245 112.237 10.9879 112.614 12.8566C112.915 14.2768 112.764 15.697 112.463 17.0424C111.71 20.5556 110.958 24.0687 110.205 27.5818C109.828 29.1515 109.301 30.5717 108.398 31.9172C106.893 34.2344 104.785 35.6546 102.15 36.402C101.172 36.701 100.193 36.8505 99.2144 36.9253C99.0639 36.9253 98.9133 37 98.838 37C96.8056 37 94.7731 37 92.7406 37ZM101.247 11.2869C100.795 11.2869 100.344 11.2869 99.8166 11.2869C97.8594 11.2869 96.4292 12.1839 95.5259 13.8283C95.1495 14.5758 94.8484 15.3233 94.6978 16.1455C94.2462 18.3879 93.7192 20.5556 93.2676 22.798C92.8912 24.7414 92.4395 26.6849 92.0631 28.5536C91.9126 29.4505 91.8373 30.2728 92.0631 31.1697C92.3643 32.1414 92.9665 32.7394 93.9451 33.0384C94.3214 33.1132 94.7731 33.1879 95.2248 33.1879C96.1281 33.1879 97.0314 33.1879 97.9347 33.1879C99.8919 33.1879 101.397 32.2909 102.376 30.497C102.752 29.7495 103.054 29.002 103.204 28.2546C104.032 24.293 104.86 20.4061 105.763 16.4445C105.914 15.5475 106.065 14.6505 105.914 13.7536C105.763 12.4829 104.935 11.5859 103.656 11.3616C103.355 11.2869 102.978 11.2869 102.677 11.2869C102.15 11.2869 101.699 11.2869 101.247 11.2869Z" fill="#3E3D3F"/>
<path d="M158.909 37C158.457 36.9253 158.081 36.8505 157.629 36.8505C156.65 36.701 155.747 36.4768 154.844 36.1031C152.661 35.1313 151.532 33.4121 151.306 31.0202C151.155 29.6 151.381 28.1798 151.682 26.8344C152.36 23.695 153.037 20.6303 153.715 17.4909C154.016 15.9212 154.543 14.4263 155.371 13.0808C156.876 10.4647 159.135 8.89497 162.07 8.1475C163.275 7.84851 164.479 7.62427 165.684 7.62427C167.49 7.62427 169.222 7.62427 171.028 7.62427C172.308 7.62427 173.512 7.84851 174.717 8.297C175.018 8.44649 175.394 8.52124 175.695 8.74548C177.577 9.7172 178.556 11.2869 178.857 13.3798C179.083 14.9495 178.857 16.4445 178.481 17.9394C177.803 21.0788 177.126 24.2182 176.448 27.2829C176.147 28.7778 175.62 30.198 174.867 31.5435C173.362 34.0849 171.179 35.6546 168.394 36.4768C167.415 36.7758 166.436 36.9253 165.458 37C165.307 37 165.232 37.0748 165.081 37.0748C162.974 37 160.941 37 158.909 37ZM162.673 33.1879C163.199 33.1879 163.651 33.1879 164.178 33.1879C164.705 33.1132 165.307 33.0384 165.759 32.8889C166.888 32.5152 167.716 31.7677 168.318 30.7212C168.845 29.8243 169.146 28.8526 169.372 27.8808C170.2 24.1435 170.953 20.3313 171.781 16.594C172.007 15.697 172.157 14.7253 172.007 13.7536C171.856 12.4829 171.028 11.5859 169.748 11.3616C169.447 11.2869 169.146 11.2869 168.845 11.2869C167.867 11.2869 166.963 11.2869 165.985 11.2869C164.103 11.2869 162.672 12.1091 161.769 13.7536C161.242 14.5758 160.941 15.5475 160.791 16.5192C159.963 20.3313 159.135 24.0687 158.382 27.8808C158.231 28.6283 158.081 29.4505 158.081 30.2728C158.156 31.8424 158.833 33.0384 160.715 33.2627C161.393 33.1879 161.995 33.1879 162.673 33.1879Z" fill="#3E3D3F"/>
<path d="M64.9636 36.8505C62.9312 36.8505 60.974 36.8505 58.9415 36.8505C58.9415 36.7758 58.8662 36.701 58.8662 36.5515C58.7157 35.0566 58.6404 33.4869 58.4898 31.9919C58.3393 30.0485 58.1887 28.1051 58.0382 26.1616C57.9629 24.9657 57.8876 23.7697 57.7371 22.5738C57.5865 20.6303 57.436 18.6121 57.2854 16.6687C57.2101 16.1455 57.2101 15.5475 57.1349 15.0243C57.1349 14.8748 57.0596 14.7253 57.0596 14.5758H56.9843C56.8338 15.2485 56.6832 15.996 56.5326 16.6687C55.2529 22.499 54.0485 28.3293 52.7688 34.2344C52.4677 35.7293 51.4138 36.4768 50.0589 36.7758C49.6825 36.8505 49.3061 36.9253 49.005 36.9253C47.8758 36.9253 46.7467 36.9253 45.6928 36.9253C45.6176 36.9253 45.467 36.9253 45.3917 36.9253C45.467 36.4768 45.5423 36.0283 45.6928 35.5798C46.8973 29.8243 48.177 24.0687 49.3814 18.3132C49.9083 15.697 50.5105 13.0061 51.1127 10.3899C51.4138 8.96972 52.3172 8.1475 53.6721 7.77376C53.898 7.69901 54.0485 7.69902 54.2744 7.69902C57.2854 7.69902 60.2212 7.69902 63.2323 7.69902C63.3075 7.69902 63.4581 7.69902 63.6086 7.69902C64.0603 12.9313 64.4367 18.1637 64.8883 23.396H64.9636C65.4906 22.3495 66.0175 21.3031 66.5444 20.2566C67.0714 19.2101 67.5983 18.1637 68.1252 17.1172C68.6522 16.0707 69.1791 15.0243 69.706 13.9031C70.233 12.8566 70.7599 11.8101 71.2868 10.7637C71.8138 9.7172 72.3407 8.67073 72.8677 7.62427C76.8573 7.62427 80.847 7.62427 84.9119 7.62427C84.7613 8.1475 84.6861 8.74548 84.6108 9.26871C82.8794 17.4162 81.1481 25.5637 79.3414 33.7111C78.965 35.5798 77.6853 36.701 75.7282 36.7758C74.4485 36.8505 73.244 36.7758 71.9643 36.7758C71.8891 36.7758 71.8891 36.7758 71.7385 36.701C73.3193 29.301 74.9001 21.901 76.4809 14.4263C76.2551 14.501 76.2551 14.6505 76.1798 14.8C74.7496 17.6404 73.3193 20.4808 71.8891 23.3212C69.706 27.6566 67.523 31.9172 65.34 36.2525C65.1142 36.4768 65.0389 36.701 64.9636 36.8505Z" fill="#3E3D3F"/>
<path d="M197.3 36.8505C194.891 30.2727 192.557 23.7697 190.148 17.1919H190.073C190.073 17.3414 189.998 17.4162 189.998 17.5657C188.869 22.9475 187.664 28.3293 186.535 33.6364C186.385 34.2344 186.159 34.9071 185.782 35.4303C185.18 36.2525 184.427 36.701 183.449 36.7758C182.094 36.8505 180.664 36.7758 179.309 36.7758C179.233 36.7758 179.233 36.7758 179.158 36.701C179.233 36.1778 179.384 35.6546 179.459 35.1313C180.889 28.404 182.32 21.7515 183.75 15.0242C184.126 13.4546 184.427 11.8101 184.804 10.2404C185.105 8.82021 186.008 7.92324 187.363 7.62425C187.514 7.5495 187.664 7.5495 187.89 7.5495C189.998 7.5495 192.181 7.5495 194.289 7.5495C194.364 7.5495 194.364 7.5495 194.514 7.5495C196.547 12.9313 198.579 18.3131 200.687 23.695H200.762C200.838 23.396 200.913 23.0222 200.988 22.7232C201.816 18.6121 202.644 14.501 203.548 10.3899C203.623 10.0162 203.773 9.64243 203.924 9.26869C204.451 8.22223 205.354 7.62425 206.483 7.62425C207.914 7.5495 209.419 7.62425 210.849 7.62425C210.849 7.62425 210.925 7.62425 211 7.69899C211 7.84849 211 7.92324 210.925 8.07273C209.946 12.5576 209.043 17.0424 208.064 21.4525C207.161 25.7131 206.258 29.9737 205.354 34.3091C205.279 34.7576 205.053 35.2808 204.752 35.6546C204.225 36.3273 203.548 36.7758 202.644 36.8505C202.418 36.8505 202.193 36.8505 201.967 36.8505C200.537 36.8505 199.182 36.8505 197.751 36.8505C197.601 36.8505 197.45 36.8505 197.3 36.8505Z" fill="#3E3D3F"/>
<path d="M14.7542 36.7758C14.9048 36.1778 14.98 35.5051 15.1306 34.9071C16.2597 29.6 17.3889 24.2182 18.518 18.9111C19.1202 15.996 19.7977 13.0808 20.3999 10.1657C20.7011 8.67073 22.2066 7.54952 23.6368 7.54952C25.594 7.54952 27.4759 7.54952 29.4331 7.54952C29.5084 7.54952 29.659 7.54952 29.8095 7.54952C31.9173 13.2303 34.025 18.9111 36.0575 24.6667H36.1327C36.208 24.5172 36.208 24.3677 36.2833 24.1435C37.2619 19.5091 38.2405 14.9495 39.2191 10.3152C39.2943 9.86669 39.5202 9.4182 39.6707 8.96972C40.1224 8.07275 40.9504 7.54952 41.929 7.54952C43.5098 7.47477 45.0154 7.54952 46.5962 7.54952C46.5962 7.69901 46.5209 7.84851 46.5209 7.998C45.6176 12.2586 44.7143 16.5192 43.8109 20.7798C42.9076 25.0404 42.0043 29.301 41.101 33.6364C41.0257 34.1596 40.8752 34.6828 40.5741 35.1313C39.8966 36.1778 38.9932 36.7758 37.7888 36.7758C36.3586 36.7758 34.853 36.7758 33.4228 36.7758C32.8958 36.7758 32.9711 36.7758 32.8206 36.3273C30.7881 30.7212 28.7556 25.1899 26.7232 19.5839C26.4973 18.9111 26.1962 18.1637 25.9704 17.4909C25.8951 17.3414 25.8951 17.2667 25.7446 17.1172C25.6693 17.2667 25.6693 17.4162 25.594 17.5657C24.4649 23.0222 23.2605 28.4041 22.1313 33.8606C21.9808 34.4586 21.8302 34.9818 21.5291 35.5051C21.0774 36.2525 20.4752 36.701 19.6472 36.701C18.0664 36.7758 16.4856 36.701 14.9048 36.701C14.9048 36.7758 14.9048 36.7758 14.7542 36.7758Z" fill="#3E3D3F"/>
<path d="M124.583 13.3798C122.098 13.3798 119.765 13.3798 117.356 13.3798C117.356 13.2303 117.356 13.0808 117.431 13.0061C117.657 12.0344 117.808 11.0627 118.034 10.0909C118.335 8.82023 119.087 7.99801 120.367 7.69902C120.593 7.62427 120.819 7.62427 120.969 7.62427C127.217 7.62427 133.465 7.62427 139.713 7.62427C139.788 7.62427 139.939 7.62427 140.09 7.62427C140.014 7.92326 140.014 8.1475 139.939 8.37174C139.788 9.19396 139.638 10.0162 139.412 10.8384C139.111 12.1839 138.283 13.0061 136.928 13.3051C136.777 13.3798 136.552 13.3798 136.401 13.3798C134.971 13.3798 133.465 13.3798 132.035 13.3798C131.884 13.3798 131.734 13.3798 131.508 13.3798C131.433 13.8283 131.282 14.2768 131.207 14.7253C129.852 21.2283 128.422 27.7313 127.067 34.2344C126.766 35.6546 125.636 36.701 124.131 36.8505C123.905 36.8505 123.604 36.8505 123.378 36.8505C122.249 36.8505 121.195 36.8505 120.066 36.8505C119.915 36.8505 119.765 36.8505 119.539 36.8505C121.27 29.002 122.927 21.2283 124.583 13.3798Z" fill="#3E3D3F"/>
<path d="M137.982 36.7758C138.283 35.3556 138.584 34.0101 138.885 32.6647C139.864 28.0303 140.918 23.3212 141.896 18.6869C142.498 15.7717 143.176 12.9313 143.778 10.0162C144.079 8.67073 145.434 7.54951 146.789 7.62426C148.069 7.62426 149.424 7.62426 150.704 7.62426C150.854 7.62426 150.929 7.62426 151.08 7.62426C151.08 7.77376 151.08 7.8485 151.005 7.92325C149.876 13.0808 148.822 18.1637 147.692 23.3212C146.94 26.9091 146.187 30.497 145.359 34.1596C145.058 35.5051 144.23 36.3273 142.95 36.701C142.724 36.7758 142.498 36.7758 142.273 36.7758C140.918 36.7758 139.638 36.7758 138.283 36.7758C138.208 36.8505 138.132 36.7758 137.982 36.7758Z" fill="#3E3D3F"/>
<path d="M12.9465 7.62427C12.796 8.37174 12.6454 9.04447 12.4949 9.79194C11.6668 13.6788 10.8388 17.5657 10.0108 21.4526C9.25799 24.9657 8.50523 28.4041 7.75246 31.9172C7.60191 32.6647 7.45136 33.4121 7.3008 34.1596C6.9997 35.5051 6.17166 36.402 4.81668 36.701C4.66613 36.7758 4.51557 36.7758 4.28974 36.7758C2.93477 36.7758 1.57979 36.7758 0.224812 36.7758C0.149536 36.7758 0.074259 36.7758 -0.0762939 36.7758C-0.0762939 36.6263 -0.0762939 36.4768 -0.00101745 36.3273C0.977577 31.9172 1.88089 27.4323 2.85949 23.0222C3.83808 18.6869 4.7414 14.3515 5.72 10.0162C6.0211 8.82023 6.77387 7.99801 7.97829 7.69902C8.12884 7.69902 8.2794 7.62427 8.42995 7.62427C9.8602 7.62427 11.2905 7.62427 12.7207 7.62427C12.796 7.62427 12.8713 7.62427 12.9465 7.62427Z" fill="#FF5A29"/>
<path d="M13.0981 7.47475C13.1734 6.95152 13.324 6.50303 13.3993 5.9798C13.6251 4.78384 13.9262 3.58788 14.152 2.39192C14.4531 0.971717 15.6575 0 17.0878 0C18.3675 0 19.6472 0 21.0022 0C21.1527 0 21.228 0 21.4538 0C21.3786 0.373737 21.3033 0.747475 21.228 1.12121C20.9269 2.46667 20.7011 3.73737 20.4 5.08283C20.0989 6.27879 19.3461 7.10101 18.1417 7.4C17.9911 7.47475 17.8406 7.47475 17.69 7.47475C16.2598 7.47475 14.9048 7.47475 13.4745 7.47475C13.324 7.47475 13.2487 7.47475 13.0981 7.47475Z" fill="#FF5A29"/>
</g>
<defs>
<clipPath id="clip0">
<rect width="211" height="37" fill="white"/>
</clipPath>
</defs>
</svg>
