<svg width="22" height="16" viewBox="0 0 22 16" fill="none" xmlns="http://www.w3.org/2000/svg">
<path d="M1.61245 14.9C1.21245 13.8 1.01245 12.7 1.01245 11.5C1.01245 6 5.51245 1.5 11.0125 1.5C16.5125 1.5 21.0125 6 21.0125 11.5C21.0125 12.7 20.8125 13.8 20.4125 14.9" stroke="white" stroke-width="1.5" stroke-miterlimit="10"/>
<path d="M11.0124 12.8C10.3124 12.8 9.71245 12.2 9.71245 11.5C9.71245 10.8 10.3124 10.2 11.0124 10.2C11.7124 10.2 12.3124 10.8 12.3124 11.5C12.3124 12.2 11.7124 12.8 11.0124 12.8Z" stroke="white" stroke-width="1.5" stroke-miterlimit="10"/>
<path d="M4.61246 11.5H3.11246" stroke="white" stroke-width="1.5" stroke-miterlimit="10"/>
<path d="M6.51244 7.00002L5.41245 5.90002" stroke="white" stroke-width="1.5" stroke-miterlimit="10"/>
<path d="M11.0125 5.09998V3.59998" stroke="white" stroke-width="1.5" stroke-miterlimit="10"/>
<path d="M12.4124 10L16.5124 5.90002" stroke="white" stroke-width="1.5" stroke-miterlimit="10"/>
<path d="M17.4124 11.5H18.8124" stroke="white" stroke-width="1.5" stroke-miterlimit="10"/>
</svg>
