<svg width="71" height="51" viewBox="0 0 71 51" fill="none" xmlns="http://www.w3.org/2000/svg">
<path fill-rule="evenodd" clip-rule="evenodd" d="M47.2999 47.7C60.2999 47.7 71 37.1 71 24C71 11 60.3999 0.400024 47.2999 0.400024C34.1999 0.400024 23.7 11 23.7 24.1C23.7 37.1 34.2999 47.7 47.2999 47.7Z" fill="#F1F1F1"/>
<g clip-path="url(#clip0)">
<path fill-rule="evenodd" clip-rule="evenodd" d="M7.8 39.7V38.8H6.2V34.7L1.3 30.8L4 25.3L1.3 19.7L6.2 15.9V9.7L12.2 8.3L14.9 2.8L20.9 4.1L25.7 0.300003L30.6 4.1L36.6 2.8L39.3 8.3L45.3 9.7V15.9L50.2 19.7L47.5 25.3L50.2 30.8L45.3 34.7V38.8H43.7V39.7H50.2L47.4 44.1L50.2 48.5H42.6V50.2H8.9V48.5H1.3L4.1 44.1L1.3 39.7H7.8Z" fill="white"/>
<path d="M7.80001 39.7V38.8C6.90001 38.8 6.20001 38.1 6.20001 37.2V35.4C6.20001 34.9 6.00001 34.4 5.60001 34.1L2.40001 31.6C1.80001 31.1 1.60001 30.3 1.90001 29.6L3.70001 26C3.90001 25.6 3.90001 25 3.70001 24.6L1.90001 20.9C1.60001 20.2 1.80001 19.4 2.40001 18.9L5.60001 16.4C6.00001 16.1 6.20001 15.6 6.20001 15.1V11C6.20001 10.2 6.70001 9.6 7.50001 9.4L11.5 8.5C12 8.4 12.4 8.1 12.6 7.6L14.4 3.9C14.7 3.2 15.5 2.9 16.2 3L20.2 3.9C20.7 4 21.2 3.9 21.6 3.6L24.8 1C25.4 0.5 26.2 0.5 26.8 1L30 3.7C30.4 4 30.9 4.1 31.3 4L35.3 3.1C36 2.9 36.8 3.3 37.1 4L39 7.6C39.2 8 39.6 8.4 40.1 8.5L44.1 9.4C44.8 9.6 45.4 10.2 45.4 11V15.1C45.4 15.6 45.6 16.1 46 16.4L49.2 18.9C49.8 19.4 50 20.2 49.7 20.9L47.9 24.6C47.7 25 47.7 25.6 47.9 26L49.7 29.7C50 30.4 49.8 31.2 49.2 31.7L46 34.2C45.6 34.5 45.4 35 45.4 35.5V37.3C45.4 38.2 44.7 38.9 43.8 38.9V39.8" stroke="#333333" stroke-width="1.5" stroke-miterlimit="10" stroke-linecap="round"/>
<path d="M15.6 38C11.8 35 9.39999 30.4 9.39999 25.3C9.39999 16.3 16.7 9.10001 25.7 9.10001C34.7 9.10001 42 16.4 42 25.3C42 30.5 39.6 35 35.8 38" stroke="#333333" stroke-width="1.5" stroke-miterlimit="10"/>
<path d="M42.7 38H8.89999V50.2H42.7V38Z" stroke="#333333" stroke-width="1.5" stroke-miterlimit="10" stroke-linecap="round"/>
<path d="M1.3 39.7H8.9V48.5H1.3L4.1 44.1L1.3 39.7Z" stroke="#333333" stroke-width="1.5" stroke-miterlimit="10" stroke-linecap="round"/>
<path d="M50.2 39.7H42.7V48.5H50.2L47.5 44.1L50.2 39.7Z" stroke="#333333" stroke-width="1.5" stroke-miterlimit="10" stroke-linecap="round"/>
<path d="M24.5 16.5H27.4V33.5H24.1V20L20.8 20.9L20 18.1L24.5 16.5Z" fill="#FF5722" stroke="#333333" stroke-width="1.5" stroke-miterlimit="10"/>
<path d="M17.8 44.3H34.8" stroke="#333333" stroke-width="1.5" stroke-miterlimit="10" stroke-linecap="round"/>
</g>
<defs>
<clipPath id="clip0">
<rect width="51.6" height="51" fill="white"/>
</clipPath>
</defs>
</svg>
