<svg width="46" height="46" viewBox="0 0 46 46" fill="none" xmlns="http://www.w3.org/2000/svg">
<path d="M1 45H45V5.1C45 2.8 43.1 1 40.9 1H5.1C2.8 1 1 2.8 1 5.1V45Z" fill="white" stroke="#333333" stroke-width="2" stroke-miterlimit="10" stroke-linecap="round" stroke-linejoin="round"/>
<path d="M1 9.20001H45" stroke="black" stroke-width="0.5669" stroke-miterlimit="10"/>
<path fill-rule="evenodd" clip-rule="evenodd" d="M1 9.2H45V5.1C45 2.8 43.1 1 40.9 1H5.1C2.8 1 1 2.8 1 5.1V9.2Z" fill="#FF5722" stroke="#333333" stroke-width="2" stroke-miterlimit="10" stroke-linecap="round" stroke-linejoin="round"/>
<path d="M15.9 27.2L13.6 29.5C11.7 31.4 11.7 34.5 13.6 36.5C15.5 38.4 18.6 38.4 20.6 36.5L25 32C26.9 30.1 26.9 27 25 25.1C24.7 24.8 24.3 24.5 23.9 24.3" stroke="#333333" stroke-width="2" stroke-miterlimit="10" stroke-linecap="round" stroke-linejoin="round"/>
<path d="M30.1 27L32.4 24.7C34.3 22.8 34.3 19.7 32.4 17.8C30.5 15.9 27.4 15.9 25.5 17.8L21 22.2C19.1 24.1 19.1 27.2 21 29.1C21.3 29.4 21.7 29.7 22.1 29.9" stroke="#333333" stroke-width="2" stroke-miterlimit="10" stroke-linecap="round" stroke-linejoin="round"/>
</svg>
