<svg width="24" height="24" viewBox="0 0 24 24" fill="none" xmlns="http://www.w3.org/2000/svg">
<g clip-path="url(#clip0)">
<path d="M21.9 11.3999V21.9999C21.9 22.3999 21.6 22.6999 21.2 22.6999H2.39995C1.99995 22.6999 1.69995 22.3999 1.69995 21.9999V11.3999" stroke="#898989" stroke-width="1.5" stroke-miterlimit="10" stroke-linecap="round"/>
<path d="M22.1 11.4H1.39995C0.999951 11.4 0.699951 11.1 0.699951 10.7V6.2C0.699951 5.8 0.999951 5.5 1.39995 5.5H22C22.4 5.5 22.7 5.8 22.7 6.2V10.7C22.8 11.1 22.4 11.4 22.1 11.4Z" stroke="#898989" stroke-width="1.5" stroke-miterlimit="10" stroke-linecap="round"/>
<path d="M11.8 22.7999V11.3999" stroke="#898989" stroke-width="1.5" stroke-miterlimit="10" stroke-linecap="round"/>
<path d="M11.7001 5.49988C9.90006 5.59988 8.70006 5.49988 7.70006 4.99988C5.90006 4.19988 5.40006 1.99988 7.00006 1.09988C9.60006 -0.400116 11.5001 3.49988 11.7001 5.49988ZM11.7001 5.49988C10.7001 6.69988 9.60006 7.69988 8.40006 8.49988" stroke="#898989" stroke-width="1.5" stroke-miterlimit="10" stroke-linecap="round"/>
<path d="M11.7 5.49988C13.5 5.59988 14.7 5.49988 15.7 4.99988C17.5 4.19988 18 1.99988 16.4 1.09988C13.9 -0.400116 12 3.49988 11.7 5.49988ZM11.7 5.49988C12.7 6.69988 13.8 7.69988 15 8.49988" stroke="#898989" stroke-width="1.5" stroke-miterlimit="10" stroke-linecap="round"/>
</g>
<defs>
<clipPath id="clip0">
<rect width="23.5" height="23.5" fill="white"/>
</clipPath>
</defs>
</svg>
