<svg width="39" height="28" viewBox="0 0 39 28" fill="none" xmlns="http://www.w3.org/2000/svg">
<g clip-path="url(#clip0)">
<path d="M35.3842 28H3.61581C1.62047 28 0 26.3479 0 24.3135V3.68648C0 1.65214 1.62047 0 3.61581 0H35.3963C37.3916 0 39.0121 1.65214 39.0121 3.68648V24.3135C39 26.3479 37.3795 28 35.3842 28Z" fill="#006FCF"/>
<mask id="mask0" mask-type="alpha" maskUnits="userSpaceOnUse" x="0" y="6" width="39" height="17">
<path d="M0 6.64258V22.905H38.9758V6.64258H0Z" fill="white"/>
</mask>
<g mask="url(#mask0)">
<path d="M34.1991 13.584H37.1256V6.64258H34.0056V7.75222L33.3163 6.64258H30.5953V8.04813L29.9907 6.64258H25.4921C25.2744 6.64258 25.0688 6.65491 24.8633 6.6919C24.694 6.71655 24.5246 6.75354 24.3553 6.81519C24.2223 6.85218 24.1014 6.90149 23.9805 6.96314C23.8353 7.02479 23.7023 7.11109 23.5814 7.1974V6.96314V6.65491H8.87628L8.47721 7.85086L8.06605 6.64258H4.65581V8.06046L4.03907 6.64258H1.24558L0 9.60163V12.9552V13.5717H1.97116L2.33395 12.573H3.02326L3.39814 13.5717H18.587V12.5607L19.3488 13.5717H23.5451V13.3498V13.0662C23.654 13.1402 23.7628 13.2018 23.8837 13.2511C23.9926 13.3004 24.1135 13.3498 24.2344 13.3867C24.3795 13.4361 24.5247 13.4731 24.6819 13.4977C24.9237 13.547 25.1656 13.5594 25.3953 13.5594H27.9107L28.2735 12.5607H28.9628L29.3377 13.5594H33.546V12.5237L34.1991 13.584ZM38.9758 22.4858V15.9759H38.6372H14.8019L14.1851 16.8636L13.5805 15.9759H6.61488V22.9173H13.5442L14.1488 22.0173L14.7777 22.9173H19.107V21.4132H19.0586C19.6028 21.4132 20.0865 21.3145 20.5219 21.1542V22.9173H23.5451V21.9063L24.307 22.9173H37.4279C37.8028 22.9173 38.1535 22.8557 38.48 22.7324C38.6493 22.6584 38.8186 22.5845 38.9758 22.4858Z" fill="#F7F7F7"/>
<mask id="mask1" mask-type="alpha" maskUnits="userSpaceOnUse" x="7" y="17" width="32" height="5">
<path d="M39 21.7857V17.1006H7.69116V21.7857H39Z" fill="white"/>
</mask>
<g mask="url(#mask1)">
<path d="M37.4521 20.8487H35.094V21.7857H37.4158C38.4074 21.7857 39 21.1693 39 20.2939C39 19.4555 38.4679 18.9746 37.573 18.9746H36.5088C36.2428 18.9746 36.0614 18.802 36.0614 18.5308C36.0614 18.2472 36.2428 18.0623 36.5088 18.0623H38.5042L38.9153 17.1129H36.5451C35.5535 17.1129 34.9609 17.7294 34.9609 18.5678C34.9609 19.4308 35.5172 19.924 36.3879 19.924H37.44C37.706 19.924 37.8874 20.0966 37.8874 20.3802C37.9116 20.6514 37.7181 20.8487 37.4521 20.8487ZM33.0865 20.8487H30.7284V21.7857H33.0502C34.0419 21.7857 34.6344 21.1693 34.6344 20.2939C34.6344 19.4555 34.1023 18.9746 33.2074 18.9746H32.1433C31.8772 18.9746 31.6958 18.802 31.6958 18.5308C31.6958 18.2472 31.8772 18.0623 32.1433 18.0623H34.1386L34.5498 17.1129H32.1795C31.1879 17.1129 30.5953 17.7294 30.5953 18.5678C30.5953 19.4308 31.1516 19.924 32.0223 19.924H33.0744C33.3405 19.924 33.5219 20.0966 33.5219 20.3802C33.534 20.6514 33.3526 20.8487 33.0865 20.8487ZM30.0633 18.0499V17.1006H26.387V21.7857H30.0633V20.8364H27.4874V19.8994H30.0028V18.9623H27.4874V18.0499H30.0633ZM23.9079 18.0499C24.307 18.0499 24.5126 18.3089 24.5126 18.6294C24.5126 18.95 24.307 19.2089 23.9079 19.2089H22.614V18.0499H23.9079ZM22.614 20.0966H23.134L24.5005 21.7857H25.867L24.3433 20.0596C25.1293 19.9117 25.5888 19.3322 25.5888 18.5924C25.5888 17.7171 24.9842 17.1129 24.0046 17.1129H21.5135V21.7981H22.614V20.0966ZM19.8084 18.6664C19.8084 18.987 19.6149 19.2459 19.2279 19.2459H17.9098V18.0993H19.2279C19.6149 18.0993 19.8084 18.3459 19.8084 18.6664ZM16.8093 17.1006V21.7857H17.9098V20.2446H19.2884C20.2921 20.2446 20.9209 19.5788 20.9209 18.6787C20.9209 17.754 20.3163 17.1129 19.3367 17.1129H16.8093V17.1006ZM15.1888 21.7857H16.5674L14.7293 19.4308L16.5553 17.1129H15.213L14.0884 18.5924L12.9637 17.1129H11.5851L13.4233 19.4555L11.5972 21.7981H12.9395L14.0642 20.2939L15.1888 21.7857ZM11.3553 18.0499V17.1006H7.69116V21.7857H11.3674V20.8364H8.79163V19.8994H11.307V18.9623H8.79163V18.0499H11.3553Z" fill="#006FCF"/>
</g>
<path d="M32.6755 9.65104L32.6634 9.26883L32.8931 9.65104L34.6466 12.4498H35.9285V7.76465H34.8522V10.4771L34.8643 10.8223L34.6587 10.4771L32.9415 7.76465H31.5871V12.4498H32.6634V9.65104H32.6755ZM28.2736 9.51542L28.6122 8.64003L28.9508 9.51542L29.362 10.5511H27.8866L28.2736 9.51542ZM30.0996 12.4498H31.3331L29.3741 7.76465H27.9229L25.9517 12.4498H27.1248L27.5117 11.4511H29.7006L30.0996 12.4498ZM25.2987 12.4498H25.3592L25.8066 11.4511H25.468C24.7182 11.4511 24.2708 10.9703 24.2708 10.1442V10.0702C24.2708 9.33048 24.6699 8.77566 25.4559 8.77566H26.6531V7.76465H25.3713C23.9564 7.76465 23.1824 8.73867 23.1824 10.0702V10.1565C23.1703 11.5374 23.9685 12.4375 25.2987 12.4498ZM21.3806 12.4498H22.481V10.3908V7.76465H21.3806V10.3538V12.4498ZM19.0587 8.72634C19.4578 8.72634 19.6634 8.98526 19.6634 9.30582C19.6634 9.62638 19.4578 9.8853 19.0587 9.8853H17.7648V8.72634H19.0587ZM17.7648 10.7607H18.2848L19.6513 12.4498H21.0178L19.4941 10.7237C20.2801 10.5757 20.7396 9.99627 20.7396 9.2565C20.7396 8.38112 20.135 7.77698 19.1555 7.77698H16.6643V12.4621H17.7648V10.7607ZM15.8662 8.71401V7.76465H12.1899V12.4498H15.8662V11.4881H13.2903V10.5634H15.8057V9.62638H13.2903V8.71401H15.8662ZM6.72383 9.2565L6.69964 7.98658L7.96941 12.4498H8.96104L10.2308 8.01124L10.2066 9.24417V12.4498H11.2708V7.76465H9.33592L8.46522 11.0813L7.58243 7.76465H5.64755V12.4498H6.71173V9.2565H6.72383ZM2.33406 9.51542L2.67266 8.64003L3.01127 9.51542L3.42243 10.5511H1.93499L2.33406 9.51542ZM4.16011 12.4498H5.40569L3.44662 7.76465H1.99545L0.024292 12.4498H1.19732L1.58429 11.4511H3.77313L4.16011 12.4498Z" fill="#006FCF"/>
</g>
</g>
<defs>
<clipPath id="clip0">
<rect width="39" height="28" fill="white"/>
</clipPath>
</defs>
</svg>
