<svg width="53" height="53" viewBox="0 0 53 53" fill="none" xmlns="http://www.w3.org/2000/svg">
<g clip-path="url(#clip0)">
<path fill-rule="evenodd" clip-rule="evenodd" d="M29.3 48.7C42.3 48.7 53 38.1 53 25C53 12 42.4 1.39999 29.3 1.39999C16.2 1.39999 5.70001 12 5.70001 25.1C5.70001 38.1 16.3 48.7 29.3 48.7Z" fill="#F1F1F1"/>
<path fill-rule="evenodd" clip-rule="evenodd" d="M12 28.9L22.5 35.1L13.4 50.8L11.2 42.4L2.89999 44.6L12 28.9Z" fill="white" stroke="#333333" stroke-width="1.5" stroke-miterlimit="10"/>
<path fill-rule="evenodd" clip-rule="evenodd" d="M26.3 26.9L17.4 32.1L22.5 35.1L19.7 39.8L24.9 48.7L27.1 40.4L35.5 42.6L26.3 26.9Z" fill="white" stroke="#333333" stroke-width="1.5" stroke-miterlimit="10"/>
<path fill-rule="evenodd" clip-rule="evenodd" d="M12.1 2.59999L11.4 4.89999C11.1 5.89999 10.1 6.69999 9.00001 6.69999H6.50001C5.00001 6.69999 3.80001 7.89999 3.80001 9.29999C3.80001 9.59999 3.90001 9.79999 4.00001 9.99999L4.70001 12.3C4.80001 12.5 4.80001 12.7 4.80001 12.9V13C4.80001 13.9 4.40001 14.7 3.60001 15.2L1.90001 16.6C1.20001 17.1 0.700012 17.9 0.700012 18.7C0.700012 19.5 1.10001 20.3 1.90001 20.7L3.80001 22.1C4.40001 22.6 4.80001 23.4 4.80001 24.3V24.4C4.80001 24.6 4.80001 24.9 4.70001 25.1L4.00001 27.4C3.90001 27.7 3.80001 27.9 3.80001 28.2C3.80001 29.7 5.00001 30.8 6.50001 30.9H9.00001C10.1 30.9 11.1 31.6 11.4 32.6L12.1 34.9C12.5 35.9 13.5 36.6 14.7 36.6C15.2 36.6 15.8 36.4 16.2 36.1L18.1 34.7C18.5 34.4 19.1 34.2 19.6 34.2C20.1 34.2 20.7 34.4 21.1 34.7L23 36.1C23.5 36.4 24 36.6 24.5 36.6C25.6 36.6 26.6 35.8 26.9 34.7L27.7 32.5C28 31.4 29 30.7 30.2 30.6H33C34.4 30.6 35.5 29.5 35.5 28.1C35.5 28 35.5 28 35.5 27.9C35.5 27.7 35.5 27.5 35.4 27.3L34.7 25C34.6 24.8 34.6 24.5 34.6 24.3V24.2C34.6 23.4 35 22.6 35.6 22L37.5 20.6C38.2 20.1 38.7 19.4 38.7 18.5C38.7 17.6 38.2 16.8 37.5 16.4L35.6 15C35 14.4 34.6 13.6 34.6 12.8C34.6 12.5 34.6 12.3 34.7 12L35.4 9.79999C35.5 9.59999 35.5 9.39999 35.5 9.09999C35.5 8.99999 35.5 8.99999 35.5 8.89999C35.5 7.49999 34.4 6.39999 33 6.39999H30.5C29.4 6.39999 28.4 5.59999 28.1 4.49999L27.3 2.19999C27 1.09999 26 0.399994 24.9 0.399994C24.4 0.399994 23.8 0.599994 23.4 0.899994L21.5 2.29999C21 2.59999 20.5 2.79999 20 2.79999C19.5 2.79999 18.9 2.59999 18.5 2.29999L16.6 0.899994C16.1 0.599994 15.6 0.399994 15.1 0.399994C13.5 0.799994 12.5 1.49999 12.1 2.59999Z" fill="white" stroke="#333333" stroke-width="1.5" stroke-miterlimit="10"/>
<path d="M19.7 29.6C25.6 29.6 30.5 24.7 30.5 18.8C30.5 12.8 25.7 8 19.7 8C13.7 8 8.89999 12.8 8.89999 18.8C8.89999 18.8 8.89999 18.8 8.89999 18.9C8.89999 24.9 13.7 29.6 19.7 29.6Z" fill="white" stroke="#333333" stroke-width="1.5" stroke-miterlimit="10"/>
<path d="M17.2632 24.8237L17.79 25.3637L18.3269 24.8337L26.1269 17.1337L26.6641 16.6034L26.1303 16.0697L23.9303 13.8697L23.3953 13.3346L22.865 13.8744L17.809 19.0206L16.4437 17.5834L15.9138 17.0256L15.3697 17.5697L13.2697 19.6697L12.7458 20.1935L13.2632 20.7237L17.2632 24.8237Z" fill="#FF5722" stroke="#333333" stroke-width="1.5"/>
</g>
<defs>
<clipPath id="clip0">
<rect width="53" height="52.7" fill="white"/>
</clipPath>
</defs>
</svg>
