<svg width="23" height="23" viewBox="0 0 23 23" fill="none" xmlns="http://www.w3.org/2000/svg">
<path d="M11.1509 21.3018C16.7729 21.3018 21.3018 16.7729 21.3018 11.1509C21.3018 5.52887 16.7729 1 11.1509 1C5.52887 1 1 5.52887 1 11.1509C1 16.7729 5.60695 21.3018 11.1509 21.3018Z" stroke="white" stroke-width="1.5" stroke-miterlimit="10"/>
<path d="M17.5538 19.1155V17.3195C17.5538 15.4455 15.9921 13.8839 14.1181 13.8839H8.2618C6.38779 13.8839 4.82611 15.4455 4.82611 17.3195V19.1155" stroke="white" stroke-width="1.5" stroke-miterlimit="10"/>
<path d="M11.1509 12.0098C12.8687 12.0098 14.2743 10.6043 14.2743 8.80838C14.2743 7.01245 12.8687 5.68503 11.1509 5.68503C9.43306 5.68503 7.94946 7.09054 7.94946 8.80838C7.94946 10.5262 9.43306 12.0098 11.1509 12.0098Z" stroke="white" stroke-width="1.5" stroke-miterlimit="10"/>
</svg>
