<svg width="99" height="42" viewBox="0 0 99 42" fill="none" xmlns="http://www.w3.org/2000/svg">
<g clip-path="url(#clip0)">
<path d="M86.6165 14.2128C82.8336 14.2128 79.1186 14.2128 75.3865 14.196C75.2339 14.196 75.0303 14.0952 74.9285 13.9608C73.1813 11.9112 70.959 10.7352 68.2957 10.2648C66.0735 9.89517 63.987 10.1976 61.9683 11.1048C60.4924 11.7768 59.1693 12.7008 58.1684 13.9944C58.0836 14.0952 57.914 14.1792 57.7783 14.1792C54.0632 14.1792 50.3482 14.1792 46.6162 14.1792C46.5992 14.1792 46.5822 14.1624 46.5313 14.1456C47.7188 10.7184 49.6696 7.79517 52.3838 5.37597C55.4712 2.65437 59.1014 0.923974 63.2236 0.268774C68.9404 -0.621626 74.1821 0.638374 78.8811 3.93117C82.5622 6.50157 85.1237 9.94557 86.6165 14.2128Z" fill="white"/>
<path d="M46.6161 28.1064C46.9215 28.1232 47.125 28.1568 47.3286 28.1568C50.7553 28.1568 54.165 28.1736 57.5916 28.14C58.1175 28.14 58.4398 28.2912 58.7621 28.644C60.3228 30.2568 62.2397 31.2648 64.411 31.6848C66.8877 32.172 69.2966 31.8192 71.5697 30.6768C72.7232 30.1056 73.7241 29.3328 74.6062 28.4256C74.8097 28.224 74.9794 28.1232 75.3187 28.1568C75.9463 28.224 76.574 28.1736 77.2016 28.1736C79.9667 28.1736 82.7318 28.1736 85.4799 28.1736C85.7852 28.1736 86.0906 28.1568 86.4808 28.14C85.7344 30.3408 84.5808 32.3232 83.122 34.1208C79.6953 38.304 75.2847 40.8744 69.9242 41.7312C64.0378 42.672 58.6773 41.2944 53.8766 37.8168C50.4838 35.3304 48.1259 32.0712 46.6161 28.1064Z" fill="white"/>
<path d="M71.9429 26.8802C72.1126 26.1914 72.2483 25.5698 72.4179 24.9314C73.1813 21.9578 73.9616 18.9842 74.725 16.0106C74.7928 15.7418 74.9116 15.6746 75.1661 15.6746C76.3365 15.6914 77.524 15.6746 78.6945 15.6914C78.8641 15.6914 79.0847 15.7754 79.2204 15.9098C79.6784 16.313 80.0855 16.7666 80.5266 17.1866C80.6284 17.2874 80.7471 17.3882 80.9167 17.5562C80.9676 16.8842 81.0185 16.313 81.0524 15.725C82.7488 15.725 84.4452 15.725 86.2094 15.725C86.0737 16.4306 85.938 17.1194 85.8023 17.8082C85.3103 20.1266 84.8184 22.4618 84.3264 24.7802C84.1907 25.385 84.0889 26.0066 83.9363 26.6114C83.9023 26.7122 83.7497 26.8802 83.6479 26.8802C81.9006 26.897 80.1703 26.897 78.3722 26.897C78.3891 26.7458 78.4061 26.6282 78.44 26.5106C78.8132 25.4018 79.1695 24.293 79.5596 23.1842C79.6445 22.9154 79.6614 22.7474 79.4239 22.5626C78.949 22.1762 78.5079 21.7898 78.0499 21.3866C77.7615 21.1514 77.6936 21.4034 77.6427 21.5882C77.3713 22.4954 77.1338 23.4026 76.8794 24.3098C76.6589 25.0658 76.4553 25.8386 76.2178 26.5778C76.1839 26.6954 76.0142 26.8802 75.9125 26.8802C74.6232 26.897 73.317 26.8802 71.9429 26.8802ZM30.9757 26.8634C31.0944 26.8634 31.2641 26.6954 31.298 26.5946C31.5694 25.301 31.8069 23.9906 32.0783 22.697C32.5703 20.3786 33.0792 18.0602 33.5711 15.725C31.8239 15.725 30.1105 15.725 28.4142 15.725C28.3633 16.313 28.3124 16.8842 28.2445 17.5394C27.8035 17.1194 27.4303 16.733 27.0401 16.3802C26.7348 16.1282 26.5821 15.6746 26.0732 15.6746C24.8857 15.6914 23.6813 15.6746 22.4938 15.6746C22.2394 15.6746 22.1206 15.725 22.0528 16.0106C21.7814 17.1866 21.459 18.3626 21.1537 19.5386C20.526 21.9578 19.8984 24.3938 19.2538 26.8634C20.4752 26.8634 21.6626 26.8466 22.8501 26.8802C23.3081 26.897 23.5286 26.7458 23.6474 26.3258C24.0884 24.7802 24.5464 23.2346 25.0045 21.689C25.0553 21.5378 25.1571 21.3866 25.242 21.2018C25.8018 21.689 26.3107 22.0922 26.7856 22.529C26.9044 22.6466 26.9722 22.9322 26.9214 23.0834C26.5312 24.3266 26.0901 25.553 25.6491 26.8466C27.4642 26.8802 29.2284 26.8802 30.9757 26.8634ZM46.4974 26.8802C49.7714 26.8802 53.0624 26.8802 56.3364 26.8802C56.4212 26.8802 56.5399 26.897 56.6078 26.8466C57.0997 26.4938 57.6595 26.1914 58.0667 25.7546C59.1523 24.5282 59.6443 22.8146 58.7622 21.4034C58.4399 20.8826 58.0667 20.3954 57.6426 19.9418C57.4729 19.757 57.1337 19.6394 56.8792 19.6394C55.9801 19.6058 55.098 19.6058 54.1989 19.6394C53.7749 19.6562 53.6561 19.421 53.6561 19.1354C53.6391 18.7994 53.8766 18.6986 54.2159 18.6986C55.7766 18.7154 57.3203 18.6986 58.8809 18.6986C59.763 18.6986 59.763 18.6986 60.0175 17.909C60.255 17.1698 60.4925 16.4138 60.73 15.6242C60.4755 15.6242 60.3059 15.6242 60.1362 15.6242C57.5408 15.6242 54.9623 15.6578 52.3669 15.6074C51.5357 15.5906 50.8062 15.6914 50.1955 16.2962C49.8902 16.5986 49.5848 16.901 49.3134 17.2538C48.3295 18.5138 48.0242 19.9082 48.55 21.4538C48.8215 22.2266 49.4491 22.6298 50.2973 22.6298C51.2982 22.6298 52.299 22.6298 53.3168 22.6298C54.1141 22.6298 54.2329 22.7978 53.9445 23.5706C53.7749 23.5706 53.6052 23.5706 53.4356 23.5706C51.5526 23.5706 49.6696 23.5706 47.7867 23.5874C47.6001 23.5874 47.3117 23.7218 47.2438 23.873C46.9894 24.461 46.7689 25.0826 46.5653 25.7042C46.4465 26.0906 46.3617 26.477 46.243 26.897C46.3787 26.8634 46.4465 26.8802 46.4974 26.8802ZM98.8982 15.6914C95.7599 15.6914 92.6217 15.6914 89.4834 15.6914C89.3138 15.6914 89.1271 15.7754 88.9914 15.893C88.2111 16.481 87.787 17.3546 87.4647 18.2114C86.7692 20.0258 86.1755 21.8906 85.5817 23.7386C85.48 24.0578 85.4291 24.461 85.5139 24.7802C85.7005 25.4858 86.2603 25.973 86.8371 26.3762C87.312 26.7122 87.8718 26.9306 88.5165 26.897C90.2807 26.8466 92.0619 26.8466 93.8431 26.897C95.285 26.9474 96.4555 25.889 96.7778 24.6458C96.9983 23.8226 97.2188 22.9994 97.4563 22.193C97.6599 21.4706 97.8974 20.7482 98.1179 19.9922C96.2519 19.9922 94.4707 19.9922 92.6895 19.9922C92.5878 19.9922 92.4181 20.0594 92.3842 20.1266C92.011 20.933 91.6378 21.7562 91.2646 22.5962C91.8413 22.6298 92.3672 22.6466 92.8931 22.697C93.0288 22.7138 93.2663 22.8314 93.2833 22.949C93.3511 23.2346 93.1136 23.2514 92.8931 23.2514C92.0619 23.2514 91.2307 23.2514 90.3994 23.2514C90.2637 23.2514 90.145 23.201 89.9923 23.1674C90.4503 21.7394 91.061 20.4626 91.8244 19.2362C92.0788 18.8162 92.3333 18.665 92.8083 18.6818C94.5046 18.7154 96.201 18.6818 97.8974 18.6986C98.3045 18.6986 98.4232 18.5474 98.4911 18.1778C98.6438 17.3714 98.8304 16.565 99.017 15.7418C98.9661 15.7082 98.9322 15.6914 98.8982 15.6914ZM39.5423 19.9922C39.4405 19.9922 39.2709 20.093 39.237 20.1938C38.8638 20.9834 38.4906 21.773 38.1513 22.529C38.8129 22.8146 39.5593 22.4954 40.1869 22.9826C40.0343 23.1338 39.8646 23.2514 39.695 23.2514C38.8807 23.2682 38.0665 23.2682 37.2522 23.2682C36.9808 23.2682 36.8621 23.2346 36.9639 22.8986C37.3371 21.521 38.0835 20.3114 38.745 19.0514C38.8977 18.7658 39.1013 18.6986 39.4236 18.6986C41.2048 18.7154 42.969 18.6986 44.7502 18.7154C45.0555 18.7154 45.293 18.7154 45.31 18.2954C45.3269 17.9762 45.4627 17.6738 45.5305 17.3714C45.6493 16.8338 45.751 16.313 45.8528 15.7754C45.751 15.7586 45.7171 15.725 45.6662 15.725C42.5788 15.725 39.4914 15.725 36.3871 15.725C36.1835 15.725 35.963 15.8258 35.7764 15.9098C35.1487 16.2458 34.8604 16.8506 34.555 17.4386C33.6899 19.0514 33.164 20.7818 32.7569 22.5458C32.6042 23.1842 32.5194 23.873 32.5872 24.5114C32.6381 24.965 32.9265 25.4354 33.2318 25.7882C33.7407 26.393 34.3006 26.9306 35.2166 26.9138C37.1674 26.8802 39.1013 26.9138 41.0521 26.897C41.8155 26.897 42.4092 26.477 42.9181 25.9394C43.3931 25.4522 43.5458 24.8306 43.7154 24.2258C44.1225 22.8146 44.5296 21.4202 44.9537 19.9922C43.1217 19.9754 41.3235 19.9754 39.5423 19.9922ZM5.59801 23.7722C5.68283 23.9066 5.76765 24.0242 5.8355 24.1754C6.20871 24.965 6.58191 25.7546 6.92118 26.5442C7.03993 26.813 7.1926 26.897 7.48098 26.897C8.51577 26.8802 9.55055 26.897 10.5853 26.897C11.0773 26.897 11.5692 26.897 12.146 26.897C11.8067 26.3258 11.5353 25.8386 11.2469 25.3682C10.6532 24.3938 10.0425 23.4194 9.46573 22.4282C9.36395 22.2602 9.29609 21.941 9.38091 21.8234C9.77108 21.3362 10.2291 20.8826 10.6702 20.429C11.2808 19.8074 11.9255 19.2026 12.5531 18.5642C13.2317 17.8754 13.8933 17.1698 14.5548 16.481C14.7923 16.2458 15.0468 16.0106 15.3861 15.7082C13.4183 15.7082 11.6032 15.7082 9.78804 15.7082C9.68626 15.7082 9.55055 15.7754 9.48269 15.8594C8.60058 16.901 7.71847 17.9594 6.83636 19.0178C6.71762 19.169 6.58191 19.3034 6.46316 19.4546C6.42923 19.4378 6.39531 19.4042 6.37834 19.3874C6.8194 18.1778 7.26045 16.9682 7.70151 15.7082C6.19174 15.7082 4.7159 15.7082 3.24006 15.725C3.15524 15.725 3.00257 15.893 2.96864 16.0106C2.13742 19.0346 1.3062 22.0754 0.474983 25.1162C0.32231 25.6706 0.169637 26.2586 0 26.8802C1.50977 26.8802 2.91775 26.8802 4.32574 26.8634C4.44448 26.8634 4.61412 26.6786 4.66501 26.5442C4.95339 25.637 5.20785 24.713 5.4623 23.8058C5.49623 23.789 5.54712 23.789 5.59801 23.7722ZM16.2682 15.7082C16.1664 15.7082 15.9967 15.893 15.9798 16.0106C15.3012 18.5306 14.6397 21.0674 13.9611 23.5874C13.6558 24.713 13.3504 25.8218 13.0451 26.9474C14.8602 26.9474 16.6244 26.9474 18.3717 26.9474C19.2368 23.201 20.102 19.4882 20.9841 15.6914C19.3725 15.6914 17.8119 15.6914 16.2682 15.7082Z" fill="white"/>
<mask id="mask0" mask-type="alpha" maskUnits="userSpaceOnUse" x="0" y="15" width="100" height="12">
<path d="M71.9429 26.8803C72.1126 26.1915 72.2483 25.5699 72.4179 24.9315C73.1813 21.9579 73.9616 18.9843 74.725 16.0107C74.7928 15.7419 74.9116 15.6747 75.166 15.6747C76.3365 15.6915 77.524 15.6747 78.6945 15.6915C78.8641 15.6915 79.0846 15.7755 79.2204 15.9099C79.6784 16.3131 80.0855 16.7667 80.5266 17.1867C80.6283 17.2875 80.7471 17.3883 80.9167 17.5563C80.9676 16.8843 81.0185 16.3131 81.0524 15.7251C82.7488 15.7251 84.4452 15.7251 86.2094 15.7251C86.0737 16.4307 85.938 17.1195 85.8023 17.8083C85.3103 20.1267 84.8184 22.4619 84.3264 24.7803C84.1907 25.3851 84.0889 26.0067 83.9363 26.6115C83.9023 26.7123 83.7497 26.8803 83.6479 26.8803C81.9006 26.8971 80.1703 26.8971 78.3722 26.8971C78.3891 26.7459 78.4061 26.6283 78.44 26.5107C78.8132 25.4019 79.1695 24.2931 79.5596 23.1843C79.6444 22.9155 79.6614 22.7475 79.4239 22.5627C78.9489 22.1763 78.5079 21.7899 78.0499 21.3867C77.7615 21.1515 77.6936 21.4035 77.6427 21.5883C77.3713 22.4955 77.1338 23.4027 76.8794 24.3099C76.6588 25.0659 76.4553 25.8387 76.2178 26.5779C76.1839 26.6955 76.0142 26.8803 75.9124 26.8803C74.6232 26.8971 73.317 26.8803 71.9429 26.8803ZM30.9757 26.8635C31.0944 26.8635 31.2641 26.6955 31.298 26.5947C31.5694 25.3011 31.8069 23.9907 32.0783 22.6971C32.5703 20.3787 33.0792 18.0603 33.5711 15.7251C31.8239 15.7251 30.1105 15.7251 28.4142 15.7251C28.3633 16.3131 28.3124 16.8843 28.2445 17.5395C27.8035 17.1195 27.4303 16.7331 27.0401 16.3803C26.7347 16.1283 26.5821 15.6747 26.0732 15.6747C24.8857 15.6915 23.6813 15.6747 22.4938 15.6747C22.2394 15.6747 22.1206 15.7251 22.0528 16.0107C21.7814 17.1867 21.459 18.3627 21.1537 19.5387C20.526 21.9579 19.8984 24.3939 19.2538 26.8635C20.4752 26.8635 21.6626 26.8467 22.8501 26.8803C23.3081 26.8971 23.5286 26.7459 23.6474 26.3259C24.0884 24.7803 24.5464 23.2347 25.0045 21.6891C25.0553 21.5379 25.1571 21.3867 25.2419 21.2019C25.8017 21.6891 26.3107 22.0923 26.7856 22.5291C26.9044 22.6467 26.9722 22.9323 26.9214 23.0835C26.5312 24.3267 26.0901 25.5531 25.6491 26.8467C27.4642 26.8803 29.2284 26.8803 30.9757 26.8635ZM46.4974 26.8803C49.7714 26.8803 53.0624 26.8803 56.3364 26.8803C56.4212 26.8803 56.5399 26.8971 56.6078 26.8467C57.0997 26.4939 57.6595 26.1915 58.0667 25.7547C59.1523 24.5283 59.6443 22.8147 58.7622 21.4035C58.4399 20.8827 58.0667 20.3955 57.6426 19.9419C57.4729 19.7571 57.1337 19.6395 56.8792 19.6395C55.9801 19.6059 55.098 19.6059 54.1989 19.6395C53.7748 19.6563 53.6561 19.4211 53.6561 19.1355C53.6391 18.7995 53.8766 18.6987 54.2159 18.6987C55.7766 18.7155 57.3203 18.6987 58.8809 18.6987C59.763 18.6987 59.763 18.6987 60.0175 17.9091C60.255 17.1699 60.4925 16.4139 60.73 15.6243C60.4755 15.6243 60.3059 15.6243 60.1362 15.6243C57.5408 15.6243 54.9623 15.6579 52.3669 15.6075C51.5356 15.5907 50.8062 15.6915 50.1955 16.2963C49.8902 16.5987 49.5848 16.9011 49.3134 17.2539C48.3295 18.5139 48.0242 19.9083 48.55 21.4539C48.8215 22.2267 49.4491 22.6299 50.2973 22.6299C51.2981 22.6299 52.299 22.6299 53.3168 22.6299C54.1141 22.6299 54.2329 22.7979 53.9445 23.5707C53.7748 23.5707 53.6052 23.5707 53.4356 23.5707C51.5526 23.5707 49.6696 23.5707 47.7867 23.5875C47.6001 23.5875 47.3117 23.7219 47.2438 23.8731C46.9894 24.4611 46.7688 25.0827 46.5653 25.7043C46.4465 26.0907 46.3617 26.4771 46.243 26.8971C46.3787 26.8635 46.4465 26.8803 46.4974 26.8803ZM98.8982 15.6915C95.7599 15.6915 92.6217 15.6915 89.4834 15.6915C89.3137 15.6915 89.1271 15.7755 88.9914 15.8931C88.2111 16.4811 87.787 17.3547 87.4647 18.2115C86.7692 20.0259 86.1755 21.8907 85.5817 23.7387C85.48 24.0579 85.4291 24.4611 85.5139 24.7803C85.7005 25.4859 86.2603 25.9731 86.837 26.3763C87.312 26.7123 87.8718 26.9307 88.5164 26.8971C90.2807 26.8467 92.0619 26.8467 93.843 26.8971C95.285 26.9475 96.4555 25.8891 96.7778 24.6459C96.9983 23.8227 97.2188 22.9995 97.4563 22.1931C97.6599 21.4707 97.8974 20.7483 98.1179 19.9923C96.2519 19.9923 94.4707 19.9923 92.6895 19.9923C92.5877 19.9923 92.4181 20.0595 92.3842 20.1267C92.011 20.9331 91.6378 21.7563 91.2646 22.5963C91.8413 22.6299 92.3672 22.6467 92.8931 22.6971C93.0288 22.7139 93.2663 22.8315 93.2832 22.9491C93.3511 23.2347 93.1136 23.2515 92.8931 23.2515C92.0619 23.2515 91.2306 23.2515 90.3994 23.2515C90.2637 23.2515 90.145 23.2011 89.9923 23.1675C90.4503 21.7395 91.061 20.4627 91.8244 19.2363C92.0788 18.8163 92.3333 18.6651 92.8083 18.6819C94.5046 18.7155 96.201 18.6819 97.8974 18.6987C98.3045 18.6987 98.4232 18.5475 98.4911 18.1779C98.6438 17.3715 98.8304 16.5651 99.017 15.7419C98.9661 15.7083 98.9321 15.6915 98.8982 15.6915ZM39.5423 19.9923C39.4405 19.9923 39.2709 20.0931 39.237 20.1939C38.8638 20.9835 38.4906 21.7731 38.1513 22.5291C38.8129 22.8147 39.5593 22.4955 40.1869 22.9827C40.0343 23.1339 39.8646 23.2515 39.695 23.2515C38.8807 23.2683 38.0665 23.2683 37.2522 23.2683C36.9808 23.2683 36.8621 23.2347 36.9638 22.8987C37.337 21.5211 38.0834 20.3115 38.745 19.0515C38.8977 18.7659 39.1013 18.6987 39.4236 18.6987C41.2048 18.7155 42.969 18.6987 44.7502 18.7155C45.0555 18.7155 45.293 18.7155 45.31 18.2955C45.3269 17.9763 45.4626 17.6739 45.5305 17.3715C45.6492 16.8339 45.751 16.3131 45.8528 15.7755C45.751 15.7587 45.7171 15.7251 45.6662 15.7251C42.5788 15.7251 39.4914 15.7251 36.3871 15.7251C36.1835 15.7251 35.963 15.8259 35.7764 15.9099C35.1487 16.2459 34.8604 16.8507 34.555 17.4387C33.6899 19.0515 33.164 20.7819 32.7569 22.5459C32.6042 23.1843 32.5194 23.8731 32.5872 24.5115C32.6381 24.9651 32.9265 25.4355 33.2318 25.7883C33.7407 26.3931 34.3005 26.9307 35.2166 26.9139C37.1674 26.8803 39.1013 26.9139 41.0521 26.8971C41.8155 26.8971 42.4092 26.4771 42.9181 25.9395C43.3931 25.4523 43.5458 24.8307 43.7154 24.2259C44.1225 22.8147 44.5296 21.4203 44.9537 19.9923C43.1217 19.9755 41.3235 19.9755 39.5423 19.9923ZM5.59801 23.7723C5.68283 23.9067 5.76765 24.0243 5.8355 24.1755C6.2087 24.9651 6.58191 25.7547 6.92118 26.5443C7.03992 26.8131 7.1926 26.8971 7.48098 26.8971C8.51576 26.8803 9.55055 26.8971 10.5853 26.8971C11.0773 26.8971 11.5692 26.8971 12.146 26.8971C11.8067 26.3259 11.5353 25.8387 11.2469 25.3683C10.6532 24.3939 10.0425 23.4195 9.46573 22.4283C9.36395 22.2603 9.29609 21.9411 9.38091 21.8235C9.77108 21.3363 10.2291 20.8827 10.6702 20.4291C11.2808 19.8075 11.9255 19.2027 12.5531 18.5643C13.2317 17.8755 13.8932 17.1699 14.5548 16.4811C14.7923 16.2459 15.0468 16.0107 15.3861 15.7083C13.4183 15.7083 11.6032 15.7083 9.78804 15.7083C9.68626 15.7083 9.55055 15.7755 9.48269 15.8595C8.60058 16.9011 7.71847 17.9595 6.83636 19.0179C6.71761 19.1691 6.58191 19.3035 6.46316 19.4547C6.42923 19.4379 6.3953 19.4043 6.37834 19.3875C6.8194 18.1779 7.26045 16.9683 7.70151 15.7083C6.19174 15.7083 4.7159 15.7083 3.24006 15.7251C3.15524 15.7251 3.00257 15.8931 2.96864 16.0107C2.13742 19.0347 1.3062 22.0755 0.474983 25.1163C0.32231 25.6707 0.169637 26.2587 0 26.8803C1.50977 26.8803 2.91775 26.8803 4.32574 26.8635C4.44448 26.8635 4.61412 26.6787 4.66501 26.5443C4.95339 25.6371 5.20785 24.7131 5.4623 23.8059C5.49623 23.7891 5.54712 23.7891 5.59801 23.7723ZM63.9191 15.5403C63.7325 15.5403 63.4441 15.6243 63.3593 15.7587C62.9352 16.3971 62.5111 17.0355 62.2058 17.7411C61.7987 18.6819 61.4594 19.6731 61.188 20.6643C60.9335 21.6219 60.7469 22.5963 60.6451 23.5875C60.5603 24.3939 60.5094 25.2171 60.9674 25.9731C61.2049 26.3595 61.4764 26.5947 61.9683 26.5779C63.9191 26.5611 65.853 26.5443 67.8038 26.5779C68.7368 26.5947 69.3984 26.1411 69.8734 25.4523C70.3653 24.7131 70.7555 23.9067 71.1117 23.1003C71.7563 21.5883 72.1465 20.0091 72.4349 18.3963C72.5876 17.5227 72.5876 16.6659 72.0447 15.8763C71.8581 15.6075 71.6885 15.5067 71.3662 15.5235C70.1448 15.5403 68.9234 15.5235 67.702 15.5235C66.4297 15.5235 65.1744 15.5235 63.9191 15.5403ZM64.7503 22.3443C65.0727 21.1347 65.4289 19.9419 65.7342 18.7323C65.8021 18.4635 65.9039 18.3795 66.1753 18.3795C66.8708 18.3795 67.5493 18.3963 68.2449 18.3795C68.5502 18.3795 68.6181 18.4803 68.5332 18.7659C68.1261 20.2275 67.7529 21.7059 67.3288 23.1675C67.2779 23.3187 67.0235 23.5203 66.8538 23.5371C66.1074 23.5707 65.361 23.5539 64.462 23.5539C64.5807 23.1003 64.6486 22.7139 64.7503 22.3443ZM16.2682 15.7083C16.1664 15.7083 15.9967 15.8931 15.9798 16.0107C15.3012 18.5307 14.6397 21.0675 13.9611 23.5875C13.6558 24.7131 13.3504 25.8219 13.0451 26.9475C14.8602 26.9475 16.6244 26.9475 18.3717 26.9475C19.2368 23.2011 20.102 19.4883 20.9841 15.6915C19.3725 15.6915 17.8119 15.6915 16.2682 15.7083Z" fill="black"/>
</mask>
<g mask="url(#mask0)">
<path d="M72.4167 14.032L62.3333 13.5754L59.5833 22.2494L60.0417 27.2711L70.125 28.6407L73.3333 17.6841L72.4167 14.032Z" fill="white"/>
</g>
</g>
<defs>
<clipPath id="clip0">
<rect width="99" height="42" fill="white"/>
</clipPath>
</defs>
</svg>
