<svg width="201" height="42" viewBox="0 0 201 42" fill="none" xmlns="http://www.w3.org/2000/svg">
<g clip-path="url(#clip0)">
<path fill-rule="evenodd" clip-rule="evenodd" d="M125.08 33.6277H5.05443C4.01585 34.5924 0.657768 40.4152 0 41.8967L4.01585 42.0001C43.9666 41.6555 85.1636 41.9656 125.53 42.0001L142.182 41.9656C146.059 35.9706 152.602 24.1871 156.791 16.9861C158.418 14.1609 160.045 10.9911 161.776 8.5448L196.43 8.51034C197.469 6.47753 200.619 1.89509 200.965 0.172363H144.709L125.08 33.6277Z" fill="white"/>
<path fill-rule="evenodd" clip-rule="evenodd" d="M103.373 24.2215C117.637 25.1518 122.172 22.9811 128.438 14.8154C129.961 12.8171 134.6 5.82281 132.454 2.274C130.619 -0.792452 121.168 0.0689095 117.187 0.241182C114.763 4.10008 112.478 8.26907 110.124 12.2658C109.016 14.1952 103.685 22.8778 103.373 24.2215Z" fill="white"/>
<path fill-rule="evenodd" clip-rule="evenodd" d="M8.41248 24.8416L13.1207 24.8072L23.4373 11.4733C24.2681 10.4397 26.2068 7.64885 27.1762 6.95976C26.1376 11.1287 21.3601 20.5004 20.5293 24.8416L25.376 24.8072C26.2414 23.2567 29.1149 20.1214 30.4304 18.7087L40.8508 6.51185C41.8894 5.27149 45.4898 1.34368 45.9399 0.172226C40.9201 0.310044 41.7855 -0.654681 39.2583 2.51513L27.0377 17.6062C28.1801 13.4372 33.1307 3.68658 33.373 0.206681C26.8992 0.172226 29.2187 -0.792499 21.9486 8.54466L14.8517 17.5717L21.2216 0.27559L16.0287 0.241135L8.41248 24.8416Z" fill="white"/>
<path fill-rule="evenodd" clip-rule="evenodd" d="M58.3336 24.1182L63.4573 24.2215L68.2001 15.6768C72.3891 15.5046 75.5394 16.0558 79.0014 14.2642C85.406 11.0255 90.4258 1.75723 84.5059 0.413504C82.7749 4.98593e-05 74.2585 0.103413 72.216 0.275686L58.3336 24.1182Z" fill="white"/>
<path fill-rule="evenodd" clip-rule="evenodd" d="M80.9401 24.256H98.4921C99.1845 23.2568 100.5 21.1206 100.846 20.087L88.1755 20.0181C88.6948 18.571 90.8758 15.0222 91.7413 13.8163L103.27 13.7818L105.451 9.68174L94.3031 9.57837L97.1073 4.47911L109.397 4.51357C110.124 3.72111 111.578 1.37821 111.855 0.241211H94.8224C93.5761 1.72275 81.1478 23.3257 80.9401 24.256Z" fill="white"/>
<path fill-rule="evenodd" clip-rule="evenodd" d="M35.9349 24.1526L53.5908 24.256C54.387 23.3602 55.7718 20.9828 55.9795 20.0181H43.3781L46.84 13.7818H58.1259L60.6531 9.68177L49.5403 9.5784L52.1368 4.5825L64.6344 4.47914C65.4306 3.3766 66.6423 1.41269 67.0577 0.241242L49.8519 0.206787L35.9349 24.1526Z" fill="white"/>
<path fill-rule="evenodd" clip-rule="evenodd" d="M110.644 20.156C116.633 20.466 119.748 19.2946 122.379 16.0903C124.145 13.9541 127.884 9.13052 127.018 5.27162C125.045 4.06571 122.622 4.27244 119.645 4.41026C118.294 6.78762 111.059 18.7089 110.644 20.156Z" fill="#333333"/>
<path fill-rule="evenodd" clip-rule="evenodd" d="M70.8312 11.4733C73.2892 11.6456 76.0933 11.7834 78.1012 10.6464C79.763 9.6817 81.5632 7.68334 81.1824 4.99589C79.3475 4.27235 77.582 4.37571 75.574 4.37571C74.2239 4.34126 71.212 10.233 70.8312 11.4733Z" fill="#333333"/>
</g>
<defs>
<clipPath id="clip0">
<rect width="201" height="42" fill="white"/>
</clipPath>
</defs>
</svg>
