<svg width="100" height="67" viewBox="0 0 100 67" fill="none" xmlns="http://www.w3.org/2000/svg">
<path d="M64.7651 7.80371C67.8971 8.02667 71.0291 8.80704 73.8255 9.92185C76.7338 11.1481 79.4183 12.7089 81.7673 14.7155L81.991 14.9385L80.2013 16.7222C79.7539 17.0566 79.642 17.614 79.642 18.1714C79.642 18.7288 79.8657 19.2862 80.2013 19.6207C80.6487 20.0666 81.208 20.1781 81.6555 20.1781C82.2147 20.1781 82.774 19.9551 83.1096 19.6207L85.0112 17.837L85.2349 18.06C87.2483 20.401 88.9262 23.0766 90.1566 26.0866C91.2751 28.8736 92.0581 31.9951 92.2819 35.1165V35.451L87.472 35.005V39.5758L92.2819 39.1298V39.4643C92.0581 42.6972 91.2751 45.7072 90.1566 48.4942C88.9262 51.3927 87.3602 54.0683 85.3467 56.4094L85.123 56.6323L83.2215 54.7372C82.774 54.2912 82.2147 54.0683 81.7673 54.0683C81.208 54.0683 80.6488 54.2912 80.3132 54.7372C79.8658 55.0716 79.642 55.629 79.642 56.1864C79.642 56.7438 79.8658 57.3012 80.3132 57.6357L82.2147 59.5308L81.991 59.7538C79.642 61.7604 76.9575 63.4327 74.0492 64.5475C71.2528 65.7738 68.1208 66.4426 64.9888 66.6656H64.6532L65.1007 61.9834H60.5145L60.9619 66.6656H60.6264C57.3825 66.4426 54.3624 65.6623 51.566 64.5475C48.6577 63.3212 45.9731 61.7604 43.6241 59.7538L43.2886 59.5308L45.1901 57.6357C45.6376 57.1897 45.7494 56.6323 45.7494 56.1864C45.7494 55.629 45.5257 55.0716 45.1901 54.7372C44.7427 54.4027 44.1834 54.1797 43.736 54.1797C43.2886 54.1797 42.6174 54.4027 42.2819 54.7372L39.9329 56.8553L39.7091 56.6323C37.472 53.9568 35.6823 50.9468 34.4519 47.6024C33.2215 44.3694 32.6622 40.9135 32.6622 37.3461C32.6622 33.7788 33.3333 30.3228 34.4519 27.2014C35.6823 23.857 37.472 20.847 39.7091 18.2829L39.9329 18.06L41.8344 19.9551C42.2819 20.2896 42.8411 20.5125 43.2886 20.5125C43.8479 20.5125 44.4071 20.2896 44.7427 19.9551C45.1901 19.5092 45.302 18.9518 45.302 18.5059C45.302 18.06 45.0783 17.3911 44.7427 17.0566L42.8411 15.1614L43.1767 14.9385C45.5257 12.9318 48.2103 11.2596 51.1185 10.0333C54.0268 8.69556 57.047 8.02667 60.2908 7.80371H60.6264L60.1789 12.5974H64.8769L64.4295 7.80371H64.7651ZM73.6018 10.4793C70.9172 9.36444 68.1208 8.69556 65.1007 8.4726L65.5481 13.1548H59.5078L59.9552 8.4726C56.9351 8.69556 54.0268 9.47592 51.4541 10.4793C48.6577 11.5941 46.085 13.1548 43.8479 15.05L45.1901 16.3877C45.7494 16.9451 45.9731 17.614 45.9731 18.2829C45.9731 18.9518 45.7494 19.7322 45.1901 20.1781C44.6309 20.7355 43.9597 20.9585 43.2886 20.9585C42.6174 20.9585 41.8344 20.7355 41.387 20.1781L39.9329 18.8403C37.8076 21.4044 36.2416 24.1914 35.0112 27.3129C33.8926 30.4343 33.2215 33.7788 33.2215 37.2347C33.2215 40.802 33.7807 44.1465 35.0112 47.2679C36.2416 50.3894 37.8076 53.2879 39.9329 55.852L41.387 54.4027C41.9463 53.8453 42.6174 53.6223 43.2886 53.6223C43.9597 53.6223 44.7427 53.8453 45.1901 54.4027C45.7494 54.9601 45.9731 55.629 45.9731 56.2979C45.9731 56.9668 45.7494 57.7471 45.1901 58.1931L43.8479 59.5308C46.085 61.426 48.6577 62.8753 51.3423 63.9901C54.0268 65.1049 56.8232 65.7738 59.8434 66.1082L59.396 61.426H65.4362L64.9888 66.1082C68.0089 65.7738 70.9172 65.1049 73.4899 63.9901C76.2863 62.8753 78.7472 61.3145 81.0962 59.4194L79.642 58.0816C79.0828 57.5242 78.859 56.8553 78.859 56.1864C78.859 55.5175 79.1946 54.7372 79.642 54.2912C80.2013 53.7338 80.8725 53.5109 81.5436 53.5109C82.2147 53.5109 82.9977 53.8453 83.4452 54.2912L84.7875 55.7405C86.689 53.5109 88.1432 50.9468 89.3736 48.2713C90.4922 45.5957 91.1633 42.8087 91.387 39.7987L86.689 40.2446V34.2247L91.387 34.6706C91.1633 31.6606 90.3803 28.8736 89.2617 26.1981C88.1432 23.411 86.5772 20.9585 84.6756 18.7288L83.2215 20.0666C82.6622 20.624 81.991 20.847 81.3199 20.847C80.6487 20.847 79.8658 20.624 79.4183 20.0666C78.859 19.5092 78.6353 18.8403 78.6353 18.1714C78.6353 17.5025 78.859 16.7222 79.4183 16.2763L80.7606 14.9385C78.859 13.0433 76.2863 11.5941 73.6018 10.4793Z" fill="white"/>
<path fill-rule="evenodd" clip-rule="evenodd" d="M68.3445 11.8169L68.7919 15.9417H65.2125C63.4228 15.9417 61.6331 15.9417 59.8434 15.9417H56.264L56.7114 11.8169C53.6913 12.4858 50.783 13.7121 48.2103 15.3843C49.5526 17.5024 49.217 20.4009 47.3154 22.2961C45.4139 24.1913 42.6174 24.4142 40.3803 23.1879C37.6957 27.4242 36.2416 32.3294 36.2416 37.346C36.2416 42.4741 37.6957 47.3793 40.4922 51.6156C42.6174 50.3893 45.5257 50.6122 47.4273 52.5074C49.3289 54.4026 49.5526 57.1896 48.3221 59.4192C50.8948 61.0914 53.8031 62.3177 56.7114 62.9866L56.264 58.8618H59.8434C61.6331 58.8618 63.4228 58.8618 65.2125 58.8618H68.7919L68.3445 62.9866C71.3646 62.3177 74.2729 61.0914 76.8456 59.4192C75.6152 57.3011 75.8389 54.4026 77.7405 52.5074C79.6421 50.6122 82.4385 50.3893 84.5638 51.6156C86.2416 49.0515 87.472 46.2645 88.1432 43.2545L84.0045 43.4775V39.9101C84.0045 38.1264 84.0045 36.3427 84.0045 34.6705V31.1031L88.1432 31.549C87.472 28.539 86.2416 25.6405 84.5638 23.0765C82.4385 24.3028 79.5302 24.0798 77.6286 22.1846C75.7271 20.2894 75.5033 17.5024 76.7338 15.2728C74.1611 13.7121 71.3646 12.4858 68.3445 11.8169Z" fill="white"/>
<path d="M68.6801 12.2628L69.1275 16.2762H55.9284L56.3758 12.2628C55.0336 12.5973 53.6913 13.0432 52.4609 13.6006C51.1186 14.158 49.8882 14.8269 48.6577 15.6073C49.217 16.7221 49.4407 17.9484 49.217 19.1747C49.1052 20.401 48.5459 21.6272 47.5392 22.6306C46.5324 23.6339 45.302 24.1913 44.0716 24.3028C42.8412 24.4143 41.6107 24.1913 40.604 23.6339C39.3736 25.6406 38.3669 27.8702 37.6958 30.0998C37.0246 32.4409 36.689 34.8935 36.689 37.4575C36.689 40.0216 37.0246 42.4742 37.6958 44.8153C38.3669 47.1564 39.3736 49.2745 40.7159 51.2812C41.8345 50.7238 43.0649 50.5008 44.2953 50.6123C45.5257 50.7238 46.7562 51.3926 47.7629 52.2845C48.7696 53.2878 49.3289 54.5141 49.4407 55.7404C49.5526 56.9667 49.3289 58.193 48.8814 59.3078C50.1119 60.0881 51.3423 60.757 52.5727 61.203C53.8031 61.7604 55.1454 62.2063 56.4877 62.4292L55.9284 58.3044H69.1275L68.6801 62.4292C70.0224 62.0948 71.3647 61.6489 72.5951 61.0915C73.9374 60.5341 75.1678 59.8652 76.3982 59.0848C75.8389 57.97 75.6152 56.7437 75.7271 55.6289C75.8389 54.4026 76.5101 53.0648 77.4049 52.173C78.4116 51.1697 79.6421 50.6123 80.8725 50.5008C82.1029 50.3893 83.3333 50.6123 84.4519 51.1697C85.2349 49.9434 85.906 48.7171 86.3535 47.3793C86.9128 46.153 87.3602 44.8153 87.5839 43.589L83.4452 43.9234V30.7687L87.5839 31.1031C87.2483 29.7653 86.8009 28.4276 86.3535 27.2013C85.7942 25.8635 85.1231 24.6372 84.3401 23.4109C83.2215 23.9683 81.9911 24.1913 80.7606 24.0798C79.5302 23.9683 78.1879 23.2995 77.2931 22.4076C76.2864 21.4043 75.7271 20.178 75.6152 18.9517C75.5034 17.7254 75.6152 16.4991 76.1745 15.4958C74.9441 14.7154 73.7137 14.0465 72.4832 13.4891C71.3647 13.0432 70.0224 12.5973 68.6801 12.2628ZM68.4564 15.7188L68.009 11.4825L68.4564 11.594C69.9105 11.9284 71.4765 12.3743 72.8188 13.0432C74.2729 13.6006 75.6152 14.381 76.9575 15.1614L77.1812 15.2728L77.0694 15.4958C76.5101 16.4991 76.2864 17.7254 76.3982 18.8402C76.5101 19.955 77.0694 21.0698 77.9642 21.9617C78.8591 22.8535 79.9776 23.2995 81.0962 23.4109C82.3266 23.5224 83.4452 23.2995 84.5638 22.7421L84.7875 22.6306L84.8993 22.8535C85.7942 24.1913 86.4653 25.5291 87.1365 26.9783C87.6958 28.4276 88.255 29.8768 88.5906 31.4376L88.7025 31.8835L84.4519 31.4376V43.143L88.7025 42.6971L88.5906 43.143C88.255 44.5923 87.8076 46.153 87.1365 47.4908C86.5772 48.9401 85.7942 50.2778 85.0112 51.6156L84.7875 51.8386L84.5638 51.7271C83.5571 51.1697 82.3266 50.8352 81.2081 51.0582C80.0895 51.1697 78.9709 51.7271 78.0761 52.6189C77.1812 53.5108 76.7338 54.5141 76.5101 55.7404C76.3982 56.8552 76.6219 58.0815 77.1812 59.0848L77.2931 59.3078L77.0694 59.4193C75.7271 60.3111 74.3848 60.98 72.9307 61.6489C71.4765 62.2063 70.0224 62.7637 68.4564 63.0981L68.009 63.2096L68.4564 58.9733H56.5996L57.047 63.2096L56.5996 63.0981C55.0336 62.7637 53.5794 62.3178 52.1253 61.6489C50.6711 61.0915 49.3289 60.3111 47.9866 59.5307L47.7629 59.4193L47.8747 59.1963C48.434 58.193 48.6577 56.9667 48.5459 55.8519C48.434 54.7371 47.8747 53.6222 47.0917 52.7304C46.1969 51.8386 45.0783 51.2812 43.9597 51.1697C42.8412 51.0582 41.6107 51.2812 40.604 51.8386L40.3803 51.95L40.1566 51.7271C38.8143 49.6089 37.6958 47.2678 36.9128 44.8153C36.2416 42.3627 35.7942 39.9101 35.7942 37.2346C35.7942 34.6705 36.1298 32.1064 36.9128 29.7653C37.5839 27.3128 38.7025 25.0831 40.0447 22.965L40.1566 22.7421L40.4922 22.8535C41.4989 23.5224 42.7293 23.7454 43.8479 23.5224C44.9665 23.4109 46.085 22.8535 46.9799 21.9617C47.8747 21.0698 48.3222 20.0665 48.5459 18.8402C48.6577 17.7254 48.434 16.4991 47.8747 15.4958L47.7629 15.1614L47.9866 15.0499C49.3289 14.158 50.6711 13.4891 52.1253 12.8203C53.5794 12.2628 55.0336 11.7054 56.5996 11.371L57.047 11.2595L56.5996 15.4958H68.4564V15.7188Z" fill="white"/>
<path fill-rule="evenodd" clip-rule="evenodd" d="M64.2058 18.283C68.3445 18.6174 72.0358 20.2896 74.9441 22.7422L73.4899 24.1914C72.8188 24.8603 72.8188 25.8637 73.4899 26.5325C74.0492 27.2014 75.1678 27.2014 75.8389 26.5325L77.2931 25.0833C79.7539 28.0933 81.4318 31.7721 81.7673 35.7855H78.1879V39.0184H81.6555C81.3199 43.1432 79.6421 46.8221 77.1812 49.832L75.7271 48.3828C75.0559 47.7139 74.0492 47.7139 73.3781 48.3828C72.7069 48.9402 72.7069 50.055 73.3781 50.7239L74.8322 52.1731C71.9239 54.6257 68.2327 56.1865 64.094 56.5209V52.9535H60.8501V56.5209C56.7114 56.1865 53.0201 54.5142 50 52.0617L51.4541 50.6124C52.1253 49.9435 52.1253 48.9402 51.4541 48.2713C50.783 47.6024 49.7763 47.6024 49.1052 48.2713L47.7629 49.6091C45.302 46.7106 43.6242 43.0317 43.4005 38.9069H46.9799V35.674H43.4005C43.736 31.6607 45.302 27.8703 47.8747 24.9718L49.217 26.4211C49.8881 27.0899 50.8949 27.0899 51.566 26.4211C52.2371 25.7522 52.2371 24.7488 51.566 24.08L50.2237 22.7422C53.2439 20.2896 56.9351 18.6174 60.962 18.283V21.8503H64.2058V18.283Z" fill="white"/>
<path d="M65.66 19.955V23.2994H59.396V19.955C58.1655 20.1779 56.9351 20.5124 55.7047 21.0698C54.4743 21.5157 53.3557 22.1846 52.349 22.8535L52.4609 22.9649C53.0201 23.5223 53.3557 24.4142 53.3557 25.1946C53.3557 25.9749 53.0201 26.8668 52.4609 27.4242C51.9016 27.9816 51.0067 28.316 50.2237 28.316C49.4407 28.316 48.6577 27.9816 47.9866 27.4242L47.7629 27.3127C46.9799 28.316 46.4206 29.4308 45.9732 30.6571C45.5257 31.8834 45.1902 32.9982 44.9664 34.336H48.3221V40.5789H44.9664C45.1902 41.8052 45.5257 43.0315 45.9732 44.1463C46.4206 45.2611 46.9799 46.3759 47.7629 47.3792L47.8747 47.2678C48.434 46.7104 49.3289 46.3759 50.1119 46.3759C50.8949 46.3759 51.7897 46.7104 52.349 47.2678C52.9083 47.8252 53.2438 48.717 53.2438 49.4974C53.2438 50.2778 52.9083 51.1696 52.349 51.727L52.2371 51.8385C53.2438 52.6189 54.3624 53.1763 55.5928 53.7337C56.8233 54.1796 57.9418 54.6255 59.2841 54.8485V51.504H65.5481V54.8485C66.7785 54.6255 68.0089 54.2911 69.1275 53.8451C70.2461 53.3992 71.3646 52.7303 72.3714 52.0614L72.1476 51.8385C71.5884 51.2811 71.2528 50.3892 71.2528 49.6089C71.2528 48.8285 71.5884 47.9367 72.1476 47.3792C72.7069 46.8218 73.6018 46.4874 74.3848 46.4874C75.1678 46.4874 75.9508 46.8218 76.6219 47.3792L76.8456 47.6022C77.6286 46.5989 78.1879 45.4841 78.7472 44.2578C79.3065 43.0315 79.6421 41.8052 79.8658 40.5789H76.3982V34.336H79.8658C79.6421 33.1097 79.3065 31.8834 78.8591 30.7686C78.4116 29.5423 77.7405 28.4275 77.0694 27.4242L76.8456 27.6471C76.2863 28.2045 75.3915 28.539 74.6085 28.539C73.8255 28.539 72.9306 28.2045 72.3714 27.6471C71.8121 27.0897 71.4765 26.1979 71.4765 25.4175C71.4765 24.6372 71.8121 23.8568 72.3714 23.1879L72.5951 22.9649C71.5884 22.1846 70.4698 21.6272 69.2394 21.1812C68.1208 20.5124 66.8904 20.1779 65.66 19.955ZM65.3244 23.0764V19.6205H65.5481C66.8904 19.8435 68.2327 20.1779 69.4631 20.7353C70.6935 21.2927 71.9239 21.8501 73.0425 22.6305L73.1544 22.742L72.7069 23.2994C72.1476 23.8568 71.9239 24.5257 71.9239 25.306C71.9239 26.0864 72.2595 26.7553 72.7069 27.3127C73.2662 27.8701 73.9374 28.0931 74.7204 28.0931C75.3915 28.0931 76.1745 27.7586 76.7338 27.3127L77.1812 26.7553L77.2931 26.8668C78.0761 27.9816 78.7472 29.2079 79.1946 30.4342C79.7539 31.6604 80.0895 32.9982 80.3132 34.336V34.559H76.8456V40.133H80.3132V40.356C80.0895 41.6937 79.7539 43.0315 79.1946 44.2578C78.6353 45.4841 77.9642 46.7104 77.1812 47.8252L77.0694 47.9367L76.6219 47.4907C76.0626 46.9333 75.3915 46.7104 74.6085 46.7104C73.8255 46.7104 73.1544 47.0448 72.5951 47.4907C72.0358 48.0481 71.8121 48.717 71.8121 49.4974C71.8121 50.1663 72.1477 50.9466 72.5951 51.504L73.0425 51.95L72.9306 52.0614C71.8121 52.8418 70.6935 53.5107 69.4631 53.9566C68.2327 54.514 66.8904 54.8485 65.5481 55.0714H65.3244V51.6155H59.6197V55.0714H59.396C58.0537 54.8485 56.7114 54.514 55.481 53.9566C54.2506 53.3992 53.0201 52.7303 51.9016 51.95L51.7897 51.8385L52.2371 51.3926C52.7964 50.8352 53.0201 50.1663 53.0201 49.3859C53.0201 48.6055 52.6846 47.9367 52.2371 47.3792C51.6779 46.8218 51.0067 46.5989 50.2237 46.5989C49.5526 46.5989 48.7696 46.9333 48.2103 47.3792L47.7629 47.8252L47.651 47.7137C46.868 46.5989 46.1969 45.3726 45.7494 44.1463C45.1902 42.92 44.8546 41.5822 44.6309 40.356V40.133H48.0984V34.559H44.6309V34.336C44.8546 32.9982 45.1902 31.6604 45.7494 30.4342C46.3087 29.2079 46.9799 27.9816 47.7629 26.8668L47.8747 26.7553L48.3221 27.2012C48.8814 27.7586 49.5526 27.9816 50.3356 27.9816C51.1186 27.9816 51.7897 27.6471 52.349 27.2012C52.9083 26.7553 53.132 25.9749 53.132 25.1946C53.132 24.5257 52.7964 23.7453 52.349 23.1879L51.9016 22.742L52.0134 22.6305C53.132 21.8501 54.3624 21.1812 55.5928 20.6238C56.8233 20.0664 58.1655 19.732 59.5078 19.509H59.7315V22.9649H65.3244V23.0764Z" fill="#333333"/>
<rect x="36" y="31" width="38" height="27" fill="white"/>
<path fill-rule="evenodd" clip-rule="evenodd" d="M20.8054 63.0981C20.6935 63.0981 20.5817 63.0981 20.4698 63.0981H17.226C17.1141 63.0981 17.0022 63.0981 16.8904 63.0981H13.1991V59.0848L13.0872 55.9633L12.3042 59.5307L11.6331 62.9866H8.2774H8.38926C8.2774 62.9866 8.16555 62.9866 8.05369 62.9866H4.80984C4.69799 62.9866 4.69799 62.9866 4.58613 62.9866H4.69799H0L1.00671 58.193L8.2774 21.9617H23.8255L24.1611 33.6672L29.0828 22.0731H45.0783L37.5839 59.5307C37.5839 59.6422 37.5839 59.6422 37.5839 59.7537L36.9128 63.0981H33.557C33.4452 63.0981 33.3333 63.0981 33.2215 63.0981H29.9776C29.8658 63.0981 29.7539 63.0981 29.6421 63.0981H25.1678L26.1745 58.4159L26.7338 55.8519L24.8322 60.3111C24.7204 60.534 24.6085 60.8685 24.3848 61.0915V61.3144L23.4899 63.0981H20.8054ZM12.1924 60.1996C12.1924 60.3111 12.0805 60.3111 12.0805 60.4226C12.0805 60.3111 12.1924 60.1996 12.1924 60.1996ZM8.94855 62.9866C8.83669 62.9866 8.83669 62.9866 8.72483 62.9866C8.83669 62.9866 8.83669 62.9866 8.94855 62.9866ZM8.72483 62.9866C8.61298 62.9866 8.61298 62.9866 8.50112 62.9866C8.61298 63.0981 8.61298 63.0981 8.72483 62.9866ZM37.1365 60.6455C37.1365 60.757 37.1365 60.757 37.0246 60.757C37.1365 60.757 37.1365 60.757 37.1365 60.6455ZM34.1163 62.9866H34.0045H33.8926H33.7808H33.6689H33.557" fill="white"/>
<path fill-rule="evenodd" clip-rule="evenodd" d="M22.0358 43.7006L30.4251 24.1914H42.2819L35.2349 59.0849C35.0112 60.0883 34.1163 60.8686 33.1096 60.8686H29.8658C28.6353 60.8686 27.8523 59.8653 28.0761 58.7505L32.6622 35.8969L22.5951 59.4194C22.3714 59.9768 21.9239 60.4227 21.4765 60.6457C21.1409 60.8686 20.8054 60.9801 20.3579 60.9801H17.1141C16.6667 60.9801 16.3311 60.8686 15.9955 60.6457C15.5481 60.3112 15.2125 59.7538 15.2125 59.0849L14.6532 36.6773L10.179 59.3079C9.95526 60.3112 9.0604 61.0916 8.05369 61.0916H4.80984C3.57942 61.0916 2.79642 60.0883 3.02013 58.9734L9.95525 24.4144H21.5884L22.0358 43.7006Z" fill="#FEFEFE"/>
<path fill-rule="evenodd" clip-rule="evenodd" d="M4.80986 59.8652H8.0537C8.61299 59.8652 9.06041 59.5308 9.17227 58.9734L14.9888 29.6539H15.66L16.443 58.9734C16.443 59.3078 16.6667 59.5308 16.8904 59.7537C17.0022 59.8652 17.1141 59.8652 17.3378 59.8652H17.4497H20.5817H20.6935C20.9172 59.8652 21.0291 59.8652 21.2528 59.7537C21.5884 59.5308 21.8121 59.3078 21.9239 58.9734L34.5638 29.6539H35.4586L29.6421 58.9734C29.5302 59.5308 29.8658 59.8652 30.3132 59.8652H33.5571C34.1163 59.8652 34.5638 59.5308 34.6756 58.9734L41.387 25.3062H36.5772H36.4653H31.6555L21.5884 48.7171L21.0291 25.3062H16.3311H15.9955H10.8501L4.13871 58.9734C4.02686 59.4193 4.36243 59.8652 4.80986 59.8652Z" fill="#333333"/>
<path fill-rule="evenodd" clip-rule="evenodd" d="M66.5548 48.8285C67.4497 48.0481 68.4564 47.8252 69.575 47.8252C70.8054 47.8252 72.0358 48.0481 72.9307 48.8285C73.7136 49.6089 74.1611 50.5007 74.1611 51.6155V52.3959L71.2528 52.6189C71.7002 52.8418 72.1477 53.0648 72.3714 53.3992C73.0425 54.0681 73.3781 54.8485 73.3781 55.8518C73.3781 56.5207 73.1544 57.1896 72.8188 57.747C72.3714 58.4159 71.8121 58.8618 71.1409 59.1962C70.3579 59.5307 69.4631 59.6422 68.6801 59.6422C67.4497 59.6422 66.3311 59.3077 65.3244 58.6388C64.2058 57.8585 63.7584 56.5207 63.8702 55.2944V54.514L67.1141 54.4026C67.0022 54.2911 67.0022 54.2911 66.8904 54.2911C66.443 53.9566 65.9955 53.6222 65.66 53.1763C65.3244 52.7303 65.2125 52.2844 65.2125 51.727L65.1007 51.8385L64.4295 51.2811C64.3177 51.1696 64.094 51.0581 63.9821 51.0581C63.5347 51.0581 62.9754 51.5041 62.7517 51.8385C62.0805 52.6189 61.745 54.0681 61.5213 54.96L60.5145 59.5307H57.2707L59.6197 48.1596H62.7517L62.6398 48.3826C63.0873 48.0481 63.6465 47.9367 64.2058 47.9367C64.7651 47.9367 65.3244 48.1596 65.7718 48.3826L66.443 48.717L66.5548 48.8285ZM67.226 54.4026V55.1829C67.226 55.5174 67.226 55.8518 67.3378 56.0748C67.4497 56.2977 67.5615 56.4092 67.7852 56.5207C68.1208 56.6322 68.4564 56.7437 68.792 56.7437C69.1275 56.7437 69.6868 56.7437 69.9105 56.4092C70.0224 56.2977 70.1342 56.1863 70.1342 55.9633C70.1342 55.8518 70.0224 55.7403 70.0224 55.6288C69.7987 55.4059 68.9038 55.0714 68.6801 54.8485C68.3445 54.96 67.7852 54.737 67.226 54.4026ZM71.0291 52.6189V51.95C71.0291 51.6155 70.9172 51.3926 70.6935 51.1696C70.3579 50.9467 69.9105 50.8352 69.575 50.8352C69.3512 50.8352 68.9038 50.8352 68.792 51.0581C68.6801 51.1696 68.5682 51.2811 68.5682 51.2811C68.5682 51.3926 68.6801 51.3926 68.6801 51.5041C68.9038 51.727 69.5749 52.0615 69.9105 52.1729C70.2461 52.1729 70.6935 52.3959 71.0291 52.6189ZM48.3222 50.7237C48.5459 50.3892 48.7696 50.0548 49.1052 49.7204C50.2237 48.4941 51.6779 47.9367 53.3557 47.9367C54.698 47.9367 55.8166 48.2711 56.8233 49.2744C57.83 50.2778 58.1656 51.5041 58.1656 52.8418C58.1656 54.0681 57.9418 55.1829 57.3826 56.2977C56.8233 57.4125 56.1521 58.1929 55.1454 58.8618C54.2506 59.4192 53.132 59.7536 52.0134 59.7536C51.1186 59.7536 50.3356 59.5307 49.5526 59.1962C48.7696 58.7503 48.2103 58.1929 47.7629 57.524C47.5392 57.1896 47.4273 56.8551 47.3154 56.5207L46.7562 59.5307L46.1969 59.6422C45.7494 59.7536 45.302 59.8651 44.8546 59.8651C44.0716 59.8651 43.4005 59.6422 42.7293 59.1962C42.2819 58.7503 41.9463 58.1929 41.9463 57.524C41.9463 57.0781 42.0582 56.2977 42.17 55.8518L43.1767 51.1696H41.8345L42.3937 48.2711H43.736L44.1834 46.153L46.4206 44.8152H44.7427L47.0917 33.4442H50.4474L47.9866 44.8152H47.7629L46.9799 48.1596H48.6577L48.3222 50.7237ZM48.2103 50.9466H46.6443L45.6376 55.7403C45.6376 55.9633 45.5257 56.2977 45.5257 56.6322C45.7494 56.6322 45.9732 56.6322 46.1969 56.5207L47.4273 56.1863C47.3154 55.7403 47.3154 55.2944 47.3154 54.8485C47.2036 53.6222 47.4273 52.1729 48.2103 50.9466ZM47.3154 33.1097L48.0984 29.6538H51.4541L50.6711 33.1097H47.3154ZM54.698 33.7786C54.8098 33.6671 54.8098 33.6671 54.9217 33.6671C55.5928 33.3327 56.3758 33.1097 57.047 33.1097C57.9418 33.1097 58.8367 33.3327 59.5078 34.0016C60.179 34.6704 60.4027 35.4508 60.4027 36.3427C60.4027 36.9001 60.2908 37.6804 60.179 38.2378L58.7248 44.8152H55.3691L57.047 37.6804C57.1588 37.346 57.1588 36.9001 57.1588 36.4541C57.1588 36.3427 57.1588 36.3427 57.047 36.3427C56.9351 36.2312 56.7114 36.2312 56.5996 36.2312C55.9284 36.2312 55.3691 36.4541 54.8098 37.0115C54.1387 37.6804 53.8031 38.7952 53.5794 39.6871L52.4609 44.9267H49.1052L51.4541 33.5556H54.698V33.7786ZM62.1924 33.1097L62.9754 29.6538H66.3311L65.5481 33.1097H62.1924ZM59.7316 44.7037L62.0805 33.3327H65.4362L63.0873 44.7037H59.7316ZM50.4474 54.8485C50.4474 55.4059 50.5593 55.9633 50.8949 56.4092C51.2304 56.7437 51.566 56.8551 52.0134 56.8551C52.2371 56.8551 52.5727 56.7437 52.7964 56.7437C53.132 56.6322 53.3557 56.4092 53.5794 56.1863C53.8031 55.9633 54.0268 55.6288 54.2506 55.4059C54.4743 55.1829 54.5861 54.737 54.698 54.4026C54.8098 53.9566 54.9217 53.3992 54.9217 52.8418C54.9217 52.2844 54.8098 51.727 54.4743 51.3926C54.1387 51.0581 53.8031 50.9466 53.3557 50.9466C53.0201 50.9466 52.5727 51.0581 52.349 51.1696C52.0134 51.3926 51.6779 51.727 51.4541 52.0615C51.1186 52.5074 50.8949 52.9533 50.783 53.5107C50.5593 53.8452 50.4474 54.2911 50.4474 54.8485Z" fill="#FEFEFE"/>
<path d="M48.3221 32.2179L48.7696 30.3228H50.4474L50 32.2179H48.3221ZM45.9731 43.9234L47.9866 34.1131H49.6644L47.651 43.9234H45.9731ZM50.1118 43.9234L52.2371 34.1131H53.8031L53.4675 35.7853C54.1387 35.1164 54.698 34.6705 55.3691 34.3361C56.0403 34.0016 56.5995 33.8901 57.1588 33.8901C57.9418 33.8901 58.613 34.1131 59.0604 34.559C59.5078 35.005 59.7315 35.5624 59.7315 36.2312C59.7315 36.5657 59.6197 37.2346 59.5078 37.9035L58.1655 43.8119H56.4877L57.83 37.569C57.9418 37.0116 58.0537 36.5657 58.0537 36.2312C58.0537 35.8968 57.9418 35.6738 57.7181 35.4509C57.4944 35.2279 57.1588 35.1164 56.7114 35.1164C55.8165 35.1164 55.0335 35.4509 54.3624 36.0083C53.6913 36.5657 53.132 37.6805 52.9083 39.1297L51.9016 43.7005H50.1118V43.9234ZM63.1991 32.2179L63.5347 30.3228H65.2125L64.8769 32.2179H63.1991ZM60.7382 43.9234L62.8635 34.1131H64.5414L62.4161 43.9234H60.7382ZM46.3087 57.3011L45.9731 58.6389C45.5257 58.7504 45.1901 58.7504 44.7427 58.7504C44.0716 58.7504 43.5123 58.6389 43.1767 58.3045C42.8411 58.0815 42.7293 57.7471 42.7293 57.3011C42.7293 57.0782 42.8412 56.6322 42.953 55.8519L44.1834 50.1664H42.8411L43.0649 48.9401H44.4071L44.9664 46.4875L46.868 45.3727L46.085 48.9401H47.7629L47.5391 50.1664H45.8613L44.7427 55.6289C44.6309 56.2978 44.519 56.7437 44.519 56.8552C44.519 57.0782 44.6309 57.1896 44.6309 57.3011C44.7427 57.4126 44.9664 57.4126 45.1901 57.4126C45.7494 57.5241 46.085 57.4126 46.3087 57.3011ZM47.9866 54.96C47.9866 53.0649 48.5458 51.5041 49.6644 50.2778C50.5593 49.2745 51.7897 48.7171 53.3557 48.7171C54.5861 48.7171 55.481 49.0515 56.1521 49.8319C56.9351 50.6123 57.2707 51.5041 57.2707 52.8419C57.2707 53.9567 57.047 54.96 56.5995 55.9634C56.1521 56.9667 55.481 57.6356 54.698 58.193C53.8031 58.7504 53.0201 58.9733 52.0134 58.9733C51.2304 58.9733 50.5593 58.7504 49.8881 58.4159C49.217 58.0815 48.7696 57.6356 48.434 57.0782C48.2103 56.5208 47.9866 55.7404 47.9866 54.96ZM49.6644 54.8486C49.6644 55.7404 49.8881 56.5208 50.3356 56.9667C50.783 57.4126 51.3423 57.6356 52.0134 57.6356C52.349 57.6356 52.7964 57.5241 53.132 57.4126C53.4675 57.3011 53.8031 57.0782 54.1387 56.7437C54.4743 56.4093 54.698 56.0748 54.9217 55.7404C55.1454 55.406 55.2573 54.96 55.481 54.5141C55.7047 53.9567 55.8165 53.2878 55.8165 52.7304C55.8165 51.8386 55.5928 51.1697 55.1454 50.7238C54.698 50.1664 54.1387 49.9434 53.4675 49.9434C52.9083 49.9434 52.4608 50.0549 52.0134 50.2778C51.566 50.5008 51.2304 50.9467 50.783 51.3926C50.3356 51.8386 50.2237 52.396 50 53.0649C49.7763 53.7337 49.6644 54.2911 49.6644 54.8486ZM58.2774 58.7504L60.2908 48.9401H61.745L61.2975 50.9467C61.8568 50.1664 62.3042 49.6089 62.7517 49.2745C63.1991 48.9401 63.7584 48.7171 64.2058 48.7171C64.5414 48.7171 64.9888 48.8286 65.4362 49.0515L64.7651 50.6123C64.4295 50.3893 64.0939 50.2778 63.7584 50.2778C63.1991 50.2778 62.528 50.6123 61.9687 51.2812C61.2975 51.95 60.8501 53.0649 60.5145 54.7371L59.7315 58.6389H58.2774V58.7504ZM64.7651 55.406L66.4429 55.2945C66.4429 55.7404 66.5548 56.1863 66.6666 56.5208C66.7785 56.8552 67.1141 57.0782 67.4496 57.3011C67.8971 57.5241 68.3445 57.6356 68.9038 57.6356C69.6868 57.6356 70.1342 57.5241 70.5816 57.1896C70.9172 56.8552 71.1409 56.5208 71.1409 56.1863C71.1409 55.8519 71.0291 55.6289 70.8054 55.406C70.5816 55.183 70.0224 54.8485 69.1275 54.4026C68.2326 54.0682 67.6734 53.7337 67.4496 53.6223C67.0022 53.3993 66.6667 53.0649 66.4429 52.7304C66.2192 52.396 66.1074 51.95 66.1074 51.5041C66.1074 50.7238 66.4429 50.0549 67.0022 49.4975C67.5615 48.9401 68.4564 48.7171 69.5749 48.7171C70.8054 48.7171 71.7002 49.0515 72.3713 49.6089C73.0425 50.1664 73.3781 50.9467 73.3781 51.8386L71.7002 51.95C71.7002 51.3926 71.4765 50.9467 71.0291 50.5008C70.6935 50.1664 70.0224 49.9434 69.3512 49.9434C68.7919 49.9434 68.3445 50.0549 68.0089 50.3893C67.6734 50.7238 67.5615 50.9467 67.5615 51.2812C67.5615 51.6156 67.6734 51.8386 68.0089 52.0615C68.1208 52.173 68.6801 52.396 69.4631 52.8419C70.6935 53.3993 71.5884 53.8452 71.9239 54.1797C72.4832 54.7371 72.7069 55.2945 72.7069 56.0748C72.7069 56.6322 72.5951 57.0782 72.2595 57.5241C71.9239 57.97 71.4765 58.4159 70.9172 58.6389C70.3579 58.9733 69.5749 59.0848 68.7919 59.0848C67.6734 59.0848 66.6667 58.7504 65.8837 58.193C65.1007 57.5241 64.7651 56.6322 64.7651 55.406Z" fill="#333333"/>
<path d="M39.821 13.3777L37.0246 9.81032L38.0313 8.91847L40.604 10.8136L39.2617 7.80366L40.3803 7.02329L43.1767 10.5907L42.5056 11.1481L40.2684 8.36106L41.7226 11.7055L41.1633 12.2629L38.255 10.0333L40.4922 12.8203L39.821 13.3777ZM43.9597 10.1448L41.4989 6.35441L42.2819 5.90849L44.7427 9.69884L43.9597 10.1448ZM45.5257 9.14143L43.4004 5.12812L44.1834 4.6822L47.2036 6.57737L45.8613 3.90183L46.6443 3.45591L48.7696 7.46922L47.9866 7.91514L44.9664 6.13145L46.3087 8.80699L45.5257 9.14143ZM49.6644 7.13478L47.9866 2.8985L48.8814 2.56406L50.5593 6.80033L49.6644 7.13478ZM51.2304 6.46589L50 2.11814L51.3423 1.78369L53.0201 4.45923L52.9083 1.22629L54.2505 0.891847L55.481 5.2396L54.698 5.46256L53.6913 2.00666L53.8031 5.68552L52.9083 5.90849L51.0067 2.67554L52.0134 6.13145L51.2304 6.46589ZM55.9284 2.8985C55.8165 2.45258 55.9284 2.00666 56.0403 1.67221C56.1521 1.44925 56.264 1.22629 56.3758 1.00333C56.4877 0.780366 56.7114 0.668885 56.9351 0.557404C57.2707 0.445923 57.4944 0.334443 57.9418 0.222962C58.613 0.111481 59.1722 0.222962 59.6197 0.668885C60.0671 1.00333 60.4027 1.56073 60.4027 2.3411C60.5145 3.12146 60.4027 3.67887 60.0671 4.12479C59.7315 4.57072 59.1722 4.90516 58.5011 4.90516C57.83 5.01664 57.2707 4.79368 56.8233 4.45923C56.264 4.12479 56.0403 3.56739 55.9284 2.8985ZM56.9351 2.78702C57.047 3.34443 57.1588 3.67887 57.4944 3.90183C57.83 4.12479 58.0537 4.23627 58.5011 4.23627C58.8367 4.23627 59.1722 4.01331 59.396 3.67887C59.6197 3.34443 59.6197 3.00998 59.6197 2.45258C59.5078 1.89517 59.396 1.56073 59.1723 1.33777C58.9485 1.11481 58.613 1.00333 58.1655 1.00333C57.83 1.11481 57.4944 1.22629 57.2707 1.56073C56.9351 1.78369 56.8233 2.22962 56.9351 2.78702ZM62.4161 4.57072L62.528 0.780366H61.1857V0L64.8769 0.111481V0.891847H63.5347L63.4228 4.6822L62.4161 4.57072ZM65.3244 2.45258C65.4362 2.00666 65.5481 1.67221 65.6599 1.33777C65.7718 1.11481 65.9955 0.891847 66.1074 0.780366C66.3311 0.668885 66.5548 0.445923 66.7785 0.445923C67.1141 0.334443 67.4497 0.334443 67.7852 0.334443C68.4564 0.445923 68.9038 0.668885 69.3512 1.11481C69.6868 1.56073 69.7986 2.22962 69.6868 2.8985C69.5749 3.67887 69.3512 4.12479 68.9038 4.57072C68.4564 4.90516 67.8971 5.01664 67.2259 5.01664C66.5548 4.90516 65.9955 4.6822 65.6599 4.23627C65.3244 3.67887 65.2125 3.12146 65.3244 2.45258ZM66.2192 2.56406C66.1074 3.12146 66.2192 3.45591 66.4429 3.79035C66.6667 4.12479 67.0022 4.23627 67.3378 4.34775C67.6734 4.45923 68.0089 4.34775 68.3445 4.01331C68.5682 3.79035 68.7919 3.45591 68.9038 2.8985C69.0156 2.3411 68.9038 2.00666 68.6801 1.67221C68.4564 1.33777 68.2327 1.22629 67.8971 1.11481C67.5615 1.11481 67.2259 1.11481 66.8904 1.44925C66.4429 1.67221 66.3311 2.00666 66.2192 2.56406ZM70.1342 5.46256L71.3646 1.11481L73.2662 1.67221C73.7136 1.78369 74.0492 2.00666 74.2729 2.11814C74.4966 2.22962 74.6085 2.45258 74.7203 2.67554C74.8322 2.8985 74.8322 3.12146 74.7203 3.45591C74.6085 3.79035 74.3848 4.01331 74.1611 4.23627C73.9374 4.34775 73.6018 4.45923 73.1544 4.34775C73.2662 4.57072 73.3781 4.6822 73.4899 4.90516C73.6018 5.12812 73.7136 5.35108 73.8255 5.797L74.1611 6.80033L73.0425 6.46589L72.7069 5.35108C72.5951 5.01664 72.4832 4.6822 72.3713 4.57072C72.2595 4.45923 72.2595 4.34775 72.1476 4.34775C72.0358 4.23627 71.9239 4.23627 71.7002 4.12479H71.4765L70.9172 5.90849L70.1342 5.46256ZM71.7002 3.23295L72.3713 3.34443C72.8188 3.45591 73.0425 3.45591 73.1544 3.45591C73.2662 3.45591 73.3781 3.45591 73.4899 3.34443C73.6018 3.23295 73.6018 3.23295 73.6018 3.00998C73.7136 2.8985 73.7136 2.67554 73.6018 2.67554C73.4899 2.56406 73.4899 2.45258 73.2662 2.3411C73.1544 2.3411 72.9306 2.22962 72.5951 2.11814L71.9239 1.89517L71.7002 3.23295ZM74.9441 5.35108L75.8389 5.68552C75.7271 6.01997 75.7271 6.24293 75.8389 6.46589C75.8389 6.57737 76.0626 6.68885 76.2863 6.91181C76.5101 7.13478 76.7338 7.02329 76.9575 7.02329C77.1812 6.91181 77.293 6.80033 77.4049 6.68885C77.4049 6.57737 77.4049 6.46589 77.4049 6.35441C77.4049 6.24293 77.2931 6.13145 77.1812 6.01997C77.0693 5.90849 76.9575 5.79701 76.6219 5.57404C76.2863 5.2396 75.9508 5.01664 75.8389 4.79368C75.7271 4.45923 75.7271 4.12479 75.8389 3.79035C75.9508 3.45591 76.0626 3.34443 76.2863 3.23295C76.5101 3.12146 76.7338 3.00998 77.0693 3.00998C77.2931 3.00998 77.6286 3.12146 77.9642 3.23295C78.5235 3.45591 78.859 3.79035 78.9709 4.12479C79.0828 4.45923 79.0828 4.90516 78.9709 5.2396L78.0761 4.90516C78.1879 4.6822 78.1879 4.45923 78.0761 4.34775C77.9642 4.23627 77.8523 4.01331 77.6286 4.01331C77.4049 3.90183 77.1812 3.90183 76.9575 3.90183C76.8456 3.90183 76.7338 4.01331 76.7338 4.12479C76.7338 4.23627 76.7338 4.34775 76.7338 4.45923C76.8456 4.57072 76.9575 4.79368 77.4049 5.12812C77.7405 5.46256 77.9642 5.68552 78.1879 5.797C78.1879 5.797 78.2998 6.01997 78.2998 6.24293C78.2998 6.46589 78.2998 6.68885 78.1879 7.02329C78.0761 7.24626 77.8523 7.46922 77.6286 7.5807C77.5168 7.80366 77.1812 7.80366 76.9575 7.80366C76.7338 7.80366 76.3982 7.69218 75.9508 7.5807C75.3915 7.35774 75.0559 7.02329 74.9441 6.68885C74.7203 6.24293 74.7203 5.79701 74.9441 5.35108ZM80.5369 8.1381L81.3199 8.58403C81.208 8.91847 81.208 9.14143 81.208 9.36439C81.3199 9.58735 81.4318 9.81032 81.6555 9.9218C81.8792 10.0333 82.1029 10.1448 82.3266 10.1448C82.5503 10.1448 82.6622 10.0333 82.774 9.9218C82.774 9.81032 82.8859 9.69884 82.774 9.58735C82.774 9.47587 82.774 9.36439 82.6622 9.25291C82.5503 9.14143 82.4385 8.91847 82.1029 8.69551C81.8792 8.24958 81.6555 8.02662 81.6555 7.69218C81.5436 7.35774 81.6555 7.02329 81.8792 6.68885C81.991 6.46589 82.2147 6.35441 82.4385 6.24293C82.6622 6.13145 82.8859 6.13145 83.2215 6.24293C83.4452 6.24293 83.7807 6.35441 84.0045 6.57737C84.4519 6.91181 84.7875 7.24626 84.7875 7.5807C84.8993 7.91514 84.7875 8.36106 84.5637 8.69551L83.7808 8.1381C83.8926 8.02662 83.8926 7.91514 83.8926 7.69218C83.7808 7.5807 83.6689 7.35774 83.557 7.24626C83.3333 7.13478 83.1096 7.02329 82.9977 7.02329C82.8859 7.02329 82.774 7.13478 82.6622 7.13478C82.5503 7.24626 82.5503 7.35774 82.5503 7.46922C82.6622 7.5807 82.774 7.91514 83.1096 8.24958C83.4452 8.58403 83.6689 8.91847 83.7808 9.14143C83.8926 9.36439 83.8926 9.58735 83.8926 9.81032C83.8926 10.0333 83.7808 10.2562 83.6689 10.4792C83.557 10.7022 83.3333 10.8136 83.1096 10.9251C82.8859 11.0366 82.5503 11.0366 82.3266 10.9251C81.991 10.8136 81.7673 10.7022 81.4318 10.4792C80.9843 10.1448 80.6488 9.81032 80.6488 9.36439C80.2013 9.02995 80.3132 8.58403 80.5369 8.1381ZM83.3333 11.9285L86.3535 8.47255L87.0246 9.02995L84.0045 12.4859L83.3333 11.9285ZM84.7875 13.0433L88.0313 9.9218L88.7025 10.5907L87.8076 14.0466L90.0447 11.9285L90.604 12.4859L87.2483 15.6073L86.5772 14.9384L87.472 11.594L85.3467 13.7121L84.7875 13.0433ZM91.0514 17.8369L91.387 18.7288C90.9396 18.9517 90.4922 18.9517 90.0447 18.8403C89.7092 18.7288 89.2617 18.5058 89.038 18.0599C88.7024 17.614 88.5906 17.0566 88.7025 16.4992C88.8143 15.9418 89.1499 15.4958 89.7092 15.0499C90.3803 14.604 90.9396 14.4925 91.4989 14.4925C92.0582 14.4925 92.5056 14.827 92.953 15.3844C93.2886 15.8303 93.4004 16.2762 93.2886 16.8336C93.2886 17.1681 93.1767 17.391 92.8412 17.7255L92.17 17.1681C92.2819 16.9451 92.3937 16.8336 92.3937 16.6106C92.3937 16.3877 92.3937 16.1647 92.17 15.9418C91.9463 15.7188 91.7226 15.4958 91.387 15.4958C91.0514 15.4958 90.7159 15.6073 90.2684 15.9418C89.821 16.2762 89.4854 16.6106 89.4854 16.9451C89.3736 17.2795 89.4854 17.5025 89.7092 17.8369C89.821 18.0599 90.0447 18.1714 90.2684 18.1714C90.3803 17.9484 90.7159 17.9484 91.0514 17.8369ZM90.604 20.178L94.519 17.8369L96.1969 20.7354L95.5257 21.1814L94.2953 19.0632L93.4004 19.6206L94.519 21.6273L93.9597 21.9617L92.8412 19.9551L91.7226 20.5125L92.953 22.7421L92.2819 23.0765L90.604 20.178ZM93.8479 27.5358L93.6241 26.7554L96.7561 25.6406C96.4206 25.4176 95.9731 25.1947 95.7494 24.7488L96.5324 24.5258C96.6443 24.7488 96.868 24.8602 97.2036 25.0832C97.4273 25.3062 97.7628 25.4176 98.0984 25.4176L98.3221 26.0865L93.8479 27.5358ZM95.302 28.5391L95.6376 29.3195C95.5257 29.4309 95.302 29.4309 95.302 29.5424C95.302 29.6539 95.1901 29.7654 95.302 29.8769C95.302 30.0998 95.4139 30.2113 95.6376 30.3228C95.8613 30.4343 96.1969 30.4343 96.6443 30.3228C96.3087 30.2113 96.1969 29.8769 96.085 29.5424C95.9731 29.208 96.085 28.8735 96.3087 28.5391C96.5324 28.2047 96.868 27.9817 97.3154 27.8702C97.7629 27.7587 98.2103 27.8702 98.5458 27.9817C98.8814 28.2047 99.1051 28.5391 99.217 28.8735C99.3288 29.3195 99.217 29.7654 98.8814 30.0998C98.5458 30.4343 98.0984 30.7687 97.2036 30.8802C96.4206 31.1032 95.7494 30.9917 95.302 30.7687C94.8546 30.5458 94.6309 30.2113 94.519 29.7654C94.4071 29.431 94.519 29.0965 94.6309 28.8735C94.7427 28.6506 94.9664 28.6506 95.302 28.5391ZM97.651 29.9884C97.8747 29.8769 98.0984 29.7654 98.2103 29.6539C98.3221 29.5424 98.3221 29.3195 98.3221 29.208C98.3221 29.0965 98.2103 28.8735 97.9866 28.8735C97.8747 28.7621 97.651 28.7621 97.3154 28.8735C96.9799 28.985 96.868 28.985 96.7561 29.208C96.6443 29.3195 96.6443 29.5424 96.6443 29.6539C96.7561 29.7654 96.7561 29.9884 96.9799 29.9884C97.2036 30.0998 97.4273 30.0998 97.651 29.9884ZM96.085 32.1065L96.3087 32.8869C96.085 32.9983 95.9731 32.9983 95.9731 33.1098C95.8613 33.2213 95.8613 33.3328 95.8613 33.4443C95.8613 33.6672 95.9731 33.7787 96.1969 33.8902C96.3087 34.0017 96.7561 34.0017 97.2036 34.0017C96.868 33.7787 96.7561 33.5557 96.7561 33.2213C96.6443 32.8869 96.7561 32.5524 97.0917 32.218C97.3154 31.8835 97.651 31.772 98.0984 31.6606C98.5458 31.6606 98.9933 31.6606 99.217 31.995C99.5526 32.218 99.7763 32.5524 99.7763 32.9983C99.8881 33.4443 99.6644 33.8902 99.4407 34.2246C99.1051 34.5591 98.5458 34.782 97.7629 34.8935C96.9799 35.005 96.3087 34.8935 95.8613 34.6706C95.4139 34.4476 95.1901 34.0017 95.1901 33.5557C95.1901 33.2213 95.1901 32.8869 95.4139 32.6639C95.4139 32.3295 95.7494 32.218 96.085 32.1065ZM98.2103 33.7787C98.5459 33.7787 98.6577 33.6672 98.8814 33.4443C98.9933 33.3328 99.1051 33.1098 98.9933 32.9983C98.9933 32.8869 98.8814 32.6639 98.7696 32.6639C98.6577 32.5524 98.434 32.5524 98.0984 32.5524C97.7628 32.5524 97.651 32.6639 97.5391 32.7754C97.4273 32.8869 97.4273 33.1098 97.4273 33.2213C97.4273 33.3328 97.5391 33.5557 97.651 33.5557C97.7629 33.7787 97.9866 33.8902 98.2103 33.7787ZM96.4206 35.6739L96.5324 36.5657C96.4206 36.5657 96.1969 36.6772 96.1969 36.6772C96.085 36.7887 96.085 36.9002 96.085 37.0117C96.085 37.2346 96.1969 37.3461 96.3087 37.4576C96.4206 37.569 96.868 37.6805 97.3154 37.6805C97.0917 37.4576 96.868 37.2346 96.868 36.9002C96.868 36.5657 96.9799 36.2313 97.2036 36.0083C97.5391 35.6739 97.8747 35.5624 98.3221 35.5624C98.7696 35.5624 99.1051 35.6739 99.4407 35.8968C99.7763 36.1198 99.8881 36.4542 99.8881 36.9002C99.8881 37.3461 99.7763 37.792 99.3288 38.1265C98.9933 38.4609 98.3221 38.5724 97.5391 38.5724C96.7561 38.5724 96.085 38.4609 95.7494 38.1265C95.4139 37.792 95.1901 37.4576 95.1901 36.9002C95.1901 36.5657 95.302 36.2313 95.4139 36.0083C95.7494 35.8968 96.085 35.7854 96.4206 35.6739ZM98.434 37.6805C98.7696 37.6805 98.9933 37.569 99.1051 37.4576C99.217 37.3461 99.3288 37.1231 99.3288 37.0117C99.3288 36.9002 99.217 36.6772 99.1051 36.5657C98.9933 36.4542 98.7696 36.4542 98.5458 36.4542C98.3221 36.4542 97.9866 36.5657 97.8747 36.6772C97.7629 36.7887 97.651 36.9002 97.651 37.1231C97.651 37.2346 97.7629 37.4576 97.8747 37.5691C97.9866 37.5691 98.0984 37.6805 98.434 37.6805Z" fill="white"/>
</svg>
