<svg width="231" height="42" viewBox="0 0 231 42" fill="none" xmlns="http://www.w3.org/2000/svg">
<g clip-path="url(#clip0)">
<path fill-rule="evenodd" clip-rule="evenodd" d="M89.4954 8.29902C97.9648 9.31395 102.885 6.06022 102.885 11.1945C102.885 19.6125 104.257 18.6572 93.7599 18.5378L103.094 41.5826L124.745 41.6125L134.169 18.5677C123.85 18.2095 124.954 20.2393 124.954 11.4334C124.954 7.58261 126.474 8.35873 129.964 8.35873C132.767 8.35873 135.6 8.32887 138.403 8.35873L141.624 0.269173C138.165 -0.23829 131.097 0.179621 127.25 0.179621C113.502 0.179621 114.546 5.13484 114.576 16.8363C114.576 19.1348 114.754 21.0751 115.798 22.8363C116.603 24.1796 118.184 25.5826 120.152 26.0005L114.009 41.1348L107.717 26.299C109.297 24.7468 113.204 24.9557 113.263 17.2841C113.353 5.3438 114.337 0.179621 101.066 0.179621C97.0403 0.179621 89.8831 -0.23829 86.2448 0.269173L89.4954 8.29902Z" fill="white"/>
<path fill-rule="evenodd" clip-rule="evenodd" d="M231 34.2687V23.9404C230.195 21.9702 230.374 17.821 224.141 16.6866C220.503 16.0001 214.18 16.418 210.214 16.418C206.844 16.418 207.321 15.1046 207.321 12.1195C207.292 7.94037 208.037 8.80604 217.908 8.83589C221.308 8.83589 220.145 10.3284 220.711 12.9254H230.97V7.28365L230.732 6.74634C230.702 6.68664 230.642 6.47768 230.612 6.38813L229.867 4.41798C229.36 3.58216 228.912 2.92545 228.227 2.44783C223.813 -0.776048 214.926 0.388131 208.634 0.358281C203.594 0.358281 199.866 1.015 198.047 4.44783C196.675 7.015 196.615 14.2687 197.093 17.5523C198.256 25.4926 206.158 24.5672 212.033 24.5672C218.266 24.5672 220.532 23.612 220.622 26.9553C220.831 34.0896 220.532 33.4031 216.328 33.4031C206.397 33.3732 207.381 34.3583 207.321 28.0299L196.973 28.0598C196.765 40.1792 198.941 41.7911 210.93 41.7911C214.687 41.7911 221.189 42.1493 224.558 41.4329C230.314 40.209 230.195 36.2986 231 34.2687Z" fill="white"/>
<path fill-rule="evenodd" clip-rule="evenodd" d="M38.5298 31.7013C38.5298 39.5222 41.8699 41.8207 49.6236 41.8207C60.9261 41.8207 72.3478 44.1789 72.5566 32.8357C72.7355 22.6566 72.5566 10.9849 72.5566 0.716261L62.2084 0.626709V30.567C62.2084 34.0894 59.6735 33.1342 52.7847 33.1342C48.0728 33.164 48.9078 32.776 48.9078 24.7163C48.9078 16.7163 48.9078 8.68641 48.9078 0.68641L38.5298 0.626709V31.7013Z" fill="white"/>
<path fill-rule="evenodd" clip-rule="evenodd" d="M192.47 31.7013V0.626709L182.092 0.65656V30.567C182.062 33.2237 180.84 33.1342 178.424 33.1342C176.396 33.1342 174.368 33.1342 172.341 33.1342C169.806 33.164 168.792 33.2237 168.792 30.567V0.626709H158.414V32.3581C158.444 36.0894 159.368 38.3879 161.515 39.97C165.243 42.7163 175.681 41.7909 181.108 41.7909C189.011 41.8207 192.47 39.6715 192.47 31.7013Z" fill="white"/>
<path fill-rule="evenodd" clip-rule="evenodd" d="M0 7.28366V34.2687C0.924477 36.5672 0.775368 40.4478 6.8292 41.5523C10.4376 42.209 16.8195 41.821 20.756 41.821C27.2572 41.821 33.4303 41.5523 33.9969 33.8807C34.1162 32.4478 34.1758 28.3881 33.9671 27.0747H23.7978C23.3803 29.4031 24.6925 33.2538 22.0682 33.612C20.1596 33.8807 16.1634 33.6419 14.0163 33.6419C9.99032 33.6717 10.378 33.015 10.4078 29.1941V13.015C10.4078 9.25381 9.99032 8.53739 14.0163 8.53739C24.782 8.56724 23.7084 7.0747 23.7084 15.1344L34.0565 15.0747C34.0565 4.08963 34.2653 0.358284 20.9946 0.358284C17.1177 0.358284 10.706 7.45952e-05 7.18707 0.597089C2.20682 1.46276 1.40163 3.55231 0.238575 6.74634C0.208753 6.80604 0.208753 7.43291 0.0894655 7.10455C0.0596437 7.0747 0.0298218 7.22395 0 7.28366Z" fill="white"/>
<path fill-rule="evenodd" clip-rule="evenodd" d="M77.0596 40.4776L77.0895 41.5821L87.4376 41.5522V27.1642H94.8335L91.553 18.9552L87.4376 18.985C87.4376 16.9253 87.6762 9.73132 87.2289 8.32833C86.7816 7.04475 84.5151 1.28356 83.9187 0.596989L77.0596 0.567139V40.4776Z" fill="white"/>
<path fill-rule="evenodd" clip-rule="evenodd" d="M140.252 18.985H136.196L132.946 27.1641L140.371 27.1939L140.401 41.4924L150.72 41.5521L150.749 0.596924H143.711C142.847 3.22379 141.534 5.7014 140.61 8.29842C139.835 10.4775 140.849 16.388 140.252 18.985Z" fill="white"/>
</g>
<defs>
<clipPath id="clip0">
<rect width="231" height="42" fill="white"/>
</clipPath>
</defs>
</svg>
