<svg width="153" height="42" viewBox="0 0 153 42" fill="none" xmlns="http://www.w3.org/2000/svg">
<g clip-path="url(#clip0)">
<path d="M14.4748 11.5654C11.5369 11.5654 8.58252 11.5654 5.64466 11.5654C4.78641 11.5654 4.12621 12.2324 4.12621 13.0619C4.12621 13.8753 4.7699 14.5259 5.61165 14.5422C5.72718 14.5422 5.84272 14.5422 5.95825 14.5422C11.4379 14.5422 16.9175 14.5422 22.3971 14.5422C23.1233 14.5422 23.833 14.591 24.5097 14.8675C25.3349 15.1929 25.8301 15.7784 26.0116 16.6243C26.1767 17.34 26.0942 18.0557 25.8961 18.7552C25.6815 19.5523 25.434 20.3331 25.1864 21.1138C23.668 25.8962 22.1495 30.6948 20.6311 35.4771C20.3505 36.3555 19.9379 37.1526 19.2777 37.8195C18.2874 38.828 17.099 39.2835 15.6796 38.9093C14.0786 38.5027 13.2699 37.299 13.4515 35.6723C13.534 34.9566 13.7981 34.3059 14.1116 33.6553C15.6631 30.646 17.1981 27.6367 18.7495 24.6274C18.9146 24.3021 19.0466 23.9767 19.1456 23.6189C19.3767 22.7242 18.9806 22.0248 18.1223 21.6994C17.9408 21.6344 17.7592 21.5856 17.5777 21.553C17.2311 21.5205 16.868 21.488 16.5214 21.488C13.699 21.488 10.8602 21.488 8.03786 21.488C7.93883 21.488 7.8233 21.488 7.72427 21.488C7.11359 21.5205 6.68447 21.8296 6.42039 22.3664C5.97476 23.3098 6.65146 24.4322 7.72427 24.4647C8.5 24.481 9.29223 24.4647 10.068 24.481C10.3816 24.481 10.6951 24.4973 11.0087 24.5298C12.5767 24.7087 13.5835 25.8636 13.5175 27.4252C13.501 27.9295 13.3689 28.4175 13.2204 28.9055C12.5932 30.89 11.9825 32.8745 11.3553 34.859C11.1903 35.3958 11.0252 35.9488 10.9757 36.5019C10.8272 38.2262 11.3553 39.6739 12.7748 40.7475C13.2699 41.1216 13.8311 41.3981 14.4252 41.6258C15.267 41.9512 16.1417 42.0162 17.033 42.0162C17.8087 42.0162 18.5515 41.8698 19.2612 41.577C21.2913 40.7637 22.6282 39.2997 23.2883 37.2502C25.0709 31.6382 26.8534 26.0263 28.6359 20.4144C29.0155 19.2269 29.2631 18.0232 29.1806 16.7707C29.032 14.6398 27.9757 13.0945 25.9951 12.1836C24.9883 11.7281 23.899 11.5654 22.7932 11.5654C20.0039 11.5654 17.2311 11.5654 14.4748 11.5654Z" fill="white"/>
<path d="M114.742 16.4129C114.709 16.5105 114.676 16.6081 114.643 16.7057C113.884 19.1294 113.108 21.5531 112.349 23.9768C112.316 24.0907 112.266 24.2208 112.2 24.3184C112.018 24.5624 111.771 24.5298 111.655 24.2533C111.622 24.172 111.606 24.0907 111.573 24.0256C110.979 22.1224 110.368 20.2192 109.774 18.3161C109.592 17.7305 109.262 17.2587 108.767 16.9009C107.331 15.8436 104.905 16.543 104.393 18.3161C103.832 20.2355 103.188 22.1387 102.578 24.0581C102.561 24.1232 102.528 24.1883 102.512 24.2696C102.462 24.3997 102.38 24.481 102.231 24.481C102.066 24.481 101.984 24.3997 101.934 24.2533C101.917 24.1883 101.884 24.1232 101.868 24.0419C101.092 21.6019 100.317 19.1619 99.5408 16.7219C99.5078 16.6243 99.4583 16.5105 99.4253 16.4291C98.5835 16.3641 94.8864 16.3966 94.6388 16.4779C94.6719 16.5755 94.6884 16.6731 94.7214 16.7707C95.8437 20.3168 96.9825 23.8629 98.1049 27.4253C98.3194 28.0759 98.7155 28.5477 99.3262 28.8405C100.614 29.4586 101.901 29.4423 103.188 28.8405C103.783 28.5477 104.179 28.0922 104.377 27.4415C104.789 26.0589 105.251 24.6925 105.681 23.3261C105.747 23.0984 105.78 22.8381 106.11 22.8381C106.44 22.8381 106.489 23.1147 106.555 23.3424C106.984 24.7088 107.43 26.0589 107.843 27.4415C108.041 28.1085 108.47 28.5639 109.081 28.873C109.543 29.117 110.054 29.2471 110.583 29.2959C111.474 29.361 112.316 29.2146 113.075 28.7754C113.57 28.4826 113.9 28.0759 114.082 27.5229C115.204 23.9443 116.359 20.3656 117.498 16.787C117.531 16.6894 117.548 16.5918 117.597 16.4779C116.623 16.4129 115.699 16.4129 114.742 16.4129Z" fill="white"/>
<path d="M89.6874 16.4128C89.5718 16.4128 89.4728 16.3965 89.3903 16.3965C86.0728 16.3965 82.7553 16.3965 79.4378 16.3965C78.5466 16.3965 77.6883 16.5266 76.8796 16.917C75.4106 17.6002 74.5359 18.7226 74.4699 20.3492C74.4203 21.9433 74.4369 23.5375 74.4699 25.1316C74.4864 26.254 74.932 27.2137 75.8563 27.9131C76.2359 28.2059 76.665 28.4174 77.1106 28.5963C78.1174 28.9867 79.1903 29.1331 80.2631 29.1982C82.1776 29.3121 84.1087 29.3121 86.0068 29.0843C87.1126 28.9542 88.1854 28.7427 89.2252 28.3523C89.8689 28.1083 90.4796 27.7993 90.9912 27.3276C91.4534 26.8884 91.7009 26.3678 91.6844 25.7334C91.6679 24.9689 91.6844 24.1881 91.6844 23.4236C91.6844 23.2284 91.6679 23.0332 91.6184 22.838C91.4204 22.0735 90.7437 21.5692 89.9019 21.553C88.0039 21.553 86.1058 21.553 84.2077 21.553C84.1417 21.553 84.0757 21.5692 83.9932 21.5692C83.9932 22.2524 83.9932 22.9193 83.9932 23.6025C84.0922 23.6188 84.1747 23.6188 84.2573 23.6188C84.6534 23.6188 85.0495 23.6188 85.4456 23.6188C86.0398 23.6188 86.3369 23.9116 86.3369 24.4809C86.3369 24.9038 86.3369 25.3268 86.3369 25.7497C86.3369 26.2052 86.1388 26.5305 85.7427 26.7582C85.4126 26.9534 85.0495 27.051 84.6699 27.0998C83.7291 27.23 82.7718 27.1812 81.831 27.1486C81.5835 27.1324 81.3194 27.051 81.0883 26.9534C80.4446 26.6606 80.0815 26.1564 80.0815 25.4406C80.065 23.6188 80.0815 21.797 80.0815 19.9751C80.0815 19.3082 80.4611 18.7714 81.1048 18.5762C81.4019 18.4949 81.7155 18.4461 82.0291 18.4461C84.4553 18.4298 86.865 18.4461 89.2912 18.4461C89.4068 18.4461 89.5388 18.4461 89.6708 18.4461C89.6874 17.7791 89.6874 17.1122 89.6874 16.4128Z" fill="white"/>
<path d="M34.8582 28.5475C34.9408 28.5638 35.0068 28.5963 35.0728 28.6126C36.5087 28.9705 37.9612 29.1169 39.4301 29.1982C41.2951 29.3121 43.1602 29.3121 45.0252 29.0843C46.1311 28.9542 47.2369 28.7427 48.2767 28.3523C48.9534 28.1083 49.5971 27.783 50.1252 27.295C50.4223 27.0185 50.6534 26.6769 50.7524 26.2865C50.901 25.6684 50.7194 25.099 50.3728 24.5948C50.0922 24.1719 49.7126 23.8303 49.2835 23.5375C48.5738 23.0332 47.7815 22.6428 46.9893 22.3012C45.999 21.8783 45.0087 21.5042 44.0184 21.065C43.4903 20.8372 42.9951 20.577 42.4835 20.2842C42.2854 20.1703 42.1039 19.9914 41.9553 19.8124C41.6913 19.4871 41.7738 19.0479 42.1204 18.8039C42.2689 18.7063 42.434 18.625 42.599 18.5925C42.9291 18.5274 43.2757 18.4786 43.6223 18.4786C45.6194 18.4623 47.633 18.4786 49.6301 18.4786C49.7456 18.4786 49.8777 18.4786 50.0097 18.4786C50.0097 17.7791 50.0097 17.1122 50.0097 16.3965C49.8612 16.3965 49.7456 16.3965 49.6136 16.3965C47.3689 16.3965 45.1243 16.3965 42.8796 16.3965C41.8398 16.3965 40.8165 16.429 39.7932 16.5591C38.7699 16.6893 37.7631 16.9007 36.7893 17.2911C36.2612 17.5026 35.7825 17.7791 35.3864 18.1858C34.9078 18.6738 34.7262 19.2594 34.8417 19.91C34.9078 20.398 35.1553 20.8047 35.4689 21.1626C35.898 21.6668 36.4427 22.0247 37.0204 22.35C37.9447 22.8705 38.9349 23.2609 39.9252 23.6351C40.8165 23.9767 41.7078 24.3183 42.599 24.6924C42.9456 24.8388 43.2757 25.034 43.5563 25.2617C44.0349 25.6358 44.0349 26.1238 43.5728 26.5142C43.3747 26.6769 43.1272 26.807 42.8631 26.9046C42.401 27.0836 41.8893 27.1486 41.3942 27.1649C39.3476 27.2137 37.334 27.0348 35.3369 26.6281C35.1718 26.5956 35.0233 26.5793 34.8417 26.5468C34.8582 27.2462 34.8582 27.8806 34.8582 28.5475Z" fill="white"/>
<path d="M70.6738 26.5957C70.5583 26.612 70.4757 26.6282 70.3932 26.6445C69.799 26.7421 69.2049 26.856 68.5942 26.921C66.6466 27.1325 64.6825 27.1976 62.7184 27.1813C62.4874 27.1813 62.2563 27.165 62.0417 27.1C61.266 26.921 60.6058 26.3354 60.6058 25.3595C60.6058 25.0667 60.6058 24.7576 60.6058 24.4648C60.6223 23.9117 60.9029 23.6352 61.4641 23.6189C61.5631 23.6189 61.6456 23.6189 61.7447 23.6189C63.9068 23.6189 66.0689 23.6189 68.2311 23.6189C68.3631 23.6189 68.4952 23.6189 68.6437 23.6189C68.6437 22.9195 68.6437 22.2526 68.6437 21.5531C68.5117 21.5531 68.3796 21.5531 68.2641 21.5531C66.432 21.5531 64.5835 21.5531 62.7515 21.5531C62.3058 21.5531 61.8767 21.5531 61.4311 21.5531C60.9359 21.5368 60.6388 21.2603 60.6058 20.7723C60.5893 20.4795 60.5893 20.1705 60.6223 19.8777C60.6718 19.227 61.0349 18.7878 61.6621 18.5926C61.9592 18.495 62.2893 18.4625 62.6194 18.4625C64.9301 18.4462 67.2408 18.4625 69.535 18.4625C69.6505 18.4625 69.7825 18.4625 69.8981 18.4625C69.9641 18.0233 69.9476 16.6244 69.8651 16.3804C69.7825 16.3804 69.6835 16.3804 69.601 16.3804C66.3825 16.3804 63.1476 16.3804 59.9291 16.3804C59.3349 16.3804 58.7408 16.4454 58.1631 16.6081C57.4204 16.8196 56.7437 17.1612 56.1825 17.6817C55.3738 18.4299 54.9777 19.3734 54.9612 20.4633C54.9446 21.9598 54.9612 23.4725 54.9612 24.9691C54.9612 25.1805 54.9777 25.4083 55.0107 25.6197C55.1427 26.4818 55.5223 27.2138 56.2155 27.7994C56.8427 28.3362 57.6019 28.6453 58.3942 28.8567C59.533 29.1495 60.6883 29.2634 61.8602 29.2634C63.0485 29.2797 64.2369 29.2471 65.4252 29.2146C66.7951 29.1821 68.1816 29.0682 69.535 28.8405C69.9146 28.7754 70.2777 28.6778 70.6573 28.6128C70.6738 27.9133 70.6738 27.2789 70.6738 26.5957Z" fill="white"/>
<path d="M136.264 16.4129C136.363 16.5593 136.413 16.6406 136.479 16.722C137.469 18.1209 138.459 19.5198 139.449 20.9187C140.143 21.911 140.836 22.887 141.546 23.8792C141.843 24.2859 141.991 24.7088 141.975 25.2293C141.942 26.1402 141.958 27.0349 141.975 27.9458C141.975 28.5151 142.305 28.9218 142.866 29.0682C144.005 29.361 145.16 29.361 146.299 29.0845C147.009 28.9218 147.306 28.5477 147.306 27.832C147.306 26.9536 147.322 26.0589 147.306 25.1805C147.289 24.6763 147.454 24.2533 147.735 23.8629C149.451 21.4555 151.168 19.0481 152.884 16.6406C152.934 16.5756 152.967 16.5105 153.016 16.3966C152.868 16.3966 152.769 16.3966 152.67 16.3966C151.779 16.3966 150.871 16.4129 149.98 16.3966C149.748 16.3966 149.6 16.4617 149.468 16.6569C148.461 18.1209 147.438 19.5686 146.414 21.0326C146.348 21.1302 146.282 21.244 146.183 21.3254C145.87 21.6507 145.391 21.6507 145.078 21.3254C144.995 21.244 144.929 21.1464 144.88 21.0488C143.84 19.5849 142.816 18.1371 141.793 16.6569C141.661 16.4617 141.529 16.3804 141.281 16.3804C139.73 16.3966 138.179 16.3804 136.611 16.3804C136.512 16.4129 136.413 16.4129 136.264 16.4129Z" fill="white"/>
<path d="M27.1009 8.78521e-05C24.3446 -0.0161786 22.0505 2.22859 22.0174 4.94509C21.9844 7.67786 24.1961 10.0365 27.1009 10.0528C29.8903 10.069 32.2174 7.80799 32.2174 5.07522C32.2174 2.26113 29.9563 0.0163543 27.1009 8.78521e-05Z" fill="white"/>
<path d="M10.9594 19.5197C14.0458 19.5197 17.1157 19.5197 20.2021 19.5197C20.3341 19.5197 20.4497 19.5197 20.5817 19.5197C21.3244 19.4709 21.9021 18.9179 21.9846 18.1859C22.0671 17.5027 21.6215 16.8195 20.9448 16.6243C20.7468 16.5592 20.5157 16.543 20.3011 16.543C14.1118 16.543 7.92248 16.543 1.73316 16.543C1.55161 16.543 1.37005 16.5592 1.205 16.5918C0.148694 16.8032 -0.329947 18.0883 0.313743 18.9179C0.660345 19.3571 1.12248 19.536 1.68365 19.536C4.75355 19.5197 7.85646 19.5197 10.9594 19.5197Z" fill="white"/>
<path d="M14.4747 11.5653C17.2476 11.5653 20.0039 11.5653 22.7767 11.5653C23.8825 11.5653 24.9718 11.728 25.9786 12.1835C27.9592 13.0944 29.0155 14.6397 29.1641 16.7706C29.2466 18.0231 28.999 19.2268 28.6194 20.4143C26.8369 26.0262 25.0544 31.6382 23.2718 37.2501C22.6116 39.2997 21.2747 40.7636 19.2446 41.577C18.5349 41.8698 17.7922 41.9999 17.0165 42.0162C16.1252 42.0324 15.2505 41.9511 14.4087 41.6258C13.8145 41.398 13.2534 41.1378 12.7582 40.7474C11.3388 39.6738 10.8272 38.2261 10.9592 36.5018C11.0087 35.9325 11.1738 35.3957 11.3388 34.8589C11.966 32.8744 12.5932 30.8899 13.2039 28.9054C13.3524 28.4174 13.4845 27.9294 13.501 27.4251C13.567 25.8636 12.5767 24.7086 10.9922 24.5297C10.6786 24.4972 10.365 24.4809 10.0514 24.4809C9.27571 24.4646 8.48348 24.4972 7.70775 24.4646C6.63494 24.4321 5.95824 23.326 6.40387 22.3663C6.65144 21.8295 7.09707 21.5367 7.70775 21.4879C7.80678 21.4879 7.92232 21.4879 8.02135 21.4879C10.8437 21.4879 13.6825 21.4879 16.5048 21.4879C16.8514 21.4879 17.2145 21.5204 17.5612 21.5529C17.7427 21.5692 17.9243 21.6343 18.1058 21.6993C18.9641 22.0247 19.3602 22.7404 19.1291 23.6188C19.0466 23.9604 18.898 24.302 18.733 24.6273C17.198 27.6366 15.6466 30.6459 14.0951 33.6552C13.765 34.2896 13.5175 34.9565 13.4349 35.6722C13.2369 37.2989 14.0456 38.4863 15.6631 38.9093C17.0825 39.2834 18.2709 38.8279 19.2611 37.8194C19.9213 37.1525 20.334 36.3554 20.6145 35.477C22.133 30.6947 23.6514 25.8961 25.1699 21.1138C25.4175 20.333 25.665 19.5359 25.8796 18.7551C26.0777 18.0557 26.1437 17.3399 25.9951 16.6242C25.8136 15.7783 25.3019 15.1928 24.4932 14.8674C23.8165 14.6072 23.0903 14.5421 22.3806 14.5421C16.901 14.5421 11.4213 14.5421 5.94173 14.5421C5.8262 14.5421 5.71067 14.5421 5.59513 14.5421C4.75339 14.5096 4.1097 13.8752 4.1097 13.0619C4.1097 12.2485 4.76989 11.5653 5.62814 11.5653C8.58251 11.5491 11.5369 11.5653 14.4747 11.5653Z" fill="white"/>
<path d="M114.742 16.4128C115.682 16.4128 116.623 16.4128 117.581 16.4128C117.548 16.5429 117.515 16.6242 117.482 16.7218C116.343 20.3004 115.204 23.8791 114.065 27.4577C113.883 28.0107 113.553 28.4174 113.058 28.7102C112.282 29.1494 111.441 29.3121 110.566 29.2307C110.038 29.1819 109.543 29.0518 109.064 28.8078C108.453 28.4987 108.024 28.0433 107.826 27.3764C107.414 26.01 106.968 24.6436 106.539 23.2772C106.473 23.0495 106.423 22.7729 106.093 22.7729C105.78 22.7729 105.747 23.0495 105.664 23.2609C105.218 24.6273 104.773 26.01 104.36 27.3764C104.162 28.027 103.766 28.4825 103.172 28.7753C101.884 29.3934 100.597 29.4097 99.3097 28.7753C98.699 28.4825 98.3029 28.0107 98.0883 27.3601C96.966 23.814 95.8271 20.2516 94.7048 16.7056C94.6718 16.608 94.6553 16.5104 94.6223 16.4128C94.8699 16.3314 98.5669 16.2989 99.4087 16.364C99.4417 16.4616 99.4912 16.5592 99.5242 16.6568C100.3 19.0967 101.076 21.5367 101.851 23.9767C101.868 24.0417 101.901 24.1068 101.917 24.1881C101.967 24.3345 102.049 24.4159 102.215 24.4159C102.363 24.4159 102.446 24.3345 102.495 24.2044C102.528 24.1393 102.545 24.0743 102.561 23.9929C103.172 22.0735 103.815 20.1866 104.377 18.2509C104.888 16.4616 107.315 15.7784 108.75 16.8357C109.246 17.1935 109.576 17.6653 109.757 18.2509C110.351 20.154 110.962 22.0572 111.556 23.9604C111.589 24.0417 111.606 24.1231 111.639 24.1881C111.754 24.4647 112.018 24.4972 112.183 24.2532C112.249 24.1556 112.299 24.0417 112.332 23.9116C113.108 21.4879 113.867 19.0642 114.626 16.6405C114.676 16.6242 114.709 16.5266 114.742 16.4128Z" fill="white"/>
<path d="M89.6874 16.4128C89.6874 17.1122 89.6874 17.7791 89.6874 18.4786C89.5389 18.4786 89.4233 18.4786 89.3078 18.4786C86.8816 18.4786 84.4719 18.4786 82.0457 18.4786C81.7321 18.4786 81.4185 18.5274 81.1214 18.6087C80.4777 18.8039 80.0981 19.3407 80.0981 20.0076C80.0981 21.8295 80.0816 23.6513 80.0981 25.4732C80.0981 26.1889 80.4777 26.6769 81.1049 26.986C81.336 27.0998 81.6 27.1812 81.8476 27.1812C82.7884 27.2137 83.7457 27.2625 84.6864 27.1324C85.0661 27.0836 85.4292 26.986 85.7593 26.7908C86.1554 26.563 86.3534 26.2377 86.3534 25.7822C86.3534 25.3593 86.3534 24.9364 86.3534 24.5135C86.3534 23.9279 86.0563 23.6513 85.4622 23.6513C85.0661 23.6513 84.6699 23.6513 84.2738 23.6513C84.1913 23.6513 84.1088 23.6351 84.0097 23.6351C84.0097 22.9519 84.0097 22.285 84.0097 21.6018C84.0923 21.6018 84.1583 21.5855 84.2243 21.5855C86.1224 21.5855 88.0204 21.5855 89.9185 21.5855C90.7602 21.5855 91.4204 22.0898 91.635 22.8705C91.6845 23.0495 91.701 23.2609 91.701 23.4561C91.701 24.2207 91.701 25.0015 91.701 25.766C91.7175 26.4004 91.4699 26.9209 91.0078 27.3601C90.4962 27.8318 89.8855 28.1409 89.2418 28.3849C88.202 28.7753 87.1127 28.9867 86.0233 29.1169C84.1088 29.3446 82.1942 29.3446 80.2796 29.2307C79.2068 29.1657 78.1505 29.003 77.1272 28.6289C76.6816 28.4499 76.2525 28.2385 75.8728 27.9457C74.9486 27.2462 74.5029 26.2865 74.4864 25.1641C74.4534 23.57 74.4369 21.9759 74.4864 20.3818C74.5359 18.7551 75.4272 17.6327 76.8961 16.9496C77.7049 16.5754 78.5631 16.429 79.4544 16.429C82.7719 16.429 86.0894 16.429 89.4068 16.429C89.4729 16.3965 89.5554 16.4128 89.6874 16.4128Z" fill="white"/>
<path d="M34.8583 28.5476C34.8583 27.897 34.8583 27.2463 34.8583 26.5631C35.0398 26.5957 35.1884 26.6119 35.3534 26.6445C37.3505 27.0511 39.3806 27.23 41.4107 27.1812C41.9058 27.165 42.4175 27.1162 42.8796 26.921C43.1272 26.8234 43.3748 26.6933 43.5893 26.5306C44.0515 26.1402 44.0515 25.6522 43.5728 25.2781C43.2757 25.0503 42.9456 24.8551 42.6156 24.7087C41.7408 24.3346 40.833 23.993 39.9418 23.6514C38.9515 23.2773 37.9612 22.8869 37.0369 22.3664C36.4592 22.041 35.9311 21.6669 35.4855 21.1789C35.1719 20.8211 34.9243 20.3981 34.8583 19.9264C34.7592 19.2595 34.9408 18.6901 35.4029 18.2022C35.799 17.7955 36.2942 17.519 36.8058 17.3075C37.7631 16.9171 38.7699 16.7056 39.8097 16.5755C40.833 16.4454 41.8728 16.4128 42.8961 16.4128C45.1408 16.4128 47.3855 16.4128 49.6301 16.4128C49.7456 16.4128 49.8777 16.4128 50.0262 16.4128C50.0262 17.1123 50.0262 17.7792 50.0262 18.4949C49.8942 18.4949 49.7621 18.4949 49.6466 18.4949C47.6495 18.4949 45.6359 18.4949 43.6388 18.4949C43.2922 18.4949 42.9456 18.5437 42.6156 18.6088C42.4505 18.6413 42.2855 18.7227 42.1369 18.8203C41.7903 19.0643 41.7078 19.4872 41.9719 19.8288C42.1204 20.0077 42.302 20.1867 42.5 20.3005C42.9952 20.5771 43.5068 20.8536 44.035 21.0813C45.0253 21.5042 46.0155 21.8946 47.0058 22.3176C47.8146 22.6592 48.5903 23.0496 49.3 23.5538C49.7126 23.8466 50.0922 24.1882 50.3893 24.6111C50.7359 25.1317 50.9175 25.6847 50.7689 26.3029C50.6699 26.7095 50.4388 27.0348 50.1418 27.3114C49.6136 27.8156 48.9699 28.1247 48.2932 28.3687C47.2369 28.7591 46.1476 28.9706 45.0418 29.1007C43.1767 29.3284 41.3117 29.3284 39.4466 29.2146C37.9777 29.1332 36.5088 28.9706 35.0893 28.629C34.9903 28.5964 34.9243 28.5639 34.8583 28.5476Z" fill="white"/>
<path d="M136.149 29.0193C134.383 29.0193 132.633 29.0193 130.85 29.0193C130.817 28.938 130.784 28.8566 130.751 28.7753C130.504 28.027 130.273 27.2788 130.042 26.5468C129.926 26.1727 129.877 26.1401 129.481 26.1401C127.5 26.1401 125.536 26.1401 123.555 26.1401C123.159 26.1401 123.11 26.1889 122.978 26.5631C122.747 27.2951 122.516 28.027 122.284 28.7753C122.251 28.8566 122.235 28.938 122.202 29.0193C121.063 29.0193 119.908 29.0193 118.752 29.0193C118.769 28.938 118.769 28.8729 118.802 28.8078C119.743 25.8799 120.667 22.9682 121.608 20.0565C121.987 18.9016 122.681 17.9581 123.671 17.2586C124.282 16.8195 124.991 16.5755 125.734 16.3965C127.632 15.9573 129.415 16.2176 131.115 17.1773C131.56 17.4213 131.89 17.7954 132.22 18.1696C132.699 18.7226 133.046 19.357 133.277 20.0402C134.217 22.9519 135.142 25.8636 136.066 28.7753C136.099 28.8404 136.116 28.9217 136.149 29.0193ZM126.559 24.0418C127.302 24.0418 128.045 24.0418 128.787 24.0418C129.084 24.0418 129.2 23.8954 129.15 23.6188C129.134 23.57 129.117 23.5212 129.101 23.4724C128.985 23.1146 128.87 22.7404 128.754 22.3826C128.523 21.6506 128.309 20.9349 128.061 20.2029C127.83 19.5034 127.252 19.0968 126.493 19.0968C125.734 19.0968 125.206 19.5685 125.024 20.2029C124.843 20.8373 124.628 21.4554 124.43 22.0898C124.282 22.5778 124.117 23.0658 123.968 23.5538C123.869 23.8628 124.001 24.0255 124.331 24.0255C124.397 24.0255 124.463 24.0255 124.513 24.0255C125.206 24.0418 125.883 24.0418 126.559 24.0418Z" fill="white"/>
<path d="M70.6738 26.5956C70.6738 27.2788 70.6738 27.9132 70.6738 28.5964C70.2942 28.6777 69.9311 28.7753 69.5515 28.8241C68.1981 29.0519 66.8116 29.1657 65.4417 29.1983C64.2534 29.2308 63.065 29.2471 61.8767 29.2471C60.7049 29.2308 59.5495 29.1332 58.4107 28.8404C57.6185 28.6289 56.8757 28.3199 56.232 27.7831C55.5554 27.2137 55.1757 26.4655 55.0272 25.6034C54.9942 25.3919 54.9777 25.1804 54.9777 24.9527C54.9777 23.4562 54.9612 21.9434 54.9777 20.4469C54.9942 19.357 55.3903 18.4136 56.199 17.6653C56.7602 17.1448 57.4369 16.8032 58.1796 16.5917C58.7573 16.4291 59.3515 16.364 59.9456 16.364C63.1641 16.364 66.399 16.364 69.6175 16.364C69.7165 16.364 69.799 16.364 69.8815 16.364C69.9641 16.608 69.9806 18.0069 69.9146 18.4461C69.799 18.4461 69.6835 18.4461 69.5515 18.4461C67.2408 18.4461 64.9301 18.4461 62.6359 18.4461C62.3223 18.4461 61.9922 18.4787 61.6786 18.5763C61.0515 18.7552 60.6884 19.2106 60.6388 19.8613C60.6058 20.1541 60.6058 20.4632 60.6223 20.756C60.6388 21.244 60.9359 21.5367 61.4476 21.5367C61.8932 21.5367 62.3223 21.5367 62.768 21.5367C64.6 21.5367 66.4485 21.5367 68.2806 21.5367C68.3961 21.5367 68.5282 21.5367 68.6602 21.5367C68.6602 22.2362 68.6602 22.9031 68.6602 23.6026C68.5116 23.6026 68.3796 23.6026 68.2476 23.6026C66.0854 23.6026 63.9233 23.6026 61.7612 23.6026C61.6621 23.6026 61.5796 23.6026 61.4806 23.6026C60.9194 23.6189 60.6388 23.8954 60.6223 24.4484C60.6058 24.7412 60.6223 25.0503 60.6223 25.3431C60.6058 26.3191 61.266 26.9047 62.0583 27.0836C62.2728 27.1324 62.5204 27.1487 62.735 27.1649C64.699 27.1812 66.6631 27.0999 68.6107 26.9047C69.2049 26.8396 69.799 26.7258 70.4097 26.6282C70.4757 26.6282 70.5582 26.6119 70.6738 26.5956Z" fill="white"/>
<path d="M136.264 16.4128C136.429 16.4128 136.512 16.4128 136.611 16.4128C138.162 16.4128 139.714 16.4128 141.281 16.4128C141.529 16.4128 141.661 16.4942 141.793 16.6894C142.816 18.1534 143.856 19.6173 144.88 21.0813C144.946 21.1789 145.012 21.2765 145.078 21.3578C145.391 21.6832 145.87 21.6994 146.183 21.3578C146.266 21.2602 146.332 21.1626 146.414 21.065C147.438 19.6173 148.461 18.1534 149.468 16.6894C149.6 16.4942 149.748 16.4291 149.98 16.4291C150.871 16.4454 151.779 16.4291 152.67 16.4291C152.769 16.4291 152.868 16.4291 153.016 16.4291C152.95 16.543 152.917 16.608 152.884 16.6731C151.168 19.0805 149.451 21.488 147.735 23.8954C147.454 24.3021 147.289 24.725 147.306 25.213C147.322 26.0914 147.306 26.986 147.306 27.8644C147.306 28.5802 147.009 28.938 146.299 29.1169C145.144 29.3935 144.005 29.3772 142.866 29.1007C142.305 28.9543 141.991 28.5476 141.975 27.9783C141.975 27.0674 141.958 26.1727 141.975 25.2618C141.991 24.7413 141.826 24.3183 141.546 23.9117C140.836 22.9357 140.143 21.9434 139.449 20.9512C138.459 19.5523 137.469 18.1534 136.479 16.7544C136.413 16.6568 136.347 16.5592 136.264 16.4128Z" fill="white"/>
<path d="M27.1009 8.78521e-05C29.9728 0.0163543 32.234 2.26113 32.2175 5.07522C32.2009 7.80799 29.8903 10.069 27.1009 10.0528C24.1961 10.0365 21.9844 7.66159 22.0174 4.94509C22.0505 2.22859 24.3446 -0.0161786 27.1009 8.78521e-05Z" fill="white"/>
<path d="M10.9592 19.5196C7.85633 19.5196 4.75342 19.5196 1.66701 19.5196C1.10585 19.5196 0.643712 19.3407 0.297111 18.9015C-0.346579 18.0557 0.132062 16.7706 1.18837 16.5754C1.35342 16.5429 1.53497 16.5266 1.71653 16.5266C7.90585 16.5266 14.0952 16.5266 20.2845 16.5266C20.4991 16.5266 20.7301 16.5429 20.9282 16.6079C21.6214 16.8194 22.067 17.4863 21.968 18.1695C21.8855 18.9015 21.3078 19.4546 20.5651 19.5034C20.433 19.5196 20.3175 19.5034 20.1855 19.5034C17.1156 19.5196 14.0292 19.5196 10.9592 19.5196Z" fill="white"/>
</g>
<defs>
<clipPath id="clip0">
<rect width="153" height="42" fill="white"/>
</clipPath>
</defs>
</svg>
