<svg width="237" height="42" viewBox="0 0 237 42" fill="none" xmlns="http://www.w3.org/2000/svg">
<g clip-path="url(#clip0)">
<path d="M104.168 42C103.661 41.9151 103.238 41.8303 102.731 41.8303C101.632 41.6606 100.617 41.4061 99.6026 40.9818C97.1506 39.8788 95.8823 37.9273 95.6286 35.297C95.4595 33.6848 95.7132 32.1576 96.0514 30.5454C96.8124 26.8121 97.6579 23.0788 98.4189 19.4303C98.8416 17.6485 99.4335 15.9515 100.448 14.4242C102.139 11.7091 104.676 10.097 107.72 9.24848C109.072 8.90909 110.425 8.65454 111.778 8.65454C113.807 8.65454 115.752 8.65454 117.781 8.65454C119.219 8.65454 120.572 8.90909 121.924 9.41818C122.347 9.58787 122.685 9.75757 123.024 9.92727C124.968 10.9454 126.067 12.4727 126.49 14.5939C126.828 16.2061 126.659 17.8182 126.321 19.3454C125.476 23.3333 124.63 27.3212 123.785 31.3091C123.362 33.0909 122.77 34.703 121.755 36.2303C120.064 38.8606 117.697 40.4727 114.737 41.3212C113.638 41.6606 112.539 41.8303 111.44 41.9151C111.271 41.9151 111.102 42 111.017 42C108.734 42 106.451 42 104.168 42ZM113.723 12.8121C113.215 12.8121 112.708 12.8121 112.116 12.8121C109.918 12.8121 108.311 13.8303 107.297 15.697C106.874 16.5454 106.536 17.3939 106.367 18.3273C105.859 20.8727 105.268 23.3333 104.76 25.8788C104.338 28.0848 103.83 30.2909 103.407 32.4121C103.238 33.4303 103.154 34.3636 103.407 35.3818C103.746 36.4848 104.422 37.1636 105.521 37.503C105.944 37.5879 106.451 37.6727 106.959 37.6727C107.973 37.6727 108.988 37.6727 110.003 37.6727C112.201 37.6727 113.892 36.6545 114.991 34.6182C115.414 33.7697 115.752 32.9212 115.921 32.0727C116.851 27.5758 117.781 23.1636 118.796 18.6667C118.965 17.6485 119.134 16.6303 118.965 15.6121C118.796 14.1697 117.866 13.1515 116.428 12.897C116.09 12.8121 115.668 12.8121 115.329 12.8121C114.737 12.8121 114.23 12.8121 113.723 12.8121Z" fill="white"/>
<path d="M178.49 42C177.983 41.9151 177.56 41.8303 177.052 41.8303C175.953 41.6606 174.939 41.4061 173.924 40.9818C171.472 39.8788 170.204 37.9273 169.95 35.2121C169.781 33.6 170.035 31.9879 170.373 30.4606C171.134 26.897 171.895 23.4182 172.656 19.8545C172.994 18.0727 173.586 16.3758 174.516 14.8485C176.207 11.8788 178.743 10.097 182.041 9.24848C183.394 8.90909 184.747 8.65454 186.1 8.65454C188.129 8.65454 190.073 8.65454 192.103 8.65454C193.54 8.65454 194.893 8.90909 196.246 9.41818C196.584 9.58787 197.007 9.67272 197.345 9.92727C199.459 11.0303 200.558 12.8121 200.896 15.1879C201.15 16.9697 200.896 18.6667 200.473 20.3636C199.712 23.9273 198.951 27.4909 198.191 30.9697C197.852 32.6667 197.26 34.2788 196.415 35.8061C194.724 38.6909 192.272 40.4727 189.143 41.4061C188.044 41.7454 186.945 41.9151 185.846 42C185.677 42 185.592 42.0848 185.423 42.0848C183.056 42 180.773 42 178.49 42ZM182.717 37.6727C183.309 37.6727 183.817 37.6727 184.409 37.6727C185 37.5879 185.677 37.503 186.184 37.3333C187.452 36.9091 188.382 36.0606 189.059 34.8727C189.651 33.8545 189.989 32.7515 190.243 31.6485C191.173 27.4061 192.018 23.0788 192.948 18.8364C193.202 17.8182 193.371 16.7151 193.202 15.6121C193.033 14.1697 192.103 13.1515 190.665 12.897C190.327 12.8121 189.989 12.8121 189.651 12.8121C188.552 12.8121 187.537 12.8121 186.438 12.8121C184.324 12.8121 182.717 13.7454 181.703 15.6121C181.111 16.5454 180.773 17.6485 180.604 18.7515C179.674 23.0788 178.743 27.3212 177.898 31.6485C177.729 32.497 177.56 33.4303 177.56 34.3636C177.644 36.1454 178.405 37.503 180.519 37.7576C181.28 37.6727 181.956 37.6727 182.717 37.6727Z" fill="white"/>
<path d="M72.9686 41.8303C70.6857 41.8303 68.4873 41.8303 66.2044 41.8303C66.2044 41.7454 66.1199 41.6606 66.1199 41.4909C65.9508 39.7939 65.8662 38.0121 65.6971 36.3151C65.528 34.1091 65.3589 31.903 65.1898 29.697C65.1052 28.3394 65.0207 26.9818 64.8516 25.6242C64.6825 23.4182 64.5134 21.1273 64.3443 18.9212C64.2597 18.3273 64.2597 17.6485 64.1752 17.0545C64.1752 16.8848 64.0906 16.7151 64.0906 16.5454H64.0061C63.837 17.3091 63.6679 18.1576 63.4988 18.9212C62.0614 25.5394 60.7085 32.1576 59.2711 38.8606C58.9329 40.5576 57.7492 41.4061 56.2273 41.7454C55.8045 41.8303 55.3817 41.9151 55.0435 41.9151C53.7752 41.9151 52.507 41.9151 51.3232 41.9151C51.2387 41.9151 51.0696 41.9151 50.985 41.9151C51.0696 41.4061 51.1541 40.897 51.3232 40.3879C52.6761 33.8545 54.1134 27.3212 55.4663 20.7879C56.0582 17.8182 56.7346 14.7636 57.411 11.7939C57.7492 10.1818 58.7638 9.24848 60.2858 8.82424C60.5394 8.73939 60.7085 8.73939 60.9622 8.73939C64.3443 8.73939 67.6418 8.73939 71.0239 8.73939C71.1085 8.73939 71.2776 8.73939 71.4467 8.73939C71.954 14.6788 72.3767 20.6182 72.8841 26.5576H72.9686C73.5605 25.3697 74.1523 24.1818 74.7442 22.9939C75.3361 21.8061 75.9279 20.6182 76.5198 19.4303C77.1117 18.2424 77.7035 17.0545 78.2954 15.7818C78.8873 14.5939 79.4791 13.4061 80.071 12.2182C80.6629 11.0303 81.2547 9.84242 81.8466 8.65454C86.3279 8.65454 90.8091 8.65454 95.375 8.65454C95.2059 9.24848 95.1213 9.92727 95.0368 10.5212C93.092 19.7697 91.1473 29.0182 89.1181 38.2667C88.6953 40.3879 87.2579 41.6606 85.0596 41.7454C83.6222 41.8303 82.2694 41.7454 80.832 41.7454C80.7474 41.7454 80.7474 41.7454 80.5783 41.6606C82.3539 33.2606 84.1295 24.8606 85.9051 16.3758C85.6514 16.4606 85.6514 16.6303 85.5669 16.8C83.9604 20.0242 82.3539 23.2485 80.7474 26.4727C78.2954 31.3939 75.8434 36.2303 73.3914 41.1515C73.1377 41.4061 73.0532 41.6606 72.9686 41.8303Z" fill="white"/>
<path d="M221.611 41.8302C218.906 34.3635 216.285 26.9817 213.579 19.515H213.494C213.494 19.6847 213.41 19.7696 213.41 19.9393C212.142 26.0484 210.789 32.1575 209.521 38.1817C209.351 38.8605 209.098 39.6241 208.675 40.2181C207.999 41.1514 207.153 41.6605 206.054 41.7453C204.532 41.8302 202.925 41.7453 201.403 41.7453C201.319 41.7453 201.319 41.7453 201.234 41.6605C201.319 41.0666 201.488 40.4726 201.573 39.8787C203.179 32.2423 204.786 24.6908 206.392 17.0544C206.815 15.2726 207.153 13.4059 207.576 11.6241C207.914 10.012 208.929 8.99382 210.451 8.65443C210.62 8.56958 210.789 8.56958 211.042 8.56958C213.41 8.56958 215.862 8.56958 218.229 8.56958C218.314 8.56958 218.314 8.56958 218.483 8.56958C220.766 14.6787 223.049 20.7878 225.416 26.8969H225.501C225.585 26.5575 225.67 26.1332 225.755 25.7938C226.685 21.1272 227.615 16.4605 228.629 11.7938C228.714 11.3696 228.883 10.9453 229.052 10.5211C229.644 9.33322 230.659 8.65443 231.927 8.65443C233.533 8.56958 235.224 8.65443 236.831 8.65443C236.831 8.65443 236.915 8.65443 237 8.73928C237 8.90897 237 8.99382 236.915 9.16352C235.816 14.2544 234.802 19.3453 233.702 24.3514C232.688 29.1878 231.673 34.0241 230.659 38.9453C230.574 39.4544 230.32 40.0484 229.982 40.4726C229.39 41.2362 228.629 41.7453 227.615 41.8302C227.361 41.8302 227.107 41.8302 226.854 41.8302C225.247 41.8302 223.725 41.8302 222.119 41.8302C221.95 41.8302 221.781 41.8302 221.611 41.8302Z" fill="white"/>
<path d="M16.5722 41.7454C16.7413 41.0667 16.8259 40.303 16.995 39.6242C18.2633 33.6 19.5316 27.4909 20.7998 21.4667C21.4763 18.1576 22.2372 14.8485 22.9137 11.5394C23.2519 9.84242 24.9429 8.56969 26.5494 8.56969C28.7478 8.56969 30.8616 8.56969 33.0599 8.56969C33.1445 8.56969 33.3136 8.56969 33.4827 8.56969C35.8502 15.0182 38.2176 21.4667 40.5005 28H40.5851C40.6696 27.8303 40.6696 27.6606 40.7542 27.4061C41.8534 22.1454 42.9525 16.9697 44.0517 11.7091C44.1363 11.2 44.3899 10.6909 44.559 10.1818C45.0663 9.16363 45.9964 8.56969 47.0956 8.56969C48.8712 8.48484 50.5623 8.56969 52.3378 8.56969C52.3378 8.73939 52.2533 8.90909 52.2533 9.07878C51.2387 13.9151 50.224 18.7515 49.2094 23.5879C48.1948 28.4242 47.1802 33.2606 46.1655 38.1818C46.081 38.7757 45.9119 39.3697 45.5737 39.8788C44.8127 41.0667 43.7981 41.7454 42.4452 41.7454C40.8387 41.7454 39.1477 41.7454 37.5412 41.7454C36.9493 41.7454 37.0339 41.7454 36.8648 41.2364C34.5819 34.8727 32.299 28.5939 30.016 22.2303C29.7624 21.4667 29.4242 20.6182 29.1705 19.8545C29.086 19.6848 29.086 19.6 28.9169 19.4303C28.8323 19.6 28.8323 19.7697 28.7478 19.9394C27.4795 26.1333 26.1266 32.2424 24.8584 38.4364C24.6893 39.1151 24.5201 39.7091 24.1819 40.303C23.6746 41.1515 22.9982 41.6606 22.0681 41.6606C20.2925 41.7454 18.5169 41.6606 16.7413 41.6606C16.7413 41.7454 16.7413 41.7454 16.5722 41.7454Z" fill="white"/>
<path d="M139.934 15.1879C137.144 15.1879 134.523 15.1879 131.817 15.1879C131.817 15.0182 131.817 14.8485 131.902 14.7636C132.155 13.6606 132.324 12.5576 132.578 11.4545C132.916 10.0121 133.762 9.07878 135.199 8.73939C135.453 8.65454 135.706 8.65454 135.875 8.65454C142.893 8.65454 149.911 8.65454 156.929 8.65454C157.014 8.65454 157.183 8.65454 157.352 8.65454C157.267 8.99393 157.267 9.24848 157.183 9.50303C157.014 10.4364 156.844 11.3697 156.591 12.303C156.253 13.8303 155.323 14.7636 153.801 15.103C153.631 15.1879 153.378 15.1879 153.209 15.1879C151.602 15.1879 149.911 15.1879 148.305 15.1879C148.136 15.1879 147.966 15.1879 147.713 15.1879C147.628 15.697 147.459 16.2061 147.375 16.7151C145.853 24.097 144.246 31.4788 142.724 38.8606C142.386 40.4727 141.118 41.6606 139.427 41.8303C139.173 41.8303 138.835 41.8303 138.581 41.8303C137.313 41.8303 136.129 41.8303 134.861 41.8303C134.692 41.8303 134.523 41.8303 134.269 41.8303C136.214 32.9212 138.074 24.097 139.934 15.1879Z" fill="white"/>
<path d="M154.984 41.7456C155.323 40.1334 155.661 38.6062 155.999 37.0789C157.098 31.8183 158.282 26.4728 159.381 21.2122C160.057 17.9031 160.818 14.6789 161.495 11.3698C161.833 9.84252 163.355 8.5698 164.877 8.65465C166.314 8.65465 167.836 8.65465 169.274 8.65465C169.443 8.65465 169.527 8.65465 169.696 8.65465C169.696 8.82434 169.696 8.90919 169.612 8.99404C168.344 14.8486 167.16 20.6183 165.892 26.4728C165.046 30.5456 164.201 34.6183 163.27 38.7759C162.932 40.3031 162.002 41.2365 160.565 41.6607C160.311 41.7456 160.057 41.7456 159.804 41.7456C158.282 41.7456 156.844 41.7456 155.323 41.7456C155.238 41.8304 155.153 41.7456 154.984 41.7456Z" fill="white"/>
<path d="M14.5426 8.65454C14.3735 9.50303 14.2044 10.2667 14.0353 11.1151C13.1053 15.5273 12.1752 19.9394 11.2451 24.3515C10.3996 28.3394 9.55406 32.2424 8.70854 36.2303C8.53943 37.0788 8.37033 37.9273 8.20122 38.7758C7.86301 40.303 6.93294 41.3212 5.411 41.6606C5.24189 41.7454 5.07279 41.7454 4.81913 41.7454C3.29719 41.7454 1.77525 41.7454 0.253309 41.7454C0.168757 41.7454 0.0842046 41.7454 -0.0848999 41.7454C-0.0848999 41.5758 -0.0848999 41.4061 -0.000347637 41.2364C1.09883 36.2303 2.11346 31.1394 3.21264 26.1333C4.31182 21.2121 5.32645 16.2909 6.42562 11.3697C6.76383 10.0121 7.60936 9.07878 8.96219 8.73939C9.1313 8.73939 9.3004 8.65454 9.46951 8.65454C11.076 8.65454 12.6825 8.65454 14.289 8.65454C14.3735 8.65454 14.4581 8.65454 14.5426 8.65454Z" fill="white"/>
<path d="M14.7121 8.48485C14.7966 7.89091 14.9658 7.38182 15.0503 6.78788C15.304 5.4303 15.6422 4.07273 15.8958 2.71515C16.234 1.10303 17.5869 0 19.1934 0C20.6308 0 22.0681 0 23.5901 0C23.7592 0 23.8437 0 24.0974 0C24.0128 0.424242 23.9283 0.848485 23.8437 1.27273C23.5055 2.8 23.2519 4.24242 22.9137 5.7697C22.5755 7.12727 21.7299 8.06061 20.3771 8.4C20.208 8.48485 20.0389 8.48485 19.8698 8.48485C18.2633 8.48485 16.7414 8.48485 15.1349 8.48485C14.9658 8.48485 14.8812 8.48485 14.7121 8.48485Z" fill="white"/>
</g>
<defs>
<clipPath id="clip0">
<rect width="237" height="42" fill="white"/>
</clipPath>
</defs>
</svg>
