<svg width="257" height="69" viewBox="0 0 257 69" fill="none" xmlns="http://www.w3.org/2000/svg">
<g clip-path="url(#clip0)">
<path fill-rule="evenodd" clip-rule="evenodd" d="M163.813 1.94824H171.006H186.047V9.09177H171.006V25.6518H184.412V32.7953H171.006V54.3882H163.813V32.6329V25.4894V9.09177V1.94824ZM189.48 17.8588H196.674V23.5412C197.818 19.1577 200.924 17.8588 205.829 17.8588C205.829 19.9694 205.829 22.08 205.829 24.1906C200.434 23.7035 196.674 29.0612 196.674 34.0941V54.2259H189.48V17.8588ZM216.292 32.7953H223.812V28.0871C223.812 26.3012 222.341 24.84 220.543 24.84H219.398C217.6 24.84 216.128 26.3012 216.128 28.0871V32.7953H216.292ZM222.341 17.8588H217.927C213.186 17.8588 209.426 21.7553 209.426 26.3012V45.7835C209.426 50.4918 213.349 54.2259 217.927 54.2259H222.341C227.082 54.2259 230.842 50.3294 230.842 45.7835V43.6729H223.812V45.7835C223.812 46.5953 223.158 47.2447 222.341 47.2447H217.927C217.109 47.2447 216.455 46.5953 216.455 45.7835V43.6729V40.4259V38.9647H217.927H222.341H230.842V26.4635C230.842 21.7553 227.082 17.8588 222.341 17.8588ZM242.45 32.7953H249.97V28.0871C249.97 26.3012 248.499 24.84 246.7 24.84H245.556C243.758 24.84 242.286 26.3012 242.286 28.0871V32.7953H242.45ZM248.499 17.8588H244.085C239.343 17.8588 235.583 21.7553 235.583 26.3012V45.7835C235.583 50.4918 239.507 54.2259 244.085 54.2259H248.499C253.24 54.2259 257 50.3294 257 45.7835V43.6729H249.97V45.7835C249.97 46.5953 249.316 47.2447 248.499 47.2447H244.085C243.267 47.2447 242.613 46.5953 242.613 45.7835V43.6729V40.4259V38.9647H244.085H248.499H257V26.4635C257 21.7553 253.076 17.8588 248.499 17.8588ZM61.9612 8.92942V47.2447H67.3562C70.299 47.2447 72.7513 44.8094 72.7513 41.8871V14.2871C72.7513 11.3647 70.299 8.92942 67.3562 8.92942H61.9612ZM54.9313 1.94824H67.3562C74.2226 1.94824 79.7811 7.46824 79.7811 14.2871V41.8871C79.7811 48.7059 74.2226 54.2259 67.3562 54.2259H54.9313V1.94824ZM120.489 6.33177H113.296V17.8588H108.718V22.5671H113.296V47.2447C113.296 51.1412 116.565 54.3882 120.489 54.3882H124.086V53.4141V47.2447H121.47C120.98 47.2447 120.653 46.92 120.653 46.4329V40.2635V22.5671H125.23V17.8588H120.653V6.33177H120.489ZM84.3588 17.8588H91.5521V45.4588C91.5521 49.68 98.7455 46.7577 98.7455 43.3482V17.8588H105.939V54.3882H98.7455V50.3294C97.6011 53.5765 94.6584 54.3882 91.2252 54.3882C85.3397 54.3882 84.3588 51.1412 84.3588 46.92V17.8588ZM127.683 17.8588H134.876L140.434 39.4518L145.176 17.8588H152.369L143.05 59.9082C141.088 66.4024 137.819 68.8377 135.203 68.8377H130.625V61.6941H135.203C136.674 61.6941 136.674 57.7977 137.165 54.2259L127.683 17.8588Z" fill="#212121"/>
<path fill-rule="evenodd" clip-rule="evenodd" d="M20.4358 33.2824C18.8009 35.0682 16.8391 35.88 14.8772 36.2047C14.8772 36.2047 14.8772 33.2824 14.5503 33.2824C14.2233 33.2824 11.6075 35.2306 10.9536 35.5553C10.4631 35.7176 8.99173 34.0941 8.99173 34.0941C6.70293 34.2565 4.57761 34.2565 2.2888 34.2565C4.25064 31.4965 7.35687 30.0353 10.7901 28.7365C5.06807 29.2235 2.12532 27.7624 1.30789 24.6776C2.12532 24.5153 2.77926 24.5153 3.59669 24.5153C3.10623 23.0541 2.12532 21.9176 0.490458 21.2682C1.1444 20.7812 1.79835 20.2941 2.45229 19.8071C0.980916 17.6965 0.163486 15.7482 0 13.9624C3.10623 14.7741 5.8855 16.0729 8.1743 18.8329C8.50127 17.6965 8.99173 16.7224 9.3187 15.7482C11.771 16.7224 13.8963 18.5082 15.6947 21.2682C14.5503 18.6706 13.4059 16.0729 12.4249 13.4753C11.9345 12.0141 11.444 10.3906 10.9536 8.92941C13.0789 9.09176 14.8772 10.0659 16.5121 11.5271C16.0216 9.09176 16.0216 6.98118 16.1851 5.03294C17.0025 5.68235 17.9835 6.33176 18.8009 6.81882C18.9644 3.89647 19.2913 1.13647 21.0897 -0.162354C22.7246 1.13647 23.0515 3.89647 23.3785 6.81882C24.1959 6.16941 25.1768 5.52 25.9943 5.03294C26.1578 6.98118 26.1578 9.09176 25.5038 11.5271C27.1387 10.0659 28.937 9.09176 31.0623 8.92941C30.5719 10.3906 30.0814 12.0141 29.4275 13.4753C28.2831 16.0729 27.3022 18.6706 26.1578 21.2682C27.9561 18.5082 30.0814 16.7224 32.5337 15.7482C32.8607 16.7224 33.3511 17.6965 33.6781 18.8329C35.9669 16.0729 38.7462 14.6118 41.8524 13.9624C41.6889 15.5859 40.8715 17.5341 39.4001 19.8071C40.0541 20.2941 40.708 20.7812 41.362 21.2682C39.7271 22.08 38.7462 23.2165 38.2557 24.5153C39.0732 24.5153 39.7271 24.6776 40.5445 24.6776C39.7271 27.7624 36.7844 29.2235 31.0623 28.7365C34.3321 30.0353 37.6018 31.6588 39.5636 34.2565C37.2748 34.2565 35.1495 34.0941 32.8607 34.0941C32.8607 34.0941 31.2258 35.7176 30.8989 35.5553C30.4084 35.2306 27.6291 33.2824 27.3022 33.2824C26.9752 33.2824 26.9752 36.2047 26.9752 36.2047C25.0134 35.88 23.0515 35.0682 21.4167 33.2824V42.8612H20.2723V33.2824H20.4358Z" fill="#C60B46"/>
<path d="M40.381 47.407H1.30786V54.3882H40.381V47.407Z" fill="#C60B46"/>
</g>
<defs>
<clipPath id="clip0">
<rect width="257" height="69" fill="white"/>
</clipPath>
</defs>
</svg>
