<svg width="158" height="43" viewBox="0 0 158 43" fill="none" xmlns="http://www.w3.org/2000/svg">
<g clip-path="url(#clip0)">
<path fill-rule="evenodd" clip-rule="evenodd" d="M100.2 1.19971H104.6H113.8V5.59971H104.6V15.7997H112.8V20.1997H104.6V33.4997H100.2V20.0997V15.6997V5.59971V1.19971ZM115.9 10.9997H120.3V14.4997C121 11.7997 122.9 10.9997 125.9 10.9997C125.9 12.2997 125.9 13.5997 125.9 14.8997C122.6 14.5997 120.3 17.8997 120.3 20.9997V33.3997H115.9V10.9997ZM132.3 20.1997H136.9V17.2997C136.9 16.1997 136 15.2997 134.9 15.2997H134.2C133.1 15.2997 132.2 16.1997 132.2 17.2997V20.1997H132.3ZM136 10.9997H133.3C130.4 10.9997 128.1 13.3997 128.1 16.1997V28.1997C128.1 31.0997 130.5 33.3997 133.3 33.3997H136C138.9 33.3997 141.2 30.9997 141.2 28.1997V26.8997H136.9V28.1997C136.9 28.6997 136.5 29.0997 136 29.0997H133.3C132.8 29.0997 132.4 28.6997 132.4 28.1997V26.8997V24.8997V23.9997H133.3H136H141.2V16.2997C141.2 13.3997 138.9 10.9997 136 10.9997ZM148.3 20.1997H152.9V17.2997C152.9 16.1997 152 15.2997 150.9 15.2997H150.2C149.1 15.2997 148.2 16.1997 148.2 17.2997V20.1997H148.3ZM152 10.9997H149.3C146.4 10.9997 144.1 13.3997 144.1 16.1997V28.1997C144.1 31.0997 146.5 33.3997 149.3 33.3997H152C154.9 33.3997 157.2 30.9997 157.2 28.1997V26.8997H152.9V28.1997C152.9 28.6997 152.5 29.0997 152 29.0997H149.3C148.8 29.0997 148.4 28.6997 148.4 28.1997V26.8997V24.8997V23.9997H149.3H152H157.2V16.2997C157.2 13.3997 154.8 10.9997 152 10.9997ZM37.9 5.49971V29.0997H41.2C43 29.0997 44.5 27.5997 44.5 25.7997V8.79971C44.5 6.99971 43 5.49971 41.2 5.49971H37.9ZM33.6 1.19971H41.2C45.4 1.19971 48.8 4.59971 48.8 8.79971V25.7997C48.8 29.9997 45.4 33.3997 41.2 33.3997H33.6V1.19971ZM73.7 3.89971H69.3V10.9997H66.5V13.8997H69.3V29.0997C69.3 31.4997 71.3 33.4997 73.7 33.4997H75.9V32.8997V29.0997H74.3C74 29.0997 73.8 28.8997 73.8 28.5997V24.7997V13.8997H76.6V10.9997H73.8V3.89971H73.7ZM51.6 10.9997H56V27.9997C56 30.5997 60.4 28.7997 60.4 26.6997V10.9997H64.8V33.4997H60.4V30.9997C59.7 32.9997 57.9 33.4997 55.8 33.4997C52.2 33.4997 51.6 31.4997 51.6 28.8997V10.9997ZM78.1 10.9997H82.5L85.9 24.2997L88.8 10.9997H93.2L87.5 36.8997C86.3 40.8997 84.3 42.3997 82.7 42.3997H79.9V37.9997H82.7C83.6 37.9997 83.6 35.5997 83.9 33.3997L78.1 10.9997Z" fill="white"/>
<path fill-rule="evenodd" clip-rule="evenodd" d="M12.5 20.4999C11.5 21.5999 10.3 22.0999 9.1 22.2999C9.1 22.2999 9.1 20.4999 8.9 20.4999C8.7 20.4999 7.1 21.6999 6.7 21.8999C6.4 21.9999 5.5 20.9999 5.5 20.9999C4.1 21.0999 2.8 21.0999 1.4 21.0999C2.6 19.3999 4.5 18.4999 6.6 17.6999C3.1 17.9999 1.3 17.0999 0.8 15.1999C1.3 15.0999 1.7 15.0999 2.2 15.0999C1.9 14.1999 1.3 13.4999 0.3 13.0999C0.7 12.7999 1.1 12.4999 1.5 12.1999C0.6 10.8999 0.1 9.6999 0 8.5999C1.9 9.0999 3.6 9.8999 5 11.5999C5.2 10.8999 5.5 10.2999 5.7 9.6999C7.2 10.2999 8.5 11.3999 9.6 13.0999C8.9 11.4999 8.2 9.8999 7.6 8.2999C7.3 7.3999 7 6.3999 6.7 5.4999C8 5.5999 9.1 6.1999 10.1 7.0999C9.8 5.5999 9.8 4.2999 9.9 3.0999C10.4 3.4999 11 3.8999 11.5 4.1999C11.6 2.3999 11.8 0.699902 12.9 -0.100098C13.9 0.699902 14.1 2.3999 14.3 4.1999C14.8 3.7999 15.4 3.3999 15.9 3.0999C16 4.2999 16 5.5999 15.6 7.0999C16.6 6.1999 17.7 5.5999 19 5.4999C18.7 6.3999 18.4 7.3999 18 8.2999C17.3 9.8999 16.7 11.4999 16 13.0999C17.1 11.3999 18.4 10.2999 19.9 9.6999C20.1 10.2999 20.4 10.8999 20.6 11.5999C22 9.8999 23.7 8.9999 25.6 8.5999C25.5 9.5999 25 10.7999 24.1 12.1999C24.5 12.4999 24.9 12.7999 25.3 13.0999C24.3 13.5999 23.7 14.2999 23.4 15.0999C23.9 15.0999 24.3 15.1999 24.8 15.1999C24.3 17.0999 22.5 17.9999 19 17.6999C21 18.4999 23 19.4999 24.2 21.0999C22.8 21.0999 21.5 20.9999 20.1 20.9999C20.1 20.9999 19.1 21.9999 18.9 21.8999C18.6 21.6999 16.9 20.4999 16.7 20.4999C16.5 20.4999 16.5 22.2999 16.5 22.2999C15.3 22.0999 14.1 21.5999 13.1 20.4999V26.3999H12.4V20.4999H12.5Z" fill="#C60B46"/>
<path d="M24.7 29.1997H0.799988V33.4997H24.7V29.1997Z" fill="#C60B46"/>
</g>
<defs>
<clipPath id="clip0">
<rect width="157.2" height="42.5" fill="white"/>
</clipPath>
</defs>
</svg>
