<svg width="63" height="67" viewBox="0 0 63 67" fill="none" xmlns="http://www.w3.org/2000/svg">
<path d="M56.1141 20.0112H57.0059C59.503 20.0112 61.465 22.0028 61.465 24.5376V60.5683C61.465 63.1031 59.503 65.0947 57.0059 65.0947H5.99422C3.49714 65.0947 1.53516 63.1031 1.53516 60.5683V24.5376C1.53516 22.0028 3.49714 20.0112 5.99422 20.0112H6.88603" stroke="#212121" stroke-width="2" stroke-miterlimit="10"/>
<path d="M61.6433 30.6936L36.4942 46.4457C33.8188 48.0752 29.1814 47.8942 26.1492 46.0836L1.53516 30.6936" stroke="#212121" stroke-width="2" stroke-miterlimit="10"/>
<path d="M31.3217 47.532H32.3918C33.8187 47.532 35.2456 47.1699 36.4942 46.4457L56.2924 34.1337V30.3315V5.16434C56.2924 2.99164 54.5088 1 52.1901 1H10.9883C8.84797 1 6.88599 2.81058 6.88599 5.16434V30.6936V34.1337L26.1491 46.0836C27.576 46.9889 29.3597 47.532 31.3217 47.532Z" stroke="#212121" stroke-width="2" stroke-miterlimit="10"/>
<path d="M20.7983 22.546L28.4679 30.3315L42.3802 16.2089" stroke="#FF5722" stroke-width="2" stroke-miterlimit="10"/>
</svg>
