<svg width="21" height="23" viewBox="0 0 21 23" fill="none" xmlns="http://www.w3.org/2000/svg">
<path d="M6.22408 5.37437H19.6836L16.6494 13.8058H5.36827L2.48963 1.07812H0" stroke="#212121" stroke-width="1.5" stroke-miterlimit="10"/>
<path d="M17.2718 16.8511H5.67949C4.82368 16.8511 4.12347 16.1483 4.12347 15.2894C4.12347 14.4305 4.82368 13.8058 5.67949 13.8058" stroke="#212121" stroke-width="1.5" stroke-miterlimit="10"/>
<path d="M6.37968 21.3019C7.07989 21.3019 7.7023 20.6772 7.7023 19.9744C7.7023 19.2717 7.07989 18.647 6.37968 18.647C5.67948 18.647 5.05707 19.2717 5.05707 19.9744C5.05707 20.7553 5.67948 21.3019 6.37968 21.3019Z" stroke="#212121" stroke-width="1.5" stroke-miterlimit="10"/>
<path d="M14.7044 21.3019C15.4046 21.3019 16.027 20.6772 16.027 19.9744C16.027 19.2717 15.4046 18.647 14.7044 18.647C14.0042 18.647 13.3818 19.2717 13.3818 19.9744C13.3818 20.7553 14.0042 21.3019 14.7044 21.3019Z" stroke="#212121" stroke-width="1.5" stroke-miterlimit="10"/>
</svg>
