<svg width="22" height="13" viewBox="0 0 22 13" fill="none" xmlns="http://www.w3.org/2000/svg">
<g clip-path="url(#clip0)">
<path d="M10.5 10.3C14.3 10.3 17.6 7.4 18.9 6.1C18.1 5.3 16.4 3.7 14.2 2.8C14.6 3.5 14.8 4.2 14.8 5C14.8 7.4 12.9 9.3 10.5 9.3C8.1 9.3 6.3 7.3 6.3 4.9C6.3 4 6.6 3.2 7 2.6C4.8 3.6 3 5.2 2.1 6C3.4 7.3 6.7 10.2 10.5 10.3ZM21.1 6C21.1 6.2 21 6.4 20.9 6.6C20.7 6.8 16.3 12 10.6 12.1C4.8 12 0.4 6.8 0.2 6.6C0.1 6.5 0 6.2 0 6C0 5.8 0.1 5.6 0.2 5.4C0.4 5.2 4.8 0.1 10.5 0C16.2 0.1 20.6 5.2 20.8 5.5C21 5.6 21.1 5.8 21.1 6Z" fill="#FF5722"/>
</g>
<defs>
<clipPath id="clip0">
<rect width="21.1" height="12.1" fill="white"/>
</clipPath>
</defs>
</svg>
