<svg width="21" height="22" viewBox="0 0 21 22" fill="none" xmlns="http://www.w3.org/2000/svg">
<path d="M3.5 5.12883H19.9231L16.8269 13.6319H5.38462L2.55769 0.809814H0" stroke="#FF5722" stroke-width="1.5" stroke-miterlimit="10"/>
<path d="M17.5 16.7361H5.78845C4.98076 16.7361 4.17307 16.0613 4.17307 15.1165C4.17307 14.1717 4.84614 13.6318 5.78845 13.6318" stroke="#FF5722" stroke-width="1.5" stroke-miterlimit="10"/>
<path fill-rule="evenodd" clip-rule="evenodd" d="M6.46154 21.1901C7.13462 21.1901 7.80769 20.5153 7.80769 19.8404C7.80769 19.1656 7.13462 18.4907 6.46154 18.4907C5.78846 18.4907 5.11539 19.1656 5.11539 19.8404C5.11539 20.6502 5.78846 21.1901 6.46154 21.1901Z" fill="#FF5722" stroke="#FF5722" stroke-width="1.5" stroke-miterlimit="10"/>
<path fill-rule="evenodd" clip-rule="evenodd" d="M14.8077 21.1901C15.4808 21.1901 16.1539 20.5153 16.1539 19.8404C16.1539 19.1656 15.4808 18.4907 14.8077 18.4907C14.1346 18.4907 13.4615 19.1656 13.4615 19.8404C13.4615 20.6502 14.1346 21.1901 14.8077 21.1901Z" fill="#FF5722" stroke="#FF5722" stroke-width="1.5" stroke-miterlimit="10"/>
<path fill-rule="evenodd" clip-rule="evenodd" d="M3.5 5.12891H19.9231L16.8269 13.632H5.78846L3.5 5.12891Z" fill="#FF5722"/>
</svg>
