<svg width="22" height="23" viewBox="0 0 22 23" fill="none" xmlns="http://www.w3.org/2000/svg">
<path d="M16.9496 7.68498C18.7912 7.68498 20.292 6.1841 20.292 4.34249C20.292 2.50087 18.7912 1 16.9496 1C15.108 1 13.6072 2.50087 13.6072 4.34249C13.6072 6.1841 15.108 7.68498 16.9496 7.68498Z" stroke="#898989" stroke-width="1.5" stroke-miterlimit="10"/>
<path d="M16.9496 21.6553C18.7912 21.6553 20.292 20.1544 20.292 18.3128C20.292 16.4712 18.7912 14.9703 16.9496 14.9703C15.108 14.9703 13.6072 16.4712 13.6072 18.3128C13.6072 20.1544 15.108 21.6553 16.9496 21.6553Z" stroke="#898989" stroke-width="1.5" stroke-miterlimit="10"/>
<path d="M4.35052 14.6701C6.19209 14.6701 7.69293 13.1693 7.69293 11.3276C7.69293 9.48603 6.19209 7.98515 4.35052 7.98515C2.50895 7.98515 1 9.48603 1 11.3195C1 13.1611 2.50084 14.6701 4.35052 14.6701Z" stroke="#898989" stroke-width="1.5" stroke-miterlimit="10"/>
<path d="M7.271 9.70508L14.0288 5.96506M14.0288 16.6902L7.271 12.9502L14.0288 16.6902Z" stroke="#898989" stroke-width="1.5" stroke-miterlimit="10"/>
</svg>
