<svg width="18" height="18" viewBox="0 0 18 18" fill="none" xmlns="http://www.w3.org/2000/svg">
<circle cx="9" cy="9" r="8.25" stroke="#898989" stroke-width="1.5"/>
<path d="M10.7427 13.2901L10.8063 13.0188L10.5448 13.1151C10.4733 13.1415 10.3605 13.167 10.2001 13.1893L10.1995 13.1894C10.0421 13.2119 9.92741 13.2221 9.85156 13.2221C9.60532 13.2221 9.45852 13.1758 9.3796 13.1128C9.31836 13.0605 9.26328 12.9408 9.26328 12.6953C9.26328 12.5993 9.27741 12.471 9.30823 12.3077C9.34415 12.1372 9.38456 11.9644 9.42948 11.7892L9.42964 11.7886L10.1609 8.88416C10.1609 8.88401 10.1609 8.88385 10.161 8.8837C10.1989 8.7367 10.2274 8.58948 10.2464 8.44205C10.265 8.2983 10.275 8.17934 10.275 8.08789C10.275 7.75791 10.1817 7.47852 9.98089 7.26688C9.77199 7.04669 9.45205 6.95352 9.05859 6.95352C8.87455 6.95352 8.63606 6.99636 8.34901 7.07507C8.05705 7.15512 7.73059 7.27664 7.37023 7.43834L7.30253 7.46872L7.2856 7.54097L7.18306 7.97847L7.12617 8.22121L7.36728 8.15776C7.44903 8.13624 7.57045 8.10966 7.73337 8.07797C7.89808 8.04683 8.02186 8.03281 8.1084 8.03281C8.23113 8.03281 8.32537 8.04316 8.39456 8.06069C8.46483 8.07849 8.49795 8.10081 8.5122 8.11586L8.51204 8.11601L8.51793 8.12159C8.53336 8.1362 8.55555 8.16918 8.57322 8.23799C8.59065 8.30589 8.60098 8.39827 8.60098 8.51855C8.60098 8.63293 8.58452 8.77741 8.5492 8.95398L8.54916 8.95397L8.54853 8.95754C8.51712 9.13707 8.48354 9.30495 8.44785 9.46124L7.7236 12.3651L7.72359 12.3651L7.72318 12.3668C7.68171 12.5419 7.65119 12.6894 7.63216 12.8083C7.6128 12.9293 7.60293 13.0467 7.60293 13.1602C7.60293 13.4745 7.70741 13.7469 7.91775 13.9677L7.91774 13.9677L7.919 13.969C8.1392 14.1947 8.45802 14.2945 8.84668 14.2945C9.04202 14.2945 9.26982 14.2572 9.52748 14.187C9.78748 14.1208 10.1291 14.0018 10.5501 13.8325L10.6224 13.8035L10.6402 13.7276L10.7427 13.2901ZM10.9417 5.30228L10.9417 5.30229L10.9428 5.30096C11.135 5.07764 11.232 4.81501 11.232 4.51953C11.232 4.24794 11.1347 4.00875 10.9455 3.80867C10.7509 3.5982 10.498 3.49453 10.2002 3.49453C9.92153 3.49453 9.68169 3.60888 9.48727 3.82431C9.29389 4.03859 9.1957 4.29311 9.1957 4.58105C9.1957 4.8576 9.29547 5.10475 9.48727 5.31729L9.48727 5.3173L9.48852 5.31865C9.68335 5.52928 9.92286 5.64023 10.2002 5.64023C10.4948 5.64023 10.7451 5.52535 10.9417 5.30228Z" fill="#898989" stroke="#898989" stroke-width="0.3"/>
</svg>
