<svg width="17" height="17" viewBox="0 0 17 17" fill="none" xmlns="http://www.w3.org/2000/svg">
<path fill-rule="evenodd" clip-rule="evenodd" d="M15.6322 3.57274C15.8175 4.05022 15.9468 4.60126 15.9821 5.40278C16.0174 6.20729 16.0204 6.46365 16.0204 8.51171C16.0204 10.5598 16.0115 10.8161 15.9763 11.6206C15.941 12.4222 15.8115 12.9703 15.6263 13.4507C15.2351 14.4643 14.4352 15.2659 13.4234 15.6578C12.9469 15.8435 12.397 15.9731 11.597 16.0084C10.7941 16.0439 10.5382 16.0526 8.49413 16.0526C6.45006 16.0526 6.19409 16.0439 5.39126 16.0084C4.59119 15.9731 4.04422 15.8435 3.56479 15.6578C3.0648 15.4693 2.60893 15.1716 2.23245 14.7885C1.8501 14.4113 1.55312 13.9575 1.36195 13.4507C1.17664 12.9732 1.04716 12.4222 1.01189 11.6206C0.97662 10.8161 0.967773 10.5598 0.967773 8.51171C0.967773 6.46365 0.97662 6.20729 1.01488 5.39979C1.05015 4.59827 1.17951 4.05022 1.36482 3.56986C1.55312 3.0689 1.8501 2.61214 2.23245 2.23492C2.60893 1.84884 3.06182 1.55415 3.56778 1.36261C4.04422 1.17705 4.59418 1.04732 5.39414 1.01198C6.19708 0.976637 6.45293 0.967773 8.497 0.967773C10.5411 0.967773 10.7969 0.976637 11.6029 1.01497C12.4028 1.05031 12.9499 1.17992 13.4292 1.3656C13.9292 1.55415 14.3851 1.85183 14.7616 2.23492C15.1469 2.61214 15.441 3.06591 15.6322 3.57274ZM14.3674 12.9615C14.4704 12.6963 14.5939 12.2984 14.6263 11.5617C14.6615 10.7661 14.6704 10.5303 14.6704 8.51762C14.6704 6.5049 14.6615 6.26627 14.6263 5.47062C14.5939 4.73679 14.4704 4.33608 14.3674 4.07087C14.2468 3.74372 14.0556 3.44904 13.8056 3.20442C13.5645 2.95394 13.2674 2.7624 12.941 2.64165C12.6763 2.53851 12.2793 2.41476 11.544 2.3823C10.7528 2.34696 10.5146 2.3381 8.50281 2.3381C6.49412 2.3381 6.25585 2.34696 5.46175 2.3823C4.72946 2.41476 4.32942 2.53851 4.06472 2.64165C3.73821 2.7624 3.4441 2.95394 3.20008 3.20442C2.9471 3.44616 2.75593 3.74372 2.6353 4.07087C2.53236 4.33608 2.40886 4.73391 2.37658 5.47062C2.34119 6.26328 2.33246 6.5049 2.33246 8.51762C2.33246 10.5303 2.34119 10.7691 2.37658 11.5647C2.40886 12.2984 2.53236 12.6993 2.6353 12.9645C2.75593 13.2915 2.9471 13.5862 3.1971 13.8308C3.43825 14.0813 3.73534 14.2728 4.06174 14.3937C4.32644 14.4968 4.72349 14.6206 5.45876 14.6529C6.24999 14.6884 6.49114 14.6971 8.49993 14.6971C10.5087 14.6971 10.7469 14.6884 11.541 14.6529C12.2734 14.6206 12.6733 14.4968 12.938 14.3937C13.5939 14.1402 14.1145 13.6187 14.3674 12.9615ZM4.62958 8.51175C4.62958 6.37229 6.36196 4.63664 8.49713 4.63664C10.6324 4.63664 12.3647 6.37229 12.3647 8.51175C12.3647 10.6512 10.6324 12.3869 8.49713 12.3869C6.36196 12.3869 4.62958 10.6512 4.62958 8.51175ZM5.98828 8.51178C5.98828 9.89979 7.11188 11.0255 8.49707 11.0255C9.88237 11.0255 11.0059 9.89979 11.0059 8.51178C11.0059 7.12377 9.88237 5.99809 8.49707 5.99809C7.11188 5.99809 5.98828 7.12377 5.98828 8.51178ZM12.5175 5.38808C13.0162 5.38808 13.4205 4.983 13.4205 4.48342C13.4205 3.98372 13.0162 3.57876 12.5175 3.57876C12.0189 3.57876 11.6146 3.98372 11.6146 4.48342C11.6146 4.983 12.0189 5.38808 12.5175 5.38808Z" fill="#212121"/>
</svg>
