<svg width="72" height="28" viewBox="0 0 72 28" fill="none" xmlns="http://www.w3.org/2000/svg">
<rect width="71.6471" height="28" rx="4" fill="#FFB3C7"/>
<path d="M64.971 17.7785C64.7421 17.7794 64.5156 17.8263 64.3044 17.9166C64.0933 18.0068 63.9016 18.1387 63.7405 18.3046C63.5794 18.4705 63.4519 18.6671 63.3654 18.8833C63.2788 19.0995 63.235 19.3309 63.2362 19.5644C63.235 19.7979 63.2788 20.0294 63.3654 20.2456C63.4519 20.4618 63.5794 20.6584 63.7405 20.8243C63.9016 20.9902 64.0933 21.122 64.3044 21.2123C64.5156 21.3026 64.7421 21.3495 64.971 21.3503C65.928 21.3503 66.7059 20.5503 66.7059 19.5644C66.7071 19.3309 66.6633 19.0995 66.5767 18.8833C66.4902 18.6671 66.3627 18.4705 66.2016 18.3046C66.0405 18.1387 65.8488 18.0068 65.6377 17.9166C65.4265 17.8263 65.2 17.7794 64.971 17.7785ZM59.2621 16.3993C59.2621 15.0483 58.1409 13.9545 56.7576 13.9545C55.3743 13.9545 54.253 15.0499 54.253 16.3993C54.253 17.7487 55.3759 18.8424 56.7592 18.8424C58.1425 18.8424 59.2621 17.7487 59.2621 16.3993ZM59.2719 11.6474H62.0352V21.1495H59.2719V20.542C58.4663 21.1092 57.5103 21.4126 56.5314 21.4117C53.8413 21.4117 51.6606 19.1678 51.6606 16.3993C51.6606 13.6308 53.8413 11.3868 56.5314 11.3868C57.5485 11.3868 58.4907 11.7072 59.2719 12.2566V11.6474ZM37.1523 12.8856V11.6491H34.3223V21.1495H37.1588V16.713C37.1588 15.2159 38.7341 14.4126 39.8278 14.4126H39.8603V11.6491C38.7374 11.6491 37.7073 12.1437 37.1523 12.8856ZM30.1024 16.3993C30.1024 15.0483 28.9812 13.9545 27.5979 13.9545C26.2146 13.9545 25.0933 15.0499 25.0933 16.3993C25.0933 17.7487 26.2162 18.8424 27.5995 18.8424C28.9828 18.8424 30.1024 17.7487 30.1024 16.3993ZM30.1122 11.6474H32.8771V21.1495H30.1122V20.542C29.3311 21.0898 28.3888 21.4117 27.3717 21.4117C24.6816 21.4117 22.5009 19.1678 22.5009 16.3993C22.5009 13.6308 24.6816 11.3868 27.3717 11.3868C28.3888 11.3868 29.3311 11.7072 30.1122 12.2566V11.6474ZM46.7491 11.3935C45.6457 11.3935 44.6009 11.7454 43.9011 12.718V11.6491H41.1492V21.1495H43.9353V16.157C43.9353 14.713 44.8759 14.0043 46.0102 14.0043C47.2243 14.0043 47.9241 14.7512 47.9241 16.1371V21.1495H50.6841V15.108C50.6841 12.8972 48.9754 11.3935 46.7491 11.3935ZM18.4747 21.1495H21.3682V7.41506H18.4747V21.1495ZM5.76471 21.1528H8.8291V7.41174H5.76634L5.76471 21.1528ZM16.4827 7.41174C16.4827 10.386 15.3566 13.1545 13.3484 15.2109L17.5829 21.1528H13.7992L9.19852 14.6964L10.3865 13.7802C11.3536 13.0384 12.1372 12.0761 12.6747 10.9703C13.2121 9.86456 13.4885 8.6459 13.4818 7.41174H16.4795H16.4827Z" fill="#0A0B09"/>
</svg>
