<svg width="22" height="23" viewBox="0 0 22 23" fill="none" xmlns="http://www.w3.org/2000/svg">
<path d="M10.1728 17.7512C9.60728 18.3054 8.97011 18.6343 8.30699 18.8214C8.30451 18.7598 8.30157 18.6964 8.29807 18.6329C8.2871 18.4334 8.26987 18.2161 8.24113 18.0419C8.22748 17.9592 8.20688 17.8579 8.17177 17.7667C8.1551 17.7234 8.12313 17.6498 8.06435 17.5786C8.00607 17.5079 7.86828 17.3792 7.64844 17.3792C7.53836 17.3792 7.44901 17.4142 7.4204 17.4254C7.3766 17.4425 7.33462 17.4632 7.29896 17.4819C7.22672 17.52 7.14449 17.5696 7.06132 17.6223C6.89337 17.7287 6.68707 17.8696 6.48333 18.0104C6.41991 18.0542 6.35676 18.098 6.29456 18.1411C6.15317 18.2392 6.01674 18.3338 5.89339 18.4175C5.81767 18.4688 5.75253 18.5121 5.6984 18.5472C5.63581 18.5014 5.56192 18.4395 5.48279 18.3672C5.38102 18.2742 5.28465 18.177 5.21275 18.1018C5.17711 18.0646 5.14819 18.0335 5.12846 18.012L5.10621 17.9876L5.10092 17.9818L5.09985 17.9806C5.09982 17.9805 5.09978 17.9805 5.09975 17.9804L5.09971 17.9804C4.99646 17.8646 4.84532 17.8033 4.69059 17.8145C3.87342 17.8735 3.09579 17.8918 2.29544 17.8974C3.21148 17.0298 4.43936 16.459 5.85142 15.9157C6.0839 15.8263 6.21509 15.5793 6.15907 15.3366C6.10305 15.0939 5.87692 14.9294 5.62875 14.9509C4.16347 15.0778 3.12343 14.9429 2.41876 14.6245C1.93945 14.408 1.6023 14.1014 1.38338 13.6993C1.53854 13.6927 1.70171 13.6925 1.89062 13.6925C2.05109 13.6925 2.2018 13.6154 2.29581 13.4854C2.38983 13.3554 2.41572 13.1881 2.36543 13.0357C2.14554 12.3695 1.75812 11.8037 1.17511 11.389L1.59096 11.074C1.80375 10.9129 1.8524 10.6129 1.70147 10.3928C1.17239 9.62094 0.825702 8.91279 0.642221 8.26589C1.88808 8.68992 2.98119 9.33241 3.90937 10.4707C4.02721 10.6152 4.21567 10.6821 4.39826 10.6443C4.58085 10.6065 4.72723 10.4702 4.77799 10.2908C4.85668 10.0127 4.95622 9.75015 5.06252 9.48176C5.07955 9.43877 5.09689 9.39529 5.1144 9.3514C5.13638 9.2963 5.15862 9.24055 5.1808 9.18433C6.1669 9.6915 7.05103 10.5121 7.829 11.7263C7.96955 11.9457 8.25502 12.0204 8.485 11.8979C8.71498 11.7755 8.81237 11.4969 8.7088 11.2579C8.10753 9.86985 7.51266 8.49632 7.00318 7.12514C6.87668 6.74155 6.74992 6.33618 6.62175 5.92626L6.62113 5.92429C6.57728 5.78403 6.53326 5.64325 6.48912 5.50295C7.15078 5.70215 7.7575 6.08652 8.34338 6.61905C8.50304 6.76418 8.73779 6.79052 8.92564 6.68438C9.11349 6.57825 9.21208 6.36358 9.17016 6.15193C8.99631 5.27404 8.94467 4.47812 8.95856 3.73118C9.1884 3.88812 9.41612 4.03391 9.62369 4.15969C9.77389 4.25071 9.96082 4.25625 10.1161 4.17429C10.2715 4.09233 10.3724 3.93489 10.3821 3.75954C10.425 2.9797 10.4879 2.26533 10.6455 1.66821C10.7493 1.2752 10.8873 0.959988 11.0674 0.718646C11.2287 0.959087 11.3577 1.27382 11.4619 1.66821C11.6225 2.27652 11.7052 2.99728 11.7921 3.78675C11.812 3.96844 11.9296 4.12474 12.0986 4.19437C12.2676 4.264 12.4611 4.23587 12.6033 4.121C12.7922 3.96835 13.0001 3.81463 13.2102 3.66853C13.2234 4.42765 13.1576 5.23224 12.9228 6.12141C12.8663 6.33561 12.9574 6.5615 13.1468 6.67646C13.3362 6.79143 13.5786 6.76807 13.7426 6.61905C14.3274 6.08746 14.933 5.70351 15.5933 5.50401C15.4166 6.04614 15.2328 6.58537 15.0111 7.08917L15.0099 7.09182C14.7065 7.79222 14.4252 8.49168 14.1467 9.18411L14.1455 9.18699C13.8658 9.8823 13.5889 10.5705 13.2912 11.2579C13.1876 11.4969 13.285 11.7755 13.515 11.8979C13.745 12.0204 14.0304 11.9457 14.171 11.7263C14.949 10.5121 15.8331 9.69149 16.8192 9.18433C16.8414 9.24054 16.8636 9.29629 16.8856 9.35139C16.9031 9.39528 16.9205 9.43877 16.9375 9.48176C17.0438 9.75015 17.1433 10.0127 17.222 10.2908C17.2728 10.4702 17.4191 10.6065 17.6017 10.6443C17.7843 10.6821 17.9728 10.6152 18.0906 10.4707C19.0266 9.32289 20.1238 8.62714 21.35 8.23829C21.1642 8.85515 20.8179 9.57634 20.2891 10.407C20.1493 10.6266 20.2015 10.9168 20.409 11.074L20.8588 11.4147C20.2677 11.8554 19.8691 12.4031 19.6406 13.0184C19.5837 13.1719 19.6054 13.3435 19.6989 13.4779C19.7923 13.6123 19.9457 13.6925 20.1094 13.6925C20.2754 13.6925 20.4282 13.7075 20.6014 13.7267C20.3822 14.1154 20.0496 14.4129 19.5812 14.6245C18.8766 14.9429 17.8365 15.0778 16.3712 14.9509C16.1247 14.9296 15.8996 15.0919 15.8419 15.3326C15.7842 15.5733 15.9113 15.8199 16.1408 15.9127C17.4538 16.4431 18.7001 17.0519 19.6345 17.8778C19.4414 17.8714 19.2482 17.8642 19.0538 17.857L19.0496 17.8568C18.4722 17.8352 17.8843 17.8132 17.2734 17.8132C17.14 17.8132 17.012 17.8666 16.9181 17.9614L16.9179 17.9616L16.9165 17.963L16.9102 17.9694L16.8847 17.9948C16.8622 18.0169 16.8297 18.0488 16.79 18.087C16.7101 18.1637 16.6036 18.2636 16.4936 18.3595C16.4222 18.4218 16.3546 18.4778 16.2953 18.5233C16.2948 18.523 16.2943 18.5226 16.2938 18.5223C16.2494 18.4914 16.2003 18.4573 16.1472 18.4205C15.9708 18.298 15.7563 18.15 15.5439 18.0069C15.3327 17.8647 15.1182 17.7239 14.9429 17.6174C14.8561 17.5647 14.7713 17.5156 14.6975 17.4783C14.6611 17.4598 14.619 17.44 14.5758 17.4235L14.5753 17.4234C14.5474 17.4128 14.4591 17.3792 14.3516 17.3792C14.1317 17.3792 13.9939 17.5079 13.9356 17.5786C13.8769 17.6498 13.8449 17.7234 13.8282 17.7667C13.7931 17.8579 13.7725 17.9592 13.7589 18.0419C13.7301 18.2161 13.7129 18.4334 13.7019 18.6329C13.6984 18.6964 13.6955 18.7598 13.693 18.8214C12.9514 18.6121 12.2422 18.2255 11.6294 17.5447C11.4909 17.3909 11.2719 17.3383 11.0787 17.4124C11.051 17.423 11.0247 17.4359 11 17.4508C10.9237 17.4049 10.835 17.3792 10.7422 17.3792H10.6562C10.4244 17.3792 10.2294 17.5371 10.1728 17.7512Z" stroke="#888888" stroke-linejoin="round"/>
</svg>
