<svg width="18" height="20" viewBox="0 0 18 20" fill="none" xmlns="http://www.w3.org/2000/svg">
<path fill-rule="evenodd" clip-rule="evenodd" d="M4.08634 19.2275V6.90921H0.227617V19.2275H4.08634ZM2.15696 5.22735C3.50257 5.22735 4.34011 4.28144 4.34011 3.09933C4.31503 1.89061 3.50258 0.970947 2.18249 0.970947C0.862535 0.970947 -0.000488281 1.89061 -0.000488281 3.09933C-0.000488281 4.28144 0.836866 5.22735 2.13181 5.22735H2.15689H2.15696Z" fill="#212121"/>
<path fill-rule="evenodd" clip-rule="evenodd" d="M6.22119 19.2275H10.0799V12.3484C10.0799 11.9803 10.1049 11.6125 10.2068 11.3493C10.4858 10.6137 11.1207 9.85191 12.1867 9.85191C13.583 9.85191 14.1415 10.9815 14.1415 12.6375V19.2275H17.9999V12.1644C17.9999 8.38074 16.0962 6.62015 13.5575 6.62015C11.4758 6.62015 10.5619 7.85475 10.0542 8.69568H10.08V6.90921H6.2213C6.27193 8.06507 6.2213 19.2275 6.2213 19.2275H6.22119Z" fill="#212121"/>
</svg>
