<svg width="18" height="18" viewBox="0 0 18 18" fill="none" xmlns="http://www.w3.org/2000/svg">
<g clip-path="url(#clip0)">
<path d="M12.375 0C10.9286 0 9.64289 0.482143 8.51789 1.60714L6 4L7.125 5.125L9.64289 2.73214C10.4465 1.92857 11.4107 1.60714 12.375 1.60714C13.5 1.60714 14.4643 1.92857 15.2679 2.73214C16.875 4.33929 16.875 6.91071 15.2679 8.35714L12.875 10.875L14 12L16.3929 9.64286C18.6429 7.39286 18.6429 3.85714 16.3929 1.76786C15.2679 0.482143 13.8215 0 12.375 0ZM11.25 5.625L5.62504 11.25L6.75004 12.375L12.375 6.75L11.25 5.625ZM4 6L1.60718 8.51786C-0.642822 10.7679 -0.642822 14.3036 1.60718 16.3929C2.73218 17.5179 4.17861 18 5.62504 18C7.07146 18 8.51789 17.5179 9.64289 16.3929L12 14L10.7143 12.875L8.51789 15.2679C7.71432 16.0714 6.75004 16.3929 5.62504 16.3929C4.66075 16.3929 3.53575 16.0714 2.73218 15.2679C1.12504 13.6607 1.12504 11.0893 2.73218 9.64286L5.125 7.125L4 6Z" fill="#212121"/>
</g>
<defs>
<clipPath id="clip0">
<rect width="18" height="18" fill="white"/>
</clipPath>
</defs>
</svg>
