<svg width="199" height="28" viewBox="0 0 199 28" fill="none" xmlns="http://www.w3.org/2000/svg">
<path d="M34.7202 20.1267H35.1475L37.6046 23.7543L40.0617 20.1267H40.4891V26.2534H40.035V20.9328L37.6313 24.453H37.6046L35.2009 20.9328V26.2534H34.7202V20.1267Z" fill="#232020"/>
<path d="M46.3381 20.0998H46.7654L49.5964 26.2802H49.089L48.3145 24.5605H44.7356L43.9611 26.2802H43.4803L46.3381 20.0998ZM48.1275 24.1305L46.525 20.5835L44.9226 24.1305H48.1275Z" fill="#232020"/>
<path d="M52.6144 20.1267H53.0684V24.1574L56.9411 20.1267H57.5554L54.8846 22.8407L57.6889 26.2534H57.1013L54.5908 23.1631L53.0684 24.6948V26.2534H52.6144V20.1267Z" fill="#232020"/>
<path d="M60.5734 20.1267H64.9V20.5566H61.0274V22.975H64.5261V23.3781H61.0274V25.8503H64.9534V26.2802H60.5734V20.1267Z" fill="#232020"/>
<path d="M74.1943 20.5566H72.0844V20.1267H76.785V20.5566H74.6751V26.2534H74.221V20.5566H74.1943Z" fill="#232020"/>
<path d="M79.8831 20.1267H80.3372V22.975H84.2365V20.1267H84.6906V26.2534H84.2365V23.3781H80.3372V26.2534H79.8831V20.1267Z" fill="#232020"/>
<path d="M88.2159 20.1267H92.5426V20.5566H88.67V22.975H92.1687V23.3781H88.67V25.8503H92.596V26.2802H88.2159V20.1267Z" fill="#232020"/>
<path d="M99.5668 25.2054L99.9407 24.9635C100.315 25.6084 100.715 25.9309 101.436 25.9309C102.184 25.9309 102.745 25.3666 102.745 24.2917V20.1267H103.199V24.2649C103.199 24.9635 102.985 25.5278 102.638 25.8503C102.318 26.1727 101.89 26.334 101.383 26.334C100.502 26.3608 99.9407 25.8772 99.5668 25.2054Z" fill="#232020"/>
<path d="M106.377 23.19C106.377 21.524 107.606 20.0192 109.449 20.0192C111.291 20.0192 112.493 21.4971 112.493 23.19C112.493 24.856 111.265 26.3608 109.422 26.3608C107.606 26.3608 106.377 24.8829 106.377 23.19ZM112.039 23.19C112.039 21.6852 110.944 20.4223 109.449 20.4223C107.953 20.4223 106.858 21.6584 106.858 23.19C106.858 24.6948 107.953 25.9578 109.449 25.9578C110.971 25.9578 112.039 24.7217 112.039 23.19Z" fill="#232020"/>
<path d="M115.698 23.7274V20.1267H116.152V23.6737C116.152 25.1248 116.927 25.9578 118.209 25.9578C119.437 25.9578 120.239 25.2054 120.239 23.7274V20.1267H120.693V23.6468C120.693 25.3935 119.678 26.334 118.209 26.334C116.713 26.3608 115.698 25.4203 115.698 23.7274Z" fill="#232020"/>
<path d="M124.138 20.1267H126.702C127.45 20.1267 128.037 20.3685 128.411 20.7178C128.705 21.0134 128.865 21.4165 128.865 21.8733C128.865 22.8944 128.117 23.4856 127.076 23.62L129.079 26.2265H128.518L126.568 23.7006H124.565V26.2265H124.111V20.1267H124.138ZM126.649 23.3244C127.663 23.3244 128.411 22.8138 128.411 21.9002C128.411 21.0672 127.77 20.5566 126.675 20.5566H124.592V23.3244H126.649Z" fill="#232020"/>
<path d="M132.177 20.1267H132.604L136.797 25.4472V20.1267H137.225V26.2534H136.878L132.578 20.7985V26.2534H132.15V20.1267H132.177Z" fill="#232020"/>
<path d="M140.777 20.1267H145.104V20.5566H141.231V22.975H144.73V23.3781H141.231V25.8503H145.157V26.2802H140.777V20.1267Z" fill="#232020"/>
<path d="M150.338 23.8349L147.721 20.1267H148.282L150.552 23.405L152.849 20.1267H153.383L150.766 23.8081V26.2534H150.312V23.8349H150.338Z" fill="#232020"/>
<path d="M160.38 23.19C160.38 21.4703 161.662 20.0192 163.425 20.0192C164.52 20.0192 165.135 20.4491 165.775 21.0134L165.482 21.309C164.948 20.7985 164.333 20.3954 163.425 20.3954C161.956 20.3954 160.861 21.6046 160.861 23.1631C160.861 24.7217 161.983 25.9309 163.425 25.9309C164.307 25.9309 164.894 25.5816 165.508 24.9904L165.802 25.286C165.161 25.9309 164.467 26.3608 163.372 26.3608C161.689 26.3608 160.38 24.9635 160.38 23.19Z" fill="#232020"/>
<path d="M168.366 23.19C168.366 21.524 169.595 20.0192 171.438 20.0192C173.28 20.0192 174.482 21.4971 174.482 23.19C174.482 24.856 173.254 26.3608 171.411 26.3608C169.595 26.3608 168.366 24.8829 168.366 23.19ZM174.028 23.19C174.028 21.6852 172.933 20.4223 171.438 20.4223C169.942 20.4223 168.847 21.6584 168.847 23.19C168.847 24.6948 169.942 25.9578 171.438 25.9578C172.96 25.9578 174.028 24.7217 174.028 23.19Z" fill="#232020"/>
<path d="M177.687 23.7274V20.1267H178.141V23.6737C178.141 25.1248 178.916 25.9578 180.198 25.9578C181.426 25.9578 182.227 25.2054 182.227 23.7274V20.1267H182.682V23.6468C182.682 25.3935 181.667 26.334 180.198 26.334C178.729 26.3608 177.687 25.4203 177.687 23.7274Z" fill="#232020"/>
<path d="M186.127 20.1267H186.554L190.747 25.4472V20.1267H191.175V26.2534H190.827L186.527 20.7985V26.2534H186.1V20.1267H186.127Z" fill="#232020"/>
<path d="M196.436 20.5566H194.326V20.1267H199.027V20.5566H196.917V26.2534H196.463V20.5566H196.436Z" fill="#232020"/>
<path d="M45.0294 3.49411C45.0294 3.62847 44.9493 3.70908 44.789 3.70908H38.7531C38.6462 3.70908 38.5661 3.73595 38.5127 3.7897L37.7382 4.43461C37.6847 4.48835 37.6313 4.56897 37.6313 4.64958V6.90678H44.6555C44.8157 6.90678 44.8959 6.98739 44.8959 7.14862V8.1966C44.8959 8.35783 44.8157 8.43845 44.6555 8.43845H37.658V11.9855C37.658 12.1467 37.5779 12.2273 37.391 12.2273H34.8537C34.6935 12.2273 34.6133 12.1467 34.6133 11.9855V4.03154C34.6133 3.89718 34.6668 3.7897 34.7469 3.70908L36.2959 2.36551C36.4028 2.25803 36.563 2.20428 36.7233 2.20428H44.789C44.9493 2.20428 45.0294 2.2849 45.0294 2.44613V3.49411Z" fill="#434349"/>
<path d="M63.0305 3.70824C63.1106 3.78886 63.164 3.89634 63.164 4.0307V6.34164C63.164 6.52974 63.0839 6.69097 62.9503 6.82533L61.6149 7.9808L63.3777 11.3935C63.4311 11.4741 63.4578 11.5278 63.4578 11.6084C63.4845 11.6622 63.4845 11.7428 63.4845 11.8234V11.9846C63.4845 12.0653 63.4578 12.119 63.4578 12.1727C63.4311 12.2265 63.351 12.2534 63.2441 12.2534H60.8404C60.7336 12.2534 60.6268 12.1996 60.5733 12.0921L58.9709 8.65258H53.2554V12.0384C53.2554 12.1996 53.1753 12.2802 52.9883 12.2802H50.4778C50.3175 12.2802 50.2374 12.1996 50.2374 12.0384V2.60652C50.2374 2.3378 50.3976 2.17657 50.6914 2.17657H61.0007C61.1876 2.17657 61.3479 2.23032 61.4814 2.3378L63.0305 3.70824ZM59.2914 3.81573C59.2379 3.76199 59.1311 3.73512 59.0243 3.73512H53.4958C53.3088 3.73512 53.2287 3.81573 53.2287 4.00383V7.14778H59.051L60.0125 6.34164C60.0926 6.26103 60.1193 6.20728 60.1193 6.12667V4.67562C60.1193 4.595 60.0926 4.51439 60.0125 4.43377L59.2914 3.81573Z" fill="#434349"/>
<path d="M79.9098 3.49329C79.9098 3.62765 79.8297 3.70826 79.6427 3.70826H72.4583C72.3515 3.70826 72.2714 3.73513 72.1912 3.81574L71.4434 4.46066C71.3633 4.54127 71.3366 4.62189 71.3366 4.72937V6.36853H79.5092C79.6694 6.36853 79.7763 6.44914 79.7763 6.5835V7.60461C79.7763 7.73897 79.6961 7.81958 79.5092 7.81958H71.3366V9.45874C71.3366 9.56622 71.3633 9.64684 71.4434 9.70058L72.4583 10.5605C72.5384 10.6411 72.6186 10.668 72.7254 10.668H79.6427C79.803 10.668 79.9098 10.7486 79.9098 10.9098V11.9578C79.9098 12.119 79.8297 12.1996 79.6427 12.1996H71.0428C70.8826 12.1996 70.7223 12.1459 70.5621 12.0384L68.4521 10.238C68.3453 10.1574 68.3186 10.0499 68.3186 9.91555V4.03072C68.3186 3.89636 68.372 3.78887 68.4521 3.70826L69.9745 2.36469C70.108 2.2572 70.2416 2.20346 70.4285 2.20346H79.6427C79.803 2.20346 79.9098 2.28408 79.9098 2.4453V3.49329Z" fill="#434349"/>
<path d="M96.7624 3.49329C96.7624 3.62765 96.6823 3.70826 96.4954 3.70826H89.311C89.2041 3.70826 89.124 3.73513 89.0439 3.81574L88.2961 4.46066C88.2159 4.54127 88.1892 4.62189 88.1892 4.72937V6.36853H96.3618C96.5221 6.36853 96.6289 6.44914 96.6289 6.5835V7.60461C96.6289 7.73897 96.5488 7.81958 96.3618 7.81958H88.1892V9.45874C88.1892 9.56622 88.2159 9.64684 88.2961 9.70058L89.311 10.5605C89.3911 10.6411 89.4712 10.668 89.578 10.668H96.4954C96.6556 10.668 96.7624 10.7486 96.7624 10.9098V11.9578C96.7624 12.119 96.6823 12.1996 96.4954 12.1996H87.8687C87.7085 12.1996 87.5482 12.1459 87.388 12.0384L85.2781 10.238C85.1712 10.1574 85.1445 10.0499 85.1445 9.91555V4.03072C85.1445 3.89636 85.1979 3.78887 85.2781 3.70826L86.8004 2.36469C86.934 2.2572 87.0675 2.20346 87.2545 2.20346H96.4686C96.6289 2.20346 96.7357 2.28408 96.7357 2.4453V3.49329H96.7624Z" fill="#434349"/>
<path d="M118.877 11.9846C118.877 12.1459 118.796 12.2265 118.636 12.2265H116.9C116.74 12.2265 116.66 12.1459 116.66 11.9846V5.15931L111.906 12.0384C111.826 12.1459 111.719 12.1996 111.559 12.1996H109.395C109.235 12.1996 109.128 12.1459 109.048 12.0384L104.294 5.15931V11.9846C104.294 12.1459 104.214 12.2265 104.054 12.2265H102.371C102.211 12.2265 102.131 12.1459 102.131 11.9846V2.55279C102.131 2.31095 102.264 2.20346 102.505 2.20346H105.389C105.549 2.20346 105.656 2.28407 105.763 2.41843L110.624 9.67371L115.511 2.41843C115.618 2.28407 115.725 2.20346 115.885 2.20346H118.503C118.743 2.20346 118.877 2.31095 118.877 2.55279V11.9846Z" fill="#B42025"/>
<path d="M137.145 3.68137C137.252 3.78886 137.332 3.92322 137.332 4.08444V10.3724C137.332 10.5336 137.278 10.6679 137.145 10.7754L135.596 12.119C135.489 12.1996 135.382 12.2534 135.222 12.2534H126.515C126.355 12.2534 126.221 12.1996 126.141 12.119L124.592 10.7754C124.485 10.6679 124.405 10.5336 124.405 10.3724V4.05757C124.405 3.89634 124.458 3.76199 124.592 3.6545L126.141 2.31093C126.248 2.23032 126.355 2.17657 126.515 2.17657H135.222C135.382 2.17657 135.515 2.23032 135.596 2.31093L137.145 3.68137ZM133.486 3.8426C133.406 3.76199 133.299 3.73512 133.192 3.73512H128.545C128.438 3.73512 128.331 3.76199 128.251 3.8426L127.53 4.48752C127.45 4.56813 127.423 4.64874 127.423 4.75623V9.6737C127.423 9.78118 127.45 9.8618 127.53 9.94241L128.251 10.5873C128.331 10.6679 128.438 10.6948 128.545 10.6948H133.192C133.299 10.6948 133.406 10.6679 133.486 10.5873L134.207 9.94241C134.287 9.8618 134.314 9.78118 134.314 9.6737V4.72936C134.314 4.62187 134.287 4.54126 134.207 4.46064L133.486 3.8426Z" fill="#B42025"/>
<path d="M154.104 3.57389C154.104 3.73512 154.024 3.81573 153.864 3.81573H149.697V12.0115C149.697 12.1727 149.617 12.2534 149.43 12.2534H146.893C146.733 12.2534 146.653 12.1727 146.653 12.0115V3.78886H142.486C142.326 3.78886 142.219 3.70824 142.219 3.54702V2.41842C142.219 2.25719 142.299 2.17657 142.486 2.17657H153.864C154.024 2.17657 154.104 2.25719 154.104 2.41842V3.57389Z" fill="#B42025"/>
<path d="M162.277 11.9846C162.277 12.1459 162.197 12.2265 162.01 12.2265H159.472C159.312 12.2265 159.205 12.1459 159.205 11.9846V2.41842C159.205 2.25719 159.285 2.17657 159.472 2.17657H162.01C162.17 2.17657 162.277 2.25719 162.277 2.41842V11.9846Z" fill="#B42025"/>
<path d="M180.678 3.68137C180.785 3.78886 180.865 3.92322 180.865 4.08444V10.3724C180.865 10.5336 180.812 10.6679 180.678 10.7754L179.129 12.119C179.023 12.1996 178.916 12.2534 178.755 12.2534H170.049C169.888 12.2534 169.755 12.1996 169.675 12.119L168.126 10.7754C168.019 10.6679 167.939 10.5336 167.939 10.3724V4.05757C167.939 3.89634 167.992 3.76199 168.126 3.6545L169.675 2.31093C169.782 2.23032 169.888 2.17657 170.049 2.17657H178.755C178.916 2.17657 179.049 2.23032 179.129 2.31093L180.678 3.68137ZM177.019 3.8426C176.939 3.76199 176.832 3.73512 176.726 3.73512H172.078C171.972 3.73512 171.865 3.76199 171.785 3.8426L171.064 4.48752C170.983 4.56813 170.957 4.64874 170.957 4.75623V9.6737C170.957 9.78118 170.983 9.8618 171.064 9.94241L171.785 10.5873C171.865 10.6679 171.972 10.6948 172.078 10.6948H176.726C176.832 10.6948 176.939 10.6679 177.019 10.5873L177.741 9.94241C177.821 9.8618 177.847 9.78118 177.847 9.6737V4.72936C177.847 4.62187 177.821 4.54126 177.741 4.46064L177.019 3.8426Z" fill="#B42025"/>
<path d="M198.973 11.8234C198.973 12.0921 198.84 12.2265 198.573 12.2265H196.997C196.703 12.2265 196.436 12.119 196.222 11.9309L188.611 5.45489V12.0115C188.611 12.1727 188.531 12.2534 188.37 12.2534H186.608C186.447 12.2534 186.367 12.1727 186.367 12.0115V2.60652C186.367 2.3378 186.501 2.20345 186.768 2.20345H188.344C188.637 2.20345 188.904 2.31093 189.118 2.49903L196.65 9.00191V2.41842C196.65 2.25719 196.73 2.17657 196.917 2.17657H198.733C198.893 2.17657 198.973 2.25719 198.973 2.41842V11.8234Z" fill="#B42025"/>
<path d="M25.7464 18.8368C24.4377 21.2821 22.2476 23.0556 19.6035 23.8349C18.6421 24.1305 17.6539 24.2649 16.6924 24.2649C15.2235 24.2649 13.8347 23.9424 12.526 23.3781C12.98 23.4587 13.434 23.4856 13.9148 23.4856C14.8228 23.4856 15.7042 23.3512 16.5856 23.0825C18.9893 22.357 20.9924 20.7447 22.1942 18.5144C23.3961 16.2841 23.6631 13.7313 22.9687 11.286C21.7936 7.28214 18.0812 4.48751 13.9415 4.48751C13.1937 4.48751 12.4458 4.595 11.698 4.7831C12.339 4.4069 13.0334 4.11131 13.7812 3.89634C14.7427 3.60076 15.7309 3.4664 16.7191 3.4664C21.2594 3.4664 25.319 6.52974 26.601 10.9098C27.3755 13.5969 27.0817 16.4184 25.7464 18.8368Z" fill="#B42025"/>
<path d="M4.22018 17.6008C2.19039 10.6679 6.14314 3.3858 13.0338 1.34357C14.2356 0.994242 15.4909 0.806142 16.7194 0.806142C17.5207 0.806142 18.3219 0.886756 19.0964 1.04798C17.4673 0.3762 15.7313 0 13.9151 0C12.5797 0 11.271 0.1881 9.96236 0.564299C6.41022 1.63916 3.47236 4.03071 1.70964 7.30902C-0.0530723 10.5873 -0.480398 14.3762 0.587915 17.9501C2.32392 23.8618 7.79903 28 13.9151 28C15.2505 28 16.5592 27.8119 17.8412 27.4357C18.6424 27.1939 19.4169 26.8714 20.1648 26.4952C19.0163 26.8177 17.8412 26.9789 16.666 26.9789C10.9506 26.9789 5.82265 23.1094 4.22018 17.6008Z" fill="#B42025"/>
<path d="M14.075 20.8791C17.8364 20.8791 20.8855 17.8113 20.8855 14.0269C20.8855 10.2425 17.8364 7.17468 14.075 7.17468C10.3137 7.17468 7.26453 10.2425 7.26453 14.0269C7.26453 17.8113 10.3137 20.8791 14.075 20.8791Z" fill="#B42025"/>
</svg>
