<svg width="40" height="28" viewBox="0 0 40 28" fill="none" xmlns="http://www.w3.org/2000/svg">
<g clip-path="url(#clip0)">
<path d="M36.2915 28H3.70853C1.66202 28 0 26.3479 0 24.3135V3.68648C0 1.65214 1.66202 0 3.70853 0H36.3039C38.3504 0 40.0124 1.65214 40.0124 3.68648V24.3135C40 26.3479 38.338 28 36.2915 28Z" fill="#36495D"/>
<path d="M23.3674 8.00146H16.6449V20.0103H23.3674V8.00146Z" fill="#F16522"/>
<path d="M17.0667 14.0064C17.0667 11.5652 18.2202 9.40754 20.0063 8.00199C18.7039 6.97865 17.0543 6.37451 15.2559 6.37451C11.014 6.37451 7.57837 9.78975 7.57837 14.0064C7.57837 18.223 11.014 21.6383 15.2559 21.6383C17.0419 21.6383 18.6915 21.0341 20.0063 20.0108C18.2202 18.6052 17.0667 16.4353 17.0667 14.0064Z" fill="#E41B24"/>
<path d="M32.4217 14.0059C32.4217 18.2226 28.9861 21.6378 24.7442 21.6378C22.9582 21.6378 21.3086 21.0337 19.9938 20.0103C21.7799 18.6171 22.921 16.4472 22.921 14.0059C22.921 11.5647 21.7799 9.40708 19.9938 8.00153C21.2962 6.9782 22.9458 6.37406 24.7442 6.37406C28.9861 6.36173 32.4217 9.78929 32.4217 14.0059ZM31.69 18.7281V18.4815H31.7892V18.4322H31.5411V18.4815H31.6403V18.7281H31.69ZM32.1861 18.7281V18.4322H32.1117L32.0248 18.6418L31.938 18.4322H31.8636V18.7281H31.9132V18.5062L32 18.7034H32.0621L32.1489 18.5062V18.7281H32.1861Z" fill="#F89E1C"/>
</g>
<defs>
<clipPath id="clip0">
<rect width="40" height="28" fill="white"/>
</clipPath>
</defs>
</svg>
