<svg width="21" height="13" viewBox="0 0 21 13" fill="none" xmlns="http://www.w3.org/2000/svg">
<path d="M5 1H4V0H5V1ZM10 2H4V3H10V2ZM8 4H0V5H8V4ZM3 2H2V3H3V2ZM18.1 7L16.9 3.8L16 4.2L16.6 6H15V7H17.7H18.1ZM21 7V10C21 10.6 20.6 11 20 11H19C19 12.1 18.1 13 17 13C15.9 13 15 12.1 15 11H14H13H7C7 12.1 6.1 13 5 13C3.9 13 3 12.1 3 11H1V10H3.3C3.6 9.4 4.3 9 5 9C5.7 9 6.4 9.4 6.7 10H13V7V6V2V1H6V0H13H14V1V2H17C17.6 2 18.2 2.4 18.4 3L19.6 6H20C20.6 6 21 6.4 21 7ZM6 11C6 10.4 5.6 10 5 10C4.4 10 4 10.4 4 11C4 11.6 4.4 12 5 12C5.6 12 6 11.6 6 11ZM18 11C18 10.4 17.6 10 17 10C16.4 10 16 10.4 16 11C16 11.6 16.4 12 17 12C17.6 12 18 11.6 18 11ZM20 7H19.6H18.9L18.6 6.4L17.4 3.4C17.4 3.1 17.2 3 17 3H14V6V7V10H15.3C15.6 9.4 16.3 9 17 9C17.7 9 18.4 9.4 18.7 10H20V7Z" fill="#888888"/>
</svg>
