<svg width="72" height="28" viewBox="0 0 72 28" fill="none" xmlns="http://www.w3.org/2000/svg">
<rect width="71.6471" height="28" rx="4" fill="white"/>
<path d="M17.0442 11.1836C18.0095 11.1836 18.7916 11.632 19.1322 12.2748V11.7076C19.1322 11.5275 19.2606 11.3943 19.4163 11.3943H20.6657C20.8214 11.3943 20.9498 11.5293 20.9498 11.7076V18.2979C20.9498 18.4618 20.8214 18.5968 20.6657 18.5968H19.4163C19.2589 18.5968 19.1322 18.4618 19.1322 18.2979V17.7145C18.7762 18.3556 17.9958 18.8039 17.0305 18.8039C15.2557 18.8039 13.6075 17.3094 13.6075 14.9793C13.6075 12.6619 15.2403 11.1836 17.0442 11.1836ZM17.2992 17.0249C18.3638 17.0249 19.1305 16.1282 19.1305 14.992C19.1305 13.872 18.3638 12.9752 17.2992 12.9752C16.2484 12.9752 15.4525 13.872 15.4525 14.992C15.4542 16.1282 16.2484 17.0249 17.2992 17.0249Z" fill="#4341AA"/>
<path d="M9.97749 11.1836C8.99681 11.1836 8.21637 11.632 7.81931 12.2748V11.7076C7.81931 11.5275 7.69095 11.3943 7.5352 11.3943H6.2978C6.14205 11.3943 6.01369 11.5293 6.01369 11.7076L6 21.2456V20.9233V20.9935V21.1862V21.3338C6 21.4977 6.12836 21.6327 6.28411 21.6327H7.54889C7.70635 21.6327 7.833 21.4977 7.833 21.3338V21.1862V20.9935V20.9233V21.2456L7.84669 17.7866C8.25916 18.4438 9.11148 18.8039 9.94839 18.8039C11.766 18.8039 13.3577 17.3094 13.3577 14.9793C13.3577 12.6619 11.7797 11.1836 9.97749 11.1836ZM9.67798 17.0249C8.62713 17.0249 7.83129 16.1282 7.83129 14.992C7.83129 13.872 8.62713 12.9752 9.67798 12.9752C10.7425 12.9752 11.511 13.872 11.511 14.992C11.511 16.1282 10.7442 17.0249 9.67798 17.0249Z" fill="#4341AA"/>
<path d="M27.996 11.4106H26.6542C26.442 11.4106 26.329 11.5601 26.2862 11.7222L25.6975 13.8739L24.84 16.6703L23.4041 11.7222C23.3613 11.5583 23.2637 11.4106 23.0943 11.4106H21.6395C21.3144 11.4106 21.287 11.6339 21.3435 11.8716L23.4058 18.2783C23.476 18.471 23.5906 18.5754 23.7584 18.5754H24.2564L23.3014 21.1719C23.2021 21.4546 23.2877 21.6329 23.5564 21.6329H24.8982C25.1104 21.6329 25.2234 21.4834 25.2662 21.3214L25.3569 20.9865L26.1904 18.5844L28.251 11.8716C28.3486 11.5889 28.2647 11.4106 27.996 11.4106Z" fill="#4341AA"/>
<path d="M40.4334 11.2734C40.5908 11.2734 40.7603 11.3473 40.7603 11.6462V12.9318C40.7603 13.2307 40.5326 13.3046 40.4197 13.3046H40.0791C39.1703 13.3046 38.6449 13.7835 38.6449 15.0386V18.2815C38.6449 18.4472 38.5028 18.566 38.3471 18.566H37.0977C36.9419 18.566 36.8136 18.431 36.8136 18.2671V11.6768C36.8136 11.4967 36.9419 11.3635 37.0977 11.3635H38.2769C38.4326 11.3635 38.561 11.4823 38.561 11.648V12.334C38.9153 11.6912 39.5126 11.2734 40.2365 11.2734H40.4334Z" fill="#08AF97"/>
<path d="M40.9536 9.21003C40.9536 8.5528 41.4654 8 42.1038 8C42.7285 8 43.2402 8.5528 43.2402 9.21003C43.2402 9.86727 42.7285 10.4201 42.1038 10.4201C41.4654 10.4201 40.9536 9.86907 40.9536 9.21003ZM41.4791 18.5644C41.3079 18.5644 41.1813 18.4149 41.1813 18.2511V11.6769C41.1813 11.4968 41.3096 11.3636 41.4791 11.3636H42.7148C42.8842 11.3636 43.0126 11.4987 43.0126 11.6769V18.2511C43.0126 18.4149 42.8842 18.5644 42.7148 18.5644H41.4791Z" fill="#08AF97"/>
<path d="M64.923 17.504L64.4968 16.7711C64.3685 16.5766 64.1562 16.5766 63.9423 16.7117C63.701 16.8756 63.4597 16.9368 63.2885 16.9368C62.9616 16.9368 62.5081 16.7279 62.5081 16.0094V12.9772H64.4968C64.6526 12.9772 64.7946 12.8277 64.7946 12.6638V11.6771C64.7946 11.497 64.6526 11.3638 64.4968 11.3638H62.5081V10.242V10.1375V9.84944C62.5081 9.66938 62.3797 9.53613 62.224 9.53613H60.9746C60.8034 9.53613 60.6768 9.67118 60.6768 9.84944V10.1375V10.242V11.3638H59.7406C59.5832 11.3638 59.4565 11.4988 59.4565 11.6771V12.6638C59.4565 12.8277 59.5849 12.9772 59.7406 12.9772H60.6785V16.4434C60.6785 18.0568 61.8286 18.714 62.9514 18.714C63.7472 18.714 64.4421 18.4601 64.8819 17.9974C65.024 17.8479 65.0377 17.6822 64.923 17.504Z" fill="#08AF97"/>
<path d="M49.304 18.55V17.5939C48.9634 18.1773 48.1966 18.6257 47.2296 18.6257C45.3539 18.6257 43.7776 17.2212 43.7776 14.9055C43.7776 12.5899 45.383 11.1548 47.1578 11.1548C48.1384 11.1548 48.948 11.6176 49.3023 12.2604V11.677C49.3023 11.5113 49.4306 11.3781 49.5864 11.3781H50.8221C50.9932 11.3781 51.1199 11.5131 51.1199 11.677V18.6094C51.1199 20.6118 49.713 22.0001 47.4419 22.0001C45.6106 22.0001 44.2705 20.7774 43.9453 19.4035C43.9025 19.2829 43.9316 19.1496 44.0874 19.1046L45.4394 19.1028C45.6089 19.101 45.7099 19.1172 45.7663 19.2379C45.9221 19.7763 46.4475 20.3435 47.4847 20.3435C48.6947 20.3417 49.304 19.625 49.304 18.55ZM47.459 16.906C48.5235 16.906 49.2903 16.0543 49.2903 14.9181C49.2903 13.7819 48.5235 12.9302 47.459 12.9302C46.4081 12.9302 45.626 13.7819 45.626 14.9181C45.626 16.0543 46.4064 16.906 47.459 16.906Z" fill="#08AF97"/>
<path d="M32.8874 11.1352C31.9084 11.1352 31.1126 11.5979 30.772 12.1958V10.6922L30.7583 8.65389C30.7583 8.48823 30.6163 8.35498 30.4605 8.35498H29.2248C29.0537 8.35498 28.927 8.49003 28.927 8.65389L28.9407 10.6922V18.2477C28.9407 18.4116 29.0691 18.5466 29.2385 18.5466H30.4742C30.63 18.5466 30.7583 18.4116 30.7583 18.2477V17.6643C31.1571 18.3071 31.8947 18.7555 32.86 18.7555C34.6639 18.7555 36.283 17.261 36.283 14.9309C36.2813 12.6135 34.6485 11.1352 32.8874 11.1352ZM32.5896 16.9765C31.5388 16.9765 30.7566 16.0797 30.7566 14.9435C30.7566 13.8235 31.537 12.9268 32.5896 12.9268C33.6405 12.9268 34.4363 13.8235 34.4363 14.9435C34.4346 16.0797 33.6405 16.9765 32.5896 16.9765Z" fill="#08AF97"/>
<path d="M56.2834 11.1349C55.1898 11.1349 54.4076 11.6138 54.0105 12.1954V10.6163V8.63558C54.0105 8.47172 53.8685 8.35107 53.7127 8.35107H52.4634C52.3076 8.35107 52.1793 8.48612 52.1793 8.64998V10.6145V18.2438C52.1793 18.4077 52.3076 18.5427 52.4634 18.5427H53.7127C53.8685 18.5427 54.0105 18.4239 54.0105 18.2582V14.7794C54.0105 13.6594 54.6917 12.9121 55.7289 12.9121C56.7934 12.9121 57.3907 13.645 57.3907 14.7794V18.26C57.3907 18.4257 57.5328 18.5445 57.6885 18.5445H58.9242C59.08 18.5445 59.222 18.4257 59.222 18.26V14.2572C59.2237 12.4799 58.1027 11.1349 56.2834 11.1349Z" fill="#08AF97"/>
</svg>
