<svg width="79" height="19" viewBox="0 0 79 19" fill="none" xmlns="http://www.w3.org/2000/svg">
<path fill-rule="evenodd" clip-rule="evenodd" d="M6.89356 4.47224H12.2919C15.1903 4.47224 16.2814 5.92889 16.1128 8.06889C15.8341 11.6019 13.6826 13.5566 10.8287 13.5566H9.38788C8.99631 13.5566 8.73294 13.8139 8.62704 14.5111L8.01531 18.5642C7.9749 18.827 7.83555 18.9792 7.62653 18.9999H4.23482C3.91572 18.9999 3.80285 18.7579 3.88645 18.2336L5.95437 5.23999C6.03519 4.71986 6.32224 4.47224 6.89356 4.47224Z" fill="#009EE3"/>
<path fill-rule="evenodd" clip-rule="evenodd" d="M30.3303 4.23154C32.1515 4.23154 33.8321 5.21232 33.6021 7.65666C33.3234 10.5616 31.7558 12.1691 29.2824 12.176H27.1211C26.8104 12.176 26.6599 12.4277 26.579 12.9437L26.161 15.5817C26.0983 15.9801 25.8921 16.1766 25.5883 16.1766H23.5775C23.257 16.1766 23.1455 15.9732 23.2166 15.5181L24.8762 4.94533C24.9584 4.4252 25.1549 4.23154 25.513 4.23154H30.3261H30.3303ZM27.0556 9.89211H28.6929C29.7171 9.85338 30.3972 9.14926 30.4654 7.87937C30.5072 7.09502 29.9735 6.53339 29.1249 6.53754L27.5837 6.54446L27.0556 9.89211ZM39.0687 15.3673C39.2527 15.2013 39.4394 15.1156 39.4129 15.3203L39.3474 15.81C39.314 16.0659 39.4157 16.2015 39.6554 16.2015H41.4418C41.7428 16.2015 41.8891 16.0811 41.963 15.6191L43.0638 8.76055C43.1195 8.4161 43.0345 8.24733 42.7712 8.24733H40.8064C40.6294 8.24733 40.543 8.34555 40.497 8.61392L40.4246 9.03583C40.3869 9.25578 40.2852 9.29451 40.1905 9.07318C39.8574 8.29022 39.0074 7.93885 37.8216 7.96652C35.0667 8.02324 33.2092 10.0996 33.0099 12.7611C32.8566 14.8195 34.3421 16.4366 36.3013 16.4366C37.7226 16.4366 38.3581 16.0216 39.0743 15.3715L39.0687 15.3673ZM37.5721 14.3118C36.3863 14.3118 35.56 13.3726 35.7314 12.2216C35.9028 11.0707 37.012 10.1314 38.1978 10.1314C39.3836 10.1314 40.21 11.0707 40.0386 12.2216C39.8672 13.3726 38.7594 14.3118 37.5721 14.3118ZM46.56 8.2252H44.7485C44.3751 8.2252 44.2232 8.50187 44.3416 8.84216L46.5907 15.3798L44.3848 18.4909C44.1995 18.7509 44.343 18.9875 44.6036 18.9875H46.6394C46.7581 19.0011 46.8782 18.9806 46.9854 18.9283C47.0926 18.8761 47.1825 18.7943 47.2442 18.6928L54.1614 8.84355C54.3746 8.5406 54.2743 8.22244 53.9245 8.22244H51.9973C51.6671 8.22244 51.5347 8.35247 51.3452 8.62498L48.4607 12.775L47.1717 8.6153C47.0965 8.36353 46.9084 8.2252 46.5614 8.2252H46.56Z" fill="#113984"/>
<path fill-rule="evenodd" clip-rule="evenodd" d="M61.3572 4.23154C63.1785 4.23154 64.859 5.21232 64.6291 7.65666C64.3504 10.5617 62.7827 12.1691 60.3093 12.176H58.1494C57.8387 12.176 57.6882 12.4278 57.6074 12.9437L57.1893 15.5817C57.1266 15.9801 56.9204 16.1766 56.6166 16.1766H54.6058C54.2853 16.1766 54.1739 15.9732 54.2449 15.5181L55.9073 4.94257C55.9895 4.42244 56.186 4.22878 56.5442 4.22878H61.3572V4.23154ZM58.0825 9.89212H59.7199C60.7441 9.85338 61.4241 9.14927 61.4924 7.87938C61.5342 7.09503 61.0005 6.5334 60.1519 6.53755L58.6107 6.54447L58.0825 9.89212ZM70.0957 15.3673C70.2796 15.2013 70.4663 15.1156 70.4398 15.3203L70.3744 15.81C70.3409 16.0659 70.4426 16.2015 70.6823 16.2015H72.4687C72.7697 16.2015 72.916 16.0811 72.9899 15.6191L74.0907 8.76056C74.1465 8.41611 74.0615 8.24734 73.7981 8.24734H71.8361C71.6591 8.24734 71.5727 8.34556 71.5268 8.61392L71.4543 9.03584C71.4167 9.25579 71.3149 9.29452 71.2202 9.07319C70.8872 8.29023 70.0371 7.93886 68.8513 7.96653C66.0964 8.02324 64.2389 10.0996 64.0396 12.7611C63.8863 14.8195 65.3718 16.4366 67.331 16.4366C68.7523 16.4366 69.3878 16.0216 70.104 15.3715L70.0957 15.3673ZM68.6005 14.3118C67.4146 14.3118 66.5883 13.3726 66.7597 12.2216C66.9311 11.0707 68.0403 10.1314 69.2261 10.1314C70.412 10.1314 71.2383 11.0707 71.0669 12.2216C70.8955 13.3726 69.7863 14.3118 68.6005 14.3118ZM76.8401 16.2125H74.7777C74.7418 16.2141 74.7061 16.2078 74.6729 16.1941C74.6398 16.1804 74.6101 16.1596 74.586 16.1331C74.5619 16.1067 74.544 16.0753 74.5335 16.0412C74.5231 16.0071 74.5203 15.9711 74.5255 15.9359L76.337 4.54279C76.3543 4.46504 76.3976 4.39538 76.4598 4.34515C76.5221 4.29492 76.5996 4.26706 76.6798 4.26613H78.7421C78.778 4.26453 78.8138 4.27082 78.8469 4.28455C78.8801 4.29828 78.9098 4.3191 78.9339 4.34553C78.9579 4.37196 78.9759 4.40334 78.9863 4.43744C78.9968 4.47154 78.9995 4.50752 78.9944 4.54279L77.1829 15.9359C77.1661 16.0141 77.1231 16.0844 77.0608 16.1352C76.9985 16.186 76.9206 16.2142 76.8401 16.2153V16.2125Z" fill="#009EE3"/>
<path fill-rule="evenodd" clip-rule="evenodd" d="M3.51762 1.52588e-05H8.92149C10.4432 1.52588e-05 12.2491 0.0484317 13.4558 1.10668C14.2627 1.81356 14.6863 2.9382 14.5887 4.15C14.2571 8.24603 11.7893 10.541 8.47837 10.541H5.81405C5.35978 10.541 5.06019 10.8398 4.93199 11.6476L4.18787 16.3509C4.1391 16.6553 4.00672 16.8351 3.76983 16.8572H0.435261C0.0659914 16.8572 -0.0649961 16.5806 0.0311534 15.9691L2.42792 0.893643C2.52407 0.287746 2.8599 1.52588e-05 3.51762 1.52588e-05Z" fill="#113984"/>
<path fill-rule="evenodd" clip-rule="evenodd" d="M5.00952 11.1703L5.9529 5.23999C6.03512 4.71986 6.32217 4.47086 6.89349 4.47086H12.2918C13.185 4.47086 13.9082 4.60919 14.474 4.8651C13.9319 8.51156 11.556 10.5367 8.44582 10.5367H5.78569C5.42896 10.5381 5.16698 10.7152 5.00952 11.1703Z" fill="#172C70"/>
</svg>
