<svg width="34" height="10" viewBox="0 0 34 10" fill="none" xmlns="http://www.w3.org/2000/svg">
<path fill-rule="evenodd" clip-rule="evenodd" d="M5.02851 0.740723C6.10132 0.740723 7.09122 1.32791 6.95579 2.79132C6.79163 4.53052 5.8682 5.49288 4.41125 5.49702H3.13816C2.95511 5.49702 2.86647 5.64775 2.81886 5.95667L2.57261 7.53603C2.53568 7.77455 2.41419 7.89215 2.23526 7.89215H1.05081C0.862025 7.89215 0.796359 7.77041 0.838221 7.49793L1.81582 1.16807C1.86425 0.85667 1.97998 0.740723 2.19093 0.740723H5.02604H5.02851ZM3.09958 4.12968H4.06404C4.66735 4.10649 5.0679 3.68494 5.10812 2.92466C5.13275 2.45508 4.81837 2.11883 4.3185 2.12132L3.41067 2.12546L3.09958 4.12968ZM10.1759 7.40766C10.2842 7.30828 10.3942 7.25693 10.3786 7.3795L10.34 7.67268C10.3203 7.82589 10.3802 7.90706 10.5214 7.90706H11.5737C11.751 7.90706 11.8372 7.83501 11.8807 7.55839L12.5292 3.45222C12.562 3.246 12.5119 3.14496 12.3568 3.14496H11.1994C11.0952 3.14496 11.0443 3.20376 11.0172 3.36443L10.9745 3.61703C10.9524 3.74871 10.8924 3.7719 10.8366 3.63939C10.6404 3.17063 10.1397 2.96027 9.44123 2.97684C7.81847 3.01079 6.72432 4.25391 6.60694 5.84735C6.51665 7.0797 7.39164 8.04785 8.54572 8.04785C9.38295 8.04785 9.75725 7.79939 10.1791 7.41014L10.1759 7.40766ZM9.2943 6.77575C8.59579 6.77575 8.10904 6.21341 8.21 5.52435C8.31096 4.8353 8.96433 4.27296 9.66285 4.27296C10.3614 4.27296 10.8481 4.8353 10.7472 5.52435C10.6462 6.21341 9.99364 6.77575 9.2943 6.77575ZM14.5886 3.13171H13.5215C13.3015 3.13171 13.2121 3.29735 13.2818 3.50108L14.6066 7.41511L13.3073 9.27771C13.1981 9.43341 13.2827 9.57503 13.4362 9.57503H14.6354C14.7053 9.58319 14.776 9.57089 14.8392 9.53962C14.9023 9.50834 14.9552 9.4594 14.9916 9.39863L19.0662 3.50191C19.1917 3.32054 19.1326 3.13005 18.9266 3.13005H17.7914C17.5969 3.13005 17.5189 3.2079 17.4073 3.37106L15.7082 5.85563L14.9489 3.36526C14.9046 3.21453 14.7938 3.13171 14.5894 3.13171H14.5886Z" fill="#113984"/>
<path fill-rule="evenodd" clip-rule="evenodd" d="M23.305 0.740916C24.3778 0.740916 25.3677 1.3281 25.2323 2.79152C25.0681 4.53072 24.1447 5.49308 22.6877 5.49722H21.4155C21.2324 5.49722 21.1438 5.64795 21.0962 5.95687L20.8499 7.53623C20.813 7.77475 20.6915 7.89235 20.5125 7.89235H19.3281C19.1393 7.89235 19.0736 7.77061 19.1155 7.49813L20.0947 1.16661C20.1432 0.855205 20.2589 0.739258 20.4699 0.739258H23.305V0.740916ZM21.3761 4.12988H22.3405C22.9438 4.10669 23.3444 3.68514 23.3846 2.92486C23.4092 2.45527 23.0949 2.11903 22.595 2.12151L21.6871 2.12565L21.3761 4.12988ZM28.4524 7.40786C28.5607 7.30848 28.6707 7.25713 28.6551 7.3797L28.6166 7.67288C28.5969 7.8261 28.6568 7.90726 28.7979 7.90726H29.8502C30.0275 7.90726 30.1137 7.83521 30.1572 7.55859L30.8057 3.45242C30.8385 3.2462 30.7885 3.14516 30.6333 3.14516H29.4776C29.3734 3.14516 29.3225 3.20396 29.2954 3.36463L29.2527 3.61722C29.2305 3.74891 29.1706 3.7721 29.1148 3.63959C28.9186 3.17083 28.4179 2.96047 27.7194 2.97703C26.0966 3.01099 25.0025 4.25411 24.8851 5.84755C24.7948 7.0799 25.6698 8.04805 26.8239 8.04805C27.6611 8.04805 28.0354 7.7996 28.4573 7.41035L28.4524 7.40786ZM27.5716 6.77595C26.8731 6.77595 26.3864 6.21361 26.4873 5.52455C26.5883 4.8355 27.2417 4.27315 27.9402 4.27315C28.6387 4.27315 29.1255 4.8355 29.0245 5.52455C28.9235 6.21361 28.2702 6.77595 27.5716 6.77595ZM32.4252 7.91389H31.2104C31.1892 7.91484 31.1681 7.91107 31.1486 7.90286C31.1291 7.89464 31.1116 7.88217 31.0974 7.86635C31.0832 7.85053 31.0727 7.83173 31.0665 7.81132C31.0604 7.7909 31.0587 7.76937 31.0618 7.74825L32.1289 0.927259C32.139 0.880707 32.1645 0.839003 32.2012 0.808929C32.2379 0.778856 32.2835 0.762182 32.3308 0.761621H33.5456C33.5667 0.760667 33.5878 0.764433 33.6073 0.77265C33.6268 0.780868 33.6443 0.793333 33.6585 0.809157C33.6727 0.82498 33.6833 0.843771 33.6894 0.864187C33.6956 0.884602 33.6972 0.90614 33.6942 0.927259L32.6271 7.74825C32.6172 7.7951 32.5919 7.83719 32.5552 7.86759C32.5185 7.89799 32.4726 7.9149 32.4252 7.91554V7.91389Z" fill="#009EE3"/>
</svg>
