<svg width="18" height="18" viewBox="0 0 18 18" fill="none" xmlns="http://www.w3.org/2000/svg">
<g clip-path="url(#clip0)">
<path d="M15.1361 11.263C14.4855 10.6207 13.6733 10.6207 13.0269 11.263C12.5338 11.7519 12.0408 12.2409 11.5559 12.7381C11.4233 12.8749 11.3115 12.9039 11.1499 12.8127C10.8308 12.6387 10.491 12.4978 10.1844 12.3072C8.75484 11.408 7.55733 10.2519 6.49655 8.95083C5.97031 8.30442 5.50208 7.61243 5.17473 6.83343C5.10843 6.67597 5.12086 6.57238 5.24931 6.44392C5.74241 5.9674 6.22307 5.47845 6.70788 4.9895C7.38329 4.30995 7.38329 3.51437 6.70373 2.83066C6.31838 2.44116 5.93302 2.05995 5.54766 1.67044C5.14987 1.27265 4.75622 0.870719 4.35429 0.477072C3.70373 -0.156905 2.89158 -0.156905 2.24517 0.481216C1.74793 0.970166 1.27141 1.47155 0.765889 1.95221C0.297657 2.39558 0.061469 2.9384 0.0117452 3.57238C-0.0669841 4.60414 0.185778 5.5779 0.542132 6.5268C1.27141 8.49088 2.38191 10.2354 3.7286 11.8348C5.54766 13.9978 7.71893 15.7091 10.259 16.9439C11.4026 17.4992 12.5877 17.926 13.8764 17.9964C14.7631 18.0461 15.5338 17.8224 16.1512 17.1304C16.5739 16.658 17.0504 16.2271 17.4979 15.7754C18.1609 15.1041 18.1651 14.292 17.5062 13.629C16.7189 12.8376 15.9275 12.0503 15.1361 11.263Z" fill="#BDBDBD"/>
</g>
<defs>
<clipPath id="clip0">
<rect width="18" height="18" fill="white"/>
</clipPath>
</defs>
</svg>
