<svg width="20" height="24" viewBox="0 0 20 24" fill="none" xmlns="http://www.w3.org/2000/svg">
<g clip-path="url(#clip0)">
<path d="M9.8001 12.2C8.1001 12.2 6.6001 10.9 6.3001 9.19995L5.7001 5.79995C5.6001 5.49995 5.6001 5.19995 5.6001 4.89995C5.6001 2.59995 7.5001 0.699951 9.8001 0.699951C12.1001 0.699951 14.0001 2.59995 14.0001 4.89995C14.0001 5.19995 14.0001 5.49995 13.9001 5.79995L13.3001 9.29995C13.1001 10.9 11.6001 12.2 9.8001 12.2Z" stroke="#898989" stroke-width="1.5" stroke-miterlimit="10" stroke-linecap="round"/>
<path d="M7.00007 13C6.50007 13.6 5.60007 14.1 4.00007 14.7C0.600068 16 0.800068 16.7 0.800068 20.4C3.40007 21.7 6.20007 22.7 9.80007 22.7C13.5001 22.7 16.3001 21.6 18.9001 20.4C18.9001 16.7 19.1001 16 15.7001 14.7C14.1001 14.1 13.2001 13.6 12.7001 13" stroke="#898989" stroke-width="1.5" stroke-miterlimit="10" stroke-linecap="round"/>
</g>
<defs>
<clipPath id="clip0">
<rect width="19.6" height="23.5" fill="white"/>
</clipPath>
</defs>
</svg>
