<svg width="19" height="20" viewBox="0 0 19 20" fill="none" xmlns="http://www.w3.org/2000/svg">
<path fill-rule="evenodd" clip-rule="evenodd" d="M13.433 12.5768L14.3345 13.5225L14.605 13.2388L18.2788 16.3593C18.3013 16.3593 18.3013 16.383 18.3013 16.383C18.3464 16.4066 18.3915 16.4539 18.4366 16.5012C19.2029 17.305 19.2029 18.5816 18.4366 19.3854C17.6702 20.1891 16.4532 20.1891 15.6868 19.3854C15.5967 19.3144 15.5291 19.2199 15.4615 19.1253L12.554 15.3664L12.8245 15.0828L11.9229 14.1371L13.433 12.5768Z" fill="black"/>
<path fill-rule="evenodd" clip-rule="evenodd" d="M7.61803 0C11.8327 0 15.2361 3.56974 15.2361 7.99054C15.2361 12.4113 11.8327 15.9811 7.61803 15.9811C3.40332 15.9811 0 12.4113 0 7.99054C0 3.56974 3.40332 0 7.61803 0ZM7.61803 1.79669C10.8861 1.79669 13.5231 4.58629 13.5231 7.99054C13.5231 11.3948 10.8861 14.1844 7.61803 14.1844C4.34994 14.1844 1.71293 11.4184 1.71293 7.99054C1.71293 4.56265 4.37248 1.79669 7.61803 1.79669Z" fill="black"/>
</svg>
