<svg width="18" height="25" viewBox="0 0 18 25" fill="none" xmlns="http://www.w3.org/2000/svg">
<g clip-path="url(#clip0)">
<path d="M8.60005 0.800049C13 0.800049 16.5 4.30005 16.5 8.60005C16.5 10 16.1 11.4 15.4 12.5C15.2 12.8 15.1 13 14.9 13.3L8.60005 22.7001L2.30005 13.3C2.10005 13.1 1.90005 12.8 1.80005 12.5C1.10005 11.3 0.800049 10 0.800049 8.60005C0.800049 4.30005 4.30005 0.800049 8.60005 0.800049ZM8.60005 5.10005C10.6 5.10005 12.1 6.70005 12.1 8.60005C12.1 10.5 10.5 12.1 8.60005 12.1C6.70005 12.1 5.10005 10.5 5.10005 8.60005C5.10005 6.60005 6.70005 5.10005 8.60005 5.10005Z" stroke="#898989" stroke-width="1.5" stroke-miterlimit="10" stroke-linecap="round"/>
</g>
<defs>
<clipPath id="clip0">
<rect width="17.2" height="24.1" fill="white"/>
</clipPath>
</defs>
</svg>
