<svg width="105" height="56" viewBox="0 0 105 56" fill="none" xmlns="http://www.w3.org/2000/svg">
<path d="M38.9325 53.8462C44.0858 53.8462 48.1656 49.7539 48.1656 44.5847C48.1656 39.6308 44.0858 35.3231 38.9325 35.3231C33.7791 35.3231 29.9141 39.6308 29.9141 44.5847C29.9141 49.7539 33.9938 53.8462 38.9325 53.8462Z" stroke="#898989" stroke-width="3" stroke-miterlimit="10" stroke-linecap="round" stroke-linejoin="round"/>
<path d="M87.4602 53.8462C92.6136 53.8462 96.6933 49.7539 96.6933 44.5847C96.6933 39.6308 92.6136 35.3231 87.4602 35.3231C82.3068 35.3231 78.2271 39.4154 78.2271 44.5847C78.4418 49.7539 82.5215 53.8462 87.4602 53.8462Z" stroke="#898989" stroke-width="3" stroke-miterlimit="10" stroke-linecap="round" stroke-linejoin="round"/>
<path d="M18.9633 33.8154V41.3539C18.9633 43.077 20.4663 44.5847 22.1841 44.5847H29.9142" stroke="#898989" stroke-width="3" stroke-miterlimit="10" stroke-linecap="round" stroke-linejoin="round"/>
<path d="M48.035 45H71.8528V5.27411C71.6382 3.52792 70.3508 2 68.4196 2H22.286C20.3548 2 18.8528 3.52792 18.8528 5.27411V12.9137" stroke="#898989" stroke-width="3" stroke-miterlimit="10" stroke-linecap="round" stroke-linejoin="round"/>
<path d="M97.0403 45H100.485C101.776 45 102.853 43.9118 102.853 42.6059V26.9353L93.1653 8H74.2208C72.9292 8 71.8528 9.08824 71.8528 10.3941V45H78.3111" stroke="#898989" stroke-width="3" stroke-miterlimit="10" stroke-linecap="round" stroke-linejoin="round"/>
<path d="M95.6196 26.7077H85.0981V13.3539" stroke="#898989" stroke-width="3" stroke-miterlimit="10" stroke-linecap="round" stroke-linejoin="round"/>
<path d="M12.3069 18.7385H40.6504" stroke="#898989" stroke-width="3" stroke-miterlimit="10" stroke-linecap="round" stroke-linejoin="round"/>
<path d="M2 28.6461H30.3436" stroke="#898989" stroke-width="3" stroke-miterlimit="10" stroke-linecap="round" stroke-linejoin="round"/>
</svg>
