<svg width="16" height="13" viewBox="0 0 16 13" fill="none" xmlns="http://www.w3.org/2000/svg">
<path d="M15.2935 2.12451C14.738 2.36445 14.1461 2.52349 13.5289 2.60071C14.1638 2.22747 14.6484 1.64096 14.8762 0.934025C14.2843 1.28152 13.6307 1.52697 12.9342 1.66395C12.3721 1.07468 11.571 0.709717 10.6971 0.709717C9.00161 0.709717 7.6366 2.06476 7.6366 3.72593C7.6366 3.96495 7.65714 4.19477 7.70755 4.41356C5.16146 4.29129 2.90854 3.08977 1.39508 1.25946C1.13085 1.71083 0.975865 2.22747 0.975865 2.78365C0.975865 3.82797 1.52206 4.7537 2.33621 5.28965C1.84417 5.28046 1.36147 5.13981 0.952523 4.91826C0.952523 4.92745 0.952523 4.9394 0.952523 4.95135C0.952523 6.41671 2.01409 7.63386 3.40618 7.91424C3.15689 7.98135 2.8852 8.01353 2.60323 8.01353C2.40717 8.01353 2.20923 8.00249 2.02343 7.96205C2.42024 9.15621 3.54623 10.0341 4.8851 10.0626C3.84314 10.8652 2.52014 11.3487 1.0879 11.3487C0.836749 11.3487 0.595865 11.3377 0.35498 11.3074C1.71159 12.1687 3.31935 12.6606 5.05316 12.6606C10.6887 12.6606 13.7698 8.06409 13.7698 4.07986C13.7698 3.94656 13.7651 3.81786 13.7586 3.69008C14.3664 3.26536 14.8771 2.73493 15.2935 2.12451Z" fill="#212121"/>
</svg>
