<svg width="40" height="28" viewBox="0 0 40 28" fill="none" xmlns="http://www.w3.org/2000/svg">
<g clip-path="url(#clip0)">
<path d="M36.2915 28H3.70853C1.66202 28 0 26.3479 0 24.3135V3.68648C0 1.65214 1.66202 0 3.70853 0H36.3039C38.3504 0 40.0124 1.65214 40.0124 3.68648V24.3135C40 26.3479 38.338 28 36.2915 28Z" fill="#0066B2"/>
<path d="M18.3068 18.3831H16.2231L17.5254 10.4307H19.6091L18.3068 18.3831Z" fill="white"/>
<path d="M14.4619 10.4307L12.4774 15.9049L12.2417 14.7213L11.5348 11.1458C11.5348 11.1458 11.448 10.4307 10.5425 10.4307H7.26811L7.2309 10.5663C7.2309 10.5663 8.23555 10.7759 9.41384 11.4787L11.2247 18.3954H13.3952L16.7069 10.443H14.4619V10.4307Z" fill="white"/>
<path d="M30.8587 18.3831H32.7687L31.1067 10.4307H29.4323C28.6633 10.4307 28.4649 11.0225 28.4649 11.0225L25.3517 18.3831H27.5222L27.9563 17.1995H30.6106L30.8587 18.3831ZM28.5641 15.572L29.6556 12.6006L30.2757 15.572H28.5641Z" fill="white"/>
<path d="M25.513 12.3417L25.8107 10.6279C25.8107 10.6279 24.8929 10.2827 23.9378 10.2827C22.9084 10.2827 20.4526 10.7266 20.4526 12.9212C20.4526 14.9802 23.3301 15.0049 23.3301 16.0775C23.3301 17.1502 20.7502 16.9652 19.8944 16.2871L19.5844 18.0749C19.5844 18.0749 20.5146 18.5187 21.9409 18.5187C23.3673 18.5187 25.513 17.7913 25.513 15.7939C25.513 13.7226 22.6107 13.5377 22.6107 12.6376C22.5983 11.7376 24.6324 11.8609 25.513 12.3417Z" fill="white"/>
<path d="M12.2418 14.7213L11.5348 11.1458C11.5348 11.1458 11.448 10.4307 10.5425 10.4307H7.26811L7.2309 10.5663C7.2309 10.5663 8.80609 10.8869 10.3193 12.1075C11.7704 13.2787 12.2418 14.7213 12.2418 14.7213Z" fill="#F9A533"/>
</g>
<defs>
<clipPath id="clip0">
<rect width="40" height="28" fill="white"/>
</clipPath>
</defs>
</svg>
