<svg width="16" height="10" viewBox="0 0 16 10" fill="none" xmlns="http://www.w3.org/2000/svg">
<g clip-path="url(#clip0)">
<path d="M15.6719 8.43515C15.4875 9.04603 14.9469 9.52859 14.2625 9.69317C13.0094 10 8 10 8 10C8 10 2.99062 10 1.74063 9.70711C1.06875 9.54254 0.515625 9.04881 0.33125 8.43794C0 7.3166 0 5.0014 0 5.0014C0 5.0014 0 2.67225 0.328125 1.56764C0.5125 0.956766 1.05312 0.474199 1.7375 0.309625C3.00312 0.00279045 7.99687 0.00279045 7.99687 0.00279045C7.99687 0.00279045 13.0063 0.00279045 14.2563 0.295678C14.9406 0.460253 15.4812 0.942819 15.6656 1.5537C16 2.67225 16 4.98745 16 4.98745C16 4.98745 16.0125 7.3166 15.6719 8.43515ZM6.40625 2.85914V7.14087L10.5719 4.99861L6.40625 2.85914Z" fill="#212121"/>
</g>
<defs>
<clipPath id="clip0">
<rect width="16" height="10" fill="white" transform="matrix(1 0 0 -1 0 10)"/>
</clipPath>
</defs>
</svg>
