<svg width="96" height="80" viewBox="0 0 96 80" fill="none" xmlns="http://www.w3.org/2000/svg">
<g clip-path="url(#clip0)">
<path fill-rule="evenodd" clip-rule="evenodd" d="M55.3066 80C77.2939 80 95.3911 62.0719 95.3911 39.9154C95.222 17.9281 77.2939 0 55.3066 0C33.3192 0 15.222 17.9281 15.222 40.0846C15.222 62.0719 33.1501 80 55.3066 80Z" fill="#E6E6E6"/>
<path fill-rule="evenodd" clip-rule="evenodd" d="M14.5455 43.6364C14.2072 50.5708 27.5687 63.9323 34.5032 63.5941C33.9958 62.4101 34.3341 60.888 35.3489 59.8731L40.4229 54.7992C41.7759 53.4461 43.9747 53.4461 45.3277 54.7992L55.4757 64.9471C56.8288 66.3002 56.8288 68.4989 55.4757 69.852L51.7548 73.5729C35.518 89.8097 -11.8393 42.6216 4.56663 26.2156L8.28756 22.4947C9.64063 21.1417 11.8394 21.1417 13.1924 22.4947L23.3404 32.6427C24.6935 33.9958 24.6935 36.1945 23.3404 37.5476L18.2664 42.6216C17.2516 43.9746 15.8986 44.1438 14.5455 43.6364Z" fill="white" stroke="#333333" stroke-width="2" stroke-miterlimit="10"/>
<path fill-rule="evenodd" clip-rule="evenodd" d="M67.4842 31.1205L50.2326 42.2833V31.1205H37.7167C34.1649 31.1205 31.1205 28.0761 31.1205 24.5243V8.79493C31.1205 5.24313 33.9958 2.19873 37.7167 2.19873H78.647C82.1988 2.19873 85.2432 5.24313 85.2432 8.79493V24.5243C85.2432 28.0761 82.1988 31.1205 78.647 31.1205H67.4842Z" fill="white" stroke="#333333" stroke-width="2" stroke-miterlimit="10"/>
<path fill-rule="evenodd" clip-rule="evenodd" d="M43.129 12.5159C45.4968 12.5159 47.3573 14.3763 47.3573 16.7442C47.3573 19.112 45.4968 20.9725 43.129 20.9725C40.7611 20.9725 38.9006 19.112 38.9006 16.7442C38.9006 14.3763 40.7611 12.5159 43.129 12.5159ZM58.0127 12.5159C60.3805 12.5159 62.241 14.3763 62.241 16.7442C62.241 19.112 60.3805 20.9725 58.0127 20.9725C55.6448 20.9725 53.7844 19.112 53.7844 16.7442C53.7844 14.3763 55.814 12.5159 58.0127 12.5159ZM73.0655 12.5159C75.4334 12.5159 77.2939 14.3763 77.2939 16.7442C77.2939 19.112 75.4334 20.9725 73.0655 20.9725C70.6977 20.9725 68.8372 19.112 68.8372 16.7442C68.8372 14.3763 70.6977 12.5159 73.0655 12.5159Z" fill="#FF5722" stroke="#333333" stroke-width="2" stroke-miterlimit="10"/>
</g>
<defs>
<clipPath id="clip0">
<rect width="95.222" height="80" fill="white"/>
</clipPath>
</defs>
</svg>
