<svg width="101" height="80" viewBox="0 0 101 80" fill="none" xmlns="http://www.w3.org/2000/svg">
<g clip-path="url(#clip0)">
<path fill-rule="evenodd" clip-rule="evenodd" d="M60.9835 80C82.8837 80 100.909 62.0719 100.909 39.9154C100.741 17.9281 82.8837 0 60.9835 0C39.0834 0 21.0579 17.9281 21.0579 40.0846C21.0579 62.0719 38.9149 80 60.9835 80Z" fill="#E6E6E6"/>
<path fill-rule="evenodd" clip-rule="evenodd" d="M53.5711 26.2156V18.6047C53.5711 16.9133 52.2234 15.5603 50.5388 15.5603H4.21153C2.5269 15.5603 1.1792 16.9133 1.1792 18.6047V57.5053C1.1792 59.1966 2.5269 60.5497 4.21153 60.5497H11.7924C11.7924 64.4397 14.9931 67.6533 18.8678 67.6533C22.7424 67.6533 25.9432 64.4397 25.9432 60.5497H53.5711H59.9727C59.9727 64.4397 63.1735 67.6533 67.0481 67.6533C70.9228 67.6533 74.1236 64.4397 74.1236 60.5497H80.5252V44.3129L69.4066 26.3848H53.5711V26.2156Z" fill="white" stroke="#333333" stroke-width="1.5" stroke-miterlimit="10"/>
<path fill-rule="evenodd" clip-rule="evenodd" d="M1.34766 46.5116H53.7396V26.2156V18.6047C53.7396 16.9133 52.3919 15.5603 50.7073 15.5603H4.21153C2.5269 15.5603 1.1792 16.9133 1.1792 18.6047V46.5116H1.34766Z" fill="white" stroke="#333333" stroke-width="1.5" stroke-miterlimit="10"/>
<path d="M11.7924 60.3806H4.21153C2.5269 60.3806 1.1792 59.0275 1.1792 57.3362V18.6047C1.1792 16.9133 2.5269 15.5603 4.21153 15.5603H50.5388C52.2234 15.5603 53.5711 16.9133 53.5711 18.6047V60.3806H25.9432" fill="white"/>
<path d="M11.7924 60.3806H4.21153C2.5269 60.3806 1.1792 59.0275 1.1792 57.3362V18.6047C1.1792 16.9133 2.5269 15.5603 4.21153 15.5603H50.5388C52.2234 15.5603 53.5711 16.9133 53.5711 18.6047V60.3806H25.9432" stroke="#333333" stroke-width="2" stroke-miterlimit="10"/>
<path d="M1.34775 46.5116H53.5712" stroke="#333333" stroke-width="2" stroke-miterlimit="10"/>
<path d="M80.6937 44.9894H61.3205C60.4782 44.9894 59.6359 44.1438 59.6359 43.2981V34.5032C59.6359 33.4884 60.4782 32.8118 61.3205 32.8118H73.6183" fill="#FF5722"/>
<path d="M80.6937 44.9894H61.3205C60.4782 44.9894 59.6359 44.1438 59.6359 43.2981V34.5032C59.6359 33.4884 60.4782 32.8118 61.3205 32.8118H73.6183" stroke="#333333" stroke-width="2" stroke-miterlimit="10"/>
<path d="M18.8678 67.4841C22.7425 67.4841 25.9433 64.2706 25.9433 60.3806C25.9433 56.4905 22.7425 53.277 18.8678 53.277C14.9932 53.277 11.7924 56.4905 11.7924 60.3806C11.7924 64.2706 14.9932 67.4841 18.8678 67.4841Z" fill="white" stroke="#333333" stroke-width="2" stroke-miterlimit="10"/>
<path d="M67.0482 67.4841C70.9228 67.4841 74.1236 64.2706 74.1236 60.3806C74.1236 56.4905 70.9228 53.277 67.0482 53.277C63.1735 53.277 59.9727 56.4905 59.9727 60.3806C59.9727 64.2706 63.1735 67.4841 67.0482 67.4841Z" fill="white" stroke="#333333" stroke-width="2" stroke-miterlimit="10"/>
<path d="M80.6937 53.277H77.4929" stroke="#333333" stroke-width="2" stroke-miterlimit="10"/>
<path d="M53.5712 26.2157H69.5751L80.6937 44.1438V60.3806H74.2921M59.9728 60.3806H53.5712H59.9728Z" stroke="#333333" stroke-width="2" stroke-miterlimit="10"/>
</g>
<defs>
<clipPath id="clip0">
<rect width="100.741" height="80" fill="white"/>
</clipPath>
</defs>
</svg>
