<svg width="28" height="28" viewBox="0 0 28 28" fill="none" xmlns="http://www.w3.org/2000/svg">
<path d="M25.7464 18.8368C24.4377 21.2821 22.2476 23.0556 19.6035 23.8349C18.6421 24.1305 17.6539 24.2649 16.6924 24.2649C15.2235 24.2649 13.8347 23.9424 12.526 23.3781C12.98 23.4587 13.434 23.4856 13.9148 23.4856C14.8228 23.4856 15.7042 23.3512 16.5856 23.0825C18.9893 22.357 20.9924 20.7447 22.1942 18.5144C23.3961 16.2841 23.6631 13.7313 22.9687 11.286C21.7936 7.28214 18.0812 4.48751 13.9415 4.48751C13.1937 4.48751 12.4458 4.595 11.698 4.7831C12.339 4.4069 13.0334 4.11131 13.7812 3.89634C14.7427 3.60076 15.7309 3.4664 16.7191 3.4664C21.2594 3.4664 25.319 6.52974 26.601 10.9098C27.3755 13.5969 27.0817 16.4184 25.7464 18.8368Z" fill="#B42025"/>
<path d="M4.22018 17.6008C2.19039 10.6679 6.14314 3.3858 13.0338 1.34357C14.2356 0.994242 15.4909 0.806142 16.7194 0.806142C17.5207 0.806142 18.3219 0.886756 19.0964 1.04798C17.4673 0.3762 15.7313 0 13.9151 0C12.5797 0 11.271 0.1881 9.96236 0.564299C6.41022 1.63916 3.47236 4.03071 1.70964 7.30902C-0.0530723 10.5873 -0.480398 14.3762 0.587915 17.9501C2.32392 23.8618 7.79903 28 13.9151 28C15.2505 28 16.5592 27.8119 17.8412 27.4357C18.6424 27.1939 19.4169 26.8714 20.1648 26.4952C19.0163 26.8177 17.8412 26.9789 16.666 26.9789C10.9506 26.9789 5.82265 23.1094 4.22018 17.6008Z" fill="#B42025"/>
<path d="M14.075 20.8791C17.8364 20.8791 20.8855 17.8113 20.8855 14.0269C20.8855 10.2425 17.8364 7.17468 14.075 7.17468C10.3137 7.17468 7.26453 10.2425 7.26453 14.0269C7.26453 17.8113 10.3137 20.8791 14.075 20.8791Z" fill="#B42025"/>
</svg>
