<svg width="136" height="37" viewBox="0 0 136 37" fill="none" xmlns="http://www.w3.org/2000/svg">
<g clip-path="url(#clip0)">
<path d="M12.8665 10.1885C10.255 10.1885 7.62892 10.1885 5.01749 10.1885C4.25459 10.1885 3.66776 10.7761 3.66776 11.5069C3.66776 12.2234 4.23992 12.7966 4.98814 12.8109C5.09084 12.8109 5.19354 12.8109 5.29623 12.8109C10.167 12.8109 15.0378 12.8109 19.9085 12.8109C20.5541 12.8109 21.1849 12.8539 21.7864 13.0975C22.52 13.3841 22.9601 13.9 23.1215 14.6452C23.2682 15.2757 23.1948 15.9062 23.0188 16.5224C22.8281 17.2246 22.608 17.9124 22.3879 18.6002C21.0382 22.8132 19.6885 27.0406 18.3387 31.2536C18.0893 32.0274 17.7226 32.7296 17.1357 33.3171C16.2555 34.2056 15.1991 34.6068 13.9374 34.2772C12.5144 33.919 11.7955 32.8586 11.9569 31.4256C12.0302 30.795 12.2649 30.2218 12.5437 29.6486C13.9228 26.9976 15.2872 24.3466 16.6662 21.6955C16.813 21.4089 16.9303 21.1223 17.0183 20.807C17.2237 20.0189 16.8716 19.4027 16.1087 19.1161C15.9474 19.0588 15.786 19.0158 15.6246 18.9871C15.3165 18.9585 14.9938 18.9298 14.6857 18.9298C12.1769 18.9298 9.65352 18.9298 7.14478 18.9298C7.05675 18.9298 6.95405 18.9298 6.86603 18.9298C6.3232 18.9585 5.94176 19.2308 5.70702 19.7036C5.31091 20.5348 5.91242 21.5235 6.86603 21.5522C7.55556 21.5665 8.25977 21.5522 8.94931 21.5665C9.22806 21.5665 9.5068 21.5809 9.78555 21.6095C11.1793 21.7672 12.0742 22.7846 12.0155 24.1603C12.0009 24.6045 11.8835 25.0344 11.7515 25.4643C11.194 27.2125 10.6511 28.9608 10.0936 30.7091C9.94694 31.182 9.80022 31.6692 9.75621 32.1564C9.62417 33.6754 10.0936 34.9507 11.3553 35.8965C11.7955 36.2261 12.2943 36.4697 12.8224 36.6703C13.5707 36.9569 14.3482 37.0142 15.1405 37.0142C15.83 37.0142 16.4902 36.8853 17.121 36.6273C18.9256 35.9108 20.1139 34.6211 20.7008 32.8156C22.2852 27.8717 23.8697 22.9279 25.4542 17.984C25.7916 16.938 26.0117 15.8775 25.9383 14.7741C25.8063 12.8969 24.8673 11.5356 23.1068 10.7331C22.2119 10.3318 21.2436 10.1885 20.2606 10.1885C17.7812 10.1885 15.3165 10.1885 12.8665 10.1885Z" fill="white"/>
<path d="M101.993 14.459C101.963 14.545 101.934 14.6309 101.905 14.7169C101.23 16.8521 100.54 18.9872 99.8654 21.1224C99.836 21.2227 99.792 21.3374 99.7333 21.4233C99.572 21.6383 99.3519 21.6096 99.2492 21.366C99.2199 21.2944 99.2052 21.2227 99.1758 21.1654C98.6477 19.4888 98.1049 17.8122 97.5767 16.1356C97.4153 15.6197 97.1219 15.2041 96.6818 14.8889C95.4054 13.9574 93.2488 14.5736 92.794 16.1356C92.2952 17.8265 91.723 19.5031 91.1802 21.1941C91.1655 21.2514 91.1361 21.3087 91.1215 21.3804C91.0775 21.495 91.0041 21.5666 90.8721 21.5666C90.7254 21.5666 90.652 21.495 90.608 21.366C90.5933 21.3087 90.564 21.2514 90.5493 21.1797C89.8598 19.0302 89.1702 16.8807 88.4807 14.7312C88.4513 14.6453 88.4073 14.545 88.378 14.4733C87.6298 14.416 84.3435 14.4446 84.1234 14.5163C84.1528 14.6023 84.1674 14.6883 84.1968 14.7742C85.1944 17.8982 86.2067 21.0221 87.2043 24.1604C87.395 24.7336 87.7471 25.1491 88.29 25.4071C89.4343 25.9516 90.5786 25.9373 91.723 25.4071C92.2511 25.1491 92.6032 24.7479 92.7793 24.1747C93.1461 22.9567 93.5569 21.7529 93.9383 20.5492C93.997 20.3486 94.0263 20.1193 94.3198 20.1193C94.6132 20.1193 94.6572 20.3629 94.7159 20.5635C95.0973 21.7673 95.4934 22.9567 95.8602 24.1747C96.0363 24.7622 96.4177 25.1635 96.9605 25.4357C97.3713 25.6507 97.8261 25.7653 98.2956 25.8083C99.0878 25.8656 99.836 25.7367 100.511 25.3498C100.951 25.0918 101.244 24.7336 101.406 24.2464C102.403 21.0938 103.43 17.9412 104.443 14.7886C104.472 14.7026 104.487 14.6166 104.531 14.5163C103.665 14.459 102.844 14.459 101.993 14.459Z" fill="white"/>
<path d="M79.7221 14.4589C79.6194 14.4589 79.5314 14.4446 79.458 14.4446C76.5092 14.4446 73.5603 14.4446 70.6114 14.4446C69.8192 14.4446 69.0563 14.5592 68.3374 14.9031C67.0317 15.505 66.2541 16.4938 66.1954 17.9268C66.1514 19.3311 66.1661 20.7354 66.1954 22.1398C66.2101 23.1285 66.6062 23.974 67.4278 24.5902C67.7652 24.8481 68.1467 25.0344 68.5428 25.1921C69.4377 25.536 70.3913 25.665 71.345 25.7223C73.0468 25.8226 74.7633 25.8226 76.4505 25.622C77.4334 25.5073 78.387 25.321 79.3113 24.9771C79.8835 24.7622 80.4263 24.4899 80.8811 24.0743C81.2919 23.6874 81.512 23.2289 81.4973 22.67C81.4826 21.9965 81.4973 21.3086 81.4973 20.6351C81.4973 20.4632 81.4826 20.2912 81.4386 20.1193C81.2626 19.4457 80.6611 19.0015 79.9128 18.9872C78.2257 18.9872 76.5385 18.9872 74.8513 18.9872C74.7926 18.9872 74.734 19.0015 74.6606 19.0015C74.6606 19.6034 74.6606 20.1909 74.6606 20.7928C74.7486 20.8071 74.822 20.8071 74.8953 20.8071C75.2474 20.8071 75.5996 20.8071 75.9517 20.8071C76.4798 20.8071 76.7439 21.065 76.7439 21.5666C76.7439 21.9392 76.7439 22.3117 76.7439 22.6843C76.7439 23.0856 76.5678 23.3722 76.2157 23.5728C75.9223 23.7447 75.5996 23.8307 75.2621 23.8737C74.4259 23.9883 73.575 23.9454 72.7387 23.9167C72.5186 23.9024 72.2839 23.8307 72.0785 23.7447C71.5063 23.4868 71.1836 23.0426 71.1836 22.412C71.1689 20.8071 71.1836 19.2021 71.1836 17.5972C71.1836 17.0096 71.521 16.5368 72.0932 16.3648C72.3573 16.2931 72.636 16.2502 72.9148 16.2502C75.0714 16.2358 77.2134 16.2502 79.37 16.2502C79.4727 16.2502 79.5901 16.2502 79.7074 16.2502C79.7221 15.6626 79.7221 15.0751 79.7221 14.4589Z" fill="white"/>
<path d="M30.9851 25.1491C31.0585 25.1634 31.1172 25.1921 31.1758 25.2064C32.4522 25.5217 33.7433 25.6506 35.049 25.7223C36.7068 25.8226 38.3646 25.8226 40.0224 25.622C41.0054 25.5073 41.9884 25.321 42.9126 24.9771C43.5141 24.7622 44.0863 24.4756 44.5558 24.0457C44.8199 23.8021 45.0252 23.5011 45.1133 23.1572C45.2453 22.6127 45.0839 22.1111 44.7758 21.6669C44.5264 21.2943 44.189 20.9934 43.8076 20.7354C43.1767 20.2912 42.4725 19.9473 41.7683 19.6464C40.888 19.2738 40.0078 18.9442 39.1275 18.5573C38.658 18.3567 38.2179 18.1274 37.7631 17.8694C37.5871 17.7691 37.4257 17.6115 37.2936 17.4539C37.0589 17.1673 37.1323 16.7804 37.4403 16.5654C37.5724 16.4794 37.7191 16.4078 37.8658 16.3791C38.1592 16.3218 38.4673 16.2788 38.7754 16.2788C40.5506 16.2645 42.3405 16.2788 44.1157 16.2788C44.2183 16.2788 44.3357 16.2788 44.4531 16.2788C44.4531 15.6626 44.4531 15.0751 44.4531 14.4446C44.321 14.4446 44.2183 14.4446 44.101 14.4446C42.1057 14.4446 40.1105 14.4446 38.1152 14.4446C37.1909 14.4446 36.2813 14.4732 35.3717 14.5879C34.4621 14.7025 33.5672 14.8888 32.7016 15.2327C32.2321 15.419 31.8067 15.6626 31.4546 16.0209C31.0291 16.4508 30.8677 16.9667 30.9704 17.5399C31.0291 17.9698 31.2492 18.328 31.5279 18.6433C31.9094 19.0875 32.3935 19.4028 32.907 19.6894C33.7286 20.1479 34.6088 20.4918 35.4891 20.8214C36.2813 21.1224 37.0736 21.4233 37.8658 21.7529C38.1739 21.8818 38.4673 22.0538 38.7167 22.2544C39.1422 22.584 39.1422 23.0139 38.7314 23.3578C38.5553 23.5011 38.3353 23.6158 38.1005 23.7017C37.6898 23.8594 37.235 23.9167 36.7948 23.931C34.9756 23.974 33.1858 23.8164 31.4106 23.4581C31.2639 23.4295 31.1318 23.4151 30.9704 23.3865C30.9851 24.0027 30.9851 24.5615 30.9851 25.1491Z" fill="white"/>
<path d="M62.8212 23.4295C62.7185 23.4439 62.6451 23.4582 62.5717 23.4725C62.0436 23.5585 61.5154 23.6588 60.9726 23.7161C59.2414 23.9024 57.4956 23.9597 55.7497 23.9454C55.5443 23.9454 55.3389 23.9311 55.1482 23.8738C54.4587 23.7161 53.8718 23.2002 53.8718 22.3404C53.8718 22.0825 53.8718 21.8102 53.8718 21.5523C53.8865 21.0651 54.1359 20.8215 54.6347 20.8071C54.7228 20.8071 54.7961 20.8071 54.8841 20.8071C56.806 20.8071 58.7279 20.8071 60.6498 20.8071C60.7672 20.8071 60.8846 20.8071 61.0166 20.8071C61.0166 20.1909 61.0166 19.6034 61.0166 18.9872C60.8993 18.9872 60.7819 18.9872 60.6792 18.9872C59.0507 18.9872 57.4076 18.9872 55.7791 18.9872C55.383 18.9872 55.0015 18.9872 54.6054 18.9872C54.1653 18.9729 53.9012 18.7293 53.8718 18.2994C53.8572 18.0415 53.8572 17.7692 53.8865 17.5112C53.9305 16.938 54.2533 16.5511 54.8108 16.3792C55.0749 16.2932 55.3683 16.2645 55.6617 16.2645C57.7156 16.2502 59.7696 16.2645 61.8089 16.2645C61.9115 16.2645 62.0289 16.2645 62.1316 16.2645C62.1903 15.8776 62.1756 14.6452 62.1023 14.4303C62.0289 14.4303 61.9409 14.4303 61.8675 14.4303C59.0067 14.4303 56.1312 14.4303 53.2703 14.4303C52.7422 14.4303 52.214 14.4876 51.7005 14.6309C51.0403 14.8172 50.4388 15.1181 49.94 15.5767C49.2211 16.2359 48.869 17.067 48.8544 18.0271C48.8397 19.3455 48.8544 20.6782 48.8544 21.9965C48.8544 22.1828 48.869 22.3834 48.8984 22.5697C49.0157 23.3292 49.3532 23.9741 49.9694 24.4899C50.5269 24.9628 51.2017 25.2351 51.9059 25.4214C52.9182 25.6793 53.9452 25.7796 54.9868 25.7796C56.0431 25.794 57.0995 25.7653 58.1558 25.7367C59.3735 25.708 60.6058 25.6077 61.8089 25.4071C62.1463 25.3497 62.4691 25.2638 62.8065 25.2064C62.8212 24.5903 62.8212 24.0314 62.8212 23.4295Z" fill="white"/>
<path d="M121.124 14.459C121.212 14.5879 121.256 14.6596 121.314 14.7312C122.195 15.9636 123.075 17.196 123.955 18.4284C124.571 19.3025 125.187 20.1623 125.818 21.0364C126.082 21.3947 126.214 21.7672 126.2 22.2258C126.17 23.0283 126.185 23.8164 126.2 24.6189C126.2 25.1205 126.493 25.4787 126.992 25.6077C128.004 25.8656 129.031 25.8656 130.044 25.622C130.674 25.4787 130.938 25.1491 130.938 24.5186C130.938 23.7448 130.953 22.9566 130.938 22.1828C130.924 21.7386 131.07 21.366 131.32 21.0221C132.846 18.9012 134.371 16.7804 135.897 14.6596C135.941 14.6023 135.971 14.5449 136.015 14.4446C135.883 14.4446 135.795 14.4446 135.707 14.4446C134.914 14.4446 134.107 14.459 133.315 14.4446C133.11 14.4446 132.978 14.5019 132.86 14.6739C131.965 15.9636 131.056 17.239 130.146 18.5287C130.088 18.6146 130.029 18.715 129.941 18.7866C129.662 19.0732 129.237 19.0732 128.958 18.7866C128.884 18.715 128.826 18.629 128.782 18.543C127.858 17.2533 126.948 15.9779 126.038 14.6739C125.921 14.5019 125.804 14.4303 125.584 14.4303C124.204 14.4446 122.825 14.4303 121.432 14.4303C121.344 14.459 121.256 14.459 121.124 14.459Z" fill="white"/>
<path d="M24.0897 -4.46768e-05C21.6397 -0.0143747 19.6004 1.96316 19.5711 4.35627C19.5417 6.7637 21.5076 8.84155 24.0897 8.85588C26.5691 8.87021 28.6377 6.87834 28.6377 4.47091C28.6377 1.99182 26.6278 0.0142853 24.0897 -4.46768e-05Z" fill="white"/>
<path d="M9.74182 17.196C12.4853 17.196 15.2141 17.196 17.9576 17.196C18.0749 17.196 18.1776 17.196 18.295 17.196C18.9552 17.153 19.4687 16.6658 19.542 16.0209C19.6154 15.4191 19.2193 14.8172 18.6178 14.6453C18.4417 14.5879 18.2363 14.5736 18.0456 14.5736C12.544 14.5736 7.04236 14.5736 1.54074 14.5736C1.37936 14.5736 1.21798 14.5879 1.07127 14.6166C0.132325 14.8029 -0.293133 15.935 0.279035 16.6658C0.587126 17.0527 0.997913 17.2103 1.49673 17.2103C4.22553 17.196 6.98367 17.196 9.74182 17.196Z" fill="white"/>
<path d="M12.8665 10.1886C15.3312 10.1886 17.7812 10.1886 20.246 10.1886C21.2289 10.1886 22.1972 10.3319 23.0921 10.7331C24.8526 11.5356 25.7916 12.8969 25.9236 14.7742C25.997 15.8776 25.7769 16.938 25.4395 17.9841C23.855 22.9279 22.2705 27.8718 20.6861 32.8156C20.0992 34.6212 18.9109 35.9109 17.1064 36.6274C16.4755 36.8853 15.8153 37 15.1258 37.0143C14.3335 37.0286 13.556 36.957 12.8078 36.6704C12.2796 36.4697 11.7808 36.2405 11.3407 35.8965C10.079 34.9508 9.62417 33.6754 9.74153 32.1564C9.78555 31.6549 9.93225 31.182 10.079 30.7091C10.6365 28.9608 11.194 27.2126 11.7368 25.4643C11.8688 25.0344 11.9862 24.6045 12.0009 24.1603C12.0595 22.7846 11.1793 21.7672 9.77087 21.6096C9.49213 21.5809 9.21338 21.5666 8.93463 21.5666C8.24509 21.5522 7.54089 21.5809 6.85135 21.5522C5.89774 21.5236 5.29623 20.5491 5.69234 19.7037C5.91241 19.2308 6.30852 18.9728 6.85135 18.9298C6.93938 18.9298 7.04207 18.9298 7.1301 18.9298C9.63884 18.9298 12.1622 18.9298 14.671 18.9298C14.9791 18.9298 15.3018 18.9585 15.6099 18.9872C15.7713 19.0015 15.9327 19.0588 16.0941 19.1161C16.857 19.4027 17.2091 20.0333 17.0037 20.8071C16.9303 21.108 16.7983 21.4089 16.6516 21.6955C15.2872 24.3466 13.9081 26.9976 12.529 29.6487C12.2356 30.2075 12.0155 30.7951 11.9422 31.4256C11.7661 32.8586 12.485 33.9047 13.9228 34.2773C15.1845 34.6068 16.2408 34.2056 17.121 33.3172C17.7079 32.7296 18.0746 32.0275 18.3241 31.2536C19.6738 27.0406 21.0235 22.8133 22.3732 18.6003C22.5933 17.9124 22.8134 17.2103 23.0041 16.5224C23.1802 15.9062 23.2388 15.2757 23.1068 14.6452C22.9454 13.9 22.4906 13.3841 21.7717 13.0975C21.1702 12.8683 20.5247 12.8109 19.8939 12.8109C15.0231 12.8109 10.1523 12.8109 5.28156 12.8109C5.17886 12.8109 5.07616 12.8109 4.97346 12.8109C4.22524 12.7823 3.65308 12.2234 3.65308 11.5069C3.65308 10.7904 4.23992 10.1886 5.00281 10.1886C7.62891 10.1742 10.255 10.1886 12.8665 10.1886Z" fill="black"/>
<path d="M101.993 14.459C102.829 14.459 103.665 14.459 104.516 14.459C104.487 14.5736 104.457 14.6453 104.428 14.7313C103.416 17.8838 102.403 21.0364 101.391 24.189C101.23 24.6763 100.936 25.0345 100.496 25.2924C99.8067 25.6793 99.0584 25.8226 98.2809 25.751C97.8114 25.708 97.3713 25.5934 96.9458 25.3784C96.403 25.1062 96.0215 24.7049 95.8455 24.1174C95.4787 22.9137 95.0826 21.7099 94.7012 20.5062C94.6425 20.3056 94.5985 20.062 94.305 20.062C94.0263 20.062 93.9969 20.3056 93.9236 20.4919C93.5275 21.6956 93.1314 22.9137 92.7646 24.1174C92.5885 24.6906 92.2364 25.0918 91.7083 25.3498C90.5639 25.8943 89.4196 25.9086 88.2753 25.3498C87.7324 25.0918 87.3803 24.6763 87.1896 24.1031C86.192 20.9791 85.1797 17.8409 84.1821 14.7169C84.1527 14.6309 84.138 14.545 84.1087 14.459C84.3288 14.3873 87.6151 14.3587 88.3633 14.416C88.3926 14.502 88.4366 14.588 88.466 14.6739C89.1555 16.8234 89.8451 18.9729 90.5346 21.1224C90.5493 21.1797 90.5786 21.2371 90.5933 21.3087C90.6373 21.4377 90.7106 21.5093 90.8574 21.5093C90.9894 21.5093 91.0627 21.4377 91.1068 21.323C91.1361 21.2657 91.1508 21.2084 91.1654 21.1367C91.7083 19.4458 92.2804 17.7835 92.7793 16.0783C93.2341 14.502 95.3907 13.9001 96.6671 14.8316C97.1072 15.1468 97.4006 15.5624 97.562 16.0783C98.0901 17.7549 98.633 19.4315 99.1611 21.1081C99.1905 21.1797 99.2051 21.2514 99.2345 21.3087C99.3372 21.5523 99.5719 21.581 99.7186 21.366C99.7773 21.28 99.8213 21.1797 99.8507 21.0651C100.54 18.9299 101.215 16.7948 101.89 14.6596C101.934 14.6453 101.963 14.5593 101.993 14.459Z" fill="black"/>
<path d="M79.7221 14.459C79.7221 15.0752 79.7221 15.6627 79.7221 16.2789C79.5901 16.2789 79.4874 16.2789 79.3847 16.2789C77.2281 16.2789 75.0861 16.2789 72.9295 16.2789C72.6507 16.2789 72.372 16.3219 72.1079 16.3935C71.5357 16.5655 71.1983 17.0384 71.1983 17.6259C71.1983 19.2309 71.1836 20.8358 71.1983 22.4408C71.1983 23.0713 71.5357 23.5012 72.0932 23.7735C72.2986 23.8738 72.5333 23.9454 72.7534 23.9454C73.5897 23.9741 74.4406 24.0171 75.2768 23.9024C75.6143 23.8594 75.937 23.7735 76.2304 23.6015C76.5825 23.4009 76.7586 23.1143 76.7586 22.713C76.7586 22.3405 76.7586 21.9679 76.7586 21.5953C76.7586 21.0794 76.4945 20.8358 75.9664 20.8358C75.6143 20.8358 75.2622 20.8358 74.9101 20.8358C74.8367 20.8358 74.7633 20.8215 74.6753 20.8215C74.6753 20.2196 74.6753 19.6321 74.6753 19.0302C74.7487 19.0302 74.8074 19.0159 74.866 19.0159C76.5532 19.0159 78.2404 19.0159 79.9275 19.0159C80.6757 19.0159 81.2626 19.4601 81.4533 20.148C81.4973 20.3056 81.512 20.4919 81.512 20.6638C81.512 21.3374 81.512 22.0252 81.512 22.6987C81.5267 23.2576 81.3066 23.7161 80.8958 24.103C80.441 24.5186 79.8982 24.7909 79.326 25.0058C78.4017 25.3498 77.4335 25.536 76.4652 25.6507C74.7633 25.8513 73.0615 25.8513 71.3597 25.751C70.4061 25.6937 69.4671 25.5504 68.5575 25.2208C68.1614 25.0632 67.78 24.8769 67.4425 24.6189C66.6209 24.0027 66.2248 23.1573 66.2102 22.1685C66.1808 20.7642 66.1661 19.3598 66.2102 17.9555C66.2542 16.5225 67.0464 15.5337 68.3521 14.9319C69.071 14.6023 69.8339 14.4733 70.6261 14.4733C73.575 14.4733 76.5239 14.4733 79.4727 14.4733C79.5314 14.4446 79.6048 14.459 79.7221 14.459Z" fill="black"/>
<path d="M30.9851 25.1492C30.9851 24.576 30.9851 24.0028 30.9851 23.4009C31.1465 23.4296 31.2785 23.4439 31.4253 23.4725C33.2004 23.8308 35.005 23.9884 36.8095 23.9454C37.2496 23.9311 37.7044 23.8881 38.1152 23.7162C38.3353 23.6302 38.5553 23.5155 38.7461 23.3722C39.1569 23.0283 39.1569 22.5984 38.7314 22.2688C38.4673 22.0682 38.1739 21.8962 37.8805 21.7673C37.1029 21.4377 36.296 21.1368 35.5038 20.8358C34.6235 20.5062 33.7433 20.1623 32.9217 19.7038C32.4082 19.4172 31.9387 19.0876 31.5426 18.6577C31.2639 18.3424 31.0438 17.9698 30.9851 17.5543C30.8971 16.9667 31.0585 16.4652 31.4693 16.0353C31.8214 15.677 32.2615 15.4334 32.7163 15.2471C33.5672 14.9032 34.4621 14.7169 35.3864 14.6023C36.296 14.4876 37.2203 14.459 38.1299 14.459C40.1251 14.459 42.1204 14.459 44.1156 14.459C44.2183 14.459 44.3357 14.459 44.4678 14.459C44.4678 15.0752 44.4678 15.6627 44.4678 16.2932C44.3504 16.2932 44.233 16.2932 44.1303 16.2932C42.3551 16.2932 40.5653 16.2932 38.7901 16.2932C38.482 16.2932 38.1739 16.3362 37.8805 16.3935C37.7338 16.4222 37.5871 16.4938 37.455 16.5798C37.1469 16.7948 37.0736 17.1674 37.3083 17.4683C37.4404 17.6259 37.6017 17.7835 37.7778 17.8839C38.2179 18.1275 38.6727 18.3711 39.1422 18.5717C40.0224 18.9443 40.9027 19.2882 41.783 19.6608C42.5018 19.9617 43.1914 20.3056 43.8222 20.7498C44.189 21.0078 44.5264 21.3087 44.7905 21.6813C45.0986 22.1399 45.26 22.6271 45.1279 23.1716C45.0399 23.5299 44.8345 23.8165 44.5704 24.0601C44.101 24.5043 43.5288 24.7766 42.9273 24.9915C41.9884 25.3354 41.0201 25.5217 40.0371 25.6364C38.3793 25.837 36.7215 25.837 35.0637 25.7367C33.7579 25.665 32.4522 25.5217 31.1905 25.2208C31.1025 25.1921 31.0438 25.1635 30.9851 25.1492Z" fill="black"/>
<path d="M121.021 25.5646C119.451 25.5646 117.896 25.5646 116.312 25.5646C116.282 25.4929 116.253 25.4213 116.224 25.3496C116.003 24.6905 115.798 24.0313 115.593 23.3864C115.49 23.0569 115.446 23.0282 115.094 23.0282C113.333 23.0282 111.588 23.0282 109.827 23.0282C109.475 23.0282 109.431 23.0712 109.314 23.4008C109.108 24.0456 108.903 24.6905 108.697 25.3496C108.668 25.4213 108.653 25.4929 108.624 25.5646C107.612 25.5646 106.585 25.5646 105.558 25.5646C105.572 25.4929 105.572 25.4356 105.602 25.3783C106.438 22.7989 107.26 20.2338 108.096 17.6688C108.433 16.6514 109.049 15.8202 109.93 15.204C110.473 14.8171 111.103 14.6022 111.764 14.4445C113.451 14.0576 115.035 14.2869 116.546 15.1324C116.942 15.3473 117.236 15.6769 117.529 16.0065C117.955 16.4937 118.263 17.0526 118.468 17.6544C119.304 20.2195 120.126 22.7846 120.948 25.3496C120.977 25.407 120.992 25.4786 121.021 25.5646ZM112.497 21.1796C113.157 21.1796 113.818 21.1796 114.478 21.1796C114.742 21.1796 114.844 21.0507 114.8 20.807C114.786 20.7641 114.771 20.7211 114.756 20.6781C114.654 20.3628 114.551 20.0332 114.448 19.718C114.243 19.0731 114.052 18.4426 113.832 17.7977C113.627 17.1816 113.113 16.8233 112.438 16.8233C111.764 16.8233 111.294 17.2389 111.133 17.7977C110.971 18.3566 110.781 18.9012 110.605 19.46C110.473 19.8899 110.326 20.3198 110.194 20.7497C110.106 21.022 110.223 21.1653 110.517 21.1653C110.575 21.1653 110.634 21.1653 110.678 21.1653C111.294 21.1796 111.896 21.1796 112.497 21.1796Z" fill="black"/>
<path d="M62.8211 23.4295C62.8211 24.0313 62.8211 24.5902 62.8211 25.192C62.4837 25.2637 62.1609 25.3497 61.8235 25.3927C60.6205 25.5933 59.3881 25.6936 58.1704 25.7222C57.1141 25.7509 56.0578 25.7652 55.0015 25.7652C53.9599 25.7509 52.9329 25.6649 51.9206 25.407C51.2164 25.2207 50.5562 24.9484 49.984 24.4755C49.3825 23.974 49.0451 23.3148 48.913 22.5553C48.8837 22.369 48.869 22.1827 48.869 21.9821C48.869 20.6638 48.8544 19.3311 48.869 18.0127C48.8837 17.0526 49.2358 16.2215 49.9547 15.5623C50.4535 15.1037 51.055 14.8028 51.7152 14.6165C52.2287 14.4732 52.7568 14.4159 53.285 14.4159C56.1458 14.4159 59.0213 14.4159 61.8822 14.4159C61.9702 14.4159 62.0436 14.4159 62.1169 14.4159C62.1903 14.6308 62.2049 15.8632 62.1463 16.2501C62.0436 16.2501 61.9409 16.2501 61.8235 16.2501C59.7696 16.2501 57.7156 16.2501 55.6764 16.2501C55.3976 16.2501 55.1042 16.2788 54.8255 16.3648C54.268 16.5224 53.9452 16.9236 53.9012 17.4968C53.8718 17.7548 53.8718 18.027 53.8865 18.285C53.9012 18.7149 54.1653 18.9728 54.6201 18.9728C55.0162 18.9728 55.3976 18.9728 55.7937 18.9728C57.4222 18.9728 59.0654 18.9728 60.6938 18.9728C60.7965 18.9728 60.9139 18.9728 61.0313 18.9728C61.0313 19.589 61.0313 20.1765 61.0313 20.7927C60.8992 20.7927 60.7819 20.7927 60.6645 20.7927C58.7426 20.7927 56.8207 20.7927 54.8988 20.7927C54.8108 20.7927 54.7374 20.7927 54.6494 20.7927C54.1506 20.8071 53.9012 21.0507 53.8865 21.5379C53.8718 21.7958 53.8865 22.0681 53.8865 22.326C53.8718 23.1858 54.4587 23.7017 55.1629 23.8594C55.3536 23.9023 55.5737 23.9167 55.7644 23.931C57.5102 23.9453 59.2561 23.8737 60.9873 23.7017C61.5154 23.6444 62.0436 23.5441 62.5864 23.4581C62.6451 23.4581 62.7184 23.4438 62.8211 23.4295Z" fill="black"/>
<path d="M121.124 14.459C121.27 14.459 121.344 14.459 121.432 14.459C122.811 14.459 124.19 14.459 125.584 14.459C125.804 14.459 125.921 14.5306 126.038 14.7026C126.948 15.9923 127.872 17.282 128.782 18.5717C128.84 18.6577 128.899 18.7436 128.958 18.8153C129.237 19.1019 129.662 19.1162 129.941 18.8153C130.014 18.7293 130.073 18.6433 130.146 18.5574C131.056 17.282 131.965 15.9923 132.86 14.7026C132.978 14.5306 133.11 14.4733 133.315 14.4733C134.107 14.4876 134.914 14.4733 135.707 14.4733C135.795 14.4733 135.883 14.4733 136.015 14.4733C135.956 14.5736 135.927 14.6309 135.897 14.6883C134.371 16.8091 132.846 18.9299 131.32 21.0508C131.07 21.409 130.924 21.7816 130.938 22.2115C130.953 22.9853 130.938 23.7735 130.938 24.5473C130.938 25.1778 130.674 25.4931 130.044 25.6507C129.017 25.8943 128.004 25.88 126.992 25.6364C126.493 25.5074 126.214 25.1491 126.2 24.6476C126.2 23.8451 126.185 23.057 126.2 22.2545C126.214 21.7959 126.068 21.4234 125.818 21.0651C125.187 20.2053 124.571 19.3312 123.955 18.457C123.075 17.2247 122.195 15.9923 121.314 14.7599C121.256 14.6739 121.197 14.588 121.124 14.459Z" fill="black"/>
<path d="M24.0897 -4.46768e-05C26.6425 0.0142853 28.6524 1.99182 28.6377 4.47091C28.6231 6.87834 26.5691 8.87021 24.0897 8.85588C21.5076 8.84155 19.5417 6.74937 19.5711 4.35627C19.6004 1.96316 21.6397 -0.0143747 24.0897 -4.46768e-05Z" fill="black"/>
<path d="M9.7416 17.1959C6.98345 17.1959 4.22531 17.1959 1.48183 17.1959C0.98302 17.1959 0.572233 17.0383 0.264142 16.6514C-0.308026 15.9062 0.117432 14.7742 1.05638 14.6022C1.20308 14.5735 1.36447 14.5592 1.52585 14.5592C7.02746 14.5592 12.5291 14.5592 18.0307 14.5592C18.2214 14.5592 18.4268 14.5735 18.6029 14.6309C19.219 14.8171 19.6152 15.4047 19.5271 16.0065C19.4538 16.6514 18.9403 17.1386 18.2801 17.1816C18.1627 17.1959 18.06 17.1816 17.9427 17.1816C15.2139 17.1959 12.4704 17.1959 9.7416 17.1959Z" fill="black"/>
</g>
<defs>
<clipPath id="clip0">
<rect width="136" height="37" fill="white"/>
</clipPath>
</defs>
</svg>
