<svg width="89" height="37" viewBox="0 0 89 37" fill="none" xmlns="http://www.w3.org/2000/svg">
<g clip-path="url(#clip0)">
<path d="M77.8673 12.5208C74.4666 12.5208 71.1268 12.5208 67.7717 12.506C67.6345 12.506 67.4515 12.4172 67.36 12.2988C65.7892 10.4932 63.7914 9.45723 61.3972 9.04283C59.3994 8.71723 57.5236 8.98363 55.7088 9.78283C54.3821 10.3748 53.1926 11.1888 52.2928 12.3284C52.2166 12.4172 52.0641 12.4912 51.9421 12.4912C48.6023 12.4912 45.2625 12.4912 41.9074 12.4912C41.8922 12.4912 41.8769 12.4764 41.8312 12.4616C42.8987 9.44243 44.6525 6.86723 47.0925 4.73603C49.868 2.33843 53.1316 0.81403 56.8374 0.23683C61.9767 -0.54757 66.689 0.56243 70.9133 3.46323C74.2226 5.72763 76.5253 8.76163 77.8673 12.5208Z" fill="#FE4101"/>
<path d="M41.9074 24.7604C42.1819 24.7752 42.3649 24.8048 42.5479 24.8048C45.6285 24.8048 48.6938 24.8196 51.7743 24.79C52.247 24.79 52.5368 24.9232 52.8266 25.234C54.2296 26.6548 55.9528 27.5428 57.9049 27.9128C60.1314 28.342 62.2969 28.0312 64.3404 27.0248C65.3774 26.5216 66.2772 25.8408 67.0702 25.0416C67.2532 24.864 67.4057 24.7752 67.7107 24.8048C68.275 24.864 68.8392 24.8196 69.4035 24.8196C71.8893 24.8196 74.375 24.8196 76.8456 24.8196C77.1201 24.8196 77.3946 24.8048 77.7453 24.79C77.0743 26.7288 76.0373 28.4752 74.7258 30.0588C71.6453 33.744 67.6802 36.0084 62.8612 36.7632C57.5694 37.592 52.7503 36.3784 48.4345 33.3148C45.3845 31.1244 43.2647 28.2532 41.9074 24.7604Z" fill="#FE4101"/>
<path d="M64.676 23.6803C64.8285 23.0735 64.9505 22.5259 65.103 21.9635C65.7892 19.3439 66.4908 16.7243 67.177 14.1047C67.238 13.8679 67.3448 13.8087 67.5735 13.8087C68.6258 13.8235 69.6933 13.8087 70.7456 13.8235C70.8981 13.8235 71.0963 13.8975 71.2183 14.0159C71.6301 14.3711 71.9961 14.7707 72.3926 15.1407C72.4841 15.2295 72.5908 15.3183 72.7433 15.4663C72.7891 14.8743 72.8348 14.3711 72.8653 13.8531C74.3903 13.8531 75.9154 13.8531 77.5014 13.8531C77.3794 14.4747 77.2574 15.0815 77.1354 15.6883C76.6931 17.7307 76.2509 19.7879 75.8086 21.8303C75.6866 22.3631 75.5951 22.9107 75.4579 23.4435C75.4274 23.5323 75.2901 23.6803 75.1986 23.6803C73.6278 23.6951 72.0723 23.6951 70.4558 23.6951C70.4711 23.5619 70.4863 23.4583 70.5168 23.3547C70.8523 22.3779 71.1726 21.4011 71.5233 20.4243C71.5996 20.1875 71.6148 20.0395 71.4013 19.8767C70.9743 19.5363 70.5778 19.1959 70.166 18.8407C69.9068 18.6335 69.8458 18.8555 69.8 19.0183C69.556 19.8175 69.3425 20.6167 69.1138 21.4159C68.9155 22.0819 68.7325 22.7627 68.519 23.4139C68.4885 23.5175 68.336 23.6803 68.2445 23.6803C67.0855 23.6951 65.9112 23.6803 64.676 23.6803ZM27.8468 23.6655C27.9536 23.6655 28.1061 23.5175 28.1366 23.4287C28.3806 22.2891 28.5941 21.1347 28.8381 19.9951C29.2803 17.9527 29.7378 15.9103 30.1801 13.8531C28.6093 13.8531 27.0691 13.8531 25.544 13.8531C25.4983 14.3711 25.4525 14.8743 25.3915 15.4515C24.995 15.0815 24.6595 14.7411 24.3088 14.4303C24.0343 14.2083 23.897 13.8087 23.4395 13.8087C22.372 13.8235 21.2892 13.8087 20.2217 13.8087C19.993 13.8087 19.8862 13.8531 19.8252 14.1047C19.5812 15.1407 19.2915 16.1767 19.017 17.2127C18.4527 19.3439 17.8885 21.4899 17.3089 23.6655C18.407 23.6655 19.4745 23.6507 20.542 23.6803C20.9537 23.6951 21.152 23.5619 21.2587 23.1919C21.6552 21.8303 22.067 20.4687 22.4788 19.1071C22.5245 18.9739 22.616 18.8407 22.6923 18.6779C23.1955 19.1071 23.653 19.4623 24.08 19.8471C24.1868 19.9507 24.2478 20.2023 24.202 20.3355C23.8513 21.4307 23.4548 22.5111 23.0583 23.6507C24.69 23.6803 26.2761 23.6803 27.8468 23.6655ZM41.8007 23.6803C44.744 23.6803 47.7025 23.6803 50.6458 23.6803C50.7221 23.6803 50.8288 23.6951 50.8898 23.6507C51.3321 23.3399 51.8353 23.0735 52.2013 22.6887C53.1774 21.6083 53.6196 20.0987 52.8266 18.8555C52.5368 18.3967 52.2013 17.9675 51.8201 17.5679C51.6676 17.4051 51.3626 17.3015 51.1338 17.3015C50.3256 17.2719 49.5326 17.2719 48.7243 17.3015C48.3431 17.3163 48.2363 17.1091 48.2363 16.8575C48.221 16.5615 48.4346 16.4727 48.7396 16.4727C50.1426 16.4875 51.5303 16.4727 52.9334 16.4727C53.7264 16.4727 53.7264 16.4727 53.9551 15.7771C54.1686 15.1259 54.3821 14.4599 54.5956 13.7643C54.3669 13.7643 54.2144 13.7643 54.0619 13.7643C51.7286 13.7643 49.4106 13.7939 47.0773 13.7495C46.33 13.7347 45.6743 13.8235 45.1253 14.3563C44.8508 14.6227 44.5763 14.8891 44.3323 15.1999C43.4477 16.3099 43.1732 17.5383 43.646 18.8999C43.89 19.5807 44.4543 19.9359 45.2168 19.9359C46.1165 19.9359 47.0163 19.9359 47.9313 19.9359C48.6481 19.9359 48.7548 20.0839 48.4956 20.7647C48.3431 20.7647 48.1905 20.7647 48.038 20.7647C46.3453 20.7647 44.6525 20.7647 42.9597 20.7795C42.792 20.7795 42.5327 20.8979 42.4717 21.0311C42.243 21.5491 42.0447 22.0967 41.8617 22.6443C41.755 22.9847 41.6787 23.3251 41.572 23.6951C41.694 23.6655 41.755 23.6803 41.8007 23.6803ZM88.9085 13.8235C86.0872 13.8235 83.2659 13.8235 80.4447 13.8235C80.2922 13.8235 80.1244 13.8975 80.0024 14.0011C79.3009 14.5191 78.9196 15.2887 78.6299 16.0435C78.0046 17.6419 77.4709 19.2847 76.9371 20.9127C76.8456 21.1939 76.7999 21.5491 76.8761 21.8303C77.0439 22.4519 77.5471 22.8811 78.0656 23.2363C78.4926 23.5323 78.9959 23.7247 79.5754 23.6951C81.1614 23.6507 82.7627 23.6507 84.364 23.6951C85.6602 23.7395 86.7125 22.8071 87.0022 21.7119C87.2005 20.9867 87.3987 20.2615 87.6122 19.5511C87.7952 18.9147 88.0088 18.2783 88.207 17.6123C86.5295 17.6123 84.9282 17.6123 83.327 17.6123C83.2355 17.6123 83.0829 17.6715 83.0524 17.7307C82.7169 18.4411 82.3814 19.1663 82.0459 19.9063C82.5644 19.9359 83.0372 19.9507 83.5099 19.9951C83.632 20.0099 83.8455 20.1135 83.8607 20.2171C83.9217 20.4687 83.7082 20.4835 83.5099 20.4835C82.7627 20.4835 82.0154 20.4835 81.2682 20.4835C81.1462 20.4835 81.0394 20.4391 80.9022 20.4095C81.3139 19.1515 81.8629 18.0267 82.5492 16.9463C82.7779 16.5763 83.0067 16.4431 83.4337 16.4579C84.9587 16.4875 86.4837 16.4579 88.0087 16.4727C88.3747 16.4727 88.4815 16.3395 88.5425 16.0139C88.6798 15.3035 88.8475 14.5931 89.0153 13.8679C88.9695 13.8383 88.939 13.8235 88.9085 13.8235ZM35.5482 17.6123C35.4567 17.6123 35.3042 17.7011 35.2737 17.7899C34.9381 18.4855 34.6026 19.1811 34.2976 19.8471C34.8924 20.0987 35.5634 19.8175 36.1277 20.2467C35.9904 20.3799 35.8379 20.4835 35.6854 20.4835C34.9534 20.4983 34.2214 20.4983 33.4894 20.4983C33.2454 20.4983 33.1386 20.4687 33.2301 20.1727C33.5656 18.9591 34.2366 17.8935 34.8314 16.7835C34.9686 16.5319 35.1516 16.4727 35.4414 16.4727C37.0427 16.4875 38.6287 16.4727 40.23 16.4875C40.5045 16.4875 40.718 16.4875 40.7332 16.1175C40.7485 15.8363 40.8705 15.5699 40.9315 15.3035C41.0382 14.8299 41.1297 14.3711 41.2212 13.8975C41.1297 13.8827 41.0992 13.8531 41.0535 13.8531C38.2779 13.8531 35.5024 13.8531 32.7116 13.8531C32.5286 13.8531 32.3304 13.9419 32.1626 14.0159C31.5984 14.3119 31.3391 14.8447 31.0646 15.3627C30.2868 16.7835 29.8141 18.3079 29.4481 19.8619C29.3108 20.4243 29.2346 21.0311 29.2956 21.5935C29.3413 21.9931 29.6006 22.4075 29.8751 22.7183C30.3326 23.2511 30.8358 23.7247 31.6594 23.7099C33.4131 23.6803 35.1516 23.7099 36.9054 23.6951C37.5917 23.6951 38.1254 23.3251 38.5829 22.8515C39.0099 22.4223 39.1472 21.8747 39.2997 21.3419C39.6657 20.0987 40.0317 18.8703 40.413 17.6123C38.7659 17.5975 37.1494 17.5975 35.5482 17.6123ZM5.03256 20.9423C5.10881 21.0607 5.18506 21.1643 5.24606 21.2975C5.58156 21.9931 5.91707 22.6887 6.22207 23.3843C6.32882 23.6211 6.46607 23.6951 6.72533 23.6951C7.65559 23.6803 8.58585 23.6951 9.51611 23.6951C9.95836 23.6951 10.4006 23.6951 10.9191 23.6951C10.6141 23.1919 10.3701 22.7627 10.1109 22.3483C9.57711 21.4899 9.0281 20.6315 8.5096 19.7583C8.4181 19.6103 8.35709 19.3291 8.43335 19.2255C8.7841 18.7963 9.19586 18.3967 9.59236 17.9971C10.1414 17.4495 10.7209 16.9167 11.2851 16.3543C11.8951 15.7475 12.4899 15.1259 13.0846 14.5191C13.2982 14.3119 13.5269 14.1047 13.8319 13.8383C12.0629 13.8383 10.4311 13.8383 8.79935 13.8383C8.70785 13.8383 8.58585 13.8975 8.52485 13.9715C7.73184 14.8891 6.93883 15.8215 6.14582 16.7539C6.03907 16.8871 5.91707 17.0055 5.81032 17.1387C5.77982 17.1239 5.74931 17.0943 5.73407 17.0795C6.13057 16.0139 6.52707 14.9483 6.92358 13.8383C5.56631 13.8383 4.23955 13.8383 2.91278 13.8531C2.83653 13.8531 2.69928 14.0011 2.66878 14.1047C1.92152 16.7687 1.17426 19.4475 0.427005 22.1263C0.289753 22.6147 0.152502 23.1327 0 23.6803C1.35727 23.6803 2.62303 23.6803 3.88879 23.6655C3.99555 23.6655 4.14805 23.5027 4.1938 23.3843C4.45305 22.5851 4.6818 21.7711 4.91056 20.9719C4.94106 20.9571 4.98681 20.9571 5.03256 20.9423ZM14.6249 13.8383C14.5334 13.8383 14.3809 14.0011 14.3657 14.1047C13.7557 16.3247 13.1609 18.5595 12.5509 20.7795C12.2764 21.7711 12.0019 22.7479 11.7274 23.7395C13.3592 23.7395 14.9452 23.7395 16.5159 23.7395C17.2937 20.4391 18.0715 17.1683 18.8645 13.8235C17.4157 13.8235 16.0127 13.8235 14.6249 13.8383Z" fill="black"/>
<mask id="mask0" mask-type="alpha" maskUnits="userSpaceOnUse" x="0" y="13" width="90" height="11">
<path d="M64.676 23.6803C64.8285 23.0735 64.9505 22.5259 65.103 21.9635C65.7892 19.3439 66.4908 16.7243 67.177 14.1047C67.238 13.8679 67.3448 13.8087 67.5735 13.8087C68.6258 13.8235 69.6933 13.8087 70.7456 13.8235C70.8981 13.8235 71.0963 13.8975 71.2183 14.0159C71.6301 14.3711 71.9961 14.7707 72.3926 15.1407C72.4841 15.2295 72.5908 15.3183 72.7433 15.4663C72.7891 14.8743 72.8348 14.3711 72.8653 13.8531C74.3903 13.8531 75.9154 13.8531 77.5014 13.8531C77.3794 14.4747 77.2574 15.0815 77.1354 15.6883C76.6931 17.7307 76.2509 19.7879 75.8086 21.8303C75.6866 22.3631 75.5951 22.9107 75.4579 23.4435C75.4274 23.5323 75.2901 23.6803 75.1986 23.6803C73.6278 23.6951 72.0723 23.6951 70.4558 23.6951C70.4711 23.5619 70.4863 23.4583 70.5168 23.3547C70.8523 22.3779 71.1726 21.4011 71.5233 20.4243C71.5996 20.1875 71.6148 20.0395 71.4013 19.8767C70.9743 19.5363 70.5778 19.1959 70.166 18.8407C69.9068 18.6335 69.8458 18.8555 69.8 19.0183C69.556 19.8175 69.3425 20.6167 69.1138 21.4159C68.9155 22.0819 68.7325 22.7627 68.519 23.4139C68.4885 23.5175 68.336 23.6803 68.2445 23.6803C67.0855 23.6951 65.9112 23.6803 64.676 23.6803ZM27.8468 23.6655C27.9536 23.6655 28.1061 23.5175 28.1366 23.4287C28.3806 22.2891 28.5941 21.1347 28.8381 19.9951C29.2803 17.9527 29.7378 15.9103 30.1801 13.8531C28.6093 13.8531 27.0691 13.8531 25.544 13.8531C25.4983 14.3711 25.4525 14.8743 25.3915 15.4515C24.995 15.0815 24.6595 14.7411 24.3088 14.4303C24.0343 14.2083 23.897 13.8087 23.4395 13.8087C22.372 13.8235 21.2892 13.8087 20.2217 13.8087C19.993 13.8087 19.8862 13.8531 19.8252 14.1047C19.5812 15.1407 19.2915 16.1767 19.017 17.2127C18.4527 19.3439 17.8885 21.4899 17.3089 23.6655C18.407 23.6655 19.4745 23.6507 20.542 23.6803C20.9537 23.6951 21.152 23.5619 21.2587 23.1919C21.6552 21.8303 22.067 20.4687 22.4788 19.1071C22.5245 18.9739 22.616 18.8407 22.6923 18.6779C23.1955 19.1071 23.653 19.4623 24.08 19.8471C24.1868 19.9507 24.2478 20.2023 24.202 20.3355C23.8513 21.4307 23.4548 22.5111 23.0583 23.6507C24.69 23.6803 26.276 23.6803 27.8468 23.6655ZM41.8007 23.6803C44.744 23.6803 47.7025 23.6803 50.6458 23.6803C50.7221 23.6803 50.8288 23.6951 50.8898 23.6507C51.3321 23.3399 51.8353 23.0735 52.2013 22.6887C53.1774 21.6083 53.6196 20.0987 52.8266 18.8555C52.5368 18.3967 52.2013 17.9675 51.8201 17.5679C51.6676 17.4051 51.3626 17.3015 51.1338 17.3015C50.3256 17.2719 49.5326 17.2719 48.7243 17.3015C48.343 17.3163 48.2363 17.1091 48.2363 16.8575C48.221 16.5615 48.4346 16.4727 48.7396 16.4727C50.1426 16.4875 51.5303 16.4727 52.9334 16.4727C53.7264 16.4727 53.7264 16.4727 53.9551 15.7771C54.1686 15.1259 54.3821 14.4599 54.5956 13.7643C54.3669 13.7643 54.2144 13.7643 54.0619 13.7643C51.7286 13.7643 49.4106 13.7939 47.0773 13.7495C46.33 13.7347 45.6743 13.8235 45.1253 14.3563C44.8508 14.6227 44.5763 14.8891 44.3323 15.1999C43.4477 16.3099 43.1732 17.5383 43.646 18.8999C43.89 19.5807 44.4543 19.9359 45.2168 19.9359C46.1165 19.9359 47.0163 19.9359 47.9313 19.9359C48.6481 19.9359 48.7548 20.0839 48.4956 20.7647C48.343 20.7647 48.1905 20.7647 48.038 20.7647C46.3453 20.7647 44.6525 20.7647 42.9597 20.7795C42.792 20.7795 42.5327 20.8979 42.4717 21.0311C42.243 21.5491 42.0447 22.0967 41.8617 22.6443C41.755 22.9847 41.6787 23.3251 41.572 23.6951C41.694 23.6655 41.755 23.6803 41.8007 23.6803ZM88.9085 13.8235C86.0872 13.8235 83.2659 13.8235 80.4447 13.8235C80.2922 13.8235 80.1244 13.8975 80.0024 14.0011C79.3009 14.5191 78.9196 15.2887 78.6299 16.0435C78.0046 17.6419 77.4709 19.2847 76.9371 20.9127C76.8456 21.1939 76.7999 21.5491 76.8761 21.8303C77.0439 22.4519 77.5471 22.8811 78.0656 23.2363C78.4926 23.5323 78.9959 23.7247 79.5754 23.6951C81.1614 23.6507 82.7627 23.6507 84.364 23.6951C85.6602 23.7395 86.7125 22.8071 87.0022 21.7119C87.2005 20.9867 87.3987 20.2615 87.6122 19.5511C87.7952 18.9147 88.0088 18.2783 88.207 17.6123C86.5295 17.6123 84.9282 17.6123 83.327 17.6123C83.2355 17.6123 83.0829 17.6715 83.0524 17.7307C82.7169 18.4411 82.3814 19.1663 82.0459 19.9063C82.5644 19.9359 83.0372 19.9507 83.5099 19.9951C83.6319 20.0099 83.8455 20.1135 83.8607 20.2171C83.9217 20.4687 83.7082 20.4835 83.5099 20.4835C82.7627 20.4835 82.0154 20.4835 81.2682 20.4835C81.1462 20.4835 81.0394 20.4391 80.9022 20.4095C81.3139 19.1515 81.8629 18.0267 82.5492 16.9463C82.7779 16.5763 83.0067 16.4431 83.4337 16.4579C84.9587 16.4875 86.4837 16.4579 88.0087 16.4727C88.3747 16.4727 88.4815 16.3395 88.5425 16.0139C88.6798 15.3035 88.8475 14.5931 89.0153 13.8679C88.9695 13.8383 88.939 13.8235 88.9085 13.8235ZM35.5482 17.6123C35.4567 17.6123 35.3041 17.7011 35.2737 17.7899C34.9381 18.4855 34.6026 19.1811 34.2976 19.8471C34.8924 20.0987 35.5634 19.8175 36.1277 20.2467C35.9904 20.3799 35.8379 20.4835 35.6854 20.4835C34.9534 20.4983 34.2214 20.4983 33.4894 20.4983C33.2454 20.4983 33.1386 20.4687 33.2301 20.1727C33.5656 18.9591 34.2366 17.8935 34.8314 16.7835C34.9686 16.5319 35.1516 16.4727 35.4414 16.4727C37.0427 16.4875 38.6287 16.4727 40.23 16.4875C40.5045 16.4875 40.718 16.4875 40.7332 16.1175C40.7485 15.8363 40.8705 15.5699 40.9315 15.3035C41.0382 14.8299 41.1297 14.3711 41.2212 13.8975C41.1297 13.8827 41.0992 13.8531 41.0535 13.8531C38.2779 13.8531 35.5024 13.8531 32.7116 13.8531C32.5286 13.8531 32.3304 13.9419 32.1626 14.0159C31.5984 14.3119 31.3391 14.8447 31.0646 15.3627C30.2868 16.7835 29.8141 18.3079 29.4481 19.8619C29.3108 20.4243 29.2346 21.0311 29.2956 21.5935C29.3413 21.9931 29.6006 22.4075 29.8751 22.7183C30.3326 23.2511 30.8359 23.7247 31.6594 23.7099C33.4131 23.6803 35.1516 23.7099 36.9054 23.6951C37.5917 23.6951 38.1254 23.3251 38.5829 22.8515C39.0099 22.4223 39.1472 21.8747 39.2997 21.3419C39.6657 20.0987 40.0317 18.8703 40.413 17.6123C38.7659 17.5975 37.1494 17.5975 35.5482 17.6123ZM5.03256 20.9423C5.10881 21.0607 5.18506 21.1643 5.24606 21.2975C5.58156 21.9931 5.91707 22.6887 6.22207 23.3843C6.32882 23.6211 6.46607 23.6951 6.72533 23.6951C7.65559 23.6803 8.58585 23.6951 9.51611 23.6951C9.95836 23.6951 10.4006 23.6951 10.9191 23.6951C10.6141 23.1919 10.3701 22.7627 10.1109 22.3483C9.57711 21.4899 9.0281 20.6315 8.5096 19.7583C8.4181 19.6103 8.35709 19.3291 8.43335 19.2255C8.7841 18.7963 9.19586 18.3967 9.59236 17.9971C10.1414 17.4495 10.7209 16.9167 11.2851 16.3543C11.8951 15.7475 12.4899 15.1259 13.0846 14.5191C13.2982 14.3119 13.5269 14.1047 13.8319 13.8383C12.0629 13.8383 10.4311 13.8383 8.79935 13.8383C8.70785 13.8383 8.58585 13.8975 8.52485 13.9715C7.73184 14.8891 6.93883 15.8215 6.14582 16.7539C6.03907 16.8871 5.91707 17.0055 5.81032 17.1387C5.77982 17.1239 5.74932 17.0943 5.73407 17.0795C6.13057 16.0139 6.52707 14.9483 6.92358 13.8383C5.56631 13.8383 4.23955 13.8383 2.91278 13.8531C2.83653 13.8531 2.69928 14.0011 2.66878 14.1047C1.92152 16.7687 1.17426 19.4475 0.427005 22.1263C0.289753 22.6147 0.152502 23.1327 0 23.6803C1.35727 23.6803 2.62303 23.6803 3.88879 23.6655C3.99555 23.6655 4.14805 23.5027 4.1938 23.3843C4.45305 22.5851 4.6818 21.7711 4.91056 20.9719C4.94106 20.9571 4.98681 20.9571 5.03256 20.9423ZM57.4627 13.6903C57.2949 13.6903 57.0356 13.7643 56.9594 13.8827C56.5781 14.4451 56.1969 15.0075 55.9224 15.6291C55.5564 16.4579 55.2514 17.3311 55.0074 18.2043C54.7786 19.0479 54.6109 19.9063 54.5194 20.7795C54.4431 21.4899 54.3974 22.2151 54.8091 22.8811C55.0226 23.2215 55.2666 23.4287 55.7089 23.4139C57.4627 23.3991 59.2012 23.3843 60.9549 23.4139C61.7937 23.4287 62.3885 23.0291 62.8155 22.4223C63.2577 21.7711 63.6085 21.0607 63.9287 20.3503C64.5082 19.0183 64.859 17.6271 65.1182 16.2063C65.2555 15.4367 65.2555 14.6819 64.7675 13.9863C64.5997 13.7495 64.4472 13.6607 64.1575 13.6755C63.0595 13.6903 61.9615 13.6755 60.8634 13.6755C59.7197 13.6755 58.5912 13.6755 57.4627 13.6903ZM58.2099 19.6843C58.4997 18.6187 58.8199 17.5679 59.0944 16.5023C59.1554 16.2655 59.2469 16.1915 59.4909 16.1915C60.1162 16.1915 60.7262 16.2063 61.3514 16.1915C61.6259 16.1915 61.687 16.2803 61.6107 16.5319C61.2447 17.8195 60.9092 19.1219 60.5279 20.4095C60.4822 20.5427 60.2534 20.7203 60.1009 20.7351C59.4299 20.7647 58.7589 20.7499 57.9507 20.7499C58.0574 20.3503 58.1184 20.0099 58.2099 19.6843ZM14.6249 13.8383C14.5334 13.8383 14.3809 14.0011 14.3657 14.1047C13.7557 16.3247 13.1609 18.5595 12.5509 20.7795C12.2764 21.7711 12.0019 22.7479 11.7274 23.7395C13.3592 23.7395 14.9452 23.7395 16.5159 23.7395C17.2937 20.4391 18.0715 17.1683 18.8645 13.8235C17.4157 13.8235 16.0127 13.8235 14.6249 13.8383Z" fill="black"/>
</mask>
<g mask="url(#mask0)">
<path d="M65.1018 12.3615L56.037 11.9594L53.5648 19.6007L53.9769 24.0246L63.0417 25.2311L65.9259 15.5789L65.1018 12.3615Z" fill="#FE4101"/>
</g>
</g>
<defs>
<clipPath id="clip0">
<rect width="89" height="37" fill="white"/>
</clipPath>
</defs>
</svg>
