<svg width="179" height="37" viewBox="0 0 179 37" fill="none" xmlns="http://www.w3.org/2000/svg">
<g clip-path="url(#clip0)">
<path fill-rule="evenodd" clip-rule="evenodd" d="M111.389 29.6242H4.50121C3.5763 30.4741 0.585773 35.6037 0 36.9089L3.5763 37C39.1543 36.6964 75.8422 36.9696 111.79 37L126.62 36.9696C130.073 31.6882 135.899 21.3076 139.63 14.9639C141.079 12.4749 142.528 9.6825 144.069 7.52745L174.93 7.4971C175.855 5.70629 178.661 1.66937 178.969 0.151733H128.87L111.389 29.6242Z" fill="#F9EB2C"/>
<path fill-rule="evenodd" clip-rule="evenodd" d="M92.0589 21.338C104.761 22.1575 108.8 20.2453 114.38 13.0517C115.736 11.2912 119.868 5.12962 117.956 2.00329C116.322 -0.698107 107.906 0.0607118 104.36 0.212476C102.202 3.61198 100.167 7.28466 98.0708 10.8056C97.0842 12.5053 92.3364 20.1542 92.0589 21.338Z" fill="#2F4349"/>
<path fill-rule="evenodd" clip-rule="evenodd" d="M7.49171 21.8843L11.6846 21.8539L20.872 10.1074C21.6119 9.19682 23.3384 6.73825 24.2017 6.1312C23.2768 9.80388 19.0222 18.0598 18.2823 21.8843L22.5985 21.8539C23.3693 20.488 25.9282 17.7259 27.0997 16.4815L36.3796 5.73661C37.3045 4.64391 40.5108 1.1837 40.9116 0.151706C36.4412 0.273117 37.212 -0.57676 34.9614 2.21569L24.0784 15.5102C25.0957 11.8375 29.5045 3.24769 29.7203 0.182058C23.955 0.151706 26.0207 -0.698172 19.5463 7.52742L13.2261 15.4798L18.8989 0.242764L14.2744 0.212411L7.49171 21.8843Z" fill="#2F4349"/>
<path fill-rule="evenodd" clip-rule="evenodd" d="M51.9489 21.2469L56.5117 21.338L60.7355 13.8105C64.4659 13.6587 67.2715 14.1444 70.3545 12.566C76.0581 9.71288 80.5284 1.54799 75.2565 0.364236C73.715 3.23355e-06 66.1307 0.0910615 64.3118 0.242825L51.9489 21.2469Z" fill="#2F4349"/>
<path fill-rule="evenodd" clip-rule="evenodd" d="M72.081 21.3683H87.7119C88.3285 20.4881 89.5 18.6062 89.8083 17.6956L78.5245 17.6349C78.9869 16.3601 80.9292 13.2338 81.7 12.1714L91.9664 12.1411L93.9087 8.52912L83.9814 8.43806L86.4786 3.94585L97.4234 3.9762C98.0708 3.27809 99.3657 1.2141 99.6123 0.212463H84.4439C83.334 1.51763 72.2659 20.5488 72.081 21.3683Z" fill="#2F4349"/>
<path fill-rule="evenodd" clip-rule="evenodd" d="M32.0017 21.2773L47.7251 21.3683C48.4342 20.5792 49.6674 18.4848 49.8524 17.635H38.6302L41.7132 12.1411H51.7639L54.0145 8.52913L44.118 8.43808L46.4303 4.03693L57.5599 3.94587C58.269 2.97458 59.3481 1.24448 59.7181 0.212482L44.3955 0.182129L32.0017 21.2773Z" fill="#2F4349"/>
<path fill-rule="evenodd" clip-rule="evenodd" d="M98.5333 17.7563C103.867 18.0295 106.642 16.9975 108.985 14.1747C110.557 12.2928 113.887 8.04345 113.116 4.64394C111.359 3.58159 109.201 3.76371 106.549 3.88512C105.347 5.97946 98.9032 16.4815 98.5333 17.7563Z" fill="#FEFEFE"/>
<path fill-rule="evenodd" clip-rule="evenodd" d="M63.0785 10.1074C65.2675 10.2592 67.7647 10.3806 69.5529 9.37898C71.0327 8.5291 72.6359 6.76864 72.2968 4.40113C70.6628 3.76372 69.0904 3.85478 67.3023 3.85478C66.0999 3.82442 63.4177 9.01474 63.0785 10.1074Z" fill="#FEFEFE"/>
</g>
<defs>
<clipPath id="clip0">
<rect width="179" height="37" fill="white"/>
</clipPath>
</defs>
</svg>
