<svg width="89" height="60" viewBox="0 0 89 60" fill="none" xmlns="http://www.w3.org/2000/svg">
<path d="M57.6409 6.98834C60.4284 7.18801 63.2159 7.88684 65.7047 8.88518C68.293 9.98335 70.6823 11.381 72.7729 13.178L72.972 13.3777L71.3792 14.975C70.981 15.2745 70.8814 15.7737 70.8814 16.2729C70.8814 16.772 71.0805 17.2712 71.3792 17.5707C71.7774 17.97 72.2752 18.0699 72.6734 18.0699C73.1711 18.0699 73.6689 17.8702 73.9675 17.5707L75.6599 15.9734L75.859 16.173C77.651 18.2695 79.1443 20.6655 80.2394 23.3611C81.2349 25.8569 81.9318 28.6522 82.1309 31.4476V31.7471L77.8501 31.3477V35.4409L82.1309 35.0416V35.3411C81.9318 38.2363 81.2349 40.9318 80.2394 43.4276C79.1443 46.0233 77.7505 48.4193 75.9586 50.5158L75.7595 50.7155L74.0671 49.0183C73.6689 48.619 73.1711 48.4193 72.7729 48.4193C72.2752 48.4193 71.7774 48.619 71.4787 49.0183C71.0805 49.3178 70.8814 49.817 70.8814 50.3161C70.8814 50.8153 71.0805 51.3145 71.4787 51.614L73.1711 53.3111L72.972 53.5108C70.8814 55.3078 68.4921 56.8053 65.9038 57.8037C63.415 58.9018 60.6275 59.5008 57.84 59.7005H57.5414L57.9396 55.5075H53.8579L54.2561 59.7005H53.9575C51.0705 59.5008 48.3825 58.802 45.8937 57.8037C43.3054 56.7055 40.9161 55.3078 38.8255 53.5108L38.5268 53.3111L40.2192 51.614C40.6174 51.2146 40.717 50.7155 40.717 50.3161C40.717 49.817 40.5179 49.3178 40.2192 49.0183C39.821 48.7188 39.3232 48.5191 38.925 48.5191C38.5268 48.5191 37.9295 48.7188 37.6309 49.0183L35.5403 50.9151L35.3411 50.7155C33.3501 48.3195 31.7573 45.624 30.6622 42.6289C29.5671 39.7338 29.0693 36.6389 29.0693 33.4443C29.0693 30.2496 29.6666 27.1547 30.6622 24.3594C31.7573 21.3644 33.3501 18.6689 35.3411 16.3727L35.5403 16.173L37.2326 17.8702C37.6309 18.1697 38.1286 18.3694 38.5268 18.3694C39.0246 18.3694 39.5224 18.1697 39.821 17.8702C40.2192 17.4709 40.3188 16.9717 40.3188 16.5724C40.3188 16.173 40.1197 15.574 39.821 15.2745L38.1286 13.5774L38.4273 13.3777C40.5179 11.5807 42.9071 10.0832 45.4955 8.98501C48.0839 7.78701 50.7718 7.18801 53.6588 6.98834H53.9575L53.5593 11.2812H57.7405L57.3423 6.98834H57.6409ZM65.5056 9.38435C63.1163 8.38601 60.6275 7.78701 57.9396 7.58734L58.3378 11.7804H52.962L53.3602 7.58734C50.6722 7.78701 48.0839 8.48585 45.7942 9.38435C43.3054 10.3827 41.0156 11.7804 39.0246 13.4775L40.2192 14.6755C40.717 15.1747 40.9161 15.7737 40.9161 16.3727C40.9161 16.9717 40.717 17.6705 40.2192 18.0699C39.7215 18.569 39.1241 18.7687 38.5268 18.7687C37.9295 18.7687 37.2326 18.569 36.8344 18.0699L35.5403 16.8719C33.6488 19.168 32.255 21.6639 31.1599 24.4592C30.1644 27.2546 29.5671 30.2496 29.5671 33.3444C29.5671 36.5391 30.0649 39.5341 31.1599 42.3294C32.255 45.1248 33.6488 47.7205 35.5403 50.0166L36.8344 48.7188C37.3322 48.2196 37.9295 48.02 38.5268 48.02C39.1241 48.02 39.821 48.2196 40.2192 48.7188C40.717 49.218 40.9161 49.817 40.9161 50.416C40.9161 51.015 40.717 51.7138 40.2192 52.1131L39.0246 53.3111C41.0156 55.0083 43.3054 56.3062 45.6946 57.3045C48.0839 58.3028 50.5727 58.9018 53.2606 59.2013L52.8624 55.0083H58.2382L57.84 59.2013C60.5279 58.9018 63.1163 58.3028 65.406 57.3045C67.8948 56.3062 70.085 54.9085 72.1756 53.2113L70.8814 52.0133C70.3836 51.5141 70.1845 50.9151 70.1845 50.3161C70.1845 49.7171 70.4832 49.0183 70.8814 48.619C71.3792 48.1198 71.9765 47.9201 72.5738 47.9201C73.1711 47.9201 73.868 48.2196 74.2662 48.619L75.4608 49.9168C77.1532 47.9201 78.4474 45.624 79.5425 43.2279C80.538 40.8319 81.1353 38.3361 81.3344 35.6406L77.1532 36.0399V30.6489L81.3344 31.0482C81.1353 28.3527 80.4385 25.8569 79.4429 23.4609C78.4474 20.965 77.0537 18.7687 75.3613 16.772L74.0671 17.97C73.5693 18.4692 72.972 18.6689 72.3747 18.6689C71.7774 18.6689 71.0805 18.4692 70.6823 17.97C70.1845 17.4709 69.9854 16.8719 69.9854 16.2729C69.9854 15.6739 70.1845 14.975 70.6823 14.5757L71.8769 13.3777C70.1845 11.6805 67.8948 10.3827 65.5056 9.38435Z" fill="#141515"/>
<path fill-rule="evenodd" clip-rule="evenodd" d="M60.8267 10.5824L61.2249 14.2762H58.0392C56.4463 14.2762 54.8535 14.2762 53.2607 14.2762H50.075L50.4732 10.5824C47.7853 11.1814 45.1969 12.2796 42.9072 13.7771C44.1018 15.6739 43.8032 18.2696 42.1108 19.9668C40.4184 21.6639 37.9296 21.8636 35.9385 20.7654C33.5492 24.5591 32.2551 28.9518 32.2551 33.4443C32.2551 38.0366 33.5492 42.4293 36.0381 46.223C37.9296 45.1248 40.5179 45.3245 42.2103 47.0217C43.9027 48.7188 44.1018 51.2147 43.0067 53.2113C45.2965 54.7089 47.8848 55.807 50.4732 56.406L50.075 52.7122H53.2607C54.8535 52.7122 56.4463 52.7122 58.0392 52.7122H61.2249L60.8267 56.406C63.5146 55.807 66.1029 54.7089 68.3926 53.2113C67.2976 51.3145 67.4967 48.7188 69.1891 47.0217C70.8815 45.3245 73.3703 45.1248 75.2618 46.223C76.7551 43.9268 77.8501 41.431 78.4475 38.7355L74.764 38.9351V35.7405C74.764 34.1431 74.764 32.5458 74.764 31.0483V27.8536L78.4475 28.2529C77.8501 25.5574 76.7551 22.9618 75.2618 20.6656C73.3703 21.7638 70.7819 21.5641 69.0895 19.8669C67.3971 18.1698 67.198 15.6739 68.2931 13.6772C66.0034 12.2796 63.5146 11.1814 60.8267 10.5824Z" fill="#CB0002"/>
<path d="M61.1253 10.9818L61.5235 14.5758H49.7763L50.1745 10.9818C48.9799 11.2813 47.7852 11.6806 46.6901 12.1798C45.4955 12.6789 44.4004 13.2779 43.3054 13.9768C43.8031 14.9751 44.0022 16.0733 43.8031 17.1714C43.7036 18.2696 43.2058 19.3678 42.3098 20.2663C41.4139 21.1648 40.3188 21.6639 39.2237 21.7638C38.1286 21.8636 37.0335 21.6639 36.1376 21.1648C35.0425 22.9618 34.1465 24.9585 33.5492 26.9551C32.9519 29.0516 32.6532 31.248 32.6532 33.5441C32.6532 35.8403 32.9519 38.0367 33.5492 40.1332C34.1465 42.2297 35.0425 44.1265 36.2371 45.9235C37.2327 45.4243 38.3277 45.2247 39.4228 45.3245C40.5179 45.4244 41.613 46.0233 42.5089 46.822C43.4049 47.7205 43.9027 48.8187 44.0022 49.9169C44.1018 51.015 43.9027 52.1132 43.5045 53.1115C44.5995 53.8104 45.6946 54.4094 46.7897 54.8087C47.8848 55.3079 49.0794 55.7072 50.274 55.9069L49.7763 52.213H61.5235L61.1253 55.9069C62.3199 55.6074 63.5145 55.208 64.6096 54.7089C65.8042 54.2097 66.8993 53.6107 67.9944 52.9119C67.4966 51.9135 67.2975 50.8154 67.3971 49.817C67.4966 48.7189 68.0939 47.5209 68.8904 46.7222C69.7863 45.8237 70.8814 45.3245 71.9765 45.2247C73.0716 45.1248 74.1667 45.3245 75.1622 45.8237C75.8591 44.7255 76.4564 43.6273 76.8546 42.4293C77.3523 41.3312 77.7506 40.1332 77.9497 39.035L74.2662 39.3345V27.5541L77.9497 27.8536C77.651 26.6556 77.2528 25.4576 76.8546 24.3595C76.3568 23.1615 75.7595 22.0633 75.0626 20.9651C74.0671 21.4643 72.972 21.6639 71.8769 21.5641C70.7819 21.4643 69.5872 20.8653 68.7908 20.0666C67.8948 19.1681 67.3971 18.0699 67.2975 16.9718C67.198 15.8736 67.2975 14.7754 67.7953 13.8769C66.7002 13.1781 65.6051 12.5791 64.5101 12.0799C63.5145 11.6806 62.3199 11.2813 61.1253 10.9818ZM60.9262 14.0766L60.528 10.2829L60.9262 10.3828C62.2203 10.6823 63.6141 11.0816 64.8087 11.6806C66.1029 12.1798 67.2975 12.8786 68.4922 13.5774L68.6913 13.6773L68.5917 13.8769C68.094 14.7754 67.8948 15.8736 67.9944 16.8719C68.094 17.8703 68.5917 18.8686 69.3881 19.6673C70.1846 20.4659 71.1801 20.8653 72.1756 20.9651C73.2707 21.0649 74.2662 20.8653 75.2617 20.3661L75.4608 20.2663L75.5604 20.4659C76.3568 21.6639 76.9541 22.862 77.5514 24.1598C78.0492 25.4576 78.547 26.7555 78.8456 28.1531L78.9452 28.5525L75.1622 28.1531V38.6357L78.9452 38.2363L78.8456 38.6357C78.547 39.9335 78.1488 41.3312 77.5514 42.5292C77.0537 43.827 76.3568 45.025 75.6599 46.223L75.4608 46.4227L75.2617 46.3229C74.3658 45.8237 73.2707 45.5242 72.2752 45.7238C71.2796 45.8237 70.2841 46.3228 69.4877 47.1215C68.6913 47.9202 68.2931 48.8187 68.094 49.9169C67.9944 50.9152 68.1935 52.0134 68.6913 52.9119L68.7908 53.1115L68.5917 53.2114C67.3971 54.01 66.2024 54.609 64.9083 55.208C63.6141 55.7072 62.3199 56.2064 60.9262 56.5059L60.528 56.6057L60.9262 52.812H50.3736L50.7718 56.6057L50.3736 56.5059C48.9799 56.2064 47.6857 55.807 46.3915 55.208C45.0973 54.7089 43.9027 54.01 42.708 53.3112L42.5089 53.2114L42.6085 53.0117C43.1063 52.1132 43.3054 51.015 43.2058 50.0167C43.1063 49.0184 42.6085 48.02 41.9116 47.2213C41.1152 46.4227 40.1197 45.9235 39.1241 45.8237C38.1286 45.7239 37.0335 45.9235 36.1376 46.4227L35.9385 46.5225L35.7394 46.3229C34.5447 44.426 33.5492 42.3295 32.8523 40.1332C32.255 37.9368 31.8568 35.7405 31.8568 33.3445C31.8568 31.0483 32.1555 28.7521 32.8523 26.6556C33.4497 24.4593 34.4452 22.4626 35.6398 20.5658L35.7394 20.3661L36.038 20.4659C36.934 21.0649 38.0291 21.2646 39.0246 21.0649C40.0201 20.9651 41.0156 20.4659 41.8121 19.6673C42.6085 18.8686 43.0067 17.9701 43.2058 16.8719C43.3054 15.8736 43.1063 14.7754 42.6085 13.8769L42.5089 13.5774L42.708 13.4776C43.9027 12.6789 45.0973 12.0799 46.3915 11.4809C47.6857 10.9818 48.9799 10.4826 50.3736 10.1831L50.7718 10.0833L50.3736 13.8769H60.9262V14.0766Z" fill="#141515"/>
<path fill-rule="evenodd" clip-rule="evenodd" d="M57.1432 16.3727C60.8266 16.6722 64.1119 18.1697 66.7002 20.366L65.406 21.6639C64.8087 22.2629 64.8087 23.1614 65.406 23.7604C65.9038 24.3594 66.8993 24.3594 67.4967 23.7604L68.7908 22.4625C70.981 25.158 72.4743 28.4525 72.7729 32.0466H69.5873V34.9417H72.6734C72.3747 38.6356 70.8814 41.9301 68.6913 44.6256L67.3971 43.3278C66.7998 42.7288 65.9038 42.7288 65.3065 43.3278C64.7092 43.8269 64.7092 44.8253 65.3065 45.4243L66.6007 46.7221C64.0123 48.9184 60.7271 50.3161 57.0436 50.6156V47.4209H54.1566V50.6156C50.4732 50.3161 47.1879 48.8186 44.5 46.6223L45.7942 45.3244C46.3915 44.7254 46.3915 43.8269 45.7942 43.2279C45.1969 42.6289 44.3009 42.6289 43.7036 43.2279L42.509 44.4259C40.3188 41.8303 38.8255 38.5357 38.6264 34.8419H41.8121V31.9467H38.6264C38.9251 28.3527 40.3188 24.9584 42.6085 22.3627L43.8031 23.6605C44.4005 24.2595 45.2964 24.2595 45.8937 23.6605C46.4911 23.0615 46.4911 22.163 45.8937 21.564L44.6991 20.366C47.387 18.1697 50.6723 16.6722 54.2562 16.3727V19.5674H57.1432V16.3727Z" fill="#FEFEFE"/>
<path d="M58.4374 17.8702V20.8652H52.8624V17.8702C51.7674 18.0699 50.6723 18.3694 49.5772 18.8686C48.4821 19.2679 47.4866 19.8669 46.5906 20.4659L46.6902 20.5657C47.1879 21.0649 47.4866 21.8636 47.4866 22.5624C47.4866 23.2612 47.1879 24.0599 46.6902 24.5591C46.1924 25.0582 45.396 25.3577 44.6991 25.3577C44.0023 25.3577 43.3054 25.0582 42.7081 24.5591L42.509 24.4592C41.8121 25.3577 41.3143 26.3561 40.9161 27.4542C40.5179 28.5524 40.2193 29.5508 40.0202 30.7488H43.0067V36.3394H40.0202C40.2193 37.4376 40.5179 38.5358 40.9161 39.5341C41.3143 40.5325 41.8121 41.5308 42.509 42.4293L42.6085 42.3295C43.1063 41.8303 43.9027 41.5308 44.5996 41.5308C45.2964 41.5308 46.0929 41.8303 46.5906 42.3295C47.0884 42.8286 47.387 43.6273 47.387 44.3261C47.387 45.025 47.0884 45.8236 46.5906 46.3228L46.4911 46.4226C47.387 47.1215 48.3826 47.6206 49.4776 48.1198C50.5727 48.5191 51.5683 48.9185 52.7629 49.1181V46.1231H58.3378V49.1181C59.4329 48.9185 60.528 48.619 61.5235 48.2196C62.519 47.8203 63.5146 47.2213 64.4105 46.6223L64.2114 46.4226C63.7137 45.9235 63.415 45.1248 63.415 44.426C63.415 43.7271 63.7137 42.9285 64.2114 42.4293C64.7092 41.9301 65.5056 41.6306 66.2025 41.6306C66.8993 41.6306 67.5962 41.9301 68.1935 42.4293L68.3926 42.629C69.0895 41.7305 69.5873 40.7321 70.085 39.634C70.5828 38.5358 70.8815 37.4376 71.0806 36.3394H67.9944V30.7488H71.0806C70.8815 29.6506 70.5828 28.5524 70.1846 27.5541C69.7864 26.4559 69.1891 25.4576 68.5917 24.5591L68.3926 24.7587C67.8949 25.2579 67.0985 25.5574 66.4016 25.5574C65.7047 25.5574 64.9083 25.2579 64.4105 24.7587C63.9128 24.2596 63.6141 23.4609 63.6141 22.7621C63.6141 22.0632 63.9128 21.3644 64.4105 20.7654L64.6096 20.5657C63.7137 19.8669 62.7181 19.3677 61.6231 18.9684C60.6275 18.3694 59.5325 18.0699 58.4374 17.8702ZM58.1387 20.6656V17.5707H58.3378C59.5325 17.7704 60.7271 18.0699 61.8222 18.5691C62.9172 19.0682 64.0123 19.5674 65.0079 20.2662L65.1074 20.3661L64.7092 20.8652C64.2114 21.3644 64.0123 21.9634 64.0123 22.6622C64.0123 23.3611 64.311 23.9601 64.7092 24.4592C65.207 24.9584 65.8043 25.1581 66.5011 25.1581C67.0985 25.1581 67.7953 24.8586 68.2931 24.4592L68.6913 23.9601L68.7908 24.0599C69.4877 25.0582 70.085 26.1564 70.4832 27.2546C70.981 28.3527 71.2797 29.5508 71.4788 30.7488V30.9484H68.3926V35.9401H71.4788V36.1398C71.2797 37.3378 70.981 38.5358 70.4832 39.634C69.9855 40.7321 69.3882 41.8303 68.6913 42.8286L68.5917 42.9285L68.1935 42.5291C67.6958 42.03 67.0985 41.8303 66.4016 41.8303C65.7047 41.8303 65.1074 42.1298 64.6096 42.5291C64.1119 43.0283 63.9128 43.6273 63.9128 44.3261C63.9128 44.9251 64.2114 45.624 64.6096 46.1231L65.0079 46.5225L64.9083 46.6223C63.9128 47.3211 62.9172 47.9201 61.8222 48.3195C60.7271 48.8186 59.5325 49.1181 58.3378 49.3178H58.1387V46.223H53.0615V49.3178H52.8624C51.6678 49.1181 50.4732 48.8186 49.3781 48.3195C48.283 47.8203 47.1879 47.2213 46.1924 46.5225L46.0929 46.4226L46.4911 46.0233C46.9888 45.5241 47.1879 44.9251 47.1879 44.2263C47.1879 43.5275 46.8893 42.9285 46.4911 42.4293C45.9933 41.9301 45.396 41.7305 44.6991 41.7305C44.1018 41.7305 43.4049 42.03 42.9072 42.4293L42.509 42.8286L42.4094 42.7288C41.7125 41.7305 41.1152 40.6323 40.717 39.5341C40.2193 38.4359 39.9206 37.2379 39.7215 36.1398V35.9401H42.8076V30.9484H39.7215V30.7488C39.9206 29.5508 40.2193 28.3527 40.717 27.2546C41.2148 26.1564 41.8121 25.0582 42.509 24.0599L42.6085 23.9601L43.0067 24.3594C43.5045 24.8586 44.1018 25.0582 44.7987 25.0582C45.4955 25.0582 46.0929 24.7587 46.5906 24.3594C47.0884 23.9601 47.2875 23.2612 47.2875 22.5624C47.2875 21.9634 46.9888 21.2646 46.5906 20.7654L46.1924 20.3661L46.292 20.2662C47.2875 19.5674 48.3826 18.9684 49.4776 18.4692C50.5727 17.9701 51.7674 17.6706 52.962 17.4709H53.1611V20.5657H58.1387V20.6656Z" fill="#141515"/>
<path fill-rule="evenodd" clip-rule="evenodd" d="M18.5168 56.5058C18.4172 56.5058 18.3177 56.5058 18.2181 56.5058H15.3311C15.2315 56.5058 15.132 56.5058 15.0324 56.5058H11.7472V52.9118L11.6476 50.1165L10.9508 53.3112L10.3535 56.406H7.36689H7.46644C7.36689 56.406 7.26734 56.406 7.16778 56.406H4.28076C4.18121 56.406 4.18121 56.406 4.08166 56.406H4.18121H0L0.895973 52.1132L7.36689 19.6672H21.2047L21.5034 30.1498L25.8837 19.7671H40.1197L33.4497 53.3112C33.4497 53.411 33.4497 53.411 33.4497 53.5108L32.8523 56.5058H29.8658C29.7662 56.5058 29.6667 56.5058 29.5671 56.5058H26.6801C26.5805 56.5058 26.481 56.5058 26.3814 56.5058H22.3993L23.2953 52.3128L23.7931 50.0167L22.1007 54.01C22.0011 54.2097 21.9016 54.5092 21.7025 54.7088V54.9085L20.906 56.5058H18.5168ZM10.8512 53.9102C10.8512 54.01 10.7517 54.01 10.7517 54.1098C10.7517 54.01 10.8512 53.9102 10.8512 53.9102ZM7.96421 56.406C7.86465 56.406 7.86465 56.406 7.7651 56.406C7.86465 56.406 7.86465 56.406 7.96421 56.406ZM7.7651 56.406C7.66555 56.406 7.66555 56.406 7.56599 56.406C7.66555 56.5058 7.66555 56.5058 7.7651 56.406ZM33.0515 54.3095C33.0515 54.4093 33.0514 54.4093 32.9519 54.4093C33.0514 54.4093 33.0515 54.4093 33.0515 54.3095ZM30.3635 56.406H30.264H30.1644H30.0649H29.9653H29.8658" fill="#CB0002"/>
<path fill-rule="evenodd" clip-rule="evenodd" d="M19.6118 39.1348L27.0783 21.6639H37.6308L31.359 52.9118C31.1599 53.8103 30.3635 54.5091 29.4675 54.5091H26.5805C25.4854 54.5091 24.7886 53.6106 24.9877 52.6123L29.0693 32.1464L20.1096 53.2113C19.9105 53.7105 19.5123 54.1098 19.1141 54.3095C18.8154 54.5092 18.5168 54.609 18.1185 54.609H15.2315C14.8333 54.609 14.5346 54.5092 14.236 54.3095C13.8378 54.01 13.5391 53.5108 13.5391 52.9118L13.0414 32.8452L9.05926 53.1115C8.86015 54.01 8.06373 54.7088 7.16776 54.7088H4.28073C3.18566 54.7088 2.48879 53.8103 2.68789 52.812L8.86015 21.8635H19.2136L19.6118 39.1348Z" fill="#FEFEFE"/>
<path fill-rule="evenodd" clip-rule="evenodd" d="M4.28079 53.6107H7.16782C7.66558 53.6107 8.06379 53.3112 8.16334 52.812L13.3401 26.5557H13.9374L14.6343 52.812C14.6343 53.1115 14.8334 53.3111 15.0325 53.5108C15.132 53.6107 15.2316 53.6107 15.4307 53.6107H15.5302H18.3177H18.4173C18.6164 53.6107 18.7159 53.6107 18.915 53.5108C19.2137 53.3111 19.4128 53.1115 19.5123 52.812L30.7618 26.5557H31.5582L26.3815 52.812C26.2819 53.3112 26.5806 53.6107 26.9788 53.6107H29.8658C30.3636 53.6107 30.7618 53.3112 30.8613 52.812L36.8345 22.6622H32.5537H32.4542H28.1734L19.2137 43.6273L18.7159 22.6622H14.5347H14.2361H9.65663L3.68348 52.812C3.58393 53.2113 3.88258 53.6107 4.28079 53.6107Z" fill="#141515"/>
<path fill-rule="evenodd" clip-rule="evenodd" d="M59.2338 43.7272C60.0302 43.0283 60.9262 42.8287 61.9217 42.8287C63.0168 42.8287 64.1119 43.0283 64.9083 43.7272C65.6051 44.426 66.0034 45.2247 66.0034 46.223V46.9218L63.415 47.1215C63.8132 47.3212 64.2114 47.5208 64.4105 47.8203C65.0078 48.4193 65.3065 49.1182 65.3065 50.0167C65.3065 50.6157 65.1074 51.2147 64.8087 51.7139C64.4105 52.3129 63.9128 52.7122 63.3154 53.0117C62.6186 53.3112 61.8222 53.411 61.1253 53.411C60.0302 53.411 59.0347 53.1115 58.1387 52.5125C57.1432 51.8137 56.745 50.6157 56.8445 49.5175V48.8187L59.7315 48.7188C59.632 48.619 59.632 48.619 59.5324 48.619C59.1342 48.3195 58.736 48.02 58.4374 47.6207C58.1387 47.2213 58.0392 46.822 58.0392 46.3228L57.9396 46.4227L57.3423 45.9235C57.2427 45.8237 57.0436 45.7238 56.9441 45.7238C56.5459 45.7238 56.0481 46.1232 55.849 46.4227C55.2517 47.1215 54.953 48.4193 54.7539 49.218L53.8579 53.3112H50.9709L53.0615 43.1282H55.849L55.7494 43.3278C56.1477 43.0283 56.6454 42.9285 57.1432 42.9285C57.6409 42.9285 58.1387 43.1282 58.5369 43.3278L59.1342 43.6273L59.2338 43.7272ZM59.8311 48.7188V49.4177C59.8311 49.7172 59.8311 50.0167 59.9307 50.2163C60.0302 50.416 60.1298 50.5158 60.3289 50.6157C60.6275 50.7155 60.9262 50.8153 61.2248 50.8153C61.5235 50.8153 62.0213 50.8153 62.2204 50.5158C62.3199 50.416 62.4195 50.3162 62.4195 50.1165C62.4195 50.0167 62.3199 49.9168 62.3199 49.817C62.1208 49.6173 61.3244 49.3178 61.1253 49.1182C60.8266 49.218 60.3289 49.0183 59.8311 48.7188ZM63.2159 47.1215V46.5225C63.2159 46.223 63.1163 46.0233 62.9172 45.8237C62.6186 45.624 62.2204 45.5242 61.9217 45.5242C61.7226 45.5242 61.3244 45.5242 61.2248 45.7238C61.1253 45.8237 61.0257 45.9235 61.0257 45.9235C61.0257 46.0233 61.1253 46.0233 61.1253 46.1232C61.3244 46.3228 61.9217 46.6223 62.2204 46.7222C62.519 46.7222 62.9172 46.9218 63.2159 47.1215ZM43.0067 45.4243C43.2058 45.1248 43.4049 44.8253 43.7036 44.5258C44.6991 43.4277 45.9933 42.9285 47.4866 42.9285C48.6812 42.9285 49.6767 43.228 50.5727 44.1265C51.4687 45.025 51.7673 46.1232 51.7673 47.3212C51.7673 48.4193 51.5682 49.4177 51.0705 50.416C50.5727 51.4144 49.9754 52.1132 49.0794 52.7122C48.283 53.2114 47.2875 53.5109 46.2919 53.5109C45.4955 53.5109 44.7987 53.3112 44.1018 53.0117C43.4049 52.6124 42.9072 52.1132 42.509 51.5142C42.3098 51.2147 42.2103 50.9152 42.1107 50.6157L41.613 53.3112L41.1152 53.411C40.717 53.5109 40.3188 53.6107 39.9206 53.6107C39.2237 53.6107 38.6264 53.411 38.0291 53.0117C37.6309 52.6124 37.3322 52.1132 37.3322 51.5142C37.3322 51.1148 37.4318 50.416 37.5313 50.0167L38.4273 45.8237H37.2327L37.7304 43.228H38.9251L39.3233 41.3312L41.3143 40.1332H39.821L41.9116 29.9501H44.8982L42.7081 40.1332H42.509L41.8121 43.1282H43.3054L43.0067 45.4243ZM42.9072 45.624H41.5134L40.6175 49.9168C40.6175 50.1165 40.5179 50.416 40.5179 50.7155C40.717 50.7155 40.9161 50.7155 41.1152 50.6157L42.2103 50.3162C42.1107 49.9168 42.1107 49.5175 42.1107 49.1182C42.0112 48.02 42.2103 46.7222 42.9072 45.624ZM42.1107 29.6506L42.8076 26.5558H45.7942L45.0973 29.6506H42.1107ZM48.6812 30.2496C48.7808 30.1498 48.7808 30.1498 48.8803 30.1498C49.4776 29.8503 50.1745 29.6506 50.7718 29.6506C51.5682 29.6506 52.3647 29.8503 52.962 30.4493C53.5593 31.0483 53.7584 31.7471 53.7584 32.5458C53.7584 33.045 53.6588 33.7438 53.5593 34.243L52.2651 40.1332H49.2785L50.7718 33.7438C50.8714 33.4443 50.8714 33.045 50.8714 32.6456C50.8714 32.5458 50.8714 32.5458 50.7718 32.5458C50.6723 32.446 50.4732 32.446 50.3736 32.446C49.7763 32.446 49.2785 32.6456 48.7808 33.1448C48.1834 33.7438 47.8848 34.7421 47.6857 35.5408L46.6902 40.233H43.7036L45.7942 30.05H48.6812V30.2496ZM55.3512 29.6506L56.0481 26.5558H59.0347L58.3378 29.6506H55.3512ZM53.1611 40.0333L55.2517 29.8503H58.2383L56.1477 40.0333H53.1611ZM44.8982 49.1182C44.8982 49.6173 44.9978 50.1165 45.2964 50.5158C45.5951 50.8153 45.8937 50.9152 46.2919 50.9152C46.4911 50.9152 46.7897 50.8153 46.9888 50.8153C47.2875 50.7155 47.4866 50.5158 47.6857 50.3162C47.8848 50.1165 48.0839 49.817 48.283 49.6173C48.4821 49.4177 48.5817 49.0183 48.6812 48.7188C48.7808 48.3195 48.8803 47.8203 48.8803 47.3212C48.8803 46.822 48.7808 46.3228 48.4821 46.0233C48.1834 45.7238 47.8848 45.624 47.4866 45.624C47.1879 45.624 46.7897 45.7238 46.5906 45.8237C46.2919 46.0233 45.9933 46.3228 45.7942 46.6223C45.4955 47.0217 45.2964 47.421 45.1969 47.9202C44.9978 48.2197 44.8982 48.619 44.8982 49.1182Z" fill="#FEFEFE"/>
<path d="M43.0067 28.8519L43.4049 27.1547H44.8982L44.5 28.8519H43.0067ZM40.9161 39.3344L42.708 30.5491H44.2013L42.4094 39.3344H40.9161ZM44.5995 39.3344L46.491 30.5491H47.8848L47.5861 32.0466C48.1834 31.4476 48.6812 31.0482 49.2785 30.7487C49.8758 30.4492 50.3736 30.3494 50.8713 30.3494C51.5682 30.3494 52.1655 30.5491 52.5637 30.9484C52.9619 31.3477 53.161 31.8469 53.161 32.4459C53.161 32.7454 53.0615 33.3444 52.9619 33.9434L51.7673 39.2346H50.274L51.4686 33.6439C51.5682 33.1447 51.6678 32.7454 51.6678 32.4459C51.6678 32.1464 51.5682 31.9467 51.3691 31.7471C51.17 31.5474 50.8713 31.4476 50.4731 31.4476C49.6767 31.4476 48.9798 31.7471 48.3825 32.2462C47.7852 32.7454 47.2874 33.7437 47.0883 35.0416L46.1924 39.1348H44.5995V39.3344ZM56.2472 28.8519L56.5458 27.1547H58.0391L57.7405 28.8519H56.2472ZM54.057 39.3344L55.9485 30.5491H57.4418L55.5503 39.3344H54.057ZM41.2147 51.3145L40.9161 52.5125C40.5179 52.6123 40.2192 52.6123 39.821 52.6123C39.2237 52.6123 38.7259 52.5125 38.4273 52.213C38.1286 52.0133 38.0291 51.7138 38.0291 51.3145C38.0291 51.1148 38.1286 50.7155 38.2282 50.0166L39.3232 44.9251H38.1286L38.3277 43.8269H39.5223L40.0201 41.6306L41.7125 40.6323L41.0156 43.8269H42.5089L42.3098 44.9251H40.8165L39.821 49.817C39.7214 50.416 39.6219 50.8153 39.6219 50.9151C39.6219 51.1148 39.7214 51.2146 39.7214 51.3145C39.821 51.4143 40.0201 51.4143 40.2192 51.4143C40.717 51.5141 41.0156 51.4143 41.2147 51.3145ZM42.708 49.218C42.708 47.5208 43.2058 46.1231 44.2013 45.0249C44.9977 44.1264 46.0928 43.6273 47.4865 43.6273C48.5816 43.6273 49.378 43.9268 49.9754 44.6256C50.6722 45.3244 50.9709 46.1231 50.9709 47.3211C50.9709 48.3195 50.7718 49.218 50.3736 50.1165C49.9754 51.015 49.378 51.614 48.6812 52.1131C47.8848 52.6123 47.1879 52.812 46.2919 52.812C45.595 52.812 44.9977 52.6123 44.4004 52.3128C43.8031 52.0133 43.4049 51.614 43.1062 51.1148C42.9071 50.6156 42.708 49.9168 42.708 49.218ZM44.2013 49.1181C44.2013 49.9168 44.4004 50.6156 44.7986 51.015C45.1968 51.4143 45.6946 51.614 46.2919 51.614C46.5906 51.614 46.9888 51.5141 47.2874 51.4143C47.5861 51.3145 47.8848 51.1148 48.1834 50.8153C48.4821 50.5158 48.6812 50.2163 48.8803 49.9168C49.0794 49.6173 49.1789 49.218 49.378 48.8186C49.5771 48.3195 49.6767 47.7204 49.6767 47.2213C49.6767 46.4226 49.4776 45.8236 49.0794 45.4243C48.6812 44.9251 48.1834 44.7254 47.5861 44.7254C47.0883 44.7254 46.6901 44.8253 46.2919 45.0249C45.8937 45.2246 45.595 45.6239 45.1968 46.0233C44.7986 46.4226 44.6991 46.9218 44.5 47.5208C44.3009 48.1198 44.2013 48.619 44.2013 49.1181ZM51.8669 52.6123L53.6588 43.8269H54.953L54.5548 45.6239C55.0525 44.9251 55.4508 44.4259 55.849 44.1264C56.2472 43.8269 56.7449 43.6273 57.1431 43.6273C57.4418 43.6273 57.84 43.7271 58.2382 43.9268L57.6409 45.3244C57.3423 45.1248 57.0436 45.0249 56.7449 45.0249C56.2472 45.0249 55.6499 45.3244 55.1521 45.9234C54.5548 46.5224 54.1566 47.5208 53.8579 49.0183L53.161 52.5125H51.8669V52.6123ZM57.6409 49.6173L59.1342 49.5175C59.1342 49.9168 59.2337 50.3161 59.3333 50.6156C59.4329 50.9151 59.7315 51.1148 60.0302 51.3145C60.4284 51.5141 60.8266 51.614 61.3244 51.614C62.0212 51.614 62.4194 51.5141 62.8176 51.2146C63.1163 50.9151 63.3154 50.6156 63.3154 50.3161C63.3154 50.0166 63.2159 49.817 63.0167 49.6173C62.8176 49.4176 62.3199 49.1181 61.5235 48.7188C60.727 48.4193 60.2293 48.1198 60.0302 48.0199C59.632 47.8203 59.3333 47.5208 59.1342 47.2213C58.9351 46.9218 58.8355 46.5224 58.8355 46.1231C58.8355 45.4243 59.1342 44.8253 59.632 44.3261C60.1297 43.8269 60.9261 43.6273 61.9217 43.6273C63.0167 43.6273 63.8132 43.9268 64.4105 44.4259C65.0078 44.9251 65.3065 45.6239 65.3065 46.4226L63.8132 46.5224C63.8132 46.0233 63.6141 45.6239 63.2159 45.2246C62.9172 44.9251 62.3199 44.7254 61.7226 44.7254C61.2248 44.7254 60.8266 44.8253 60.5279 45.1248C60.2293 45.4243 60.1297 45.6239 60.1297 45.9234C60.1297 46.2229 60.2293 46.4226 60.5279 46.6223C60.6275 46.7221 61.1252 46.9218 61.8221 47.3211C62.9172 47.8203 63.7136 48.2196 64.0123 48.5191C64.51 49.0183 64.7091 49.5175 64.7091 50.2163C64.7091 50.7155 64.6096 51.1148 64.3109 51.5141C64.0123 51.9135 63.6141 52.3128 63.1163 52.5125C62.6185 52.812 61.9217 52.9118 61.2248 52.9118C60.2293 52.9118 59.3333 52.6123 58.6364 52.1131C57.9396 51.5141 57.6409 50.7155 57.6409 49.6173Z" fill="#141515"/>
<path d="M35.4407 11.98L32.9519 8.78536L33.8479 7.98669L36.1376 9.68386L34.943 6.98835L35.9385 6.28952L38.4273 9.48419L37.83 9.98336L35.8389 7.48752L37.1331 10.4825L36.6353 10.9817L34.047 8.98502L36.038 11.4809L35.4407 11.98ZM39.1242 9.08486L36.934 5.69052L37.6309 5.29118L39.821 8.68552L39.1242 9.08486ZM40.5179 8.18636L38.6264 4.59235L39.3233 4.19301L42.0112 5.89018L40.8166 3.49418L41.5134 3.09484L43.4049 6.68885L42.7081 7.08819L40.0201 5.49085L41.2148 7.88686L40.5179 8.18636ZM44.2013 6.38935L42.7081 2.59567L43.5045 2.29617L44.9978 6.08985L44.2013 6.38935ZM45.5951 5.79035L44.5 1.89684L45.6946 1.59734L47.1879 3.99334L47.0884 1.09817L48.283 0.798669L49.3781 4.69218L48.6812 4.89185L47.7852 1.797L47.8848 5.09151L47.0884 5.29118L45.396 2.39601L46.2919 5.49085L45.5951 5.79035ZM49.7763 2.59567C49.6767 2.19634 49.7763 1.797 49.8758 1.4975C49.9754 1.29784 50.0749 1.09817 50.1745 0.898502C50.2741 0.698835 50.4732 0.599002 50.6723 0.499168C50.9709 0.399334 51.17 0.299501 51.5682 0.199667C52.1656 0.0998336 52.6633 0.199667 53.0615 0.599002C53.4597 0.898503 53.7584 1.39767 53.7584 2.09651C53.8579 2.79534 53.7584 3.29451 53.4597 3.69384C53.1611 4.09318 52.6633 4.39268 52.066 4.39268C51.4687 4.49251 50.9709 4.29285 50.5727 3.99334C50.0749 3.69384 49.8758 3.19468 49.7763 2.59567ZM50.6723 2.49584C50.7718 2.99501 50.8714 3.29451 51.17 3.49418C51.4687 3.69384 51.6678 3.79368 52.066 3.79368C52.3647 3.79368 52.6633 3.59401 52.8624 3.29451C53.0615 2.99501 53.0615 2.69551 53.0615 2.19634C52.962 1.69717 52.8624 1.39767 52.6633 1.198C52.4642 0.998336 52.1656 0.898502 51.7673 0.898502C51.4687 0.998336 51.17 1.09817 50.9709 1.39767C50.6723 1.59734 50.5727 1.99667 50.6723 2.49584ZM55.5503 4.09318L55.6499 0.698835H54.4553V0L57.7405 0.0998336V0.798669H56.5459L56.4463 4.19301L55.5503 4.09318ZM58.1387 2.19634C58.2383 1.797 58.3378 1.4975 58.4374 1.198C58.5369 0.998336 58.736 0.798669 58.8356 0.698835C59.0347 0.599002 59.2338 0.399334 59.4329 0.399334C59.7315 0.299501 60.0302 0.299501 60.3289 0.299501C60.9262 0.399334 61.3244 0.599002 61.7226 0.998336C62.0213 1.39767 62.1208 1.99667 62.0213 2.59567C61.9217 3.29451 61.7226 3.69384 61.3244 4.09318C60.9262 4.39268 60.4284 4.49251 59.8311 4.49251C59.2338 4.39268 58.736 4.19301 58.4374 3.79368C58.1387 3.29451 58.0392 2.79534 58.1387 2.19634ZM58.9351 2.29617C58.8356 2.79534 58.9351 3.09484 59.1342 3.39434C59.3333 3.69384 59.632 3.79368 59.9307 3.89351C60.2293 3.99334 60.528 3.89351 60.8266 3.59401C61.0257 3.39434 61.2248 3.09484 61.3244 2.59567C61.4239 2.09651 61.3244 1.797 61.1253 1.4975C60.9262 1.198 60.7271 1.09817 60.4284 0.998336C60.1298 0.998336 59.8311 0.998336 59.5324 1.29784C59.1342 1.4975 59.0347 1.797 58.9351 2.29617ZM62.4195 4.89185L63.5145 0.998336L65.2069 1.4975C65.6051 1.59734 65.9038 1.797 66.1029 1.89684C66.302 1.99667 66.4016 2.19634 66.5011 2.39601C66.6007 2.59567 66.6007 2.79534 66.5011 3.09484C66.4016 3.39434 66.2025 3.59401 66.0034 3.79368C65.8043 3.89351 65.5056 3.99334 65.1074 3.89351C65.2069 4.09318 65.3065 4.19301 65.406 4.39268C65.5056 4.59235 65.6051 4.79201 65.7047 5.19135L66.0034 6.08985L65.0078 5.79035L64.7092 4.79201C64.6096 4.49251 64.5101 4.19301 64.4105 4.09318C64.311 3.99334 64.311 3.89351 64.2114 3.89351C64.1119 3.79368 64.0123 3.79368 63.8132 3.69384H63.6141L63.1163 5.29118L62.4195 4.89185ZM63.8132 2.89517L64.4105 2.99501C64.8087 3.09484 65.0078 3.09484 65.1074 3.09484C65.2069 3.09484 65.3065 3.09484 65.406 2.99501C65.5056 2.89517 65.5056 2.89517 65.5056 2.69551C65.6052 2.59567 65.6052 2.39601 65.5056 2.39601C65.406 2.29617 65.406 2.19634 65.2069 2.09651C65.1074 2.09651 64.9083 1.99667 64.6096 1.89684L64.0123 1.69717L63.8132 2.89517ZM66.7002 4.79201L67.4967 5.09151C67.3971 5.39101 67.3971 5.59068 67.4967 5.79035C67.4967 5.89018 67.6957 5.99002 67.8949 6.18968C68.094 6.38935 68.2931 6.28952 68.4922 6.28952C68.6913 6.18968 68.7908 6.08985 68.8904 5.99002C68.8904 5.89018 68.8904 5.79035 68.8904 5.69052C68.8904 5.59068 68.7908 5.49085 68.6913 5.39102C68.5917 5.29118 68.4922 5.19135 68.1935 4.99168C67.8949 4.69218 67.5962 4.49251 67.4967 4.29285C67.3971 3.99334 67.3971 3.69384 67.4967 3.39434C67.5962 3.09484 67.6957 2.99501 67.8949 2.89517C68.094 2.79534 68.2931 2.69551 68.5917 2.69551C68.7908 2.69551 69.0895 2.79534 69.3881 2.89517C69.8859 3.09484 70.1846 3.39434 70.2841 3.69384C70.3837 3.99334 70.3837 4.39268 70.2841 4.69218L69.4877 4.39268C69.5873 4.19301 69.5873 3.99334 69.4877 3.89351C69.3881 3.79368 69.2886 3.59401 69.0895 3.59401C68.8904 3.49418 68.6913 3.49418 68.4922 3.49418C68.3926 3.49418 68.2931 3.59401 68.2931 3.69384C68.2931 3.79368 68.2931 3.89351 68.2931 3.99334C68.3926 4.09318 68.4922 4.29285 68.8904 4.59235C69.189 4.89185 69.3881 5.09151 69.5872 5.19135C69.5872 5.19135 69.6868 5.39101 69.6868 5.59068C69.6868 5.79035 69.6868 5.99002 69.5872 6.28952C69.4877 6.48918 69.2886 6.68885 69.0895 6.78869C68.9899 6.98835 68.6913 6.98835 68.4922 6.98835C68.2931 6.98835 67.9944 6.88852 67.5962 6.78869C67.0984 6.58902 66.7998 6.28952 66.7002 5.99002C66.5011 5.59068 66.5011 5.19135 66.7002 4.79201ZM71.6779 7.28785L72.3747 7.68719C72.2752 7.98669 72.2752 8.18636 72.2752 8.38602C72.3747 8.58569 72.4743 8.78536 72.6734 8.88519C72.8725 8.98502 73.0716 9.08486 73.2707 9.08486C73.4698 9.08486 73.5694 8.98502 73.6689 8.88519C73.6689 8.78536 73.7685 8.68552 73.6689 8.58569C73.6689 8.48586 73.6689 8.38602 73.5694 8.28619C73.4698 8.18636 73.3703 7.98669 73.0716 7.78702C72.8725 7.38769 72.6734 7.18802 72.6734 6.88852C72.5738 6.58902 72.6734 6.28952 72.8725 5.99002C72.972 5.79035 73.1711 5.69052 73.3702 5.59068C73.5694 5.49085 73.7685 5.49085 74.0671 5.59068C74.2662 5.59068 74.5649 5.69052 74.764 5.89018C75.1622 6.18968 75.4609 6.48918 75.4609 6.78869C75.5604 7.08819 75.4608 7.48752 75.2617 7.78702L74.5649 7.28785C74.6644 7.18802 74.6644 7.08819 74.6644 6.88852C74.5649 6.78869 74.4653 6.58902 74.3658 6.48918C74.1667 6.38935 73.9676 6.28952 73.868 6.28952C73.7685 6.28952 73.6689 6.38935 73.5694 6.38935C73.4698 6.48918 73.4698 6.58902 73.4698 6.68885C73.5694 6.78869 73.6689 7.08819 73.9676 7.38769C74.2662 7.68719 74.4653 7.98669 74.5649 8.18636C74.6644 8.38602 74.6644 8.58569 74.6644 8.78536C74.6644 8.98502 74.5649 9.18469 74.4653 9.38436C74.3658 9.58403 74.1667 9.68386 73.9676 9.78369C73.7685 9.88353 73.4698 9.88353 73.2707 9.78369C72.972 9.68386 72.7729 9.58403 72.4743 9.38436C72.0761 9.08486 71.7774 8.78536 71.7774 8.38602C71.3792 8.08652 71.4787 7.68719 71.6779 7.28785ZM74.1667 10.6822L76.8546 7.58735L77.4519 8.08652L74.764 11.1814L74.1667 10.6822ZM75.4609 11.6805L78.3479 8.88519L78.9452 9.48419L78.1488 12.579L80.1398 10.6822L80.6376 11.1814L77.651 13.9767L77.0537 13.3777L77.8501 10.3827L75.9586 12.2795L75.4609 11.6805ZM81.0358 15.9734L81.3344 16.772C80.9362 16.9717 80.538 16.9717 80.1398 16.8719C79.8412 16.772 79.443 16.5724 79.2438 16.173C78.9452 15.7737 78.8456 15.2745 78.9452 14.7754C79.0447 14.2762 79.3434 13.8769 79.8412 13.4775C80.4385 13.0782 80.9362 12.9784 81.434 12.9784C81.9318 12.9784 82.33 13.2779 82.7282 13.777C83.0268 14.1764 83.1264 14.5757 83.0268 15.0749C83.0268 15.3744 82.9273 15.574 82.6286 15.8735L82.0313 15.3744C82.1309 15.1747 82.2304 15.0749 82.2304 14.8752C82.2304 14.6755 82.2304 14.4759 82.0313 14.2762C81.8322 14.0765 81.6331 13.8769 81.3344 13.8769C81.0358 13.8769 80.7371 13.9767 80.3389 14.2762C79.9407 14.5757 79.6421 14.8752 79.6421 15.1747C79.5425 15.4742 79.6421 15.6739 79.8412 15.9734C79.9407 16.173 80.1398 16.2729 80.3389 16.2729C80.4385 16.0732 80.7371 16.0732 81.0358 15.9734ZM80.6376 18.0699L84.1219 15.9734L85.6152 18.5691L85.0179 18.9684L83.9228 17.0715L83.1264 17.5707L84.1219 19.3677L83.6242 19.6672L82.6286 17.8702L81.6331 18.3694L82.7282 20.3661L82.1309 20.6656L80.6376 18.0699ZM83.5246 24.6589L83.3255 23.9601L86.113 22.9617C85.8143 22.7621 85.4161 22.5624 85.217 22.1631L85.9139 21.9634C86.0134 22.1631 86.2125 22.2629 86.5112 22.4626C86.7103 22.6622 87.0089 22.7621 87.3076 22.7621L87.5067 23.3611L83.5246 24.6589ZM84.8188 25.5574L85.1175 26.2562C85.0179 26.3561 84.8188 26.3561 84.8188 26.4559C84.8188 26.5557 84.7192 26.6556 84.8188 26.7554C84.8188 26.9551 84.9183 27.0549 85.1175 27.1547C85.3166 27.2546 85.6152 27.2546 86.0134 27.1547C85.7148 27.0549 85.6152 26.7554 85.5157 26.4559C85.4161 26.1564 85.5157 25.8569 85.7148 25.5574C85.9139 25.2579 86.2125 25.0582 86.6107 24.9584C87.0089 24.8586 87.4072 24.9584 87.7058 25.0582C88.0045 25.2579 88.2036 25.5574 88.3031 25.8569C88.4027 26.2562 88.3031 26.6556 88.0045 26.9551C87.7058 27.2546 87.3076 27.5541 86.5112 27.6539C85.8143 27.8536 85.217 27.7537 84.8188 27.5541C84.4206 27.3544 84.2215 27.0549 84.1219 26.6556C84.0224 26.3561 84.1219 26.0566 84.2215 25.8569C84.321 25.6572 84.5201 25.6572 84.8188 25.5574ZM86.9094 26.8552C87.1085 26.7554 87.3076 26.6556 87.4072 26.5557C87.5067 26.4559 87.5067 26.2562 87.5067 26.1564C87.5067 26.0566 87.4072 25.8569 87.2081 25.8569C87.1085 25.7571 86.9094 25.7571 86.6107 25.8569C86.3121 25.9567 86.2125 25.9567 86.113 26.1564C86.0134 26.2562 86.0134 26.4559 86.0134 26.5557C86.113 26.6556 86.113 26.8552 86.3121 26.8552C86.5112 26.9551 86.7103 26.9551 86.9094 26.8552ZM85.5157 28.7521L85.7148 29.4509C85.5157 29.5507 85.4161 29.5507 85.4161 29.6506C85.3166 29.7504 85.3166 29.8502 85.3166 29.9501C85.3166 30.1497 85.4161 30.2496 85.6152 30.3494C85.7148 30.4492 86.113 30.4493 86.5112 30.4493C86.2125 30.2496 86.113 30.0499 86.113 29.7504C86.0134 29.4509 86.113 29.1514 86.4116 28.8519C86.6107 28.5524 86.9094 28.4526 87.3076 28.3527C87.7058 28.3527 88.104 28.3527 88.3031 28.6522C88.6018 28.8519 88.8009 29.1514 88.8009 29.5507C88.9004 29.9501 88.7013 30.3494 88.5022 30.6489C88.2036 30.9484 87.7058 31.1481 87.0089 31.2479C86.3121 31.3478 85.7148 31.2479 85.3166 31.0483C84.9183 30.8486 84.7192 30.4493 84.7192 30.0499C84.7192 29.7504 84.7192 29.4509 84.9183 29.2512C84.9183 28.9517 85.217 28.8519 85.5157 28.7521ZM87.4072 30.2496C87.7058 30.2496 87.8054 30.1497 88.0045 29.9501C88.104 29.8502 88.2036 29.6506 88.104 29.5507C88.104 29.4509 88.0045 29.2512 87.9049 29.2512C87.8054 29.1514 87.6063 29.1514 87.3076 29.1514C87.0089 29.1514 86.9094 29.2512 86.8098 29.3511C86.7103 29.4509 86.7103 29.6506 86.7103 29.7504C86.7103 29.8502 86.8098 30.0499 86.9094 30.0499C87.009 30.2496 87.2081 30.3494 87.4072 30.2496ZM85.8143 31.9468L85.9139 32.7454C85.8143 32.7454 85.6152 32.8453 85.6152 32.8453C85.5157 32.9451 85.5157 33.0449 85.5157 33.1448C85.5157 33.3444 85.6152 33.4443 85.7148 33.5441C85.8143 33.6439 86.2125 33.7438 86.6107 33.7438C86.4116 33.5441 86.2125 33.3444 86.2125 33.0449C86.2125 32.7454 86.3121 32.4459 86.5112 32.2463C86.8098 31.9468 87.1085 31.8469 87.5067 31.8469C87.9049 31.8469 88.2036 31.9468 88.5022 32.1464C88.8009 32.3461 88.9005 32.6456 88.9005 33.0449C88.9005 33.4443 88.8009 33.8436 88.4027 34.1431C88.104 34.4426 87.5067 34.5424 86.8098 34.5424C86.113 34.5424 85.5157 34.4426 85.217 34.1431C84.9183 33.8436 84.7192 33.5441 84.7192 33.0449C84.7192 32.7454 84.8188 32.4459 84.9183 32.2463C85.217 32.1464 85.5157 32.0466 85.8143 31.9468ZM87.6063 33.7438C87.9049 33.7438 88.104 33.6439 88.2036 33.5441C88.3031 33.4443 88.4027 33.2446 88.4027 33.1448C88.4027 33.0449 88.3031 32.8453 88.2036 32.7454C88.104 32.6456 87.9049 32.6456 87.7058 32.6456C87.5067 32.6456 87.2081 32.7454 87.1085 32.8453C87.0089 32.9451 86.9094 33.0449 86.9094 33.2446C86.9094 33.3444 87.0089 33.5441 87.1085 33.6439C87.2081 33.6439 87.3076 33.7438 87.6063 33.7438Z" fill="#141515"/>
</svg>
